<svg xmlns="http://www.w3.org/2000/svg" xmlns:xlink="http://www.w3.org/1999/xlink" width="162.452" height="162.452" viewBox="0 0 162.452 162.452">
  <defs>
    <linearGradient id="linear-gradient" x1="0.118" y1="0.581" x2="1.1" y2="1" gradientUnits="objectBoundingBox">
      <stop offset="0" stop-color="#69f95f"/>
      <stop offset="1" stop-color="#15ce0e"/>
    </linearGradient>
  </defs>
  <g id="paper-plane" transform="translate(0 0)">
    <path id="Path_7303" data-name="Path 7303" d="M348.924,19l-62.883,90.777-6.555,9.462v31.773l23.895-23.353-12.2-22.78" transform="translate(-190.808 -12.972)" fill="#5bbd3d"/>
    <path id="Path_7304" data-name="Path 7304" d="M110.167,106.3,64,92.178,202.972,10V134.694l-69.486-21.258" transform="translate(-43.693 -6.827)" opacity="0.7" fill="url(#linear-gradient)"/>
    <path id="Path_7305" data-name="Path 7305" d="M234.336,151.013,213.353,112.82,303.774,19l-67.488,97.424Z" transform="translate(-145.658 -12.972)" fill="#50c53e"/>
    <path id="Path_7306" data-name="Path 7306" d="M197.717.417a3.173,3.173,0,0,0-3.187.025L136.385,34.824a3.173,3.173,0,0,0,3.23,5.462l41.718-24.669L103.627,96.244,64.979,84.42,115.417,54.6a3.173,3.173,0,0,0-3.23-5.462L55.558,82.619a3.173,3.173,0,0,0,.687,5.765L102.4,102.505l20.363,37.063a.753.753,0,0,0,.066.1,3.164,3.164,0,0,0,4.933.642l23.414-22.883L195.216,130.9a3.173,3.173,0,0,0,4.1-3.034V3.173A3.173,3.173,0,0,0,197.717.417ZM170,36.526l-47.06,67.935a3.174,3.174,0,0,0-.564,1.807v19.409l-13.9-25.309ZM128.717,130.5V110.556l15.544,4.756Zm1.908-26,62.347-90V123.578Z" transform="translate(-36.866 0)"/>
    <path id="Path_7307" data-name="Path 7307" d="M89.035,345.578a3.173,3.173,0,0,0-4.487,0L54.929,375.2a3.173,3.173,0,0,0,4.487,4.487l29.62-29.62A3.173,3.173,0,0,0,89.035,345.578Z" transform="translate(-36.866 -235.296)"/>
    <path id="Path_7308" data-name="Path 7308" d="M8.227,469.93l-7.3,7.3a3.173,3.173,0,1,0,4.487,4.487l7.3-7.3a3.173,3.173,0,1,0-4.487-4.487Z" transform="translate(0 -320.193)"/>
    <path id="Path_7309" data-name="Path 7309" d="M128.753,491.41a3.174,3.174,0,1,0,2.243.93A3.191,3.191,0,0,0,128.753,491.41Z" transform="translate(-85.735 -335.492)"/>
    <path id="Path_7310" data-name="Path 7310" d="M167.152,417.935l-15.689,15.688a3.173,3.173,0,1,0,4.487,4.487l15.689-15.688a3.173,3.173,0,1,0-4.487-4.487Z" transform="translate(-102.771 -284.695)"/>
    <path id="Path_7311" data-name="Path 7311" d="M337.714,414.14l-15.731,15.731a3.173,3.173,0,1,0,4.487,4.487L342.2,418.627a3.173,3.173,0,1,0-4.487-4.487Z" transform="translate(-219.187 -282.104)"/>
    <path id="Path_7312" data-name="Path 7312" d="M269.6,139.726a3.174,3.174,0,1,0-2.243-.93A3.183,3.183,0,0,0,269.6,139.726Z" transform="translate(-181.895 -91.06)"/>
  </g>
</svg>
