<?xml version="1.0" standalone="no"?>
<!DOCTYPE svg PUBLIC "-//W3C//DTD SVG 1.1//EN" "http://www.w3.org/Graphics/SVG/1.1/DTD/svg11.dtd" >
<svg>
<metadata>
Created by FontForge 20090914 at Sat May 23 15:10:26 2020
 By www-data
Generated by Fontographer 3.5
</metadata>
<defs>
<font id="NILKANTH" horiz-adv-x="10" >
  <font-face 
    font-family="NILKANTH"
    font-weight="400"
    font-stretch="normal"
    units-per-em="1000"
    panose-1="0 0 0 0 0 0 0 0 0 0"
    ascent="800"
    descent="-200"
    x-height="457"
    cap-height="695"
    bbox="-656.996 -303.002 1330 4647"
    underline-thickness="20"
    underline-position="-123"
    unicode-range="U+0020-U+2122"
  />
<missing-glyph horiz-adv-x="800" 
d="M50 0v800h700v-800h-700zM700 50v700h-600v-700h600z" />
    <glyph glyph-name=".notdef" horiz-adv-x="800" 
d="M50 0v800h700v-800h-700zM700 50v700h-600v-700h600z" />
    <glyph glyph-name="space" unicode=" " horiz-adv-x="280" 
 />
    <glyph glyph-name="exclam" unicode="!" horiz-adv-x="307" 
d="M273 167h-28c-4 37.333 -7 67 -9 89c-6.66699 72.667 -10 127 -10 163c0 6.66699 -0.666992 19.167 -2 37.5s-2 28.5 -2 30.5c0 16.667 2.66699 29.834 8 39.501s15.333 14.5 30 14.5s24.667 -4.5 30 -13.5s8 -21.833 8 -38.5c0 -8.66699 -0.833008 -21.334 -2.5 -38.001
s-2.5 -27 -2.5 -31c0 -40.667 -3.33301 -95 -10 -163c-2 -22 -5.33301 -52 -10 -90zM217 40c0 11.333 4 21.333 12 30s17.667 13 29 13s21 -4.33301 29 -13s12 -18.667 12 -30s-4 -20.666 -12 -27.999s-17.667 -11 -29 -11s-21 3.66699 -29 11s-12 16.666 -12 27.999z" />
    <glyph glyph-name="quotedbl" unicode="&#x22;" horiz-adv-x="316" 
d="M118 434c3.33301 6 6.33398 15.334 9.00098 28.001c0.666992 4 1.66699 9.66699 3 17c-10 2 -17.333 4.33301 -22 7c-14.667 8.66699 -22 22.667 -22 42c0 16 4.33301 28.667 13 38s21 14 37 14c19.333 0 33.333 -7.33301 42 -22s13 -32 13 -52
c0 -41.333 -18.333 -79 -55 -113c-12 -10.667 -30.333 -23.334 -55 -38.001l-20 35c5.33301 2.66699 9.66602 4.66699 12.999 6c21.333 11.333 36 24 44 38z" />
    <glyph glyph-name="numbersign" unicode="#" horiz-adv-x="309" 
d="M188 464c40.667 0 72.666 -18.666 95.999 -55.999c26.667 -42.667 40 -98.334 40 -167.001c0 -4 -0.333008 -9 -1 -15l80 44v-51l-269 -163l-50 42l195 104c-5.33301 49.333 -10.666 86 -15.999 110c-17.333 73.333 -42 110 -74 110c-25.333 0 -51.666 -25 -78.999 -75
c-8.66699 -16.667 -20 -41.667 -34 -75l-38 50c0 12.667 12.667 36.667 38 72c33.333 46.667 70.666 70 111.999 70z" />
    <glyph glyph-name="dollar" unicode="$" horiz-adv-x="445" 
d="M346 350c0 30.667 -17.002 51.999 -51.002 63.999c-22 8 -51.667 12 -89 12c-22.667 0 -46.667 -1.66699 -72 -5s-45.666 -7.66602 -60.999 -12.999v49c5.33301 2 26.333 5.33301 63 10s67.334 7 92.001 7c52 0 94 -9.33301 126 -28c36 -21.333 54 -52.333 54 -93
c0 -26.667 -11 -49.334 -33 -68.001c-28.667 -24.667 -54.667 -37 -78 -37c24 0 49.333 -11.667 76 -35c22.667 -20 34 -44.667 34 -74c0 -46.667 -30 -80.667 -90 -102c-20 -6.66699 -50.333 -12.667 -91 -18l162 -118l-46 -39l-272 225l49 34l69 -65
c16.667 -12.667 53 -4 109 26c32 17.333 48 38.333 48 63c0 22.667 -10.667 42.334 -32 59.001s-45.333 25 -72 25h-140v50h142c25.333 0 48.833 7.33301 70.5 22s32.5 31 32.5 49z" />
    <glyph glyph-name="percent" unicode="%" horiz-adv-x="726" 
d="M125 -50l425 557h53l-424 -557h-54zM55 353c0 35.333 12.333 65.333 37 90s54.667 37 90 37s65.333 -12.333 90 -37s37 -54.667 37 -90s-12.333 -65.333 -37 -90s-54.667 -37 -90 -37s-65.333 12.333 -90 37s-37 54.667 -37 90zM416 99c0 35.333 12.333 65.333 37 90
s54.667 37 90 37s65.333 -12.333 90 -37s37 -54.667 37 -90c0 -34.667 -12.333 -64.334 -37 -89.001s-54.667 -37 -90 -37c-34 0 -63.667 12.333 -89 37s-38 54.334 -38 89.001zM258 353c0 21.333 -7.49805 39.168 -22.498 53.501s-33.167 21.5 -54.5 21.5
c-20.667 0 -38.334 -7.33301 -53.001 -22s-22 -32.334 -22 -53.001c0 -21.333 7.16699 -39.5 21.5 -54.5s32.166 -22.5 53.499 -22.5s39.5 7.5 54.5 22.5s22.5 33.167 22.5 54.5zM619.002 99.002c0 21.333 -7.49805 39.168 -22.498 53.501s-33.167 21.5 -54.5 21.5
c-20.667 0 -38.334 -7.33301 -53.001 -22s-22 -32.334 -22 -53.001c0 -21.333 7.16699 -39.5 21.5 -54.5s32.166 -22.5 53.499 -22.5s39.5 7.5 54.5 22.5s22.5 33.167 22.5 54.5z" />
    <glyph glyph-name="ampersand" unicode="&#x26;" 
d="M-145 -39c39.333 0 72.835 -10.1689 100.502 -30.502s41.5 -49.166 41.5 -86.499c0 -48.667 -23.333 -86.334 -70 -113.001c-39.333 -22.667 -86.333 -34 -141 -34c-70 0 -131.333 16 -184 48c-56.667 34 -93.334 72.333 -110.001 115l53 23
c10.667 -35.333 39.167 -67.666 85.5 -96.999s98.833 -44 157.5 -44c34 0 67 9 99 27c36.667 20.667 55 44.667 55 72c0 28 -12.667 48 -38 60c-18.667 8.66699 -44 13 -76 13c-18 0 -35.333 -5.33301 -52 -16c-5.33301 -3.33301 -12 -8.66602 -20 -15.999l-51 46
c12 8 33.167 15.5 63.5 22.5s59.166 10.5 86.499 10.5z" />
    <glyph glyph-name="quotesingle" unicode="'" horiz-adv-x="316" 
d="M167 502c-3.33301 -6 -5.83398 -13.1689 -7.50098 -21.502s-3.16699 -16.166 -4.5 -23.499c10 -2 17.333 -4.33301 22 -7c14.667 -8.66699 22 -22.667 22 -42c0 -16 -4.33301 -28.667 -13 -38s-21 -14 -37 -14c-19.333 0 -33.333 7.33301 -42 22s-13 32 -13 52
c0 41.333 18.333 79 55 113c12 10.667 30.333 23.334 55 38.001l20 -35c-5.33301 -2.66699 -9.66602 -4.66699 -12.999 -6c-21.333 -11.333 -36 -24 -44 -38z" />
    <glyph glyph-name="parenleft" unicode="(" horiz-adv-x="219" 
d="M556 508c-20.667 29.333 -39.332 51 -55.999 65c-51.333 43.333 -112 65 -182 65c-73.333 0 -123.333 -30 -150 -90c-8.66699 -20 -14.667 -50.333 -18 -91v-457h-57v457c0 68 18.5 122.5 55.5 163.5s87.5 61.5 151.5 61.5c69.333 0 131.666 -15 186.999 -45
c62 -34 99.667 -68.667 113 -104z" />
    <glyph glyph-name="parenright" unicode=")" horiz-adv-x="219" 
d="M-26 639c-23.333 0 -39.5 -5.66699 -48.5 -17s-13.5 -27 -13.5 -47c0 -18 4.33301 -39.667 13 -65c1.33301 -4 3.33301 -9 6 -15h-51c-6.66699 9.33301 -12.667 22.5 -18 39.5s-8 31.5 -8 43.5c0 30.667 7.66699 54.667 23 72c20 23.333 53.333 35 100 35
c51.333 0 94 -25.667 128 -77c30 -45.333 45 -95.666 45 -150.999v-457h-57v457c0 39.333 -8.66699 76.666 -26 111.999c-22.667 46.667 -53.667 70 -93 70z" />
    <glyph glyph-name="asterisk" unicode="*" 
d="M-207 -40c50 0 103.337 -19.334 160.004 -58.001c41.333 -28 81.666 -64 120.999 -108c32 -35.333 48 -55.666 48 -60.999l-52 -24l-41 52c-32.667 38 -66 70 -100 96c-46.667 35.333 -88.334 53 -125.001 53c-30.667 0 -56.667 -7.5 -78 -22.5s-32 -34.833 -32 -59.5
c0 -25.333 9.33301 -44.333 28 -57c14 -9.33301 30.667 -14 50 -14c13.333 0 28.833 4 46.5 12s27.5 13.333 29.5 16l25 -47c-12.667 -8 -27.334 -14.333 -44.001 -19s-33.334 -7 -50.001 -7c-40.667 0 -73.667 9.66699 -99 29c-28.667 22 -43 55 -43 99
c0 36 14.5 65 43.5 87s66.5 33 112.5 33z" />
    <glyph glyph-name="plus" unicode="+" horiz-adv-x="457" 
d="M202 202h-164v52h164v165h52v-165h165v-52h-165v-164h-52v164z" />
    <glyph glyph-name="comma" unicode="," horiz-adv-x="307" 
d="M98 -50c3.33301 6 6.33398 15.334 9.00098 28.001c0.666992 4 1.66699 9.66699 3 17c-10 2 -17.333 4.33301 -22 7c-14.667 8.66699 -22 22.667 -22 42c0 16 4.33301 28.667 13 38s21 14 37 14c19.333 0 33.333 -7.33301 42 -22s13 -32 13 -52
c0 -41.333 -18.333 -79 -55 -113c-12 -10.667 -30.333 -23.334 -55 -38.001l-20 35c5.33301 2.66699 9.66602 4.66699 12.999 6c21.333 11.333 36 24 44 38z" />
    <glyph glyph-name="hyphen" unicode="-" horiz-adv-x="317" 
d="M38 203v48h241v-48h-241z" />
    <glyph glyph-name="period" unicode="." horiz-adv-x="250" 
d="M45 46c0 14.667 5 27 15 37s22.667 15 38 15c14 0 25.667 -5 35 -15s14 -22.333 14 -37c0 -13.333 -4.5 -24.833 -13.5 -34.5s-20.5 -14.5 -34.5 -14.5s-26.5 4.83301 -37.5 14.5s-16.5 21.167 -16.5 34.5z" />
    <glyph glyph-name="slash" unicode="/" horiz-adv-x="298" 
d="M39 -144l188 735h45l-191 -735h-42z" />
    <glyph glyph-name="zero" unicode="0" horiz-adv-x="457" 
d="M419 226c0 -53.333 -17.832 -98.833 -53.499 -136.5s-79.834 -56.5 -132.501 -56.5c-54 0 -100 18.667 -138 56s-57 83 -57 137s18.667 100 56 138s83 57 137 57s98.833 -19 134.5 -57s53.5 -84 53.5 -138zM106.001 226c0 -44.667 11.668 -80.167 35.001 -106.5
s52.666 -39.5 87.999 -39.5c34 0 63 13.667 87 41s36 62.333 36 105c0 43.333 -11.833 79.5 -35.5 108.5s-52.167 43.5 -85.5 43.5c-35.333 0 -65 -13.667 -89 -41s-36 -64.333 -36 -111z" />
    <glyph glyph-name="one" unicode="1" horiz-adv-x="457" 
d="M422 58l0.000976562 -55c-9.33301 -2.66699 -17 -4.66699 -23 -6c-18 -4 -33.667 -6 -47 -6c-28.667 0 -48.667 9.66699 -60 29c-6.66699 11.333 -10 26 -10 44v142c-14 -9.33301 -30.333 -17.333 -49 -24s-37 -10 -55 -10c-32.667 0 -62.334 12.667 -89.001 38
c-30 28 -45 63.333 -45 106c0 44 13.5 80.5 40.5 109.5s64.167 43.5 111.5 43.5c43.333 0 79 -10.5 107 -31.5s42 -48.833 42 -83.5v-287c0.666992 -10.667 2.66699 -17.667 6 -21c6 -6.66699 15.333 -10 28 -10c8 0 19 5 33 15zM191.001 225
c15.333 0 35.332 5.33301 59.999 16c8 3.33301 19 9 33 17v99c0 21.333 -8 38 -24 50s-37 18 -63 18c-27.333 0 -49.166 -10.167 -65.499 -30.5s-24.5 -44.5 -24.5 -72.5c0 -30 7 -53.667 21 -71s35 -26 63 -26z" />
    <glyph glyph-name="two" unicode="2" horiz-adv-x="457" 
d="M188 419c-22.667 0 -47.3301 -2.99902 -73.9971 -8.99902c-8.66699 -2 -19.667 -5 -33 -9v46c13.333 4.66699 24.333 8 33 10c27.333 6.66699 53.666 10 78.999 10c56.667 0 105 -14.333 145 -43c43.333 -31.333 65 -72 65 -122c0 -60 -30.333 -104.667 -91 -134
c-20 -9.33301 -50.667 -18 -92 -26c4.66699 -22.667 10 -39.334 16 -50.001c19.333 -34 49.666 -51 90.999 -51c16.667 0 35.667 4.33301 57 13c6.66699 2.66699 15.667 7 27 13v-55c-14 -4 -25.333 -7 -34 -9c-28.667 -6.66699 -52 -10 -70 -10
c-60.667 0 -103.667 23.667 -129 71c-8 15.333 -14.333 39 -19 71c-22 4 -38.333 8 -49 12c-33.333 13.333 -50 33 -50 59c0 19.333 3.33301 33.333 10 42c9.33301 12 25.666 18 48.999 18c26 0 48.667 -13 68 -39c6 -8.66699 13.333 -21.667 22 -39
c29.333 8 51.333 15.667 66 23c44 24 66 56.667 66 98c0 40 -19 69.667 -57 89c-28 14 -60 21 -96 21z" />
    <glyph glyph-name="three" unicode="3" horiz-adv-x="457" 
d="M207 422c-20 0 -42.3311 -5.00098 -66.998 -15.001c-8 -3.33301 -18.333 -8.66602 -31 -15.999l-26 50c17.333 6.66699 31.666 11.334 42.999 14.001c34 9.33301 63.667 14 89 14c47.333 0 87.333 -10 120 -30c37.333 -22.667 56 -54 56 -94
c0 -32.667 -15.333 -58.667 -46 -78c-10 -6 -25.333 -12.333 -46 -19c24 -8.66699 41.667 -17 53 -25c35.333 -24.667 53 -57.667 53 -99s-19.333 -74.666 -58 -99.999c-34.667 -22.667 -76 -34 -124 -34c-40.667 0 -82 8.33301 -124 25c-14 5.33301 -31 13.666 -51 24.999
l38 49c14.667 -10.667 27 -18.667 37 -24c31.333 -16.667 61.333 -25 90 -25c39.333 0 70.833 7.66699 94.5 23s35.5 34.666 35.5 57.999c0 34.667 -18.333 61 -55 79c-27.333 13.333 -59 20 -95 20c-15.333 0 -28.5 -0.666992 -39.5 -2s-20.167 -3 -27.5 -5v61
c10 -1.33301 20.667 -2.66602 32 -3.99902s22.666 -2 33.999 -2c32.667 0 62.667 6.66699 90 20c31.333 15.333 47 34.666 47 57.999c0 26 -10.667 45.167 -32 57.5s-51.333 18.5 -90 18.5z" />
    <glyph glyph-name="four" unicode="4" horiz-adv-x="457" 
d="M27 393l-0.000976562 64.001c15.333 -6 27.333 -11 36 -15c26 -11.333 48.833 -22.333 68.5 -33s42.5 -27 68.5 -49c8.66699 -7.33301 20 -17.666 34 -30.999l158 124l42 -43l-160 -117c22 -19.333 38.333 -35.333 49 -48c33.333 -39.333 50 -75.333 50 -108
c0 -42 -14.167 -76.5 -42.5 -103.5s-63.166 -40.5 -104.499 -40.5s-76.666 13.333 -105.999 40s-44 61.334 -44 104.001c0 34.667 21 72.667 63 114c14 13.333 35.333 30.666 64 51.999c-14 11.333 -25 19.666 -33 24.999c-24.667 17.333 -44.334 29.333 -59.001 36
c-19.333 9.33301 -42 17.666 -68 24.999c-4 0.666992 -9.33301 2 -16 4zM313.999 139.001c0 24 -12.001 53.333 -36.001 88c-8 11.333 -20.333 26.333 -37 45c-22.667 -17.333 -39.667 -31.333 -51 -42c-34.667 -34 -52 -64.667 -52 -92c0 -30.667 8.16699 -54.5 24.5 -71.5
s36.833 -25.5 61.5 -25.5c26.667 0 48.334 8.33301 65.001 25s25 41 25 73z" />
    <glyph glyph-name="five" unicode="5" horiz-adv-x="457" 
d="M309 45l0.000976562 96.001c-12.667 -5.33301 -22.667 -9 -30 -11c-23.333 -7.33301 -43.333 -11 -60 -11c-36 0 -67 10.667 -93 32c-29.333 24 -44 54.667 -44 92v142v11c0 4 -1 7.33301 -3 10c-4 4.66699 -10 7 -18 7h-23v44h28c10.667 0 19.167 -1.5 25.5 -4.5
s14.166 -8.83301 23.499 -17.5c15.333 -14.667 23 -34 23 -58v-156c0 -18 8.16699 -32.167 24.5 -42.5s35.5 -15.5 57.5 -15.5s43.333 5.33301 64 16c6.66699 3.33301 15 9 25 17v261h55v-388c0 -8.66699 1.66699 -15 5 -19s8.33301 -6 15 -6h28v-44h-44
c-6 0 -12.5 0.166992 -19.5 0.5s-13.5 2.83301 -19.5 7.5c-13.333 9.33301 -20 21.666 -20 36.999z" />
    <glyph glyph-name="six" unicode="6" horiz-adv-x="457" 
d="M149 242c-22 10 -38.3369 19.0039 -49.0039 27.0039c-32.667 24.667 -49 52.667 -49 84c0 39.333 16 68.166 48 86.499s77.333 27.5 136 27.5c19.333 0 42.666 -3 69.999 -9c26 -7.33301 39.667 -11 41 -11v-48c-12 4.66699 -22 8 -30 10c-24 6.66699 -45.667 10 -65 10
c-45.333 0 -80.666 -7 -105.999 -21c-20.667 -11.333 -31 -26.666 -31 -45.999c0 -34.667 19.667 -59.334 59 -74.001c28.667 -10.667 65.334 -16 110.001 -16c16 0 27.5 0.166992 34.5 0.5s13.833 1.16602 20.5 2.49902l1 -54l-95 4c-30.667 0 -56.667 -5 -78 -15
c-28 -13.333 -42 -32.333 -42 -57c0 -14.667 10.667 -28 32 -40c12.667 -6.66699 54 -20.334 124 -41.001c40.667 -12 71 -25 91 -39c28.667 -20 43 -44.333 43 -73c0 -42 -20 -71.333 -60 -88c-25.333 -10.667 -57 -16 -95 -16h-11.5c-3 0 -5.5 0.333008 -7.5 1l-11 49
c4.66699 -0.666992 11.167 -1.33398 19.5 -2.00098s14.5 -1 18.5 -1c24.667 0 44.334 3.33301 59.001 10c20.667 9.33301 31 25 31 47c0 21.333 -18 39.333 -54 54c-11.333 4.66699 -42.166 13.667 -92.499 27s-85.166 25.666 -104.499 36.999c-32 18.667 -48 44 -48 76
c0 28.667 8.66699 51.334 26 68.001s39 26.667 65 30z" />
    <glyph glyph-name="seven" unicode="7" horiz-adv-x="457" 
d="M29 220c0 57.333 11.332 113.666 33.999 168.999c7.33301 18 18.666 39.667 33.999 65l49 -38c-13.333 -18 -23.333 -34 -30 -48c-20 -42.667 -30 -91 -30 -145c0 -72 28 -122 84 -150c18.667 -9.33301 47 -16.333 85 -21c-16.667 16.667 -29 31 -37 43
c-25.333 38 -38 78 -38 120c0 40.667 12 76.834 36 108.501s54.333 47.5 91 47.5c40 0 71.667 -15.333 95 -46c21.333 -28 32 -62.667 32 -104c0 -58 -18.167 -108.5 -54.5 -151.5s-80.166 -64.5 -131.499 -64.5c-65.333 0 -118.166 19.5 -158.499 58.5
s-60.5 91.167 -60.5 156.5zM237.999 209c0 -38 8 -73.668 24 -107.001c5.33301 -10.667 13.333 -23.334 24 -38.001c20.667 12 36 23.333 46 34c31.333 32.667 47 73.334 47 122.001c0 26.667 -6 50.334 -18 71.001s-29.333 31 -52 31c-20.667 0 -37.667 -11.667 -51 -35
s-20 -49.333 -20 -78z" />
    <glyph glyph-name="eight" unicode="8" horiz-adv-x="457" 
d="M111 273l233.998 189.001l47 -36l-249 -198c-11.333 -8.66699 -20.666 -22 -27.999 -40s-11 -37.333 -11 -58c0 -25.333 13.167 -46.666 39.5 -63.999s55.833 -26 88.5 -26c30.667 0 62.667 11.333 96 34c10.667 7.33301 24.334 18.666 41.001 33.999l32 -50
c-16.667 -14.667 -31.334 -25.334 -44.001 -32.001c-38.667 -22 -79 -33 -121 -33c-53.333 0 -98.166 14 -134.499 42s-54.5 65 -54.5 111c0 29.333 7.33301 56 22 80c10.667 18 24.667 33.667 42 47z" />
    <glyph glyph-name="nine" unicode="9" horiz-adv-x="457" 
d="M274 458c22 0 42 -2.66504 60 -7.99805c3.33301 -0.666992 7 -2.33398 11 -5.00098v-42c-8 2.66699 -14.333 4.66699 -19 6c-15.333 4 -30.333 6 -45 6c-50.667 0 -92.667 -15.333 -126 -46c-36.667 -33.333 -55 -79 -55 -137c0 -58.667 16.833 -104.834 50.5 -138.501
s78.167 -50.5 133.5 -50.5c10 0 23 2.66699 39 8c5.33301 1.33301 12.666 4 21.999 8v-48c-9.33301 -3.33301 -17 -5.66602 -23 -6.99902c-19.333 -4.66699 -38.666 -7 -57.999 -7c-62.667 0 -115.167 22.167 -157.5 66.5s-63.5 99.833 -63.5 166.5
c0 67.333 21.5 122.166 64.5 164.499s98.5 63.5 166.5 63.5zM220 208.002v46h198v-46h-198z" />
    <glyph glyph-name="colon" unicode=":" horiz-adv-x="260" 
d="M146 360c0 13.333 4.66699 24.333 14 33s21 13 35 13c13.333 0 25 -5.33301 35 -16s15 -23 15 -37c0 -12.667 -4.83301 -23.5 -14.5 -32.5s-21.5 -13.5 -35.5 -13.5c-13.333 0 -24.833 5.16699 -34.5 15.5s-14.5 22.833 -14.5 37.5zM146 104
c0 13.333 4.66699 24.333 14 33s21 13 35 13c13.333 0 25 -5.33301 35 -16s15 -23 15 -37c0 -12.667 -4.83301 -23.5 -14.5 -32.5s-21.5 -13.5 -35.5 -13.5c-13.333 0 -24.833 5.16699 -34.5 15.5s-14.5 22.833 -14.5 37.5z" />
    <glyph glyph-name="semicolon" unicode=";" horiz-adv-x="307" 
d="M221 -50c3.33301 6 6.33398 15.334 9.00098 28.001c0.666992 4 1.66699 9.66699 3 17c-10 2 -17.333 4.33301 -22 7c-14.667 8.66699 -22 22.667 -22 42c0 16 4.33301 28.667 13 38s21 14 37 14c19.333 0 33.333 -7.33301 42 -22s13 -32 13 -52
c0 -41.333 -18.333 -79 -55 -113c-12 -10.667 -30.333 -23.334 -55 -38.001l-20 35c5.33301 2.66699 9.66602 4.66699 12.999 6c21.333 11.333 36 24 44 38zM190.001 258.001c0 14.667 5 27 15 37s22.667 15 38 15c14 0 25.667 -5 35 -15s14 -22.333 14 -37
c0 -13.333 -4.5 -24.833 -13.5 -34.5s-20.5 -14.5 -34.5 -14.5s-26.5 4.83301 -37.5 14.5s-16.5 21.167 -16.5 34.5z" />
    <glyph glyph-name="less" unicode="&#x3c;" 
d="M-71 457l-53.001 -0.00195312c-10 14.667 -18.333 31.834 -25 51.501s-10 38.834 -10 57.501c0 39.333 11.333 71 34 95s53 36 91 36c15.333 0 32.833 -1.83301 52.5 -5.5s32.167 -6.5 37.5 -8.5l-14 -52c-8.66699 5.33301 -18.667 9.33301 -30 12s-24.666 4 -39.999 4
c-22 0 -39.5 -9.16699 -52.5 -27.5s-19.5 -40.5 -19.5 -66.5c0 -22.667 4.33301 -44.667 13 -66c4 -10 9.33301 -20 16 -30z" />
    <glyph glyph-name="equal" unicode="=" horiz-adv-x="457" 
d="M38 121v44h381v-44h-381zM38 291v44h381v-44h-381z" />
    <glyph glyph-name="greater" unicode="&#x3e;" horiz-adv-x="6" 
d="M-79 584c0 -11.333 -4.33301 -21.333 -13 -30s-19 -13 -31 -13c-11.333 0 -20.833 4.16699 -28.5 12.5s-11.5 18.5 -11.5 30.5s3.66699 22 11 30s17 12 29 12s22.333 -4 31 -12s13 -18 13 -30z" />
    <glyph glyph-name="question" unicode="?" horiz-adv-x="452" 
d="M205 370l-55.9961 0.00195312c-4 5.33301 -8 12 -12 20c-7.33301 14.667 -11 28.334 -11 41.001c0 36 16.167 64.167 48.5 84.5s70.166 30.5 113.499 30.5c39.333 0 73.666 -10.833 102.999 -32.5s44 -50.834 44 -87.501c0 -26 -10.5 -51.5 -31.5 -76.5l-62.5 -73.5
c-9.33301 -13.333 -17.5 -28.666 -24.5 -45.999s-10.5 -33.333 -10.5 -48v-9c0 -2 0.333008 -4.33301 1 -7h-65c4 23.333 8.33301 46.666 13 69.999c10.667 29.333 27 57.666 49 84.999c22.667 23.333 38.667 40.333 48 51c16.667 18.667 25 38 25 58
c0 23.333 -13 42 -39 56c-20 10.667 -40.667 16 -62 16c-22.667 0 -43.834 -6.5 -63.501 -19.5s-29.5 -27.833 -29.5 -44.5c0 -19.333 5 -38.333 15 -57c1.33301 -2.66699 3.66602 -6.33398 6.99902 -11.001zM221.004 46.002c0 14.667 5 27 15 37s22.667 15 38 15
c14 0 25.667 -5 35 -15s14 -22.333 14 -37c0 -13.333 -4.5 -24.833 -13.5 -34.5s-20.5 -14.5 -34.5 -14.5s-26.5 4.83301 -37.5 14.5s-16.5 21.167 -16.5 34.5z" />
    <glyph glyph-name="at" unicode="@" horiz-adv-x="592" 
d="M419 326c-18 0 -37.3301 -4.3291 -57.9971 -12.9961s-32.334 -14.667 -35.001 -18c-4.66699 -13.333 -9 -23.666 -13 -30.999c-12 -21.333 -28.333 -38 -49 -50c-15.333 -8.66699 -38 -15.334 -68 -20.001c-10 -1.33301 -24 -2.66602 -42 -3.99902l39 -123
c1.33301 -2.66699 2.5 -5.33398 3.5 -8.00098s3 -5.33398 6 -8.00098s6.16699 -4.33398 9.5 -5.00098s6.33301 -1.33398 9 -2.00098h99v-44h-132c-6 2 -10.333 3.33301 -13 4c-10.667 4 -17.834 8 -21.501 12s-7.16699 8.16699 -10.5 12.5s-5.66602 9.16602 -6.99902 14.499
l-44 147h-55v48h154c19.333 0 36.666 7 51.999 21c19.333 17.333 29 40 29 68c0 23.333 -6.16699 43.5 -18.5 60.5s-28.833 25.5 -49.5 25.5h-133v44h155c32.667 0 58 -14.333 76 -43c7.33301 -11.333 13.166 -24 17.499 -38s6.5 -26 6.5 -36c12 8 27 14.833 45 20.5
s35.667 8.5 53 8.5c35.333 0 66.5 -17.5 93.5 -52.5s40.5 -74.833 40.5 -119.5c0 -82.667 -25 -138 -75 -166c-16.667 -9.33301 -42 -15 -76 -17l-14 41c36.667 6 61.334 16 74.001 30c22 24 33 60 33 108c0 40.667 -7.33301 73 -22 97s-34.334 36 -59.001 36z" />
    <glyph glyph-name="A" unicode="A" horiz-adv-x="380" 
d="M461 317v-49.9941h-143c-1.33301 -4 -7 -11.667 -17 -23c-13.333 -14.667 -27.666 -25.834 -42.999 -33.501s-37.333 -13.5 -66 -17.5c-9.33301 -0.666992 -22 -1.66699 -38 -3l39 -123c1.33301 -2.66699 2.5 -5.33398 3.5 -8.00098s3 -5.33398 6 -8.00098
s6.16699 -4.33398 9.5 -5.00098s6.33301 -1.33398 9 -2.00098h143v-44h-176c-6 2 -10.333 3.33301 -13 4c-10.667 4 -17.834 8 -21.501 12s-7.16699 8.16699 -10.5 12.5s-5.66602 9.16602 -6.99902 14.499l-44 147h-55v48h154c17.333 0 35.166 9.16699 53.499 27.5
s27.5 39.5 27.5 63.5c0 23.333 -6.16699 43.166 -18.5 59.499s-28.833 24.5 -49.5 24.5h-133v44h155c35.333 0 63.333 -15.667 84 -47c8.66699 -12.667 14.667 -26.5 18 -41.5s5 -28.5 5 -40.5v-6c0 -1.33301 -0.333008 -2.66602 -1 -3.99902z" />
    <glyph glyph-name="B" unicode="B" horiz-adv-x="676" 
d="M208 21l-33.001 -30c-27.333 12 -58.333 48 -93 108c-27.333 47.333 -41 94.666 -41 141.999c0 68 17.667 122.667 53 164s81.333 62 138 62c43.333 0 80.166 -12.5 110.499 -37.5s45.5 -56.5 45.5 -94.5v-64l162 4v182h57v-457h-57v221h-162v-27
c0 -17.333 -5.66699 -31.666 -17 -42.999s-26.666 -17 -45.999 -17c-20.667 0 -37.667 7 -51 21s-20 30.667 -20 50c0 34 12 56 36 66c8 3.33301 20 5 36 5v69c0 19.333 -6 36 -18 50c-16 18 -40.333 27 -73 27c-39.333 0 -72 -17.833 -98 -53.5s-39 -79.5 -39 -131.5
c0 -44 11 -86 33 -126c24.667 -44.667 50.334 -74.667 77.001 -90z" />
    <glyph glyph-name="C" unicode="C" horiz-adv-x="589" 
d="M133 457l118.999 -0.000976562v-43h-63c-26 0 -45.333 -3.33301 -58 -10c-18 -9.33301 -27 -26.666 -27 -51.999c0 -26 10.667 -46 32 -60c16.667 -11.333 33.667 -17 51 -17h62v-47h-33c-22 0 -42.333 -5.66699 -61 -17c-25.333 -15.333 -38 -37 -38 -65
c0 -32.667 15.667 -58 47 -76s74.666 -27 129.999 -27c60.667 0 113.667 26.667 159 80c14.667 17.333 31.334 44.333 50.001 81c-8.66699 -6.66699 -15.667 -11.334 -21 -14.001c-16.667 -9.33301 -32.667 -14 -48 -14c-24 0 -48.333 10 -73 30c-34 27.333 -51 65 -51 113
c0 38 10.167 71.333 30.5 100s48.166 43 83.499 43c42.667 0 75 -12.333 97 -37c27.333 -30.667 41 -81 41 -151c0 -69.333 -23.333 -131.333 -70 -186c-51.333 -60 -116.333 -90 -195 -90c-68 0 -122.333 10 -163 30c-52.667 26 -79 67.333 -79 124
c0 28 12.333 52.333 37 73c8 6.66699 20.667 14.334 38 23.001c-19.333 7.33301 -33.666 14.333 -42.999 21c-29.333 21.333 -44 50.333 -44 87c0 28.667 9.33301 52.667 28 72s39.334 29 62.001 29zM361.999 323.999c0 -23.333 7.33301 -44.999 22 -64.999
s32.667 -30 54 -30c22 0 39 9.16699 51 27.5s18 40.166 18 65.499c0 26.667 -4.66699 48 -14 64c-12.667 22 -32.667 33 -60 33c-22 0 -39.333 -9.5 -52 -28.5s-19 -41.167 -19 -66.5z" />
    <glyph glyph-name="D" unicode="D" horiz-adv-x="466" 
d="M360 452l0.000976562 -61c-12 6.66699 -22 11.334 -30 14.001c-24 9.33301 -47 14 -69 14c-32 0 -58.667 -4.33301 -80 -13c-28.667 -12 -43 -30.333 -43 -55c0 -15.333 17.333 -30.333 52 -45c19.333 -8 50 -18 92 -30c38 -10 70.667 -26.333 98 -49
c34 -28 51 -59.667 51 -95c0 -52.667 -21.667 -91 -65 -115c-34.667 -19.333 -80.667 -29 -138 -29c-42 0 -81.5 7.5 -118.5 22.5s-65.833 33.833 -86.5 56.5l36 51c9.33301 -18.667 32.333 -38 69 -58c31.333 -17.333 63.666 -26 96.999 -26c40.667 0 74.334 7 101.001 21
c32 16.667 48 40.667 48 72c0 27.333 -13.333 50.666 -40 69.999c-20.667 15.333 -49.334 28 -86.001 38c-60 17.333 -102 33.333 -126 48c-29.333 17.333 -44 39 -44 65c0 39.333 16.333 68.5 49 87.5s75 28.5 127 28.5c18 0 38.667 -1.5 62 -4.5s38 -5.5 44 -7.5z" />
    <glyph glyph-name="E" unicode="E" horiz-adv-x="497" 
d="M134 457h140.001v-43h-76c-31.333 0 -54.166 -4.83301 -68.499 -14.5s-21.5 -28.5 -21.5 -56.5c0 -26 7.66699 -44.5 23 -55.5s37.666 -16.5 66.999 -16.5h76v-49l-66 -1c-28 0 -52.833 -9.16699 -74.5 -27.5s-32.5 -40.166 -32.5 -65.499c0 -32.667 15 -56 45 -70
c21.333 -10 48.333 -15 81 -15c40 0 73 9.83301 99 29.5s39 40.167 39 61.5v401c0 19.333 0.833008 33.666 2.5 42.999s7.66699 19.333 18 30s19.333 17.334 27 20.001s16.5 4 26.5 4h71v-48h-56c-8 0 -15.333 -3.33301 -22 -10c-3.33301 -3.33301 -6 -8 -8 -14
s-3 -11.667 -3 -17v-414c0 -34 -16.5 -64.667 -49.5 -92s-73.5 -41 -121.5 -41c-64.667 0 -114.334 10.333 -149.001 31c-38.667 23.333 -58 59.333 -58 108c0 26 8.83301 49.167 26.5 69.5s37.167 33.166 58.5 38.499c-17.333 7.33301 -30 14.333 -38 21
c-26 22 -39 51 -39 87c0 28 7 51.333 21 70c18 24 38.667 36 62 36z" />
    <glyph glyph-name="F" unicode="F" horiz-adv-x="552" 
d="M305 483c-4 7.33301 -37.6699 -3.66699 -101.003 -33s-95 -60 -95 -92c0 -16.667 11 -29.334 33 -38.001s44.667 -13 68 -13h111v-47h-109c-27.333 0 -51.5 -9.83301 -72.5 -29.5s-31.5 -42.167 -31.5 -67.5c0 -30.667 16 -53 48 -67c24.667 -10.667 56.667 -16 96 -16
c37.333 0 77.666 12.667 120.999 38c14 8 31.667 20.667 53 38v301h57v-457h-57v96c-20.667 -14.667 -38 -25.667 -52 -33c-43.333 -22 -86.666 -33 -129.999 -33c-56 0 -100.667 10 -134 30c-42 25.333 -63 64.333 -63 117c0 32.667 16.667 59.334 50 80.001
c10.667 6.66699 27.334 13.667 50.001 21c-23.333 6 -40.666 11.667 -51.999 17c-35.333 17.333 -53 39 -53 65c0 45.333 37.667 86.333 113 123c24.667 12 62.334 26 113.001 42z" />
    <glyph glyph-name="G" unicode="G" horiz-adv-x="558" 
d="M423 161l0.00292969 295.999h57v-457h-57v98c-17.333 -12.667 -37.333 -23.667 -60 -33c-36.667 -15.333 -72.334 -23 -107.001 -23c-56.667 0 -104 10 -142 30c-46 24.667 -69 59.667 -69 105c0 26.667 14.667 50 44 70c9.33301 6.66699 24 14 44 22
c-16.667 0 -36.334 11 -59.001 33c-18 17.333 -27 36.666 -27 57.999c0 36 16.333 63.167 49 81.5s71.667 27.5 117 27.5c17.333 0 36.5 -1.5 57.5 -4.5s38.833 -6.83301 53.5 -11.5v-45c-14 4.66699 -27.333 8.5 -40 11.5s-23.334 4.5 -32.001 4.5
c-52.667 0 -89.334 -6 -110.001 -18s-31 -28.667 -31 -50s10 -38.333 30 -51s42.333 -19 67 -19h109v-47h-109c-24.667 0 -47.167 -6.33301 -67.5 -19s-30.5 -29 -30.5 -49c0 -25.333 15.667 -45.666 47 -60.999c26.667 -13.333 58 -20 94 -20c27.333 0 56 6 86 18
c36.667 14.667 65.334 32.334 86.001 53.001z" />
    <glyph glyph-name="H" unicode="H" horiz-adv-x="674" 
d="M548 182l0.00292969 274.997h57v-457h-57v122c-30.667 -20 -61.334 -35.667 -92.001 -47s-58.334 -17 -83.001 -17c-44 0 -80.667 9.33301 -110 28c-35.333 22.667 -53 55.334 -53 98.001c0 16.667 1.83301 27.5 5.5 32.5s10.834 7.5 21.501 7.5c6 0 14.667 -0.5 26 -1.5
s18 -1.5 20 -1.5c32 0 56 3 72 9c24 9.33301 36 26 36 50c0 17.333 -9.83301 28.5 -29.5 33.5s-47.5 7.5 -83.5 7.5c-44 0 -82.667 -15.333 -116 -46c-36.667 -34 -55 -77.333 -55 -130c0 -70.667 25.667 -121 77 -151c35.333 -20.667 81.333 -31 138 -31
c15.333 0 27 0.333008 35 1s15.667 2 23 4v-40c-2 -1.33301 -10.667 -2.66602 -26 -3.99902s-28.666 -2 -39.999 -2c-70 0 -126.667 12.667 -170 38c-64.667 37.333 -97 100.333 -97 189c0 67.333 29.667 121.333 89 162c19.333 13.333 49 27 89 41
c-13.333 5.33301 -23.333 10 -30 14c-20.667 12.667 -31 27.334 -31 44.001c0 28.667 14.333 49 43 61c22 9.33301 54.333 14 97 14c18 0 39.5 -1.66699 64.5 -5s43.5 -7 55.5 -11v-48c-5.33301 2.66699 -18.333 6.66699 -39 12s-38.334 8 -53.001 8
c-14 0.666992 -25 1 -33 1c-20.667 0 -37.5 -2.5 -50.5 -7.5s-19.5 -15.167 -19.5 -30.5c0 -12 8.66699 -23 26 -33c5.33301 -2.66699 14 -6.33398 26 -11.001h9h12c12 0 24.5 -0.166992 37.5 -0.5s25.5 -2.16602 37.5 -5.49902c26 -6.66699 44 -17.167 54 -31.5
s15 -33.5 15 -57.5c0 -22.667 -9.66699 -41.334 -29 -56.001c-14 -10.667 -32 -18.667 -54 -24c-2.66699 -0.666992 -18.334 -1.66699 -47.001 -3s-43 -9.66602 -43 -24.999c0 -12 10.167 -23.5 30.5 -34.5s40.5 -16.5 60.5 -16.5c34.667 0 72.667 10.333 114 31
c25.333 12.667 48.666 27.667 69.999 45z" />
    <glyph glyph-name="I" unicode="I" horiz-adv-x="229" 
d="M919 493l-79.999 40.001c-69.333 32 -137 57.333 -203 76c-96.667 27.333 -187.334 41 -272.001 41c-82 0 -141 -24.667 -177 -74c-24.667 -34 -37 -73.667 -37 -119v-457h-57v457c0 73.333 19.333 129.666 58 168.999c45.333 46 117.333 69 216 69
c106 0 209 -13.667 309 -41c72.667 -20 141.667 -46.333 207 -79c47.333 -24 73.333 -39.333 78 -46z" />
    <glyph glyph-name="J" unicode="J" horiz-adv-x="689" 
d="M204 236c-4.66699 -2.66699 -13.667 -5.33203 -27 -7.99902s-24 -4 -32 -4c-30 0 -55.167 10.833 -75.5 32.5s-30.5 50.5 -30.5 86.5c0 40 12.667 70.333 38 91c22 18 51.667 27 89 27c42.667 0 90.667 -32 144 -96c17.333 -21.333 39.666 -53.333 66.999 -96l183 188h60
v-372c0 -48 -23.667 -95 -71 -141c-55.333 -54 -123.333 -81 -204 -81c-85.333 0 -152.666 25.333 -201.999 76c-52 54 -78 113 -78 177h61c0 -59.333 16.333 -108 49 -146c36 -42 89 -63 159 -63c67.333 0 123.666 21.667 168.999 65c41.333 40 62 84.667 62 134v281
l-164 -161c6.66699 -10 14.334 -29.667 23.001 -59c6.66699 -22.667 10 -41.334 10 -56.001c0 -30 -5.5 -51.833 -16.5 -65.5s-27.167 -20.5 -48.5 -20.5s-38 8 -50 24s-18 36 -18 60c0 25.333 6.66699 53 20 83c4 9.33301 10.667 21.666 20 36.999
c4 11.333 -27.667 54 -95 128c-36 39.333 -63.333 59 -82 59c-20 0 -36.833 -6.16699 -50.5 -18.5s-20.5 -32.166 -20.5 -59.499s9.33301 -46.333 28 -57c12 -6.66699 27.333 -10 46 -10c8.66699 0 18.667 2.33301 30 7c2 0.666992 4.33301 2 7 4v-46z" />
    <glyph glyph-name="K" unicode="K" horiz-adv-x="619" 
d="M492 309l-0.00292969 147.998h59v-457h-59v261h-140v-21c0 -26.667 -11 -50.667 -33 -72c-27.333 -26.667 -63.333 -40 -108 -40c-45.333 0 -80.166 11.5 -104.499 34.5s-36.5 51.5 -36.5 85.5v137v12c0 4.66699 -0.666992 8 -2 10s-3.66602 3.33301 -6.99902 4
s-7 1.33398 -11 2.00098h-50v44h57c21.333 0 39 -8 53 -24c11.333 -13.333 17 -32 17 -56v-137c0 -19.333 8.66699 -35.166 26 -47.499s36.333 -18.5 57 -18.5c22.667 0 42.834 5.66699 60.501 17s26.5 27 26.5 47v173h54v-102h141z" />
    <glyph glyph-name="L" unicode="L" horiz-adv-x="635" 
d="M165 462c19.333 0 36.334 -2.33203 51.001 -6.99902l20 -8v-42c-4.66699 2.66699 -8.33398 4.66699 -11.001 6c-10 4 -20.667 6 -32 6c-28 0 -50 -10 -66 -30c-21.333 -27.333 -32 -73.333 -32 -138c0 -50.667 12 -91.667 36 -123c21.333 -28 47 -42 77 -42
c33.333 0 57 17.667 71 53c10.667 26.667 16 64 16 112c0 73.333 12.333 126.333 37 159s61.667 49 111 49c36 0 65 -10.333 87 -31c24.667 -23.333 37 -58 37 -104v-322h-59v314c0 28 -5 51.333 -15 70c-12 22.667 -29.667 34 -53 34c-32 0 -55.5 -17 -70.5 -51
s-22.5 -82.333 -22.5 -145c0 -120 -45.333 -180 -136 -180c-50 0 -91.167 20.167 -123.5 60.5s-48.5 92.166 -48.5 155.499c0 54.667 10 101 30 139c22.667 43.333 54.667 65 96 65z" />
    <glyph glyph-name="M" unicode="M" horiz-adv-x="656" 
d="M281 472c20.667 0 45 -3 73 -9c26.667 -7.33301 40.667 -11 42 -11v-50c-10.667 6 -26.167 11.833 -46.5 17.5s-35.5 8.5 -45.5 8.5c-30 0 -52.333 -2.33301 -67 -7c-24 -8 -36 -23 -36 -45c0 -17.333 13.333 -29.333 40 -36c18.667 -4 32 -6.66699 40 -8l53 -12
c20.667 -4 37 -12 49 -24s18 -25 18 -39v-69l129 -1v270h57v-457h-57v138h-129c-1.33301 -16 -3.66602 -27.667 -6.99902 -35c-10.667 -24 -31.334 -36 -62.001 -36c-20.667 0 -36.834 5.83301 -48.501 17.5s-17.5 26.5 -17.5 44.5c0 29.333 12.667 48.333 38 57
c8 2.66699 21 4 39 4v53c0 14.667 -6 25.5 -18 32.5s-27.667 10.5 -47 10.5c-42.667 0 -79.667 -12.333 -111 -37c-34.667 -27.333 -52 -62.666 -52 -105.999c0 -50 19.667 -90.667 59 -122s85.333 -47 138 -47c25.333 0 50.333 5.33301 75 16
c20 11.333 30.667 17.333 32 18v-52c-20 -10 -36.667 -17 -50 -21c-22 -6.66699 -42 -10 -60 -10c-73.333 0 -134.333 20.667 -183 62s-73 94.666 -73 159.999c0 63.333 26 111.333 78 144c17.333 10.667 43.333 20.667 78 30c-15.333 6.66699 -26.666 12.667 -33.999 18
c-22.667 16.667 -34 36 -34 58c0 28.667 14.333 49 43 61c22 9.33301 54.333 14 97 14z" />
    <glyph glyph-name="N" unicode="N" horiz-adv-x="648" 
d="M570 0h-57v457h57v-457zM436 312c0 -42.667 -13.666 -78.668 -40.999 -108.001s-63 -44 -107 -44c-12 0 -25.5 2 -40.5 6s-27.833 9 -38.5 15v52c7.33301 -4.66699 15 -9 23 -13c12 -4.66699 22.667 -7 32 -7c28 0 51.667 5.66699 71 17c27.333 16 41 41.333 41 76
c0 34 -9.33301 60 -28 78s-43 27 -73 27c-10.667 0 -22.334 -1.5 -35.001 -4.5s-23 -6.83301 -31 -11.5v52c12.667 4 26.5 7.5 41.5 10.5s28.167 4.5 39.5 4.5c41.333 0 76 -14.667 104 -44s42 -64.666 42 -105.999zM431.001 0.999023
c-6 -2 -27.168 -5.16602 -63.501 -9.49902s-66.833 -6.5 -91.5 -6.5c-65.333 0 -118 21.333 -158 64c-36.667 38.667 -55 84.667 -55 138v270h56v-272c0 -42.667 16.667 -79.334 50 -110.001s70 -46 110 -46c26.667 0 51.334 2 74.001 6s41 10 55 18z" />
    <glyph glyph-name="O" unicode="O" horiz-adv-x="249" 
d="M362 233v-83c-8 -12 -28 -25.333 -60 -40c-25.333 -11.333 -50 -17 -74 -17c-36.667 0 -70.667 10.333 -102 31c-36 24 -54 53.667 -54 89v180c-0.666992 8 -2 13.333 -4 16s-7.33301 4 -16 4h-52v44h88zM355 212l-223 180.001l1 -172
c0 -22.667 9.5 -40.834 28.5 -54.501s41.833 -20.5 68.5 -20.5c32 0 62.333 10.667 91 32c20.667 15.333 32 27 34 35z" />
    <glyph glyph-name="P" unicode="P" horiz-adv-x="465" 
d="M355 212l-223 180.001l1 -172c0 -22.667 9.5 -40.834 28.5 -54.501s41.833 -20.5 68.5 -20.5c32 0 62.333 10.667 91 32c20.667 15.333 32 27 34 35zM228 93.001c-36.667 0 -70.666 10.333 -101.999 31c-36 24 -54 53.667 -54 89v180c-0.666992 8 -2 13.333 -4 16
s-7.33301 4 -16 4h-52v44h88l265 -217v217h57v-457h-57v142c-14.667 -10.667 -26.667 -18.667 -36 -24c-30.667 -16.667 -60.334 -25 -89.001 -25z" />
    <glyph glyph-name="Q" unicode="Q" horiz-adv-x="461" 
d="M426 79c0 -32 -19.999 -57.3311 -59.999 -75.998c-33.333 -15.333 -71.666 -23 -114.999 -23c-58.667 0 -106 11 -142 33c-44 26.667 -66 67 -66 121c0 32 12.167 61.167 36.5 87.5s60 45 107 56s77.833 19.5 92.5 25.5c32.667 12.667 49 28 49 46
c0 25.333 -13 44.666 -39 57.999c-20.667 10.667 -44.667 16 -72 16c-22.667 0 -48.334 -3.33301 -77.001 -10c-9.33301 -2 -21.333 -5.33301 -36 -10v49c5.33301 2 21.833 4.5 49.5 7.5s46.5 4.5 56.5 4.5c51.333 0 93.333 -9.66699 126 -29c37.333 -22 56 -53.667 56 -95
c0 -28.667 -14 -51.334 -42 -68.001c-24 -14 -66 -27.667 -126 -41c-35.333 -7.33301 -62.666 -18.333 -81.999 -33c-25.333 -18.667 -38 -42.334 -38 -71.001c0 -37.333 16.333 -64.333 49 -81c22.667 -11.333 50.667 -17 84 -17c15.333 0 23.666 0.666992 24.999 2
c0.666992 26.667 3 46.334 7 59.001c12.667 40 39 60 79 60c27.333 0 47.166 -6.33301 59.499 -19s18.5 -30 18.5 -52z" />
    <glyph glyph-name="R" unicode="R" horiz-adv-x="304" 
d="M433 354v-50h-185c-36 0 -67.667 -8.66699 -95 -26c-34.667 -22 -52 -55 -52 -99c0 -53.333 20.667 -91.333 62 -114c28 -15.333 64.333 -23 109 -23c24.667 0 38 1 40 3l-12 -45c-1.33301 -0.666992 -7.5 -1.5 -18.5 -2.5s-20.833 -1.5 -29.5 -1.5
c-53.333 0 -97.333 11.333 -132 34c-51.333 33.333 -77 88.333 -77 165c0 44.667 17.167 82.167 51.5 112.5s74.5 45.5 120.5 45.5z" />
    <glyph glyph-name="S" unicode="S" horiz-adv-x="608" 
d="M482 0v457h57v-457h-57zM226 89c-20 20 -40.666 33.502 -61.999 40.502s-48 10.5 -80 10.5h-40v47h132c34.667 0 66.667 10 96 30c35.333 24 53 57 53 99c0 31.333 -11.5 57.166 -34.5 77.499s-50.833 30.5 -83.5 30.5c-28.667 0 -52.334 -5.83301 -71.001 -17.5
s-28 -27.5 -28 -47.5c0 -14 6.66699 -26 20 -36s28.666 -15 45.999 -15c8 0 16 1.33301 24 4c8.66699 4 13.334 6 14.001 6l11 -44c-6 -2.66699 -11 -4.33398 -15 -5.00098c-13.333 -3.33301 -28 -5 -44 -5c-31.333 0 -58.333 8.83301 -81 26.5s-34 41.834 -34 72.501
c0 34.667 14 61.5 42 80.5s64 28.5 108 28.5c55.333 0 100.333 -14.333 135 -43s52 -68.334 52 -119.001c0 -60.667 -30.667 -106.334 -92 -137.001c-20 -10 -50.667 -19 -92 -27c18 -7.33301 32.667 -14.666 44 -21.999s24 -17.5 38 -30.5s28.667 -31.833 44 -56.5
c12.667 -20 19.667 -32.333 21 -37h-69c-2.66699 7.33301 -5 13.333 -7 18c-13.333 29.333 -29 53 -47 71z" />
    <glyph glyph-name="T" unicode="T" horiz-adv-x="438" 
d="M114 391l-0.000976562 61.002c5.33301 2 21.833 4.5 49.5 7.5s46.5 4.5 56.5 4.5c50.667 0 91.667 -9 123 -27c35.333 -20.667 53 -50.334 53 -89.001c0 -26 -14.667 -47.667 -44 -65c-24 -14.667 -66 -30.667 -126 -48c-48 -14 -80.667 -30 -98 -48
c-14.667 -15.333 -22 -34 -22 -56c0 -30.667 15 -55 45 -73c27.333 -16 60 -24 98 -24c33.333 0 65.333 8.33301 96 25c37.333 20 60.666 39.667 69.999 59l36 -51c-16.667 -20.667 -44.667 -39 -84 -55s-79.666 -24 -120.999 -24c-56.667 0 -103 12 -139 36
c-42.667 28.667 -64 70.667 -64 126c0 32.667 17 60.667 51 84c24.667 16.667 57.334 30.667 98.001 42c58 16.667 95.333 29.334 112 38.001c21.333 11.333 32 23.666 32 36.999c0 24 -14 42 -42 54c-22.667 9.33301 -49.667 14 -81 14c-21.333 0 -44.333 -4.66699 -69 -14
c-8 -2.66699 -18 -7.33398 -30 -14.001z" />
    <glyph glyph-name="U" unicode="U" horiz-adv-x="704" 
d="M230 414l0.000976562 43.002h146c28 0 50.5 -9.83301 67.5 -29.5s25.5 -45.834 25.5 -78.501c0 -39.333 -13.667 -68.666 -41 -87.999c-8.66699 -6 -22.334 -12 -41.001 -18c26.667 -6.66699 48.667 -19.334 66 -38.001c20 -22 30 -48.667 30 -80
c0 -44 -21.333 -78 -64 -102c-38.667 -22 -88 -33 -148 -33c-55.333 0 -102.666 13.333 -141.999 40c-44 30 -66 69 -66 117v284c0 64.667 29 116 87 154c53.333 34.667 119.666 52 198.999 52c78.667 0 146 -20 202 -60s84 -88.667 84 -146v-431h-57v431
c0 35.333 -18.667 69.666 -56 102.999c-45.333 40.667 -103 61 -173 61c-62.667 0 -115.667 -13.333 -159 -40c-48.667 -30 -73 -71.333 -73 -124v-288c0 -22.667 11 -44.667 33 -66c29.333 -28.667 69 -43 119 -43c39.333 0 73.333 7.33301 102 22
c34 17.333 51 40.666 51 69.999c0 28.667 -12.333 52.667 -37 72c-21.333 16.667 -42.333 25 -63 25h-76v48h76c23.333 0 44.333 6.83301 63 20.5s28 30.834 28 51.501c0 30 -9.33301 50 -28 60c-13.333 7.33301 -34.333 11 -63 11h-92z" />
    <glyph glyph-name="V" unicode="V" horiz-adv-x="699" 
d="M390 54c30.667 0 70.334 13 119.001 39c16 8.66699 37.333 22 64 40v324h57v-457h-57v80c-22 -15.333 -40.333 -26.666 -55 -33.999c-44 -22.667 -84.667 -34 -122 -34c-42.667 0 -75.667 6 -99 18c-28.667 14.667 -43 37.334 -43 68.001c0 33.333 23 62.333 69 87
c38 20.667 62.333 29.667 73 27l-125 62l-213 -67l-33 54l191 41c-8.66699 0 -28.334 9.66699 -59.001 29c-37.333 23.333 -56 44.333 -56 63c0 32 16.667 56 50 72c26.667 12.667 61.667 19 105 19c48 0 87.667 -7.33301 119 -22c39.333 -18.667 59 -46.334 59 -83.001
c0 -22.667 -17.667 -44.334 -53 -65.001c-11.333 -6.66699 -29 -14.667 -53 -24l110 -59l82 14l18 -46c-50 -8.66699 -87.333 -16.667 -112 -24c-74.667 -22.667 -112 -50.667 -112 -84c0 -14 6.5 -23.833 19.5 -29.5s31.833 -8.5 56.5 -8.5zM172 385
c0 -12 15.668 -26.668 47.001 -44.001s49.333 -24.666 54 -21.999c5.33301 -2 22 4 50 18c31.333 16 47 31 47 45c0 21.333 -13 37 -39 47c-18.667 7.33301 -41.667 11 -69 11c-26.667 0 -48.334 -4.33301 -65.001 -13s-25 -22.667 -25 -42z" />
    <glyph glyph-name="W" unicode="W" horiz-adv-x="464" 
d="M45 3l171.999 71.0068c-39.333 9.33301 -68.666 18.666 -87.999 27.999c-59.333 29.333 -89 70.666 -89 123.999c0 35.333 15.667 64 47 86c24.667 17.333 60 31.666 106 42.999c24.667 4.66699 49.667 9.66699 75 15c27.333 7.33301 41 18.333 41 33
c0 16.667 -8.33301 32 -25 46c-2.66699 2 -7 4.66699 -13 8h66c8.66699 -6.66699 15 -12.334 19 -17.001c12.667 -14.667 19 -30.334 19 -47.001c0 -28 -23 -48 -69 -60c-26.667 -6.66699 -53.334 -13 -80.001 -19c-39.333 -10.667 -67.333 -21 -84 -31
c-26.667 -16 -40 -37.667 -40 -65c0 -39.333 22 -67.333 66 -84c30 -11.333 67.667 -17 113 -17c10 0 17.833 0.166992 23.5 0.5s10.5 0.833008 14.5 1.5c-1.33301 4.66699 -2.33301 8.33398 -3 11.001c-2.66699 11.333 -4 20.333 -4 27
c0 15.333 3.83301 28.166 11.5 38.499s21.834 15.5 42.501 15.5s35.5 -5.16699 44.5 -15.5s13.5 -24.833 13.5 -43.5c0 -20.667 -7.33301 -39.334 -22 -56.001c-4.66699 -5.33301 -12 -11.333 -22 -18l6 -15c4.66699 -10.667 9 -19.334 13 -26.001
c6.66699 -11.333 17.667 -21.666 33 -30.999l20 -11l-53 -42l-14 16c-10.667 13.333 -18.667 25.666 -24 36.999l-28 65l-57 -2l-198 -114z" />
    <glyph glyph-name="X" unicode="X" horiz-adv-x="618" 
d="M483 384l-0.00390625 73h57v-457h-57v328c-28 10 -55 18.667 -81 26c-50.667 14 -92.667 21 -126 21c-56 0 -96.333 -7 -121 -21c-20.667 -12 -31 -29 -31 -51c0 -24.667 22 -40 66 -46c30.667 -3.33301 52.667 -5.66602 66 -6.99902
c44 -4.66699 79.167 -16.5 105.5 -35.5s39.5 -45.833 39.5 -80.5c0 -54 -28.667 -91.333 -86 -112c-18.667 -6.66699 -47.667 -11.667 -87 -15l89 -79l-52 -35l-79 107c-3.33301 -3.33301 -14.666 -5 -33.999 -5c-32.667 0 -57 7 -73 21c-12.667 11.333 -19 27 -19 47
c0 18 5.33301 32.667 16 44s26.334 17 47.001 17c15.333 0 33.333 -10.667 54 -32c6.66699 -6.66699 15.334 -17.667 26.001 -33c4 -2 13.333 -3 28 -3c28 0 51.333 4.33301 70 13c26.667 12 40 31.667 40 59c0 26 -11.667 45.333 -35 58s-52.333 19 -87 19
c-58 0 -100 9.33301 -126 28c-22 16 -33 38 -33 66c0 45.333 20 77.666 60 96.999c34.667 16.667 86.667 25 156 25c26.667 0 58.334 -3.33301 95.001 -10s74 -15.667 112 -27z" />
    <glyph glyph-name="Y" unicode="Y" horiz-adv-x="552" 
d="M108 319c-6.66699 6 -11.6611 11.333 -14.9941 16c-10 14.667 -15 31.667 -15 51c0 28.667 10.5 51.5 31.5 68.5s49.833 25.5 86.5 25.5c40.667 0 73.5 -12.167 98.5 -36.5s37.5 -55.166 37.5 -92.499c0 -39.333 -17 -71.666 -51 -96.999
c-29.333 -22 -61.333 -33 -96 -33c-5.33301 0 -12.833 0.333008 -22.5 1s-16.5 1 -20.5 1c-10.667 0 -18.334 -1.83301 -23.001 -5.5s-7 -11.167 -7 -22.5c0 -24.667 15.167 -45.834 45.5 -63.501s65.166 -26.5 104.499 -26.5c38 0 75.667 11 113 33c26 15.333 43 29 51 41
v278h57v-457h-57v117c-18.667 -13.333 -34.334 -23.333 -47.001 -30c-39.333 -20.667 -76 -31 -110 -31c-64.667 0 -117.834 15.833 -159.501 47.5s-62.5 72.167 -62.5 121.5c0 15.333 2.66699 25.666 8 30.999s13.333 8 24 8c5.33301 0 11 -0.333008 17 -1l18 -2
c53.333 0 93.666 8.66699 120.999 26s41 39 41 65c0 18.667 -4.33301 35 -13 49c-13.333 21.333 -34 32 -62 32c-26.667 0 -45.334 -7.33301 -56.001 -22c-7.33301 -10 -11 -24 -11 -42c0 -11.333 3.33301 -23 10 -35c2 -4 5.33301 -9 10 -15h-46z" />
    <glyph glyph-name="Z" unicode="Z" 
d="M-168 0h147v-49h-102c-28.667 0 -51 -5.66699 -67 -17c-19.333 -14 -29 -37 -29 -69c0 -32.667 12 -57 36 -73c21.333 -14 50.333 -21 87 -21c18.667 0 40 3.66699 64 11c32.667 10 55 19 67 27l32 -49c-15.333 -9.33301 -39.5 -17.833 -72.5 -25.5
s-64.5 -11.5 -94.5 -11.5c-49.333 0 -92.333 15 -129 45s-55 65 -55 105c0 36.667 11 67 33 91s49.667 36 83 36z" />
    <glyph glyph-name="bracketleft" unicode="[" 
d="M-113 457l-234 228h90l191 -228h-47z" />
    <glyph glyph-name="backslash" unicode="\" 
d="M-392 -28l-47 45l336 111v-39z" />
    <glyph glyph-name="bracketright" unicode="]" 
d="M-284 457l-242 152l67 37l230 -189h-55zM-128 457l-206 222l76 18l181 -240h-51z" />
    <glyph glyph-name="asciicircum" unicode="^" 
d="M-312 -98h-83l146 113h75l152 -113h-81l-108 90z" />
    <glyph glyph-name="underscore" unicode="_" horiz-adv-x="367" 
d="M473 310h-173.997c-38.667 0 -72.334 -11 -101.001 -33c-34.667 -26.667 -52 -65 -52 -115c0 -46 19.667 -79 59 -99c27.333 -14 60.666 -21 99.999 -21c20 0 30.667 0.666992 32 2v-43c-2.66699 -2.66699 -18.334 -4 -47.001 -4c-52 0 -95.333 9.66699 -130 29
c-50.667 28 -76 74.667 -76 140c0 48.667 18 87.667 54 117c12 9.33301 30 19.333 54 30l-168 -5v52h449v-50z" />
    <glyph glyph-name="grave" unicode="`" 
d="M54 -231l-226 191h91l184 -191h-49z" />
    <glyph glyph-name="a" unicode="a" horiz-adv-x="742" 
d="M284 34c-88 0 -147.999 27.666 -179.999 82.999c-10 17.333 -17.667 47.333 -23 90h-48v48h135c26.667 0 48 6 64 18c18.667 14 28 34.667 28 62c0 26.667 -9.5 46.334 -28.5 59.001s-41.833 19 -68.5 19h-103v44h151c30.667 0 56.167 -11.5 76.5 -34.5
s30.5 -50.167 30.5 -81.5c0 -52 -23 -89.667 -69 -113c-29.333 -14.667 -62.333 -22 -99 -22h-8c-2 0 -3.33301 0.333008 -4 1c1.33301 -29.333 5 -51 11 -65c19.333 -44 58.333 -66 117 -66c45.333 0 82.166 11.5 110.499 34.5s42.5 53.5 42.5 91.5v209h51v-110h146v156h57
v-457h-57v251h-144v-71c0 -38 -20 -71.833 -60 -101.5s-82.667 -44.5 -128 -44.5z" />
    <glyph glyph-name="b" unicode="b" horiz-adv-x="638" 
d="M101 284c0 -46 10.6699 -80.333 32.0029 -103s49.666 -34 84.999 -34c38 0 68.5 11.5 91.5 34.5s34.5 49.5 34.5 79.5v141h54v-83h114v138h57v-457h-57v272h-113v-24c0 -36.667 -15.667 -70 -47 -100c-34.667 -32.667 -76.334 -49 -125.001 -49
c-56 0 -101.333 17 -136 51s-52 82 -52 144c0 62.667 17.333 109 52 139c26 22.667 57.333 34 94 34c22 0 38.667 -1.33301 50 -4c10.667 -4 17 -6.33301 19 -7v-49l-26 10c-10.667 2.66699 -22.334 4 -35.001 4c-26.667 0 -48 -10.333 -64 -31
c-18.667 -24 -28 -59.333 -28 -106z" />
    <glyph glyph-name="c" unicode="c" horiz-adv-x="567" 
d="M191 414l-131.001 0.000976562v43h173c31.333 0 56.333 -11.5 75 -34.5s28 -52.833 28 -89.5c0 -46 -22.333 -79 -67 -99c-28 -12.667 -61.667 -19 -101 -19h-9c-2 0 -4.33301 0.333008 -7 1c4 -29.333 9.33301 -51.333 16 -66c20.667 -44.667 55.334 -67 104.001 -67
c34 0 71.667 12.333 113 37c33.333 20 52 34.667 56 44v293h57v-457h-57v107c-9.33301 -14.667 -34 -30.667 -74 -48c-33.333 -14.667 -65.333 -22 -96 -22c-56 0 -99.667 18 -131 54s-47 77.667 -47 125h-60v46h157c25.333 0 46.333 7.16699 63 21.5s25 32.5 25 54.5
c0 33.333 -12 55.666 -36 66.999c-12.667 6 -29.667 9 -51 9z" />
    <glyph glyph-name="d" unicode="d" horiz-adv-x="435" 
d="M43 148c0 30.667 15.9971 57.667 47.9971 81c10.667 7.33301 26.667 16 48 26c-21.333 8 -37.333 15 -48 21c-32 19.333 -48 43 -48 71c0 38.667 20 69 60 91c34.667 19.333 74.667 29 120 29c26.667 0 55.334 -2.33301 86.001 -7c10.667 -1.33301 24.334 -4 41.001 -8
v-53c-11.333 4 -20.666 7 -27.999 9c-24 6.66699 -43.667 10 -59 10c-39.333 0 -71 -3.66699 -95 -11c-39.333 -12 -59 -34 -59 -66c0 -17.333 10.5 -32 31.5 -44s44.167 -18 69.5 -18h122v-48h-117c-30 0 -55.167 -8 -75.5 -24s-30.5 -38.667 -30.5 -68
c0 -32 14.667 -57 44 -75c26 -16 57.667 -24 95 -24c40 0 77 12.667 111 38c11.333 8 24.333 21 39 39l41 -49c-19.333 -16.667 -36 -29 -50 -37c-44 -25.333 -90 -38 -138 -38c-56 0 -103.333 12.667 -142 38c-44 28.667 -66 67.667 -66 117z" />
    <glyph glyph-name="e" unicode="e" horiz-adv-x="497" 
d="M134 457h140.001v-43h-76c-31.333 0 -54.166 -4.83301 -68.499 -14.5s-21.5 -28.5 -21.5 -56.5c0 -26 7.66699 -44.5 23 -55.5s37.666 -16.5 66.999 -16.5h76v-49l-66 -1c-28 0 -52.833 -9.16699 -74.5 -27.5s-32.5 -40.166 -32.5 -65.499c0 -32.667 15 -56 45 -70
c21.333 -10 48.333 -15 81 -15c40 0 73 9.83301 99 29.5s39 40.167 39 61.5v297c0 19.333 0.833008 33.666 2.5 42.999s7.66699 19.333 18 30s19.333 17.334 27 20.001s16.5 4 26.5 4h71v-44h-56c-8 0 -15.333 -3.33301 -22 -10c-3.33301 -3.33301 -6 -8 -8 -14
s-3 -11.667 -3 -17v-314c0 -34 -16.5 -64.667 -49.5 -92s-73.5 -41 -121.5 -41c-64.667 0 -114.334 10.333 -149.001 31c-38.667 23.333 -58 59.333 -58 108c0 26 8.83301 49.167 26.5 69.5s37.167 33.166 58.5 38.499c-17.333 7.33301 -30 14.333 -38 21
c-26 22 -39 51 -39 87c0 28 7 51.333 21 70c18 24 38.667 36 62 36z" />
    <glyph glyph-name="f" unicode="f" horiz-adv-x="535" 
d="M102 33c-10 5.33301 -20.332 11.667 -30.999 19c-11.333 9.33301 -17.666 14.333 -18.999 15l52 41c14.667 -18.667 34.667 -33.5 60 -44.5s56 -16.5 92 -16.5c39.333 0 73 5.66699 101 17c36.667 15.333 55 38 55 68c0 28.667 -23 56 -69 82
c-15.333 8.66699 -38.333 18.667 -69 30l-224 -36l-9 56l167 17c-18.667 9.33301 -32.667 17.333 -42 24c-28 21.333 -42 45 -42 71c0 30.667 13.833 53.5 41.5 68.5s61.167 22.5 100.5 22.5c33.333 0 63.5 -2.33301 90.5 -7s44.167 -9 51.5 -13l-5 -46
c-6 2.66699 -20 6 -42 10s-41 6 -57 6c-34 0 -61.333 -4.83301 -82 -14.5s-31 -26.5 -31 -50.5c0 -15.333 14.333 -30 43 -44c9.33301 -4 23.666 -9.33301 42.999 -16l208 34l10 -53l-144 -19c27.333 -12.667 47.666 -23.667 60.999 -33c41.333 -29.333 62 -60.333 62 -93
c0 -49.333 -27.667 -85.333 -83 -108c-38 -15.333 -81.667 -23 -131 -23c-15.333 0 -24 1 -26 3l149 -109h-105l-95 112c-12 4 -21.667 7 -29 9c-22 7.33301 -39.333 14.333 -52 21z" />
    <glyph glyph-name="g" unicode="g" horiz-adv-x="602" 
d="M477 0v457h57v-457h-57zM185 423c-20.667 0 -39.334 -3.00098 -56.001 -9.00098c-5.33301 -2 -12 -5.33301 -20 -10v53c2.66699 0.666992 14.334 2.5 35.001 5.5s36 4.5 46 4.5c62 0 108.667 -16.667 140 -50c28 -30 42 -71.333 42 -124s-16.333 -94.667 -49 -126
s-73.667 -47 -123 -47c-36 0 -69 10 -99 30c-35.333 23.333 -58 47.333 -68 72l46 36c5.33301 -12 10 -21.333 14 -28c26.667 -41.333 62 -62 106 -62c29.333 0 55 9.66699 77 29c26.667 23.333 40 55 40 95c0 44.667 -13 78.334 -39 101.001c-23.333 20 -54 30 -92 30z" />
    <glyph glyph-name="h" unicode="h" horiz-adv-x="510" 
d="M47 163c0 43.333 12.6631 80.3359 37.9961 111.003c22.667 27.333 53 47.333 91 60c-7.33301 8.66699 -12.666 16 -15.999 22c-10.667 18 -16 34.667 -16 50c0 20 9 35.333 27 46c22.667 14 59.334 21 110.001 21c14.667 0 33.834 -1.66699 57.501 -5s39.167 -7 46.5 -11
v-54c-10.667 5.33301 -19.334 9.33301 -26.001 12c-21.333 8 -42 12 -62 12h-17c-22 0 -38.333 -2 -49 -6c-17.333 -6.66699 -26 -18.667 -26 -36c0 -26.667 22 -43.334 66 -50.001c21.333 -2.66699 43 -5 65 -7c44 -6.66699 78 -21.667 102 -45c20 -19.333 30 -43 30 -71
c0 -34.667 -15.667 -61.334 -47 -80.001c-28 -16.667 -61.667 -25 -101 -25c-20 0 -41.667 1.66699 -65 5c-8 0.666992 -18.667 2.66699 -32 6v50c11.333 -2.66699 20.333 -4.66699 27 -6c23.333 -4.66699 41.666 -7 54.999 -7c22 0 43.667 5 65 15
c26.667 12.667 40 29 40 49c0 26 -20.333 45.667 -61 59c-32 10.667 -66.333 16 -103 16c-40.667 0 -74.5 -11.833 -101.5 -35.5s-40.5 -57.834 -40.5 -102.501c0 -47.333 17.667 -84 53 -110c32 -23.333 72 -35 120 -35c48.667 0 92.334 7.66699 131.001 23
c12.667 4.66699 27.334 12.667 44.001 24v-56c-17.333 -8.66699 -43 -16.667 -77 -24s-66.333 -11 -97 -11c-77.333 0 -135.166 17.167 -173.499 51.5s-57.5 82.5 -57.5 144.5z" />
    <glyph glyph-name="i" unicode="i" horiz-adv-x="219" 
d="M93 0v457h57v-457h-57z" />
    <glyph glyph-name="j" unicode="j" horiz-adv-x="588" 
d="M546 469l47.001 -40.002l-178 -189c7.33301 -10.667 15 -30.667 23 -60s12 -53.666 12 -72.999c0 -31.333 -5.66699 -56.5 -17 -75.5s-28.666 -28.5 -51.999 -28.5s-40.833 9.5 -52.5 28.5s-17.5 44.833 -17.5 77.5c0 30.667 7 61.667 21 93
c4.66699 10 11.667 22.333 21 37c2 6.66699 -20 37 -66 91c-51.333 60 -92.333 90 -123 90c-24.667 0 -44.667 -9 -60 -27s-23 -43.667 -23 -77c0 -29.333 8.83301 -52.5 26.5 -69.5s40.834 -25.5 69.501 -25.5c11.333 0 23.666 4 36.999 12
c4 2.66699 9.66699 6.66699 17 12v-55c-8.66699 -5.33301 -17.334 -10.333 -26.001 -15c-12 -4.66699 -24.667 -7 -38 -7c-31.333 0 -61 11.667 -89 35c-34 28.667 -51 67.334 -51 116.001c0 44 12.667 80 38 108s57.666 42 96.999 42c51.333 0 104.333 -30.333 159 -91
c18 -20 40 -50.333 66 -91z" />
    <glyph glyph-name="k" unicode="k" horiz-adv-x="525" 
d="M35 240l186.998 22c-10.667 -0.666992 -32.334 10.333 -65.001 33c-38 26.667 -57 52 -57 76c0 34 17 59.333 51 76c27.333 13.333 62.333 20 105 20c24.667 0 53.334 -2.66699 86.001 -8s52.334 -9.33301 59.001 -12l-5 -48c-8.66699 4.66699 -21.334 9 -38.001 13
c-23.333 6 -44 9 -62 9c-39.333 0 -66.666 -2.33301 -81.999 -7c-30 -9.33301 -45 -28 -45 -56c0 -20 17.333 -40 52 -60c30 -17.333 49 -25.333 57 -24l206 39l11 -53l-156 -22c28.667 -10 50 -19.333 64 -28c42.667 -26 64 -56.667 64 -92c0 -44 -20.333 -76.667 -61 -98
c-34.667 -18 -84 -27 -148 -27c-37.333 0 -74.333 7.16699 -111 21.5s-69.667 32.5 -99 54.5l52 41c8.66699 -14.667 33 -31.667 73 -51c30 -14.667 58.333 -22 85 -22c36.667 0 67.334 4.66699 92.001 14c37.333 14 56 37 56 69c0 29.333 -21.667 56 -65 80
c-14 8 -36 17.333 -66 28l-231 -42z" />
    <glyph glyph-name="l" unicode="l" horiz-adv-x="549" 
d="M241 212v51l182 1v193h57v-457h-57v212h-182zM256 462c25.333 0 45.3311 -1.66504 59.998 -4.99805c12.667 -4.66699 20.334 -7.33398 23.001 -8.00098v-45l-21.5 6c-9.66699 2.66699 -17.5 4 -23.5 4c-4 0.666992 -10 1 -18 1c-50 0 -92.167 -16.167 -126.5 -48.5
s-51.5 -75.166 -51.5 -128.499c0 -54.667 20 -98.334 60 -131.001c36.667 -30 82.667 -45 138 -45c14 0 25.667 3 35 9c4.66699 3.33301 7.33398 5 8.00098 5v-51l-21 -10c-14 -3.33301 -31.333 -5 -52 -5c-58 0 -109.667 20.667 -155 62
c-49.333 45.333 -74 100.666 -74 165.999s21 119 63 161s94 63 156 63z" />
    <glyph glyph-name="m" unicode="m" horiz-adv-x="506" 
d="M378 265l-0.00292969 191.999h59v-457h-59v217h-168v-23c0 -18.667 -6.5 -34.334 -19.5 -47.001s-31.5 -19 -55.5 -19c-20.667 0 -37.167 6.16699 -49.5 18.5s-18.5 29.166 -18.5 50.499c0 34 14 55.667 42 65c9.33301 2.66699 23.333 4 42 4v62v20
c0 6.66699 0.333008 13.667 1 21c0 12.667 -0.666992 23.334 -2 32.001s-4.16602 14.334 -8.49902 17.001s-12.5 4 -24.5 4c-14 0 -30.5 -1.66699 -49.5 -5s-28.833 -5.66602 -29.5 -6.99902v47c2 1.33301 11.5 3.16602 28.5 5.49902s31.833 3.5 44.5 3.5
c18.667 0 34.834 -1.5 48.501 -4.5s24.334 -8.5 32.001 -16.5s12.667 -15.667 15 -23s3.5 -18.666 3.5 -33.999v-22v-105z" />
    <glyph glyph-name="n" unicode="n" horiz-adv-x="574" 
d="M449 362v94.9971h57v-457h-57v311h-142c8.66699 -7.33301 13.667 -11.666 15 -12.999c16 -18 24 -43 24 -75c0 -29.333 -13.333 -54.5 -40 -75.5s-62.667 -31.5 -108 -31.5c-49.333 0 -87.666 11.333 -114.999 34s-41 52.334 -41 89.001s13.167 66.334 39.5 89.001
s58.166 34 95.499 34h272zM291 235.997c0 24.667 -5.66504 43.998 -16.998 57.998c-5.33301 6.66699 -12.666 12.334 -21.999 17.001c-2.66699 2.66699 -13.667 4 -33 4c-28.667 0 -52.334 -4.66699 -71.001 -14c-26.667 -13.333 -40 -34.666 -40 -63.999
c0 -24 8.16699 -42.5 24.5 -55.5s36.166 -19.5 59.499 -19.5c27.333 0 50.666 6.66699 69.999 20s29 31.333 29 54z" />
    <glyph glyph-name="o" unicode="o" horiz-adv-x="601" 
d="M508 -4c-8.66699 13.333 -15.333 24.001 -20 32.001s-10 18 -16 30c-24.667 -29.333 -45.667 -51.333 -63 -66c-53.333 -44 -108.333 -66 -165 -66c-55.333 0 -102.333 15 -141 45c-44 34 -66 80.667 -66 140c0 36.667 10.333 68 31 94c8.66699 10.667 20 20.667 34 30
l42 -34c-11.333 -9.33301 -19.666 -17.333 -24.999 -24c-16.667 -20.667 -25 -42.334 -25 -65.001c0 -42 16 -75.333 48 -100c28 -21.333 61 -32 99 -32c36 0 70.333 10 103 30c40.667 24.667 65.334 48.667 74.001 72c-7.33301 -0.666992 -13.666 -1 -18.999 -1
c-72.667 0 -128 12.5 -166 37.5s-57 59.5 -57 103.5c0 32 9.66699 58.333 29 79s48.333 36.667 87 48l96 20c36 8 54 19.333 54 34c0 13.333 -6.33301 26.333 -19 39c-4 4 -10.333 9 -19 15h71c8 -7.33301 14 -13 18 -17c12.667 -14 19 -26.333 19 -37
c0 -36 -29 -61 -87 -75l-88.5 -18.5c-29.667 -6.33301 -51.834 -16.166 -66.501 -29.499c-19.333 -17.333 -29 -40.666 -29 -69.999c0 -32.667 25.667 -55.667 77 -69c30.667 -8 67 -12 109 -12h10.5h2.5c-0.666992 3.33301 -1.33398 8.16602 -2.00098 14.499
s-1 11.5 -1 15.5c0 18 3 31.667 9 41c8.66699 14 23.667 21 45 21c24 0 41.333 -5.33301 52 -16s16 -28.334 16 -53.001c0 -18 -7.33301 -34 -22 -48c-4.66699 -4.66699 -12 -10 -22 -16c1.33301 -3.33301 6 -12.333 14 -27c5.33301 -10 10.333 -18 15 -24
c15.333 -20.667 33.666 -37.667 54.999 -51l-57 -34c-5.33301 6 -10 11.667 -14 17c-8 10 -14.667 19 -20 27z" />
    <glyph glyph-name="p" unicode="p" horiz-adv-x="465" 
d="M339 147c-13.333 -6.66699 -24.332 -11.333 -32.999 -14c-28.667 -10 -55.334 -15 -80.001 -15c-39.333 0 -74.333 10.333 -105 31c-35.333 24 -53 54 -53 90v146c0 1.33301 0.166992 3.83301 0.5 7.5s-0.666992 7.16699 -3 10.5s-5 5.5 -8 6.5
s-6.16699 2.16699 -9.5 3.5h-48v44h56c19.333 0 36 -7.33301 50 -22s21 -34 21 -58v-149c0 -20.667 11.667 -36 35 -46c18 -8 39.667 -12 65 -12c20 0 44.667 6.33301 74 19c9.33301 4 22 10.333 38 19v249h57v-457h-57v147z" />
    <glyph glyph-name="q" unicode="q" horiz-adv-x="489" 
d="M180 285c-14.667 6.66699 -25.6689 12.668 -33.002 18.001c-22.667 17.333 -34 37 -34 59c0 37.333 17.667 64.333 53 81c29.333 14 71 21 125 21c13.333 0 29.833 -1.33301 49.5 -4s33.834 -5.33398 42.501 -8.00098v-58c-4.66699 3.33301 -9 5.66602 -13 6.99902
c-24 10.667 -52 16 -84 16c-32.667 0 -57 -3 -73 -9c-24.667 -9.33301 -37 -26.333 -37 -51c0 -18.667 25.333 -35.667 76 -51l77 -22c41.333 -12.667 75 -31.667 101 -57s39 -53.666 39 -84.999c0 -48 -21.667 -85.667 -65 -113c-38.667 -24.667 -85 -37 -139 -37
c-72 0 -128 12.667 -168 38s-60 64.333 -60 117c0 39.333 23 74 69 104c34.667 22.667 59.334 34 74.001 34zM300.998 238.001l-36.998 11.002c-30 10 -46 15 -48 15c-26.667 -10.667 -46.334 -20.334 -59.001 -29.001c-39.333 -28 -59 -62 -59 -102
c0 -32.667 13.333 -56.334 40 -71.001s64.667 -22 114 -22c43.333 0 79.666 8 108.999 24c32.667 18 49 41.667 49 71c0 27.333 -11.667 50 -35 68c-18 14 -42.667 25.667 -74 35z" />
    <glyph glyph-name="r" unicode="r" horiz-adv-x="473" 
d="M256 403l-192.001 0.00195312v54h232c38 0 71 -13.333 99 -40s42 -59 42 -97c0 -54.667 -29.333 -93.334 -88 -116.001c-36.667 -14 -81.667 -21 -135 -21h-15c-4 0 -7.33301 0.333008 -10 1l22 -101c1.33301 -9.33301 4.33301 -15.5 9 -18.5s11 -4.5 19 -4.5h209v-60
h-247c-12.667 0 -23.667 3.33301 -33 10c-4.66699 3.33301 -8.16699 7.83301 -10.5 13.5s-4.5 12.167 -6.5 19.5l-35 141h-74v58h215c26.667 0 49.334 4.33301 68.001 13c29.333 13.333 44 34.666 44 63.999c0 28 -12 49.667 -36 65c-20 12.667 -45.667 19 -77 19z" />
    <glyph glyph-name="s" unicode="s" horiz-adv-x="577" 
d="M258 210c-15.333 -7.33301 -37.333 -12.9951 -66 -16.9951c-9.33301 -0.666992 -22 -1.66699 -38 -3l39 -123c1.33301 -2.66699 2.5 -5.33398 3.5 -8.00098s3 -5.33398 6 -8.00098s6.16699 -4.33398 9.5 -5.00098s6.33301 -1.33398 9 -2.00098h143v-44h-176
c-6 2 -10.333 3.33301 -13 4c-10.667 4 -17.834 8 -21.501 12s-7.16699 8.16699 -10.5 12.5s-5.66602 9.16602 -6.99902 14.499l-44 147h-55v48h154c17.333 0 35.166 9.16699 53.499 27.5s27.5 39.5 27.5 63.5c0 23.333 -6.16699 43.166 -18.5 59.499
s-28.833 24.5 -49.5 24.5h-133v44h155c35.333 0 63.333 -15.667 84 -47c8.66699 -12.667 14.667 -26.5 18 -41.5s5 -28.5 5 -40.5v-6c0 -1.33301 -0.333008 -2.66602 -1 -3.99902l129 -1v140h57v-457h-57v267h-143c-1.33301 -4 -7 -11.667 -17 -23
c-13.333 -14.667 -27.666 -26 -42.999 -34z" />
    <glyph glyph-name="t" unicode="t" horiz-adv-x="535" 
d="M312 45l-12 -45c-1.33301 -0.666992 -7.5 -1.5 -18.5 -2.5s-20.833 -1.5 -29.5 -1.5c-53.333 0 -97.333 11.333 -132 34c-51.333 33.333 -77 88.333 -77 165c0 44.667 17.167 82.167 51.5 112.5s74.5 45.5 120.5 45.5l193 1v103h58v-457h-58v304h-160
c-36 0 -67.667 -8.66699 -95 -26c-34.667 -22 -52 -55 -52 -99c0 -53.333 20.667 -91.333 62 -114c28 -15.333 64.333 -23 109 -23c24.667 0 38 1 40 3z" />
    <glyph glyph-name="u" unicode="u" horiz-adv-x="516" 
d="M297 607c-57.333 0 -102.332 -16.999 -134.999 -50.999c-30 -31.333 -45 -73 -45 -125v-288c0 -23.333 9.33301 -45.333 28 -66c26 -28.667 64 -43 114 -43c39.333 0 73.333 7.33301 102 22c34 17.333 51 40.666 51 69.999c0 28.667 -12.333 52.667 -37 72
c-21.333 16.667 -42.333 25 -63 25h-76v48h76c23.333 0 44.333 6.83301 63 20.5s28 30.834 28 51.501c0 30 -9.33301 50 -28 60c-13.333 7.33301 -34.333 11 -63 11h-92v43h132c32 0 57.833 -9.83301 77.5 -29.5s29.5 -45.834 29.5 -78.501
c0 -39.333 -13.667 -68.666 -41 -87.999c-8.66699 -6 -22.334 -12 -41.001 -18c26.667 -6.66699 48.667 -19.334 66 -38.001c20 -22 30 -48.667 30 -80c0 -44 -21.333 -78 -64 -102c-38.667 -22 -88 -33 -148 -33c-52.667 0 -98 13.667 -136 41
c-41.333 30 -62 68.667 -62 116v284c0 63.333 21 115.333 63 156s99 61 171 61c52 0 100 -14.333 144 -43c14.667 -9.33301 31.667 -24 51 -44l-35 -41c-6 18 -27.667 38 -65 60c-30 18 -61.667 27 -95 27z" />
    <glyph glyph-name="v" unicode="v" horiz-adv-x="504" 
d="M203 452h49.501c12.333 0 22.166 -1.33301 29.499 -4v-48c-2 0.666992 -7.83301 1.5 -17.5 2.5s-18.167 1.5 -25.5 1.5c-10 0 -17.667 -0.333008 -23 -1c-31.333 -4 -55.333 -15 -72 -33c-21.333 -22.667 -32 -57.667 -32 -105s14.333 -86.333 43 -117
c24.667 -26.667 51 -40 79 -40c24.667 0 50 4.66699 76 14c36 12.667 58.333 24.667 67 36v299h57v-457h-57v100c-18 -10 -32.667 -17.333 -44 -22c-36.667 -15.333 -69.667 -23 -99 -23c-48 0 -88.667 17.667 -122 53c-38 40 -57 93.333 -57 160
c0 51.333 13.167 93.833 39.5 127.5s62.5 52.5 108.5 56.5z" />
    <glyph glyph-name="w" unicode="w" horiz-adv-x="552" 
d="M245 497c0 7.33301 -5.33496 15.6709 -16.002 25.0039c-1.33301 1.33301 -4.33301 3.33301 -9 6h62c4 -2 9.16699 -7.33301 15.5 -16s9.5 -17.334 9.5 -26.001c0 -15.333 -9 -28 -27 -38c-15.333 -8 -40.166 -14.833 -74.499 -20.5s-56.833 -10.5 -67.5 -14.5
c-26 -10 -39 -26.333 -39 -49c0 -20.667 14.667 -37.334 44 -50.001c21.333 -9.33301 40.333 -14 57 -14h109v-46h-109c-29.333 0 -53 -7.5 -71 -22.5s-27 -38.5 -27 -70.5c0 -27.333 13.667 -48 41 -62c22.667 -11.333 52 -17 88 -17c40.667 0 84.334 14 131.001 42
c36 21.333 57.333 38 64 50v283h57v-457h-57v106c-15.333 -16.667 -43.666 -33.334 -84.999 -50.001c-33.333 -13.333 -64.333 -20 -93 -20c-59.333 0 -107.333 11 -144 33c-42 25.333 -63 61.333 -63 108c0 34.667 17 62 51 82c11.333 6 28.333 12.333 51 19
c-14.667 0 -32.334 6 -53.001 18c-32.667 18.667 -49 45 -49 79c0 26 9.33301 46 28 60s47.167 23.167 85.5 27.5s63 8.66602 74 12.999s16.5 11.5 16.5 21.5z" />
    <glyph glyph-name="x" unicode="x" horiz-adv-x="640" 
d="M513 293l0.000976562 163.998h57v-457h-57v251h-216c-3.33301 0 -18.333 -5 -45 -15l-42 -16c-34 -12 -57.333 -22.667 -70 -32c-22.667 -16 -34 -36 -34 -60s12 -42.667 36 -56c20.667 -11.333 46 -17 76 -17c11.333 -1.33301 26 -0.333008 44 3c2.66699 0 7 1 13 3
c-1.33301 3.33301 -2.66602 8 -3.99902 14s-2 12.667 -2 20c0 14.667 3.66699 26.334 11 35.001c10 12 26 18 48 18c17.333 0 32.166 -5.16699 44.499 -15.5s18.5 -24.5 18.5 -42.5c0 -16.667 -5.33301 -31 -16 -43c-14 -16 -27 -24 -39 -24l72 -83l-49 -39l-71 117
c-1.33301 -1.33301 -10.333 -2.66602 -27 -3.99902s-28 -2 -34 -2c-64 0 -111.667 12 -143 36c-26 20 -39 47.333 -39 82c0 28.667 9.33301 53.5 28 74.5s58.334 42.167 119.001 63.5c50 18 82 30.667 96 38c33.333 17.333 50 37 50 59c0 24.667 -13.333 41.667 -40 51
c-16.667 6 -38 9 -64 9c-30 0 -53.667 -6.66699 -71 -20c-14.667 -11.333 -22 -25.666 -22 -42.999c0 -12.667 3.66699 -24 11 -34c2 -3.33301 6 -7.33301 12 -12h-54l-14 14c-9.33301 12.667 -14 26.334 -14 41.001c0 33.333 14.5 58.166 43.5 74.499
s65.833 24.5 110.5 24.5c53.333 0 94.166 -9.33301 122.499 -28s42.5 -43.334 42.5 -74.001c0 -16 -7.33301 -33.333 -22 -52c-4.66699 -6 -12.334 -13.667 -23.001 -23h157z" />
    <glyph glyph-name="y" unicode="y" horiz-adv-x="552" 
d="M426 172v284.997h57v-457h-57v113c-17.333 -11.333 -43 -22.166 -77 -32.499s-66 -15.5 -96 -15.5c-58.667 0 -107 12 -145 36c-44.667 28.667 -67 70.334 -67 125.001c0 12.667 4.66699 23.334 14 32.001s20.666 13 33.999 13l73 -4c41.333 0 69.5 6.5 84.5 19.5
s22.5 31.167 22.5 54.5c0 26.667 -11 46 -33 58c-16.667 9.33301 -39.667 14 -69 14h-96v44h147c30.667 0 56.5 -12.167 77.5 -36.5s31.5 -52.5 31.5 -84.5c0 -34 -12.333 -61.833 -37 -83.5s-53.667 -32.5 -87 -32.5c-10 0 -22.667 1.16699 -38 3.5
s-25.666 3.5 -30.999 3.5c-15.333 0 -23 -8.33301 -23 -25c0 -30 14 -52.667 42 -68s61 -23 99 -23c33.333 0 65 5.33301 95 16c38 13.333 64.333 28.333 79 45z" />
    <glyph glyph-name="z" unicode="z" horiz-adv-x="570" 
d="M234 229c0 55.333 -7.33008 98.333 -21.9971 129c-20.667 42.667 -55.667 64 -105 64c-14.667 0 -28.667 -4 -42 -12c-11.333 -8.66699 -18 -13.667 -20 -15v52c13.333 4 23.666 6.66699 30.999 8c26 6 45.333 9 58 9c40.667 0 74 -12.167 100 -36.5s43 -55.833 51 -94.5
l20 13c18 10.667 32.667 17.5 44 20.5s21 4.5 29 4.5c11.333 0 20.5 -0.833008 27.5 -2.5s15.167 -3.5 24.5 -5.5c4 2.66699 7.33301 5 10 7c15.333 12 25.666 24.333 30.999 37c2 4.66699 3 12.667 3 24c0 5.33301 -0.166992 10.166 -0.5 14.499
s-0.833008 8.16602 -1.5 11.499h63c0 -5.33301 -0.333008 -14.333 -1 -27s-5 -26.667 -13 -42c-5.33301 -11.333 -18.333 -23 -39 -35c-3.33301 -2 -8 -4.33301 -14 -7c13.333 -14 23.333 -26.333 30 -37c20.667 -33.333 31 -69.666 31 -108.999
c0 -56.667 -10 -103 -30 -139c-22.667 -40.667 -56 -61 -100 -61c-22 0 -43 2.66699 -63 8c-3.33301 0.666992 -7 2 -11 4v56c4 -4 8.33301 -7.66699 13 -11c9.33301 -6.66699 19 -10 29 -10c30.667 0 54.667 11.667 72 35c20 26.667 30 66.667 30 120
c0 38 -8.33301 67.667 -25 89s-39.667 32 -69 32c-19.333 0 -38.333 -5.33301 -57 -16c-12 -7.33301 -20 -13.666 -24 -18.999v-78c0 -55.333 -17 -104.5 -51 -147.5s-75.667 -64.5 -125 -64.5c-5.33301 0 -13 0.666992 -23 2s-24 5.66602 -42 12.999
c-8 3.33301 -16.667 7.33301 -26 12v53c9.33301 -7.33301 16.666 -12.666 21.999 -15.999c18 -11.333 32.667 -17 44 -17c48 0 84.333 19.667 109 59c21.333 33.333 32 75 32 125z" />
    <glyph glyph-name="braceleft" unicode="{" horiz-adv-x="380" 
d="M23 205c0 61.333 13.666 124 40.999 188c20 46.667 45.333 90.667 76 132c24 32.667 37.667 49 41 49h46c-2 0 -14 -17.333 -36 -52c-26 -42 -48 -86.667 -66 -134c-24.667 -65.333 -37 -126.333 -37 -183c0 -58.667 12 -119 36 -181c17.333 -44.667 39.333 -87 66 -127
c22 -32.667 34.333 -49 37 -49h-46c-3.33301 0 -17 16 -41 48c-31.333 42 -56.666 84.667 -75.999 128c-27.333 62 -41 122.333 -41 181z" />
    <glyph glyph-name="bar" unicode="|" 
d="M-326 87l-47 45l156 126l20 -24z" />
    <glyph glyph-name="braceright" unicode="}" horiz-adv-x="380" 
d="M208 575c2.66699 0 16.332 -16.333 40.999 -49c31.333 -42 57 -86 77 -132c28 -64.667 42 -127.667 42 -189c0 -58 -13.667 -118 -41 -180c-19.333 -43.333 -44.666 -86 -75.999 -128c-24.667 -32.667 -38.334 -49 -41.001 -49h-46c2.66699 0 14.667 16 36 48
c28.667 42.667 51.334 85.334 68.001 128.001c24 61.333 36 121.666 36 180.999c0 58.667 -12 119.667 -36 183c-16 43.333 -38.667 88 -68 134c-22 34.667 -34 52 -36 52z" />
    <glyph glyph-name="asciitilde" unicode="~" horiz-adv-x="651" 
d="M265 7l-54.9971 42l253 109l-212 77l-165 -68l-45 43l161 52c-10.667 1.33301 -27.334 11.666 -50.001 30.999c-28.667 24.667 -43 50.334 -43 77.001c0 33.333 15.667 60.333 47 81c27.333 18 60.666 27 99.999 27c42 0 78.833 -10.5 110.5 -31.5
s47.5 -49.833 47.5 -86.5c0 -26.667 -16.667 -52 -50 -76c-10.667 -8 -27.334 -17.333 -50.001 -28l211 -76v277h57v-457h-57v141zM172.003 360c0 -20.667 13.999 -40.332 41.999 -58.999c22.667 -15.333 38.334 -23 47.001 -23c20 7.33301 35 13.666 45 18.999
c30.667 17.333 46 37.333 46 60c0 26.667 -8 46.167 -24 58.5s-39 18.5 -69 18.5c-24 0 -44.5 -6.33301 -61.5 -19s-25.5 -31 -25.5 -55z" />
    <glyph glyph-name="exclamdown" unicode="&#xa1;" horiz-adv-x="646" 
d="M647 818v-54h-53l-290 -784h-40l-179 276l-44 -49l-34 41l134 138l161 -241l249 673h96z" />
    <glyph glyph-name="cent" unicode="&#xa2;" horiz-adv-x="457" 
d="M228 191l-116 -116l-37 37l116 115l-117 117l37 37l117 -117l116 117l37 -37l-117 -117l116 -115l-37 -37z" />
    <glyph glyph-name="sterling" unicode="&#xa3;" horiz-adv-x="457" 
d="M38 207v52h381v-52h-381zM226 168c10.667 0 19.667 -3.66699 27 -11s11 -16.333 11 -27s-3.66699 -19.667 -11 -27s-16.333 -11 -27 -11s-19.667 3.66699 -27 11s-11 16.333 -11 27s3.66699 19.667 11 27s16.333 11 27 11zM224 298c-10 0 -18.333 3.33301 -25 10
s-10 15 -10 25s3.33301 18.333 10 25s15 10 25 10s18.333 -3.33301 25 -10s10 -15 10 -25s-3.33301 -18.333 -10 -25s-15 -10 -25 -10z" />
    <glyph glyph-name="currency" unicode="&#xa4;" horiz-adv-x="576" 
d="M90 396h396v-396h-396v396z" />
    <glyph glyph-name="yen" unicode="&#xa5;" horiz-adv-x="761" 
d="M311 349l76 216l70 -216h241l-191 -127l83 -247l-203 171l-197 -172l76 241l-197 134h242z" />
    <glyph glyph-name="logicalnot" unicode="&#xac;" horiz-adv-x="640" 
d="M315 85c-52 0 -97.166 16.333 -135.499 49s-57.5 73.667 -57.5 123c0 50 18.5 92.167 55.5 126.5s81.167 51.5 132.5 51.5s96.166 -16.5 134.499 -49.5s57.5 -73.833 57.5 -122.5c0 -50 -18.167 -92.167 -54.5 -126.5s-80.5 -51.5 -132.5 -51.5z" />
    <glyph glyph-name="minus" unicode="&#xad;" horiz-adv-x="457" 
d="M38 207v52h381v-52h-381z" />
    <glyph glyph-name="plusminus" unicode="&#xb1;" horiz-adv-x="475" 
d="M35 226l176.998 42.001c-11.333 0 -31.333 10 -60 30c-34.667 24 -52 48.333 -52 73c0 34 17 59.333 51 76c27.333 13.333 62.333 20 105 20c24.667 0 53.334 -2.66699 86.001 -8s52.334 -9.33301 59.001 -12l-5 -48c-8.66699 4.66699 -21.334 9 -38.001 13
c-23.333 6 -44 9 -62 9c-39.333 0 -66.666 -2.33301 -81.999 -7c-30 -9.33301 -45 -28 -45 -56c0 -19.333 15.667 -38 47 -56c25.333 -14.667 42.666 -22 51.999 -22l269 -1l-4 -53l-200 18c30 -12 52.333 -22.667 67 -32c44.667 -28 67 -59.333 67 -94
c0 -44 -20.333 -76.667 -61 -98c-34.667 -18 -84 -27 -148 -27c-37.333 0 -74.333 7.16699 -111 21.5s-69.667 32.5 -99 54.5l52 41c8.66699 -14.667 33 -31.667 73 -51c30 -14.667 58.333 -22 85 -22c36.667 0 67.334 4.66699 92.001 14c37.333 14 56 37 56 69
c0 29.333 -25 58 -75 86c-16.667 9.33301 -42 20.666 -76 33.999l-203 -68z" />
    <glyph glyph-name="twosuperior" unicode="&#xb2;" horiz-adv-x="415" 
d="M492 309l-0.00292969 -48.002h-140v-21c0 -26.667 -11 -50.667 -33 -72c-27.333 -26.667 -63.333 -40 -108 -40c-45.333 0 -80.166 11.5 -104.499 34.5s-36.5 51.5 -36.5 85.5v137v12c0 4.66699 -0.666992 8 -2 10s-3.66602 3.33301 -6.99902 4s-7 1.33398 -11 2.00098
h-50v44h57c21.333 0 39 -8 53 -24c11.333 -13.333 17 -32 17 -56v-137c0 -19.333 8.66699 -35.166 26 -47.499s36.333 -18.5 57 -18.5c22.667 0 42.834 5.66699 60.501 17s26.5 27 26.5 47v173h54v-102h141z" />
    <glyph glyph-name="threesuperior" unicode="&#xb3;" horiz-adv-x="405" 
d="M185 423c-20.667 0 -39.334 -3.00098 -56.001 -9.00098c-5.33301 -2 -12 -5.33301 -20 -10v53c2.66699 0.666992 14.334 2.5 35.001 5.5s36 4.5 46 4.5c62 0 108.667 -16.667 140 -50c28 -30 42 -71.333 42 -124s-16.333 -94.667 -49 -126s-73.667 -47 -123 -47
c-36 0 -69 10 -99 30c-35.333 23.333 -58 47.333 -68 72l46 36c5.33301 -12 10 -21.333 14 -28c26.667 -41.333 62 -62 106 -62c29.333 0 55 9.66699 77 29c26.667 23.333 40 55 40 95c0 44.667 -13 78.334 -39 101.001c-23.333 20 -54 30 -92 30z" />
    <glyph glyph-name="acute" unicode="&#xb4;" horiz-adv-x="332" 
d="M426 164l0.00195312 -64.001c-18 -14.667 -44 -28 -78 -40s-64.667 -18 -92 -18c-56.667 0 -104 10 -142 30c-46 24.667 -69 59.667 -69 105c0 26.667 14.667 50 44 70c9.33301 6.66699 24 14 44 22c-16.667 0 -36.334 11 -59.001 33c-18 17.333 -27 36.666 -27 57.999
c0 36 16.333 63.167 49 81.5s71.667 27.5 117 27.5c17.333 0 36.5 -1.5 57.5 -4.5s38.833 -6.83301 53.5 -11.5v-45c-14 4.66699 -27.333 8.5 -40 11.5s-23.334 4.5 -32.001 4.5c-52.667 0 -89.334 -6 -110.001 -18s-31 -28.667 -31 -50s10 -38.333 30 -51
s42.333 -19 67 -19h109v-47h-109c-24.667 0 -47.167 -6.33301 -67.5 -19s-30.5 -29 -30.5 -49c0 -25.333 15.667 -45.666 47 -60.999c26.667 -13.333 58 -20 94 -20c29.333 0 60 7 92 21c42.667 18.667 70.334 36.334 83.001 53.001z" />
    <glyph glyph-name="mu" unicode="&#xb5;" horiz-adv-x="344" 
d="M441 164l-0.000976562 -56.999c-9.33301 -14.667 -34 -30.667 -74 -48c-33.333 -14.667 -65.333 -22 -96 -22c-56 0 -99.667 18 -131 54s-47 77.667 -47 125h-60v46h157c25.333 0 46.333 7.16699 63 21.5s25 32.5 25 54.5c0 33.333 -12 55.666 -36 66.999
c-12.667 6 -29.667 9 -51 9h-131v43h173c31.333 0 56.333 -11.5 75 -34.5s28 -52.833 28 -89.5c0 -46 -22.333 -79 -67 -99c-28 -12.667 -61.667 -19 -101 -19h-9c-2 0 -4.33301 0.333008 -7 1c4 -29.333 9.33301 -51.333 16 -66c20.667 -44.667 55.334 -67 104.001 -67
c34 0 71.667 12.333 113 37c33.333 20 52 34.667 56 44z" />
    <glyph glyph-name="paragraph" unicode="&#xb6;" horiz-adv-x="520" 
d="M563 370l0.00195312 -55.9971c-2 0.666992 -7.33301 1.5 -16 2.5s-15.667 1.5 -21 1.5c-20 0 -38 -4 -54 -12s-31.667 -24 -47 -48c-12 -18.667 -18.667 -32.334 -20 -41.001c6.66699 -10 13.5 -27.833 20.5 -53.5s10.5 -47.834 10.5 -66.501
c0 -34.667 -6.16699 -59.334 -18.5 -74.001s-27.166 -22 -44.499 -22c-18.667 0 -34.334 8.83301 -47.001 26.5s-19 43.5 -19 77.5c0 24 5.33301 49.667 16 77c3.33301 8.66699 8.66602 19.667 15.999 33c6.66699 10.667 -26 57.667 -98 141c-38 44 -67.667 66 -89 66
c-20 0 -36.833 -9.33301 -50.5 -28s-20.5 -44.667 -20.5 -78c0 -26.667 7 -48.667 21 -66c18.667 -23.333 40.334 -35 65.001 -35c9.33301 0 21.333 4 36 12l20 12v-47l-28 -16c-12.667 -5.33301 -24.667 -8 -36 -8c-31.333 0 -60 11.667 -86 35
c-32 28.667 -48 67.334 -48 116.001c0 44 11.667 79.333 35 106s54.666 40 93.999 40c47.333 0 97.666 -34 150.999 -102c17.333 -22.667 39.333 -56.667 66 -102c3.33301 9.33301 11.666 23.333 24.999 42c18 25.333 36.333 42.666 55 51.999
c12.667 6.66699 25.834 11.167 39.501 13.5s28.167 3.5 43.5 3.5c17.333 -1.33301 27 -2 29 -2z" />
    <glyph glyph-name="periodcentered" unicode="&#xb7;" horiz-adv-x="440" 
d="M63 187l-0.000976562 270.001h56v-272c0 -42.667 16.667 -79.334 50 -110.001s70 -46 110 -46c26.667 0 51.334 2 74.001 6s41 10 55 18l23 -52c-6 -2 -27.167 -5.16699 -63.5 -9.5s-66.833 -6.5 -91.5 -6.5c-65.333 0 -118 21.333 -158 64
c-36.667 38.667 -55 84.667 -55 138zM208.999 395.001l0.000976562 51.999c12.667 4 26.5 7.5 41.5 10.5s28.167 4.5 39.5 4.5c41.333 0 76 -14.667 104 -44s42 -64.666 42 -105.999c0 -42.667 -13.667 -78.667 -41 -108s-63 -44 -107 -44c-12 0 -25.5 2 -40.5 6
s-27.833 9 -38.5 15v52c7.33301 -4.66699 15 -9 23 -13c12 -4.66699 22.667 -7 32 -7c28 0 51.667 5.66699 71 17c27.333 16 41 41.333 41 76c0 34 -9.33301 60 -28 78s-43 27 -73 27c-10.667 0 -22.334 -1.5 -35.001 -4.5s-23 -6.83301 -31 -11.5z" />
    <glyph glyph-name="periodcentered" unicode="&#x2219;" horiz-adv-x="440" 
d="M63 187l-0.000976562 270.001h56v-272c0 -42.667 16.667 -79.334 50 -110.001s70 -46 110 -46c26.667 0 51.334 2 74.001 6s41 10 55 18l23 -52c-6 -2 -27.167 -5.16699 -63.5 -9.5s-66.833 -6.5 -91.5 -6.5c-65.333 0 -118 21.333 -158 64
c-36.667 38.667 -55 84.667 -55 138zM208.999 395.001l0.000976562 51.999c12.667 4 26.5 7.5 41.5 10.5s28.167 4.5 39.5 4.5c41.333 0 76 -14.667 104 -44s42 -64.666 42 -105.999c0 -42.667 -13.667 -78.667 -41 -108s-63 -44 -107 -44c-12 0 -25.5 2 -40.5 6
s-27.833 9 -38.5 15v52c7.33301 -4.66699 15 -9 23 -13c12 -4.66699 22.667 -7 32 -7c28 0 51.667 5.66699 71 17c27.333 16 41 41.333 41 76c0 34 -9.33301 60 -28 78s-43 27 -73 27c-10.667 0 -22.334 -1.5 -35.001 -4.5s-23 -6.83301 -31 -11.5z" />
    <glyph glyph-name="cedilla" unicode="&#xb8;" horiz-adv-x="332" 
d="M426 179l0.00585938 -62c-18.667 -13.333 -34.334 -23.333 -47.001 -30c-39.333 -20.667 -76 -31 -110 -31c-64.667 0 -117.834 15.833 -159.501 47.5s-62.5 72.167 -62.5 121.5c0 15.333 2.66699 25.666 8 30.999s13.333 8 24 8c5.33301 0 11 -0.333008 17 -1l18 -2
c53.333 0 93.666 8.66699 120.999 26s41 39 41 65c0 18.667 -4.33301 35 -13 49c-13.333 21.333 -34 32 -62 32c-26.667 0 -45.334 -7.33301 -56.001 -22c-7.33301 -10 -11 -24 -11 -42c0 -11.333 3.33301 -23 10 -35c2 -4 5.33301 -9 10 -15h-46
c-6.66699 6 -11.667 11.333 -15 16c-10 14.667 -15 31.667 -15 51c0 28.667 10.5 51.5 31.5 68.5s49.833 25.5 86.5 25.5c40.667 0 73.5 -12.167 98.5 -36.5s37.5 -55.166 37.5 -92.499c0 -39.333 -17 -71.666 -51 -96.999c-29.333 -22 -61.333 -33 -96 -33
c-5.33301 0 -12.833 0.333008 -22.5 1s-16.5 1 -20.5 1c-10.667 0 -18.334 -1.83301 -23.001 -5.5s-7 -11.167 -7 -22.5c0 -24.667 15.167 -45.834 45.5 -63.501s65.166 -26.5 104.499 -26.5c38 0 75.667 11 113 33c26 15.333 43 29 51 41z" />
    <glyph glyph-name="onesuperior" unicode="&#xb9;" horiz-adv-x="332" 
d="M426 156l-0.00292969 -60c-20.667 -14.667 -38 -25.667 -52 -33c-43.333 -22 -86.666 -33 -129.999 -33c-56 0 -100.667 10 -134 30c-42 25.333 -63 64.333 -63 117c0 32.667 16.667 59.334 50 80.001c10.667 6.66699 27.334 13.667 50.001 21
c-23.333 6 -40.666 11.667 -51.999 17c-35.333 17.333 -53 39 -53 65c0 45.333 37.667 86.333 113 123c24.667 12 62.334 26 113.001 42l37 -42c-4 7.33301 -37.667 -3.66699 -101 -33s-95 -60 -95 -92c0 -16.667 11 -29.334 33 -38.001s44.667 -13 68 -13h111v-47h-109
c-27.333 0 -51.5 -9.83301 -72.5 -29.5s-31.5 -42.167 -31.5 -67.5c0 -30.667 16 -53 48 -67c24.667 -10.667 56.667 -16 96 -16c37.333 0 77.666 12.667 120.999 38c14 8 31.667 20.667 53 38z" />
    <glyph glyph-name="ordmasculine" unicode="&#xba;" horiz-adv-x="355" 
d="M449 362v-51.0029h-142c8.66699 -7.33301 13.667 -11.666 15 -12.999c16 -18 24 -43 24 -75c0 -29.333 -13.333 -54.5 -40 -75.5s-62.667 -31.5 -108 -31.5c-49.333 0 -87.666 11.333 -114.999 34s-41 52.334 -41 89.001s13.167 66.334 39.5 89.001s58.166 34 95.499 34
h272zM291 235.997c0 24.667 -5.66504 43.998 -16.998 57.998c-5.33301 6.66699 -12.666 12.334 -21.999 17.001c-2.66699 2.66699 -13.667 4 -33 4c-28.667 0 -52.334 -4.66699 -71.001 -14c-26.667 -13.333 -40 -34.666 -40 -63.999c0 -24 8.16699 -42.5 24.5 -55.5
s36.166 -19.5 59.499 -19.5c27.333 0 50.666 6.66699 69.999 20s29 31.333 29 54z" />
    <glyph glyph-name="guillemotright" unicode="&#xbb;" 
d="M-487 39l361.001 96v-49l-287 -86c3.33301 -6 6.66602 -12.333 9.99902 -19c6.66699 -14 10 -25.667 10 -35c0 -8.66699 -3 -15.667 -9 -21s-16.333 -8 -31 -8c-24 0 -47.167 7.66699 -69.5 23s-33.5 31 -33.5 47c0 15.333 2.83301 26.5 8.5 33.5
s19.167 13.167 40.5 18.5z" />
    <glyph glyph-name="onequarter" unicode="&#xbc;" horiz-adv-x="236" 
d="M339 178l0.000976562 -53.001c-8 -4.66699 -21.667 -10.334 -41 -17.001c-28 -9.33301 -54.667 -14 -80 -14c-36.667 0 -68 10 -94 30c-29.333 22.667 -44 52.334 -44 89.001v178v9c0 3.33301 -1.33301 6.33301 -4 9s-8 4 -16 4h-42v44h51c21.333 0 38.333 -8 51 -24
c7.33301 -9.33301 12.333 -18.166 15 -26.499s4 -18.166 4 -29.499v-171c0 -20 12.667 -35.333 38 -46c19.333 -8 40.666 -12 63.999 -12c16.667 0 35.167 3.66699 55.5 11s34.5 13.666 42.5 18.999z" />
    <glyph glyph-name="threequarters" unicode="&#xbe;" horiz-adv-x="416" 
d="M512 319l0.00195312 -47h-113v-24c0 -36.667 -15.667 -70 -47 -100c-34.667 -32.667 -76.334 -49 -125.001 -49c-56 0 -101.333 17 -136 51s-52 82 -52 144c0 62.667 17.333 109 52 139c26 22.667 57.333 34 94 34c22 0 38.667 -1.33301 50 -4
c10.667 -4 17 -6.33301 19 -7v-49l-26 10c-10.667 2.66699 -22.334 4 -35.001 4c-26.667 0 -48.667 -10.333 -66 -31c-20 -24 -30 -59.333 -30 -106c0 -45.333 11.667 -80 35 -104c21.333 -22 50 -33 86 -33c38 0 68.5 11.5 91.5 34.5s34.5 49.5 34.5 79.5v141h54v-83h114z
" />
    <glyph glyph-name="questiondown" unicode="&#xbf;" horiz-adv-x="456" 
d="M550 275l-0.000976562 -54h-162v-27c0 -17.333 -5.66699 -31.666 -17 -42.999s-26.666 -17 -45.999 -17c-20.667 0 -37.667 7 -51 21s-20 30.667 -20 50c0 34 12 56 36 66c8 3.33301 20 5 36 5v69c0 19.333 -6 36 -18 50c-16 18 -40.333 27 -73 27
c-39.333 0 -72 -17.833 -98 -53.5s-39 -79.5 -39 -131.5c0 -44 11 -86 33 -126c24.667 -44.667 50.334 -74.667 77.001 -90l-33 -30c-27.333 12 -58.333 48 -93 108c-27.333 47.333 -41 94.666 -41 141.999c0 68 17.667 122.667 53 164s81.333 62 138 62
c43.333 0 80.166 -12.5 110.499 -37.5s45.5 -56.5 45.5 -94.5v-60h162z" />
    <glyph glyph-name="Agrave" unicode="&#xc0;" horiz-adv-x="287" 
d="M380 266l-0.000976562 -49.0029h-168v-23c0 -18.667 -6.66699 -34.334 -20 -47.001s-32.333 -19 -57 -19c-20.667 0 -37.167 6.16699 -49.5 18.5s-18.5 29.166 -18.5 50.499c0 34 14 55.667 42 65c9.33301 2.66699 23.333 4 42 4v62v20c0 6.66699 0.333008 13.667 1 21
c0 12.667 -0.666992 23.334 -2 32.001s-4.16602 14.334 -8.49902 17.001s-12.5 4 -24.5 4c-14 0 -30.5 -1.66699 -49.5 -5s-28.833 -5.66602 -29.5 -6.99902v47c2 2 13 4 33 6s33.667 3 41 3c18.667 0 35.167 -1.5 49.5 -4.5s24.5 -7.83301 30.5 -14.5
c8.66699 -9.33301 14.167 -17.666 16.5 -24.999s3.5 -18.666 3.5 -33.999v-22v-100h168z" />
    <glyph glyph-name="Aacute" unicode="&#xc1;" horiz-adv-x="332" 
d="M426 172l0.00195312 -59.0039c-17.333 -11.333 -43 -22.166 -77 -32.499s-66 -15.5 -96 -15.5c-56.667 0 -105 14.667 -145 44c-44.667 32.667 -67 76.667 -67 132c0 12.667 4.66699 23.334 14 32.001s20.666 13 33.999 13l83 -4c36 0 59.667 2 71 6
c24 8.66699 36 27.334 36 56.001c0 26 -11 44.667 -33 56c-16.667 8.66699 -39.667 13 -69 13h-106v44h157c31.333 0 58 -11.667 80 -35s33 -51 33 -83c0 -33.333 -12.5 -59.666 -37.5 -78.999s-54.5 -29 -88.5 -29c-13.333 0 -29.5 1.5 -48.5 4.5s-29.5 4.5 -31.5 4.5
c-16 0 -24 -7.66699 -24 -23c0 -30.667 14.167 -56 42.5 -76s61.166 -30 98.499 -30c33.333 0 65 5.33301 95 16c38 13.333 64.333 28.333 79 45z" />
    <glyph glyph-name="Acircumflex" unicode="&#xc2;" horiz-adv-x="552" 
d="M-88 352l0.000976562 61.9961c19.333 10 36 17.333 50 22c43.333 15.333 85.333 23 126 23c88 0 151.167 -10.667 189.5 -32s57.5 -57 57.5 -107c0 -31.333 -10.333 -55.666 -31 -72.999s-46.334 -26 -77.001 -26c-6.66699 0 -19.167 0.666992 -37.5 2s-28.833 2 -31.5 2
c-18 0 -32.333 -2.66699 -43 -8s-16 -15 -16 -29c0 -26 16 -49.333 48 -70s68.333 -31 109 -31c44.667 0 86.334 12 125.001 36c12.667 8 27.667 20.333 45 37v297h57v-457h-57v91c-16.667 -11.333 -32.334 -20.333 -47.001 -27c-38 -18 -74 -27 -108 -27
c-64 0 -118.333 16.333 -163 49c-48.667 35.333 -73 81.333 -73 138c0 14.667 4.5 25.834 13.5 33.501s20.5 11.5 34.5 11.5h85c33.333 0 58.333 3 75 9c25.333 8.66699 38 24.334 38 47.001c0 28.667 -15.167 50.834 -45.5 66.501s-65.833 23.5 -106.5 23.5
c-57.333 0 -110 -10 -158 -30c-17.333 -7.33301 -37 -18.333 -59 -33z" />
    <glyph glyph-name="Atilde" unicode="&#xc3;" horiz-adv-x="330" 
d="M423 264v-52h-182v51zM256 462c25.333 0 45.3301 -1.66406 59.9971 -4.99707c12.667 -4.66699 20.334 -7.33398 23.001 -8.00098v-47l-21.5 6c-9.66699 2.66699 -17.5 4 -23.5 4c-4 0.666992 -10.333 1 -19 1c-49.333 0 -91.166 -15.833 -125.499 -47.5
s-51.5 -74.167 -51.5 -127.5c0 -54.667 20 -98.334 60 -131.001c36.667 -30 82.667 -45 138 -45c14 0 25.667 3 35 9c4.66699 3.33301 7.33398 5 8.00098 5v-54l-30 -8c-14.667 -2.66699 -29 -4 -43 -4c-58 0 -109.667 20.667 -155 62
c-49.333 45.333 -74 100.666 -74 165.999s21 119 63 161s94 63 156 63z" />
    <glyph glyph-name="Adieresis" unicode="&#xc4;" horiz-adv-x="315" 
d="M422 173v-57.998c-28 -13.333 -50.333 -23.333 -67 -30c-52 -20.667 -92.333 -31 -121 -31c-47.333 0 -88.666 19.667 -123.999 59c-39.333 43.333 -59 98.666 -59 165.999c0 50 15.833 92.167 47.5 126.5s70.167 51.5 115.5 51.5c47.333 0 75 -1.33301 83 -4v-54
c-12.667 4 -24.5 7.16699 -35.5 9.5s-21.167 3.5 -30.5 3.5c-30.667 0 -57.334 -11 -80.001 -33c-28 -26.667 -42 -63.334 -42 -110.001c0 -47.333 14.333 -87 43 -119c24.667 -27.333 51 -41 79 -41c30.667 0 71 10 121 30c42 16.667 65.333 28 70 34z" />
    <glyph glyph-name="Aring" unicode="&#xc5;" horiz-adv-x="428" 
d="M486 236l0.000976562 -43.998l-225 82l-215 -63l-31 50l191 41c-8.66699 0 -28.334 9.66699 -59.001 29c-37.333 23.333 -56 44.333 -56 63c0 32 16.667 56 50 72c26.667 12.667 61.667 19 105 19c48 0 87.667 -7.33301 119 -22c39.333 -18.667 59 -46.334 59 -83.001
c0 -22.667 -17.667 -44.334 -53 -65.001c-11.333 -6.66699 -29 -14.667 -53 -24zM162.001 385.002c0 -12 15.668 -26.668 47.001 -44.001s49.333 -24.666 54 -21.999c5.33301 -2 22 4 50 18c31.333 16 47 31 47 45c0 21.333 -13 37 -39 47
c-18.667 7.33301 -41.667 11 -69 11c-26.667 0 -48.334 -4.33301 -65.001 -13s-25 -22.667 -25 -42z" />
    <glyph glyph-name="AE" unicode="&#xc6;" horiz-adv-x="386" 
d="M226 89c-20 20 -40.666 33.502 -61.999 40.502s-48 10.5 -80 10.5h-40v47h132c34.667 0 66.667 10 96 30c35.333 24 53 57 53 99c0 31.333 -11.5 57.166 -34.5 77.499s-50.833 30.5 -83.5 30.5c-28.667 0 -52.334 -5.83301 -71.001 -17.5s-28 -27.5 -28 -47.5
c0 -14 6.66699 -26 20 -36s28.666 -15 45.999 -15c8 0 16 1.33301 24 4c8.66699 4 13.334 6 14.001 6l11 -44c-6 -2.66699 -11 -4.33398 -15 -5.00098c-13.333 -3.33301 -28 -5 -44 -5c-31.333 0 -58.333 8.83301 -81 26.5s-34 41.834 -34 72.501c0 34.667 14 61.5 42 80.5
s64 28.5 108 28.5c55.333 0 100.333 -14.333 135 -43s52 -68.334 52 -119.001c0 -60.667 -30.667 -106.334 -92 -137.001c-20 -10 -50.667 -19 -92 -27c18 -7.33301 32.667 -14.666 44 -21.999s24 -17.5 38 -30.5s28.667 -31.833 44 -56.5c12.667 -20 19.667 -32.333 21 -37
h-69c-2.66699 7.33301 -5 13.333 -7 18c-13.333 29.333 -29 53 -47 71z" />
    <glyph glyph-name="Ccedilla" unicode="&#xc7;" horiz-adv-x="416" 
d="M510 414l-69.999 0.00195312c-32 0 -55.5 -16.333 -70.5 -49s-22.5 -80.334 -22.5 -143.001c0 -120 -45.333 -180 -136 -180c-50 0 -91.167 20.167 -123.5 60.5s-48.5 92.166 -48.5 155.499c0 54.667 10 101 30 139c22.667 43.333 54.667 65 96 65
c19.333 0 36.333 -2.33301 51 -7l20 -8v-42c-4.66699 2.66699 -8.33398 4.66699 -11.001 6c-10 4 -20.667 6 -32 6c-28 0 -50 -10 -66 -30c-21.333 -27.333 -32 -73.333 -32 -138c0 -50.667 12 -91.667 36 -123c21.333 -28 47 -42 77 -42c33.333 0 57 17.667 71 53
c10.667 26.667 16 64 16 112c0 73.333 12.333 126.333 37 159s61.667 49 111 49l67 1v-44z" />
    <glyph glyph-name="Egrave" unicode="&#xc8;" horiz-adv-x="434" 
d="M110 316l-13.999 13.998c-9.33301 12.667 -14 26.334 -14 41.001c0 33.333 14.5 58.166 43.5 74.499s65.833 24.5 110.5 24.5c53.333 0 94.166 -9.33301 122.499 -28s42.5 -43.334 42.5 -74.001c0 -16 -7.33301 -33.333 -22 -52c-4.66699 -6 -12.334 -13.667 -23.001 -23
h171v-42h-230c-3.33301 0 -18.333 -5 -45 -15l-42 -16c-34 -12 -57.333 -22.667 -70 -32c-22.667 -16 -34 -36 -34 -60s12 -42.667 36 -56c20.667 -11.333 46 -17 76 -17c11.333 -1.33301 26 -0.333008 44 3c2.66699 0 7 1 13 3c-1.33301 3.33301 -2.66602 8 -3.99902 14
s-2 12.667 -2 20c0 14.667 3.66699 26.334 11 35.001c10 12 26 18 48 18c17.333 0 32.166 -5.16699 44.499 -15.5s18.5 -24.5 18.5 -42.5c0 -16.667 -5.33301 -31 -16 -43c-14 -16 -27 -24 -39 -24l72 -83l-49 -39l-71 117c-1.33301 -1.33301 -10.333 -2.66602 -27 -3.99902
s-28 -2 -34 -2c-64 0 -111.667 12 -143 36c-26 20 -39 47.333 -39 82c0 28.667 9.33301 53.5 28 74.5s58.334 42.167 119.001 63.5c50 18 82 30.667 96 38c33.333 17.333 50 37 50 59c0 24.667 -13.333 41.667 -40 51c-16.667 6 -38 9 -64 9c-30 0 -53.667 -6.66699 -71 -20
c-14.667 -11.333 -22 -25.666 -22 -42.999c0 -12.667 3.66699 -24 11 -34c2 -3.33301 6 -7.33301 12 -12h-54z" />
    <glyph glyph-name="Eacute" unicode="&#xc9;" horiz-adv-x="393" 
d="M276 421c26.667 0 59.665 -3.66699 98.998 -11c55.333 -10.667 92.666 -19.667 111.999 -27v-57c-18 9.33301 -51 19.833 -99 31.5s-85.333 17.5 -112 17.5c-56 0 -96.333 -7 -121 -21c-20.667 -12 -31 -29 -31 -51c0 -24.667 22 -40 66 -46
c30.667 -3.33301 52.667 -5.66602 66 -6.99902c44 -4.66699 79.167 -16.5 105.5 -35.5s39.5 -45.833 39.5 -80.5c0 -54 -28.667 -91.333 -86 -112c-18.667 -6.66699 -47.667 -11.667 -87 -15l89 -79l-52 -35l-79 107c-3.33301 -3.33301 -14.666 -5 -33.999 -5
c-32.667 0 -57 7 -73 21c-12.667 11.333 -19 27 -19 47c0 18 5.33301 32.667 16 44s26.334 17 47.001 17c15.333 0 33.333 -10.667 54 -32c6.66699 -6.66699 15.334 -17.667 26.001 -33c4 -2 13.333 -3 28 -3c28 0 51.333 4.33301 70 13c26.667 12 40 31.667 40 59
c0 26 -11.667 45.333 -35 58s-52.333 19 -87 19c-58 0 -100 9.33301 -126 28c-22 16 -33 38 -33 66c0 45.333 20 77.666 60 96.999c34.667 16.667 86.667 25 156 25z" />
    <glyph glyph-name="Ecircumflex" unicode="&#xca;" horiz-adv-x="811" 
d="M579 250l-275.004 -12.002c22.667 -16 39.667 -29 51 -39c34.667 -32 52 -62.667 52 -92c0 -39.333 -15.167 -68.166 -45.5 -86.499s-75.166 -27.5 -134.499 -27.5c-56 0 -102.667 21.667 -140 65c-14.667 21.333 -22.334 32.333 -23.001 33l48 40l14 -32
c22.667 -42 54.334 -63 95.001 -63c29.333 0 55.333 5 78 15c31.333 14 47 35.667 47 65c0 25.333 -17 52.666 -51 81.999c-11.333 9.33301 -28.666 21.333 -51.999 36l-191 -20l-10 49l134 9c-14.667 10 -25.667 18.667 -33 26c-22.667 23.333 -34 49 -34 77
c0 29.333 10.333 52 31 68s49 24 85 24c23.333 0 49 -2.5 77 -7.5s44.667 -9.16699 50 -12.5l-5 -49c-7.33301 4 -19.333 8.33301 -36 13s-32.667 7 -48 7c-38 0 -64.333 -5.33301 -79 -16c-12 -8.66699 -18 -23.334 -18 -44.001s9.66699 -41 29 -61
c6 -6.66699 15.667 -14.667 29 -24l303 13c-18.667 8.66699 -32.667 16.334 -42 23.001c-28.667 20.667 -43 43.334 -43 68.001c0 31.333 11.5 54.166 34.5 68.499s54.167 21.5 93.5 21.5c20.667 0 45.334 -2.66699 74.001 -8s45.667 -9.33301 51 -12l-5 -47
c-7.33301 4 -19.333 8.33301 -36 13s-32.667 7 -48 7c-39.333 0 -65.666 -4.16699 -78.999 -12.5s-20 -22.166 -20 -41.499c0 -21.333 15.333 -42.333 46 -63c5.33301 -3.33301 13 -7.66602 23 -12.999l195 15l9 -49l-128 -7c23.333 -18 40.666 -32.667 51.999 -44
c35.333 -35.333 53 -67 53 -95c0 -42 -17 -72.667 -51 -92c-27.333 -15.333 -65.333 -23 -114 -23c-27.333 0 -56.5 5.16699 -87.5 15.5s-54.833 21.833 -71.5 34.5l36 56c8.66699 -14 26.334 -28.333 53.001 -43c22 -12 44 -18 66 -18c26 0 49 5 69 15
c27.333 14 41 34.333 41 61c0 32.667 -19.667 64.667 -59 96c-12.667 10 -32.667 22.667 -60 38z" />
    <glyph glyph-name="Edieresis" unicode="&#xcb;" horiz-adv-x="674" 
d="M230 370l-176.001 -47.002l-17 48l390 89l17 -44l-159 -35c-3.33301 -0.666992 -9.66602 -5.33398 -18.999 -14.001c-22.667 -21.333 -34 -41.666 -34 -60.999c0 -6.66699 1.33301 -12.667 4 -18c7.33301 -16 25.333 -27.667 54 -35c9.33301 -2 23 -4 41 -6l144 60
l23 -43l-158 -65c-6 -2 -14 -15.333 -24 -40s-15 -46 -15 -64c0 -6 0.833008 -12.833 2.5 -20.5s6.5 -14.5 14.5 -20.5s22 -9 42 -9c32.667 0 73.667 19.667 123 59c16 12.667 37.667 32.667 65 60v293h57v-457h-57v102c-6 -18 -36 -41.667 -90 -71
c-40 -22 -78.667 -33 -116 -33c-54 0 -85.667 21 -95 63c-1.33301 8 -2 14.333 -2 19c0 15.333 3 31.333 9 48c8.66699 24 16.667 39.667 24 47l-157 -68l-23 49l187 72c-22.667 0.666992 -40 2.33398 -52 5.00098c-36.667 8 -57 24 -61 48
c-0.666992 2.66699 -1 6.33398 -1 11.001c0 20 9.66699 39 29 57c6 6 16 13 30 21z" />
    <glyph glyph-name="Igrave" unicode="&#xcc;" horiz-adv-x="623" 
d="M212 66c-8 -6.66699 -14.667 -11.665 -20 -14.998c-16.667 -10 -33 -15 -49 -15c-32 0 -58 8.33301 -78 25c-23.333 19.333 -35 48 -35 86c0 30.667 12.333 54.167 37 70.5s53.667 24.5 87 24.5c41.333 0 93 -24.667 155 -74c20 -16 46.667 -40.667 80 -74l186 135
l45 -36l-192 -129c1.33301 -2 4 -9.83301 8 -23.5s6 -26.167 6 -37.5c0 -15.333 -6.33301 -27.833 -19 -37.5s-27.667 -14.5 -45 -14.5c-19.333 0 -34.333 5.66699 -45 17s-16 25.666 -16 42.999c0 20 6.33301 37.333 19 52c2 2 5.33301 5 10 9
c0 7.33301 -21.333 28.333 -64 63c-49.333 40 -90.666 60 -123.999 60c-20.667 0 -38.334 -4.16699 -53.001 -12.5s-22 -22.833 -22 -43.5c0 -41.333 20 -62 60 -62c14 0 27.667 4.66699 41 14c2 1.33301 4.66699 3.66602 8 6.99902zM212 312.002
c-8 -6.66699 -14.668 -11.6641 -20.001 -14.9971c-16.667 -10 -33 -15 -49 -15c-32 0 -58 8.33301 -78 25c-23.333 19.333 -35 48 -35 86c0 34.667 12 60.5 36 77.5s53.333 25.5 88 25.5c41.333 0 93 -26 155 -78c20 -17.333 46.667 -43.333 80 -78l186 135l45 -36
l-192 -129c1.33301 -2 4 -9.83301 8 -23.5s6 -26.167 6 -37.5c0 -15.333 -6.33301 -27.833 -19 -37.5s-27.667 -14.5 -45 -14.5c-19.333 0 -34.333 5.66699 -45 17s-16 25.666 -16 42.999c0 20 6.33301 37.333 19 52c2 2 5.33301 5 10 9
c0 7.33301 -21.333 29.666 -64 66.999c-49.333 42.667 -90.666 64 -123.999 64c-20.667 0 -37.334 -4.33301 -50.001 -13c-16.667 -11.333 -25 -28.333 -25 -51c0 -18.667 5.33301 -33.667 16 -45s25.334 -17 44.001 -17c14 0 27.667 4.66699 41 14
c2 1.33301 4.66699 3.66602 8 6.99902z" />
    <glyph glyph-name="Iacute" unicode="&#xcd;" horiz-adv-x="480" 
d="M230 437c-20.667 0 -46 -2.66699 -76 -8c-14 -2.66699 -29.333 -6 -46 -10v47c3.33301 0.666992 22.5 2.83398 57.5 6.50098s62.833 5.5 83.5 5.5c50.667 0 87.667 -4 111 -12c37.333 -12.667 56 -36.334 56 -71.001c0 -27.333 -16.667 -47 -50 -59
c-24.667 -8.66699 -59 -13 -103 -13h-35c-53.333 0 -88.833 -4.5 -106.5 -13.5s-26.5 -22.5 -26.5 -40.5c0 -24 28 -39 84 -45c26 -2.66699 55.667 -4 89 -4c40 0 80.667 8 122 24c6 2 24.667 11 56 27l28 -48c-6 -3.33301 -10.667 -5.66602 -14 -6.99902
c-12 -6 -21 -10 -27 -12l-45 -13c11.333 -9.33301 18 -15 20 -17c6 -7.33301 9 -16.333 9 -27c0 -27.333 -17.667 -47.333 -53 -60c-26.667 -9.33301 -60.334 -14 -101.001 -14c-12.667 0 -27.834 0.5 -45.501 1.5l-43.5 2.5c-25.333 0 -45.166 -3.33301 -59.499 -10
s-21.5 -19.667 -21.5 -39c0 -15.333 17.333 -27 52 -35s72.334 -12 113.001 -12s82 7 124 21c35.333 14.667 53.333 22 54 22l25 -48c-19.333 -9.33301 -50.166 -18.666 -92.499 -27.999s-80.833 -14 -115.5 -14c-82 0 -140.667 9.66699 -176 29
c-30 16.667 -45 40.334 -45 71.001c0 36.667 22.667 61 68 73c25.333 6.66699 69.333 10 132 10c7.33301 0 15.166 -0.166992 23.499 -0.5s16.833 -0.5 25.5 -0.5c22.667 0 38.667 1.66699 48 5c14.667 5.33301 22 14.333 22 27c0 7.33301 -2 13.166 -6 17.499
s-10 9.16602 -18 14.499c-10.667 -1.33301 -24.667 -2.5 -42 -3.5s-33.333 -1.5 -48 -1.5c-74 0 -128.333 10 -163 30c-27.333 16 -41 38.333 -41 67c0 32 18.667 56.333 56 73c30 13.333 67.333 20 112 20h17c40.667 0 69.334 1.33301 86.001 4
c33.333 5.33301 50 15.666 50 30.999s-9.33301 25.333 -28 30s-42.334 7 -71.001 7h-25z" />
    <glyph glyph-name="Icircumflex" unicode="&#xce;" horiz-adv-x="489" 
d="M479 257c0 -34.667 -23.332 -59.6689 -69.999 -75.002c-33.333 -10.667 -76 -16 -128 -16c-26 0 -42 0.166992 -48 0.5s-11 1.16602 -15 2.49902c-3.33301 -5.33301 -5.83301 -9.66602 -7.5 -12.999s-2.5 -7.66602 -2.5 -12.999c0 -16.667 32.167 -29 96.5 -37
s103.166 -14.333 116.499 -19c38 -13.333 57 -36.666 57 -69.999c0 -39.333 -24.667 -67.666 -74 -84.999c-37.333 -13.333 -85.666 -20 -144.999 -20c-63.333 0 -115.333 8 -156 24c-50 19.333 -75 48.666 -75 87.999c0 23.333 13 42.666 39 57.999
c31.333 18.667 61 28 89 28c-4 8.66699 -6 20 -6 34c0 9.33301 2.33301 17.333 7 24c1.33301 2 3.66602 4.33301 6.99902 7c-25.333 9.33301 -44 17.333 -56 24c-38 22 -57 46 -57 72c0 21.333 9.33301 39 28 53c22.667 17.333 44.667 26 66 26
c-9.33301 6 -16.333 13.5 -21 22.5s-7 20.833 -7 35.5c2.66699 24.667 17.667 42.5 45 53.5s61.666 16.5 102.999 16.5c26 0 53.667 -1.5 83 -4.5s48 -5.5 56 -7.5v-51c-14 3.33301 -28 7 -42 11c-31.333 7.33301 -57.333 11 -78 11c-29.333 0 -51.666 -1.66699 -66.999 -5
c-27.333 -6 -41 -16.667 -41 -32c0 -13.333 16.667 -23.666 50 -30.999c1.33301 0 31.833 -4.33301 91.5 -13s102.167 -21.667 127.5 -39c22.667 -15.333 34 -35.333 34 -60zM415.001 261.998c0 16.667 -15.001 30.001 -45.001 40.001
c-21.333 7.33301 -49.666 13.333 -84.999 18l-107 16c-22.667 -2 -40.167 -7.83301 -52.5 -17.5s-18.5 -23.5 -18.5 -41.5c0 -16 13 -31 39 -45c30.667 -16.667 69 -25 115 -25c44 0 77.667 3 101 9c35.333 9.33301 53 24.666 53 45.999zM415 4.99902
c0 28.667 -22.332 47.333 -66.999 56l-74.5 9.5c-18.333 2.33301 -38.5 6.5 -60.5 12.5c-8 2 -19 5.33301 -33 10c-20.667 -4.66699 -36 -9 -46 -13c-30.667 -13.333 -46 -30.666 -46 -51.999c0 -24.667 22.667 -44.334 68 -59.001c35.333 -11.333 69.666 -17 102.999 -17
c40 0 73.667 3.33301 101 10c36.667 8.66699 55 23 55 43z" />
    <glyph glyph-name="Idieresis" unicode="&#xcf;" horiz-adv-x="480" 
d="M392 419c-15.333 4 -36.333 8.00195 -63 12.002s-46.334 6 -59.001 6c-34 0 -60 -2.66699 -78 -8c-28 -8 -42 -21.667 -42 -41c0 -17.333 21.667 -28.333 65 -33c13.333 -1.33301 34 -2 62 -2h22c62 0 106.667 -8 134 -24c22.667 -13.333 34 -32.333 34 -57
c0 -36.667 -23.333 -63 -70 -79c-35.333 -12 -80.666 -18 -135.999 -18c-26.667 0 -46.5 0.5 -59.5 1.5s-22.5 2.16699 -28.5 3.5c-8 -4.66699 -14 -9.33398 -18 -14.001s-6 -10.667 -6 -18c0 -12.667 6.33301 -21.167 19 -25.5s29.667 -6.5 51 -6.5h24.5
c8.33301 0 16.5 0.333008 24.5 1c61.333 0 105 -3.33301 131 -10c46 -12 69 -36.333 69 -73c0 -39.333 -25 -67 -75 -83c-35.333 -11.333 -84 -17 -146 -17c-45.333 0 -93 9 -143 27c-16.667 6 -38.334 15.667 -65.001 29l31 48c25.333 -16.667 50.666 -29.667 75.999 -39
c33.333 -12 65.333 -18 96 -18c39.333 0 76.666 4 111.999 12s53 19.667 53 35c0 19.333 -6.83301 32.333 -20.5 39s-33.5 10 -59.5 10c-10 0 -27.167 -0.666992 -51.5 -2s-37.166 -2 -38.499 -2c-54.667 0 -94 6.83301 -118 20.5s-36 31.5 -36 53.5c0 10 3 18.667 9 26
c3.33301 4 10 10 20 18l-45 17c-6 2.66699 -14.667 7.33398 -26 14.001l-15 9l32 50c24 -16 52.333 -30.167 85 -42.5s62.334 -18.5 89.001 -18.5c38 0 67.333 1 88 3c56.667 5.33301 85 20.666 85 45.999c0 17.333 -7 29.166 -21 35.499s-34.333 9.5 -61 9.5
c-14 0 -28.333 -0.333008 -43 -1l-43 -2c-57.333 0 -98.333 8.33301 -123 25c-20 14 -30 33.667 -30 59c0 30.667 18.333 53 55 67c28 10.667 65.333 16 112 16c26.667 0 54.834 -1.5 84.501 -4.5s48.5 -5.5 56.5 -7.5v-47z" />
    <glyph glyph-name="Eth" unicode="&#xd0;" horiz-adv-x="455" 
d="M368 30c22.667 0 40.335 -3.66699 53.002 -11s19 -20 19 -38c0 -24.667 -17.333 -44.167 -52 -58.5s-79.667 -21.5 -135 -21.5c-56.667 0 -104.334 8 -143.001 24c-48 20 -72 50 -72 90c0 29.333 15.5 50.5 46.5 63.5s70.167 19.5 117.5 19.5
c38.667 3.33301 66.667 7.66602 84 12.999s26 14.666 26 27.999c0 2.66699 -2.66699 8.33398 -8 17.001c-6 0 -12.333 -0.166992 -19 -0.5s-14 -0.5 -22 -0.5c-56 0 -101.667 5.66699 -137 17c-55.333 18 -83 48 -83 90c0 32 17.667 56.333 53 73
c28.667 13.333 64.334 20 107.001 20c29.333 0 59.666 3 90.999 9c42.667 8 64 18.667 64 32c0 18.667 -17 31.667 -51 39c-19.333 4 -46.333 6 -81 6c-21.333 0 -46.666 -2.66699 -75.999 -8c-10 -2 -24.667 -5.33301 -44 -10v43c4.66699 1.33301 24 4 58 8s61.667 6 83 6
c46 0 82.667 -5.33301 110 -16c36.667 -14 55 -37.667 55 -71c0 -26 -24.333 -45.667 -73 -59c-16.667 -4.66699 -43.334 -10 -80.001 -16c-34.667 -4 -69.334 -7.66699 -104.001 -11c-36 -6.66699 -54 -24 -54 -52c0 -20 14.667 -34.667 44 -44
c23.333 -7.33301 52 -11 86 -11c19.333 0 34 0.666992 44 2c10 2.66699 15.667 4 17 4c0 12.667 4 25.334 12 38.001c14 22.667 37 34 69 34c40 0 60 -16.667 60 -50c0 -20.667 -13 -37.667 -39 -51c-8.66699 -4 -22 -8.66699 -40 -14c4 -2.66699 7 -5.33398 9 -8.00098
c6.66699 -8.66699 10 -18.667 10 -30c0 -19.333 -12.333 -33.666 -37 -42.999c-16.667 -6.66699 -50.667 -14 -102 -22c-28.667 -3.33301 -57.334 -6.33301 -86.001 -9c-31.333 -6.66699 -47 -22 -47 -46c0 -22 13.667 -38.667 41 -50
c21.333 -8.66699 48.666 -13 81.999 -13c25.333 0 46 2 62 6c2.66699 0.666992 6.33398 2 11.001 4c0.666992 17.333 2.66699 30.333 6 39c10.667 26 32.334 39 65.001 39z" />
    <glyph glyph-name="Ntilde" unicode="&#xd1;" horiz-adv-x="430" 
d="M303 37c-1.33301 3.33301 -2.33496 7.66992 -3.00195 13.0029s-1 12 -1 20c0 17.333 3.16699 31.666 9.5 42.999s18.166 17 35.499 17c24 0 40.333 -4.33301 49 -13s13 -21.667 13 -39c0 -22.667 -6.33301 -41.667 -19 -57c-8.66699 -10.667 -17 -17 -25 -19l69 -105
l-59 -29l-54 120l-41 -12c-19.333 -4 -37.333 -6 -54 -6c-52 0 -95 14.667 -129 44c-36.667 32 -55 75.333 -55 130c0 27.333 6.33301 51 19 71s28.334 34.667 47.001 44c-14.667 6.66699 -25.667 13 -33 19c-22 18 -33 41 -33 69c0 39.333 16.167 69.166 48.5 89.499
s74.166 30.5 125.499 30.5c24.667 0 51.834 -2.16699 81.501 -6.5s48.167 -7.83301 55.5 -10.5v-53c-11.333 4.66699 -27.666 9.33398 -48.999 14.001s-38.666 7 -51.999 7c-42.667 0 -72.334 -2.33301 -89.001 -7c-38 -10.667 -57 -33.334 -57 -68.001
c0 -19.333 9.83301 -34.5 29.5 -45.5s42.167 -16.5 67.5 -16.5h132v-46h-127c-33.333 0 -58 -7 -74 -21c-20 -17.333 -30 -47 -30 -89c0 -34.667 11.833 -61.334 35.5 -80.001s52.834 -28 87.501 -28c18.667 0 36.667 3 54 9c10.667 3.33301 19 7 25 11z" />
    <glyph glyph-name="Ograve" unicode="&#xd2;" horiz-adv-x="555" 
d="M463 264l0.00195312 193.001h57v-457h-57v181c-14.667 -2.66699 -47.167 -9.83398 -97.5 -21.501l-130 -31c-36.333 -9 -60.333 -19.333 -72 -31s-17.5 -25.167 -17.5 -40.5c0 -22 5.66699 -37.167 17 -45.5s29 -12.5 53 -12.5c26.667 0 48 16.333 64 49
c5.33301 10.667 10.666 27.334 15.999 50.001l42 -36c-6 -21.333 -12 -37.333 -18 -48c-20 -34 -48.333 -54 -85 -60c-10.667 -1.33301 -18.667 -2 -24 -2c-33.333 0 -61.333 8.66699 -84 26c-25.333 19.333 -38 46 -38 80c0 28.667 7.83301 51.167 23.5 67.5
s37.5 27.833 65.5 34.5l252 63l-45 49c-38.667 39.333 -73.334 70.333 -104.001 93c-46 33.333 -84.333 50 -115 50c-22.667 0 -41.167 -6.83301 -55.5 -20.5s-21.5 -33.834 -21.5 -60.501c0 -41.333 19.667 -62 59 -62c18.667 0 36.334 11.333 53.001 34
c5.33301 7.33301 11.666 18.666 18.999 33.999l38 -36c-10.667 -17.333 -19.667 -30.333 -27 -39c-24 -26.667 -50.333 -40 -79 -40c-38.667 0 -67.834 9.83301 -87.501 29.5s-29.5 46.834 -29.5 81.501c0 46.667 13.667 80 41 100c22 16 54.333 24 97 24
c46.667 0 104.334 -27.333 173.001 -82c50.667 -40.667 89.667 -78.667 117 -114z" />
    <glyph glyph-name="Oacute" unicode="&#xd3;" horiz-adv-x="623" 
d="M246 482c18.667 0 42.332 -2.33008 70.999 -6.99707c11.333 -2 25.666 -4.66699 42.999 -8v-49c-7.33301 2.66699 -19.5 6 -36.5 10s-32.833 6 -47.5 6c-44.667 0 -79 -4.66699 -103 -14c-38.667 -14.667 -58 -40.667 -58 -78c0 -22.667 8.33301 -41.334 25 -56.001
c21.333 -18.667 45 -28 71 -28h129v-47h-129c-20 0 -39.333 -7.33301 -58 -22c-24 -18.667 -36 -44 -36 -76c0 -36.667 20 -62 60 -76c24 -8.66699 57 -13 99 -13c17.333 0 36 2.66699 56 8c6.66699 1.33301 15.334 4.33301 26.001 9v-50l-30 -8c-24 -4.66699 -53 -7 -87 -7
c-56 0 -99 9 -129 27c-38 22.667 -57 60.667 -57 114c0 27.333 8.66699 51.666 26 72.999c21.333 26 43 41.667 65 47c-23.333 5.33301 -44.666 19 -63.999 41s-29 47 -29 75c0 43.333 17.333 75.666 52 96.999s81.667 32 141 32zM263.998 352.003h233v105h57v-457h-57v112
h-233v42h233v157h-233v41z" />
    <glyph glyph-name="Ocircumflex" unicode="&#xd4;" horiz-adv-x="724" 
d="M391 257l215.001 201l54 -1v-457h-58v388l-181 -169c8.66699 -13.333 16.334 -31.166 23.001 -53.499s10 -43.833 10 -64.5c0 -30 -5.33301 -54.167 -16 -72.5s-27 -27.5 -49 -27.5c-23.333 0 -40.5 10.167 -51.5 30.5s-16.5 44.833 -16.5 73.5c0 26.667 6 53 18 79
c4 8.66699 10 19 18 31c2 6 -20.333 41 -67 105c-50.667 69.333 -89.334 104 -116.001 104c-22 0 -40.333 -8.66699 -55 -26c-17.333 -20.667 -26 -49.334 -26 -86.001c0 -38 12.667 -65 38 -81c14.667 -9.33301 32 -14 52 -14c6.66699 0 16.667 4.33301 30 13
c4 2.66699 10 7 18 13v-51l-26 -16c-12.667 -5.33301 -25.334 -8 -38.001 -8c-30.667 0 -58.667 11.667 -84 35c-30.667 28 -46 66.667 -46 116c0 44.667 11.333 80.5 34 107.5s53.667 40.5 93 40.5c33.333 0 69.333 -18 108 -54c28 -26 56.333 -59.667 85 -101z" />
    <glyph glyph-name="Otilde" unicode="&#xd5;" horiz-adv-x="610" 
d="M182 272c-5.33301 -1.33301 -12.335 -2.49805 -21.002 -3.49805s-17 -1.5 -25 -1.5c-36.667 0 -63.667 9.33301 -81 28c-14.667 15.333 -22 36.666 -22 63.999c0 32 9.66699 57 29 75s46 27 80 27c27.333 0 63 -16 107 -48c34 -24.667 68.333 -54.667 103 -90
c30.667 -31.333 46 -48.666 46 -51.999l147 186l46 -40l-160 -182c8 -12.667 13.667 -22.334 17 -29.001c10.667 -24 16 -50.333 16 -79c0 -30.667 -5.66699 -55.834 -17 -75.501s-26.666 -29.5 -45.999 -29.5c-20.667 0 -36.834 9.83301 -48.501 29.5
s-17.5 46.5 -17.5 80.5c0 23.333 4.66699 45.666 14 66.999c5.33301 13.333 12 24.333 20 33l-57 64l-118 -204l-43 32l132 197c-23.333 20.667 -41.333 36 -54 46c-39.333 31.333 -65.333 47 -78 47c-18.667 0 -33.667 -4.16699 -45 -12.5s-17 -23.5 -17 -45.5
c0 -13.333 3.66699 -23.666 11 -30.999c10 -10 26 -15 48 -15c10.667 0 18.334 0.333008 23.001 1s8.33398 1.66699 11.001 3v-42z" />
    <glyph glyph-name="Odieresis" unicode="&#xd6;" horiz-adv-x="726" 
d="M652 56c-18.667 -15.333 -35 -26.668 -49 -34.001c-42 -22.667 -86 -34 -132 -34c-72 0 -126.667 18.333 -164 55c-1.33301 1.33301 -14.333 21.666 -39 60.999c-10 -7.33301 -19.333 -12.333 -28 -15c-16.667 -5.33301 -34 -8 -52 -8c-33.333 0 -61 12.333 -83 37
s-33 56.334 -33 95.001v172c1.33301 2 2 5.33301 2 10c0 6 -1.83301 10.5 -5.5 13.5s-9.16699 4.5 -16.5 4.5h-52v44h92l221 -209c4 3.33301 7.33301 6 10 8c19.333 14.667 41.333 27 66 37l95 37c29.333 13.333 44 26.666 44 39.999c0 22 -12 37 -36 45
c-16 5.33301 -41 8 -75 8c-15.333 0 -36.333 -4.33301 -63 -13c-8.66699 -2.66699 -20.667 -7 -36 -13v55c12.667 3.33301 30 6.83301 52 10.5s40.333 5.5 55 5.5c50.667 0 91 -7.16699 121 -21.5s45 -37.166 45 -68.499c0 -33.333 -23.333 -62.666 -70 -87.999
c-4 -2 -39.333 -17 -106 -45c-26 -10.667 -46.667 -23.667 -62 -39c-20 -19.333 -30 -41.666 -30 -66.999c0 -36.667 15.667 -64 47 -82c23.333 -13.333 50 -20 80 -20c40.667 0 79.667 11 117 33c12.667 7.33301 27.667 18.666 45 33.999zM270 193.998
c2.66699 8.66699 8.33398 18.6689 17.001 30.002c1.33301 2 3.66602 4.66699 6.99902 8l-165 159l-1 -171c0 -28.667 6 -50.5 18 -65.5s32.667 -22.5 62 -22.5c13.333 0 26.666 4 39.999 12c4 2.66699 9.33301 6.66699 16 12
c0.666992 5.33301 1.33398 11.166 2.00098 17.499s2 13.166 4 20.499z" />
    <glyph glyph-name="multiply" unicode="&#xd7;" horiz-adv-x="726" 
d="M425 468c50.667 0 91 -7.16797 121 -21.501s45 -37.166 45 -68.499c0 -16.667 -5.16699 -31.167 -15.5 -43.5s-22.5 -20.833 -36.5 -25.5c18 0 47 -13 87 -39c54.667 -35.333 82 -76.333 82 -123c0 -50 -20.333 -89 -61 -117s-96 -42 -166 -42
c-60.667 0 -109.667 11.333 -147 34c-24 14.667 -46 42 -66 82c-10 -7.33301 -19.333 -12.333 -28 -15c-16.667 -5.33301 -34 -8 -52 -8c-33.333 0 -61 12.333 -83 37s-33 56.334 -33 95.001v172c1.33301 2 2 5.33301 2 10c0 6 -1.83301 10.5 -5.5 13.5
s-9.16699 4.5 -16.5 4.5h-52v44h92l221 -209c4 3.33301 7.33301 6 10 8c19.333 14.667 41.333 27 66 37l95 37c29.333 13.333 44 26.666 44 39.999c0 22 -12 37 -36 45c-16 5.33301 -41 8 -75 8c-15.333 0 -36.333 -4.33301 -63 -13c-8.66699 -2.66699 -20.667 -7 -36 -13
v55c12.667 3.33301 30 6.83301 52 10.5s40.333 5.5 55 5.5zM514 286.999c-2 0 -17.667 -6.33301 -47 -19l-52 -23c-25.333 -10.667 -45.333 -23.667 -60 -39c-18.667 -19.333 -28 -41.666 -28 -66.999c0 -37.333 18 -65.333 54 -84c28 -14.667 60.333 -22 97 -22
c42 0 80 10 114 30c39.333 23.333 59 53.666 59 90.999c0 33.333 -22 65.333 -66 96c-35.333 24.667 -59 37 -71 37zM270 193.999c2.66699 8.66699 8.33398 18.6689 17.001 30.002c1.33301 2 3.66602 4.66699 6.99902 8l-165 159l-1 -171c0 -28.667 6 -50.5 18 -65.5
s32.667 -22.5 62 -22.5c13.333 0 26.666 4 39.999 12c4 2.66699 9.33301 6.66699 16 12c0.666992 5.33301 1.33398 11.166 2.00098 17.499s2 13.166 4 20.499z" />
    <glyph glyph-name="Oslash" unicode="&#xd8;" horiz-adv-x="480" 
d="M169 61c-37.333 10 -66.3359 26.002 -87.0029 48.002c-22.667 24 -34 54.333 -34 91c0 37.333 14.333 69 43 95c24.667 22 58 39.333 100 52l82 22c30.667 10 46 22.667 46 38c0 10 -6.33301 21.333 -19 34c-4 4 -10.333 9.33301 -19 16h66
c4 -3.33301 7.33301 -6.33301 10 -9c16 -16 24 -32.333 24 -49c0 -28 -23.667 -50.333 -71 -67l-80 -26c-33.333 -11.333 -61.333 -28 -84 -50s-34 -44.667 -34 -68c0 -27.333 13.667 -47.333 41 -60c22 -10 52.667 -15 92 -15c26.667 0 55.334 2.33301 86.001 7
c10 1.33301 22.667 3.66602 38 6.99902l19 -61c-62.667 0 -111.834 -7.83301 -147.501 -23.5s-53.5 -36.834 -53.5 -63.501c0 -28 22 -45.333 66 -52c16.667 -2.66699 38 -4 64 -4c19.333 0 45 6 77 18c24 8.66699 39.667 15.667 47 21l22 -52
c-15.333 -8 -39.666 -15.833 -72.999 -23.5s-61.666 -11.5 -84.999 -11.5c-55.333 0 -97.666 6.33301 -126.999 19c-40 17.333 -60 46.333 -60 87c0 21.333 7 40 21 56c7.33301 8.66699 17.333 16.667 30 24z" />
    <glyph glyph-name="Ugrave" unicode="&#xd9;" horiz-adv-x="469" 
d="M138 -11c12 0 22.001 5.17188 30.001 15.5049s12 27.166 12 50.499c0 11.333 -0.333008 17.666 -1 18.999c-30.667 11.333 -53.334 22.333 -68.001 33c-46 32 -69 72.333 -69 121c0 35.333 15.333 63.666 46 84.999c23.333 16.667 58.333 30.667 105 42
c24.667 4.66699 49.667 9.66699 75 15c27.333 7.33301 41 18.333 41 33c0 16.667 -8.33301 32 -25 46c-2.66699 2 -7 4.66699 -13 8h66c8.66699 -6.66699 15 -12.334 19 -17.001c12.667 -14.667 19 -30.334 19 -47.001c0 -28 -23 -48 -69 -60
c-26.667 -6.66699 -53.334 -13 -80.001 -19c-39.333 -10.667 -67.333 -21 -84 -31c-26.667 -16 -40 -37.667 -40 -65c0 -39.333 22 -67.333 66 -84c30 -11.333 67.667 -17 113 -17c10 0 17.833 0.166992 23.5 0.5s10.5 0.833008 14.5 1.5
c-1.33301 4.66699 -2.33301 8.33398 -3 11.001c-2.66699 11.333 -4 20.333 -4 27c0 15.333 3.83301 28.166 11.5 38.499s21.834 15.5 42.501 15.5s35.5 -5.16699 44.5 -15.5s13.5 -24.833 13.5 -43.5c0 -20.667 -7.33301 -39.334 -22 -56.001
c-4.66699 -5.33301 -12 -11.333 -22 -18c2.66699 -7.33301 5 -13 7 -17c6 -12.667 12.167 -22.834 18.5 -30.501s17.833 -17.167 34.5 -28.5c2.66699 -1.33301 6.66699 -3.66602 12 -6.99902l-53 -42l-21 26.5c-6.66699 8.33301 -12.5 17.166 -17.5 26.499
s-11.167 23 -18.5 41l-9 24l-95 -2c0.666992 -3.33301 1.33398 -8.16602 2.00098 -14.499s1 -11.5 1 -15.5c0 -26.667 -5.33301 -47.667 -16 -63c-16.667 -23.333 -44.334 -35 -83.001 -35c-20.667 0 -40.667 3.66699 -60 11c-24 9.33301 -40 19 -48 29l14 54
c0.666992 -5.33301 10 -13.666 28 -24.999c22 -14 42.667 -21 62 -21z" />
    <glyph glyph-name="Uacute" unicode="&#xda;" horiz-adv-x="625" 
d="M520 -6c-4.66699 6.66699 -9.16895 13.667 -13.502 21s-8.83301 16.333 -13.5 27c-26.667 -22.667 -49.667 -39.667 -69 -51c-58 -34 -116.667 -51 -176 -51s-106.333 15 -141 45s-52 70.667 -52 122c0 40 14.667 72.667 44 98c34 29.333 67.333 44 100 44l22 -30
c0 10.667 1.33301 21.667 4 33c12 44.667 55 76.334 129 95.001l77 18c28.667 9.33301 43 22 43 38c0 10.667 -6.33301 23 -19 37c-4 4 -10.333 9.66699 -19 17h69c8 -8.66699 13.667 -15.334 17 -20.001c12 -16 18 -29.333 18 -40c0 -24 -25 -45 -75 -63
c-12 -4 -40 -12 -84 -24c-28.667 -7.33301 -52 -18.5 -70 -33.5s-27 -35.167 -27 -60.5c0 -39.333 28.667 -65.333 86 -78c18.667 -4 47.667 -6.33301 87 -7c-0.666992 16.667 0.333008 29 3 37c8 24.667 26.333 37 55 37c37.333 0 56 -19 56 -57
c0 -18 -4.16699 -31.167 -12.5 -39.5s-20.166 -13.166 -35.499 -14.499c2.66699 -9.33301 5.66699 -17.333 9 -24s10 -17 20 -31c5.33301 -7.33301 13 -15 23 -23c13.333 -10.667 24.333 -18.334 33 -23.001l-52 -40c-9.33301 8 -15.166 13.5 -17.499 16.5zM377.998 19
c-10.667 -4.66699 -25.8311 -9.33301 -45.498 -14s-31.167 -7 -34.5 -7l-78 200c3.33301 -8.66699 6.33301 -15.667 9 -21c18.667 -34 49.667 -59.333 93 -76c17.333 -6.66699 36.166 -11.167 56.499 -13.5s40.5 -3.5 60.5 -3.5h15.5c4.33301 0 7.83301 0.333008 10.5 1
c-2.66699 -4 -12.334 -13 -29.001 -27c-22.667 -19.333 -42 -32.333 -58 -39zM197.001 196.001c-18 0 -38.333 -11 -61 -33c-18 -18 -27 -39.333 -27 -64c0 -40 20.667 -69 62 -87c27.333 -12 58 -18 92 -18h6.5c1.66699 0 3.5 0.333008 5.5 1z" />
    <glyph glyph-name="Ucircumflex" unicode="&#xdb;" horiz-adv-x="705" 
d="M260 282c-4.66699 0.666992 -8.33398 0.996094 -11.001 0.996094c-48.667 0 -88.667 -11 -120 -33c-27.333 -19.333 -41 -45.333 -41 -78c0 -18.667 8.66699 -32.667 26 -42c14 -7.33301 32 -11 54 -11c16 0 36.667 6.33301 62 19c8 4 19.333 10.333 34 19l26 -42
c-21.333 0 -41.5 -10.5 -60.5 -31.5s-28.5 -46.833 -28.5 -77.5c0 -23.333 10.333 -39.333 31 -48c12.667 -5.33301 30.667 -8 54 -8c40 0 74.667 12.333 104 37c38 32 57 60.333 57 85c-37.333 10.667 -65 21 -83 31c-56 30.667 -84 69.667 -84 117
c0 35.333 14.333 65 43 89c25.333 21.333 58.666 36 99.999 44l83 16c32.667 8.66699 49 20 49 34c0 11.333 -6.33301 23.666 -19 36.999c-4 4 -10.667 9.66699 -20 17h63c8 -9.33301 13.667 -16.666 17 -21.999c12 -18 18 -32.667 18 -44c0 -26 -16.333 -45 -49 -57
c-8.66699 -3.33301 -44 -10.666 -106 -21.999c-32.667 -6 -59 -15.667 -79 -29c-24.667 -16.667 -37 -38.334 -37 -65.001c0 -39.333 19.333 -67.333 58 -84c26.667 -11.333 60.667 -17 102 -17c14.667 0 24.167 0.166992 28.5 0.5s7.83301 0.833008 10.5 1.5
c0 3.33301 -0.166992 6.33301 -0.5 9s-0.5 6 -0.5 10c0 24.667 4.83301 42.667 14.5 54s22.834 17 39.501 17c48 4 72 -19 72 -69c0 -18 -5.33301 -33.333 -16 -46s-24.667 -20.667 -42 -24c5.33301 -15.333 13.666 -29.666 24.999 -42.999
c7.33301 -8.66699 16.333 -16.667 27 -24s18 -11.333 22 -12l-51 -44l-24 29.5c-8 9.66699 -14.167 17.834 -18.5 24.501s-10.166 16.334 -17.499 29.001s-12.666 23 -15.999 31h-62c-2 -16 -17.667 -41.667 -47 -77c-40 -48.667 -83.667 -75 -131 -79
c-48 0 -85.333 5.33301 -112 16c-32 12.667 -51.667 34.334 -59 65.001c-1.33301 8 -2 14 -2 18c0 17.333 5.33301 34.666 16 51.999c5.33301 8.66699 11.333 16.334 18 23.001c-32.667 2.66699 -57 6.66699 -73 12c-49.333 16 -74 44 -74 84c0 61.333 37.667 105 113 131
c65.333 22.667 104.333 29 117 19v-43z" />
    <glyph glyph-name="Udieresis" unicode="&#xdc;" horiz-adv-x="700" 
d="M286 -42c30 0 65.0039 18.332 105.004 54.999c34.667 32 52 51.667 52 59c-36 10.667 -62.667 20.667 -80 30c-54 30 -81 68.667 -81 116c0 36 12.333 64.5 37 85.5s58 35.833 100 44.5s69 15 81 19c27.333 9.33301 41 21.333 41 36c0 11.333 -6.66699 23.666 -20 36.999
c-4 4 -11 9.66699 -21 17h67c8 -10.667 14 -19 18 -25c12.667 -20 19 -36.333 19 -49c0 -23.333 -22.667 -40.666 -68 -51.999l-85.5 -20.5c-29.667 -7 -52.834 -17.5 -69.501 -31.5c-21.333 -17.333 -32 -39.666 -32 -66.999c0 -32 14.833 -57 44.5 -75s73.5 -27 131.5 -27
h10.5c3 0 5.16699 0.333008 6.5 1c0 2 -0.333008 5.5 -1 10.5s-1 9.83301 -1 14.5c0 19.333 3 34.333 9 45c9.33301 16 24.666 24 45.999 24c22 0 38.167 -5.16699 48.5 -15.5s15.5 -25.5 15.5 -45.5c0 -24 -9.66699 -44 -29 -60c-6 -4.66699 -15.667 -10 -29 -16l8 -16
c6 -12 11.833 -21.167 17.5 -27.5s15.167 -14.166 28.5 -23.499l20 -12l-63 -42c-6.66699 7.33301 -11.667 13.333 -15 18c-10 13.333 -17.5 24.833 -22.5 34.5s-10.167 22.5 -15.5 38.5c-1.33301 5.33301 -3.66602 13 -6.99902 23l-57 2
c-22.667 -34.667 -42 -60.667 -58 -78c-48.667 -52 -98.334 -78 -149.001 -78c-35.333 0 -62.833 5.33301 -82.5 16s-34.5 29 -44.5 55c-2.66699 7.33301 -4 15.333 -4 24c0 17.333 5.66699 36.666 17 57.999c8.66699 16.667 15 26.334 19 29.001
c-4 -0.666992 -9.83301 -1.33398 -17.5 -2.00098s-13.834 -1 -18.501 -1c-43.333 0 -75.333 9.33301 -96 28c-18 16 -27 39 -27 69c0 17.333 6.16699 32.5 18.5 45.5s33.833 28.5 64.5 46.5c10.667 6.66699 18.167 13.834 22.5 21.501s6.5 15.5 6.5 23.5
c0 10.667 -3 21.334 -9 32.001c-0.666992 1.33301 -2.33398 3.66602 -5.00098 6.99902h50c4.66699 -8 8 -14.333 10 -19c7.33301 -16 11 -28.333 11 -37c0 -18.667 -7.66699 -34 -23 -46c-6 -4.66699 -20.667 -14.334 -44 -29.001c-13.333 -8 -23.333 -16.333 -30 -25
s-10 -19 -10 -31c0 -2.66699 0.666992 -6.66699 2 -12c4.66699 -15.333 12.667 -25 24 -29s26 -6 44 -6c16 0 35.667 6.66699 59 20c7.33301 4 17.333 10.667 30 20l30 -35c-8 0 -20.667 -10.333 -38 -31c-22 -26 -33 -53.333 -33 -82c0 -22.667 7.66699 -38.667 23 -48
c12 -7.33301 28.333 -11 49 -11z" />
    <glyph glyph-name="Yacute" unicode="&#xdd;" horiz-adv-x="809" 
d="M307 167l73.0049 -121l103 52c-21.333 12 -37 22.667 -47 32c-32 28.667 -48 60 -48 94s14.667 61.667 44 83c21.333 16 54.666 30.667 99.999 44l76 22c26.667 9.33301 40 20.666 40 33.999c0 14 -7 26.667 -21 38c-4.66699 3.33301 -11.667 7.33301 -21 12l72 1
c8 -8.66699 14 -15.667 18 -21c12 -16 18 -30 18 -42c0 -22.667 -25 -43 -75 -61c-17.333 -6 -46.333 -14.667 -87 -26c-28 -7.33301 -51 -19.5 -69 -36.5s-27 -38.167 -27 -63.5c0 -37.333 24.333 -63.666 73 -78.999c29.333 -9.33301 64.666 -14 105.999 -14h11.5h2.5
c-1.33301 4.66699 -2.66602 10.334 -3.99902 17.001s-2 15 -2 25c0 17.333 3 30.666 9 39.999c8.66699 13.333 22.667 20 42 20s34.666 -4.83301 45.999 -14.5s17 -25.167 17 -46.5c0 -19.333 -6.66699 -38.333 -20 -57c-10 -14.667 -18.333 -23 -25 -25
c4 -7.33301 7 -12.666 9 -15.999c6 -10 12.333 -19 19 -27c4.66699 -6 16 -15.333 34 -28c2.66699 -2 6.66699 -4.66699 12 -8l-55 -46l-21 26.5c-6.66699 8.33301 -12.334 17.166 -17.001 26.499c-8 14.667 -13.333 25.334 -16 32.001
c-4.66699 10.667 -8.66699 21.667 -12 33l-117 8l-144 -69l43 -75c3.33301 -6 1.66602 -12.667 -5.00098 -20s-14.334 -11 -23.001 -11c-30 0 -61.5 7.5 -94.5 22.5s-51.833 29.833 -56.5 44.5c-1.33301 5.33301 -1.33301 11 0 17s4.33301 10 9 12l54 26l-82 130
c-12.667 20.667 -23 34.667 -31 42c-12.667 12 -27.667 18 -45 18c-25.333 0 -45.833 -14.5 -61.5 -43.5s-23.5 -60.833 -23.5 -95.5c0 -44.667 17.667 -83.334 53 -116.001c11.333 -10.667 29.333 -23 54 -37l-43 -38c-26.667 10.667 -53.334 37 -80.001 79
c-24 38 -36 79.333 -36 124c0 53.333 12 96.333 36 129s56.333 49 97 49c30.667 0 55.834 -7 75.501 -21s40.5 -39 62.5 -75z" />
    <glyph glyph-name="Thorn" unicode="&#xde;" horiz-adv-x="590" 
d="M142 253c-20 0 -40.001 8.66699 -60.001 26c-24.667 21.333 -37 48 -37 80c0 40.667 16.667 69.667 50 87c25.333 13.333 60.333 20 105 20c24.667 0 50.334 -3 77.001 -9c18 -4 30.333 -7.66699 37 -11v-45c-12 4.66699 -26.667 8.66699 -44 12s-32 5 -44 5
c-39.333 0 -65 -1.66699 -77 -5c-31.333 -8.66699 -47 -27.667 -47 -57c0 -26.667 12.333 -44.667 37 -54c12 -4.66699 26.333 -7 43 -7h69c12.667 0 21 -0.833008 25 -2.5s8.66699 -5.16699 14 -10.5s8.66602 -10.5 9.99902 -15.5s2 -10.833 2 -17.5v-11v-85l162 1v303h57
v-457h-57v105h-162c0 -10 -0.666992 -17.667 -2 -23c-8.66699 -34.667 -30.667 -52 -66 -52c-21.333 0 -37.166 5.5 -47.499 16.5s-15.5 25.833 -15.5 44.5c0 28 12 46.667 36 56c8 2.66699 20 4.66699 36 6v78c0 9.33301 -1.83301 15.333 -5.5 18s-10.5 4 -20.5 4h-75z" />
    <glyph glyph-name="germandbls" unicode="&#xdf;" horiz-adv-x="536" 
d="M152 237l-73.999 68.998l1 88c0 9.33301 -7 15.333 -21 18c-2 0 -5.33301 0.333008 -10 1h-26v44h43c10.667 0 19.167 -1.5 25.5 -4.5s14.166 -8.83301 23.499 -17.5c15.333 -14.667 23 -34 23 -58v-63c0 -19.333 9.33301 -33.666 28 -42.999
c15.333 -7.33301 37.333 -11 66 -11h179v197h57v-457h-57v213h-200c-28 0 -51.667 -8.16699 -71 -24.5s-29 -38.5 -29 -66.5c0 -30.667 16 -52.667 48 -66c22 -9.33301 49 -14 81 -14c16.667 0 25.667 0.666992 27 2l-21 -44c-5.33301 -0.666992 -9.33301 -1 -12 -1
c-40 0 -76.333 6.66699 -109 20c-52 21.333 -78 55.333 -78 102c0 42 17.667 74 53 96c11.333 6.66699 29 13.334 53 20.001z" />
    <glyph glyph-name="agrave" unicode="&#xe0;" horiz-adv-x="798" 
d="M672 218l0.00195312 239.006h57v-457h-57v169l-208 -170l-43 45l207 145c-12 7.33301 -21 12.666 -27 15.999c-20 10.667 -34.667 16 -44 16c-7.33301 0 -26 -6 -56 -18c-63.333 -25.333 -96.333 -40.333 -99 -45l-34 54l161 53c-1.33301 7.33301 -6 18 -14 32
c-11.333 19.333 -23.666 32 -36.999 38c-5.33301 2.66699 -10.666 4.33398 -15.999 5.00098s-12 1 -20 1c-20 0 -43.333 -4.33301 -70 -13c-8.66699 -2.66699 -20 -7 -34 -13c0 -18 -5.5 -36.833 -16.5 -56.5s-26.833 -35.834 -47.5 -48.501
c-13.333 -8 -28.833 -13.5 -46.5 -16.5s-34.834 -4.5 -51.501 -4.5h-13c-3.33301 0 -6.33301 0.333008 -9 1l39 -123c1.33301 -2.66699 2.5 -5.33398 3.5 -8.00098s3 -5.33398 6 -8.00098s6.16699 -4.33398 9.5 -5.00098s6.33301 -1.33398 9 -2.00098h129v-44h-162
c-6 2 -10.333 3.33301 -13 4c-10.667 4 -17.834 8 -21.501 12s-7.16699 8.16699 -10.5 12.5s-5.66602 9.16602 -6.99902 14.499l-44 147h-55v48h170c17.333 0 34.166 8.5 50.499 25.5s24.5 37.5 24.5 61.5c0 24.667 -5.33301 45.5 -16 62.5s-26 25.5 -46 25.5h-149v44h171
c14.667 0 26.167 -2 34.5 -6s18.166 -12.333 29.499 -25c16 -18 25.333 -34 28 -48v-8c3.33301 2 16.333 6 39 12c31.333 8 57.666 12 78.999 12c23.333 0 43.5 -4.16699 60.5 -12.5s32.5 -24.833 46.5 -49.5c17.333 -31.333 26 -57.333 26 -78z" />
    <glyph glyph-name="aacute" unicode="&#xe1;" horiz-adv-x="699" 
d="M58 207l-33 54.0029l191 41c-8.66699 0 -28.334 9.66699 -59.001 29c-37.333 23.333 -56 44.333 -56 63c0 32 16.667 56 50 72c26.667 12.667 61.667 19 105 19c48 0 87.667 -7.33301 119 -22c39.333 -18.667 59 -46.334 59 -83.001
c0 -22.667 -17.667 -44.334 -53 -65.001c-11.333 -6.66699 -29 -14.667 -53 -24l104 -53l77 33l26 -48l-152 -57c-16.667 -6 -30 -18.333 -40 -37s-15 -36.334 -15 -53.001c0 -4 1.16699 -9.66699 3.5 -17s8.33301 -13.166 18 -17.499s20.834 -6.5 33.501 -6.5
c40 0 83.333 20.667 130 62c40 35.333 60 58.666 60 69.999v290h57v-457h-57v98c-3.33301 -11.333 -26 -31.666 -68 -60.999c-50 -34.667 -94 -52 -132 -52c-28.667 0 -51.5 4.66699 -68.5 14s-27.167 24.666 -30.5 45.999c-0.666992 2.66699 -1 6.66699 -1 12
c0 19.333 7 39.666 21 60.999c4.66699 6.66699 11.667 15.334 21 26.001l-163 -85l-31 57l263 102l-113 56zM172 385.003c0 -12 15.668 -26.668 47.001 -44.001s49.333 -24.666 54 -21.999c5.33301 -2 22 4 50 18c31.333 16 47 31 47 45c0 21.333 -13 37 -39 47
c-18.667 7.33301 -41.667 11 -69 11c-26.667 0 -48.334 -4.33301 -65.001 -13s-25 -22.667 -25 -42z" />
    <glyph glyph-name="acircumflex" unicode="&#xe2;" horiz-adv-x="651" 
d="M214 87l249.004 71.001l-212 77l-165 -68l-45 43l161 52c-10.667 1.33301 -27.334 11.666 -50.001 30.999c-28.667 24.667 -43 50.334 -43 77.001c0 33.333 15.667 60.333 47 81c27.333 18 60.666 27 99.999 27c42 0 78.833 -10.5 110.5 -31.5s47.5 -49.833 47.5 -86.5
c0 -26.667 -16.667 -52 -50 -76c-10.667 -8 -27.334 -17.333 -50.001 -28l211 -76v277h57v-457h-57v135l-183 -64c4.66699 -7.33301 8 -13.333 10 -18c6.66699 -14 10 -26.667 10 -38c0 -12 -3.83301 -21.5 -11.5 -28.5s-21.834 -10.5 -42.501 -10.5
c-25.333 0 -52.333 7 -81 21s-43 29 -43 45c0 12 3.5 22.167 10.5 30.5s13.5 13.166 19.5 14.499zM172.004 360.001c0 -20.667 13.999 -40.332 41.999 -58.999c22.667 -15.333 38.334 -23 47.001 -23c20 7.33301 35 13.666 45 18.999c30.667 17.333 46 37.333 46 60
c0 26.667 -8 46.167 -24 58.5s-39 18.5 -69 18.5c-24 0 -44.5 -6.33301 -61.5 -19s-25.5 -31 -25.5 -55z" />
    <glyph glyph-name="atilde" unicode="&#xe3;" horiz-adv-x="510" 
d="M285 335c8.66699 0.666992 17.665 1.16602 26.998 1.49902s16 0.5 20 0.5h26c8.66699 -2 14.334 -3.33301 17.001 -4c35.333 -7.33301 60.333 -17.333 75 -30s22 -31.334 22 -56.001c0 -25.333 -12.333 -43.666 -37 -54.999c-9.33301 -4.66699 -35.333 -11.667 -78 -21
c-18.667 -4.66699 -37.334 -9 -56.001 -13c-22.667 -8.66699 -34 -22 -34 -40c0 -16.667 9.33301 -29.667 28 -39s39 -14 61 -14c24.667 0 51.667 6 81 18c10 4 22.667 10.333 38 19l15 -59c-12 -6 -32.167 -12 -60.5 -18s-53.166 -9 -74.499 -9c-38 0 -71.667 9 -101 27
c-32 20 -48 45.667 -48 77c0 25.333 7.83301 44.833 23.5 58.5s41.167 24.834 76.5 33.501c32.667 5.33301 55.667 9.33301 69 12c22.667 5.33301 34 15.666 34 30.999c0 10.667 -8.66699 19.334 -26 26.001s-46.333 10 -87 10c-47.333 0 -90.666 -15.667 -129.999 -47
c-42.667 -34 -64 -73.667 -64 -119c0 -72 32 -123.333 96 -154c44 -21.333 101 -32 171 -32c21.333 0 38.333 0.666992 51 2s19.667 2.66602 21 3.99902l4 -44c-0.666992 -0.666992 -6.33398 -1.66699 -17.001 -3c-30 -4.66699 -57.667 -7 -83 -7
c-108 0 -187.667 23.667 -239 71c-43.333 40 -65 96 -65 168c0 64 31.667 116.333 95 157c20.667 13.333 52.334 27.333 95.001 42c-6.66699 0 -18.667 6.33301 -36 19c-22 16 -33 32 -33 48c0 28.667 14.667 48.667 44 60c22 8.66699 54.667 13 98 13
c25.333 0 51.333 -2 78 -6s44.667 -7.66699 54 -11v-50c-2.66699 1.33301 -13 4.33301 -31 9c-40.667 10 -75 15 -103 15c-22 0 -40.333 -3.16699 -55 -9.5s-22 -17.5 -22 -33.5c0 -11.333 10 -22.666 30 -33.999c6.66699 -3.33301 16.667 -8 30 -14z" />
    <glyph glyph-name="adieresis" unicode="&#xe4;" horiz-adv-x="820" 
d="M309 210l96.002 44.0029v203h58v-179l136 69c-2.66699 4 -4 13.333 -4 28c0 26 5.16699 44.5 15.5 55.5s23.5 16.5 39.5 16.5c18.667 0 33.834 -5.83301 45.501 -17.5s17.5 -26.167 17.5 -43.5c0 -18.667 -6 -34 -18 -46c-7.33301 -7.33301 -15.333 -12 -24 -14l81 -124
c-6.66699 4.66699 -29.667 -3.83301 -69 -25.5s-59 -45.834 -59 -72.501c0 -16 5.33301 -28.667 16 -38s29.667 -14 57 -14c17.333 0 39.666 8.33301 66.999 25c8.66699 5.33301 20.667 13.666 36 24.999l30 -49c-8.66699 -10.667 -30.334 -22.667 -65.001 -36
c-26 -10 -49.333 -15 -70 -15c-38 0 -67.667 7.33301 -89 22c-26 18 -39 47 -39 87c0 24 10.333 47 31 69c31.333 33.333 56.666 50 75.999 50l-51 79l-160 -88v-221h-58v202l-275 -138l-64 40l191 84c-3.33301 47.333 -7.33301 82.666 -12 105.999
c-15.333 70.667 -40.666 106 -75.999 106c-30.667 0 -59.334 -24.667 -86.001 -74c-8.66699 -16 -19 -40.667 -31 -74l-36 60c14 30.667 26.333 53.667 37 69c32.667 46 69.667 69 111 69c60 0 102.333 -39 127 -117c20.667 -64.667 26.667 -105.667 18 -123z" />
    <glyph glyph-name="aring" unicode="&#xe5;" horiz-adv-x="620" 
d="M82 395c-0.666992 6.66699 -2.33398 11.168 -5.00098 13.501s-5.33398 3.66602 -8.00098 3.99902s-5 0.5 -7 0.5h-48v44h57c20 0 37 -7.33301 51 -22c6.66699 -7.33301 11.834 -14.833 15.501 -22.5s5.5 -16.167 5.5 -25.5v-45c0 -40 27 -60 81 -60
c30.667 0 54.334 7.33301 71.001 22c13.333 11.333 20 24 20 38v112h56v-59h123v62h57v-457h-57v152l-289 -25c-17.333 0 -34 -4.33301 -50 -13s-24 -21.334 -24 -38.001c0 -23.333 21.333 -40.333 64 -51s65.667 -13 69 -7l-61 -33c-30.667 8 -53.667 15.667 -69 23
c-46.667 22 -70 49.333 -70 82c0 24.667 9.66699 44.334 29 59.001c16 12 33 18 51 18l350 29v155h-123v-30c-1.33301 -10.667 -3.66602 -19 -6.99902 -25c-20.667 -37.333 -67.667 -56 -141 -56c-50.667 0 -88.334 10.667 -113.001 32c-18.667 16 -28 35 -28 57v66z" />
    <glyph glyph-name="otilde" unicode="&#xf5;" horiz-adv-x="1343" 
d="M1330 379c0 -8.66699 -3.16895 -16.334 -9.50195 -23.001s-14.166 -10 -23.499 -10s-17.166 3.33301 -23.499 10s-9.5 14.334 -9.5 23.001s3.33301 16.167 10 22.5s14.334 9.5 23.001 9.5c10 0 17.667 -3.33301 23 -10c5.33301 -4.66699 8.66602 -12 9.99902 -22z
M1252 387c-10.667 -26 -27.667 -39 -51 -39c-11.333 0 -20.833 2.83301 -28.5 8.5s-13.167 13.167 -16.5 22.5l-2 36v99h-23v8c15.333 9.33301 29 21.666 41 36.999c12 12 22.333 25.667 31 41h6v-65h43v-21h-43v-113l1 -19c0.666992 -1.33301 1.5 -2.66602 2.5 -3.99902
s2 -2.5 3 -3.5s3.5 -2.16699 7.5 -3.5c8 0 16 6.33301 24 19zM1132 443c0 -16.667 -2.99707 -33.6709 -8.99707 -51.0039c-5.33301 -12.667 -14 -24.334 -26 -35.001c-12.667 -8 -25.334 -12 -38.001 -12c-10.667 0 -20 2.66699 -28 8
c-3.33301 1.33301 -6.33301 3.33301 -9 6c-4.66699 4.66699 -8.33398 8 -11.001 10v-68c0 -10 0.833008 -16.667 2.5 -20s3.83398 -5.33301 6.50098 -6c3.33301 -2 9.66602 -3 18.999 -3v-7h-104v7c7.33301 0.666992 12.666 2.83398 15.999 6.50098s5 11.834 5 24.501v193
c0 12 -1.33301 20.333 -4 25c-6 4 -11.667 5.66699 -17 5v9h76v-26c6.66699 11.333 12.667 18.333 18 21s11 4.83398 17 6.50098s11.333 2.5 16 2.5c13.333 0 25.333 -4.33301 36 -13c11.333 -7.33301 19.833 -18.666 25.5 -33.999s8.5 -31.666 8.5 -48.999zM1313 233.996
c-5.33301 0.666992 -10.333 -1.33301 -15 -6c-1.33301 -1.33301 -4.33301 -7.16602 -9 -17.499s-8 -18.166 -10 -23.499l-52 -136c-12.667 -32.667 -22.334 -53.334 -29.001 -62.001c-9.33301 -11.333 -20.666 -17 -33.999 -17c-11.333 0 -20 3.33301 -26 10
c-7.33301 6 -11 13.333 -11 22c0 7.33301 2.33301 13.333 7 18s10.334 7.66699 17.001 9c6 0 11.167 -2 15.5 -6s6.83301 -10.667 7.5 -20l1 -10l4 -2c3.33301 0 7.16602 2.16699 11.499 6.5s10.166 16.5 17.499 36.5l6 15l-59 136c-4 8.66699 -8 16.667 -12 24
s-6.66699 11.666 -8 12.999c-4 4.66699 -9.33301 8 -16 10v9h98v-9c-7.33301 0 -12.166 -1.5 -14.499 -4.5s-3.5 -5.16699 -3.5 -6.5c0 -2 3.33301 -12 10 -30l31 -70l22 55c7.33301 18.667 11 32 11 40c0 4 -1.66699 8.33301 -5 13c-6 2 -11.667 3 -17 3v9h62v-9z
M935.001 401.996c-5.33301 -11.333 -10.501 -20.333 -15.501 -27s-10.833 -12.334 -17.5 -17.001c-12 -8.66699 -26 -13 -42 -13c-26.667 0 -47 10.333 -61 31c-10.667 16.667 -16 38 -16 64c0 31.333 8 55 24 71c7.33301 9.33301 16 16.333 26 21s20.667 7 32 7
c18 0 34.167 -7.66699 48.5 -23s21.5 -37.333 21.5 -66h-100c0 -12.667 1.5 -23.667 4.5 -33s7.83301 -17.666 14.5 -24.999c8 -10.667 19 -16 33 -16c8.66699 0 15.834 2.16699 21.501 6.5s12.167 11.833 19.5 22.5zM1146 84.9961c-7.33301 -10 -14 -17.3369 -20 -22.0039
c-8 -4.66699 -16 -7 -24 -7c-10 0 -18.333 2.5 -25 7.5s-10 12.833 -10 23.5c-24 -20.667 -44 -31 -60 -31c-12 0 -20.667 3.66699 -26 11c-6.66699 6 -10 14.667 -10 26c0 14 5.66699 26.667 17 38c5.33301 4.66699 18.333 12.334 39 23.001l40 21v17c0 14 -1 23 -3 27
l-8 10c-5.33301 2.66699 -10 4 -14 4c-8 0 -15 -2 -21 -6c-2 -1.33301 -3.33301 -3 -4 -5s-1 -3.33301 -1 -4c2 -4.66699 4.16699 -8.16699 6.5 -10.5s4.5 -7.16602 6.5 -14.499c0 -6.66699 -2.33301 -12.667 -7 -18c-5.33301 -3.33301 -11.666 -5 -18.999 -5
c-8.66699 0 -15.334 2.33301 -20.001 7c-6 4 -9 10 -9 18c0 7.33301 3.5 15.5 10.5 24.5s17.5 16.167 31.5 21.5c8.66699 2 16.167 3.5 22.5 4.5s12.833 1.5 19.5 1.5c17.333 0 31 -4 41 -12c10 -6.66699 16.667 -14 20 -22l2 -38v-71l1 -17l3 -4l5 -2
c1.33301 0.666992 2.83301 1.33398 4.5 2.00098s3.5 2.33398 5.5 5.00098zM769 482.992c0 -18.667 -3.17188 -36.168 -9.50488 -52.501s-13.833 -28.833 -22.5 -37.5c-5.33301 -5.33301 -10.333 -10 -15 -14c-1.33301 -1.33301 -7.66602 -5.33301 -18.999 -12
c-1.33301 -0.666992 -5.16602 -2 -11.499 -4s-17.5 -5.33301 -33.5 -10c-1.33301 -0.666992 -6.33301 -1.16699 -15 -1.5s-16 -0.5 -22 -0.5h-119v7h9c6.66699 0 12.334 1.66699 17.001 5l10 8l1 26v174v13c0 4.66699 -0.666992 8.33398 -2 11.001
c-0.666992 4 -3.66699 7 -9 9c-2.66699 2.66699 -8.33398 4 -17.001 4h-9v7h119c18.667 0 33.334 -0.833008 44.001 -2.5s21.334 -4.83398 32.001 -9.50098c24.667 -11.333 42.834 -27.166 54.501 -47.499s17.5 -44.5 17.5 -72.5zM958.995 158.991
c0 -21.333 -3.99902 -39.665 -11.999 -54.998c-7.33301 -16.667 -17.833 -29.334 -31.5 -38.001s-28.5 -13 -44.5 -13c-9.33301 0 -17 1.16699 -23 3.5s-11.333 5.16602 -16 8.49902l-11 8l-30 -19h-7v233l-1 18c-0.666992 4 -2.66699 6.66699 -6 8
c-2.66699 2.66699 -7.33398 3.66699 -14.001 3v7h76v-99c15.333 15.333 32 23 50 23c13.333 0 25 -4 35 -12c11.333 -7.33301 20 -17.5 26 -30.5s9 -28.167 9 -45.5zM481.996 607.992c-10.667 -1.33301 -19.668 -5.99902 -27.001 -13.999l-24 -46l-91 -203h-6l-91 211
l-23 45c-4.66699 4.66699 -11.667 7 -21 7v7h128v-7h-4c-13.333 0 -21.333 -1.16699 -24 -3.5s-4 -5.5 -4 -9.5l1 -7l11 -25l56 -132l52 117l12 27l2 14l-3 10c-3.33301 3.33301 -6.66602 5.66602 -9.99902 6.99902s-10.333 2 -21 2v7h87v-7zM766.995 56.9932
l-94.0039 0.00585938v8c6.66699 -0.666992 12 1.66602 16 6.99902c1.33301 3.33301 2.33301 6.66602 3 9.99902s1 8.66602 1 15.999v78l-2 31l-6 10l-10 3c-5.33301 0 -10.833 -2.16699 -16.5 -6.5s-11.834 -10.5 -18.501 -18.5v-97c0 -12.667 1.33301 -21.167 4 -25.5
s8.33398 -6.83301 17.001 -7.5v-8h-94v8c5.33301 0 9.33301 0.666992 12 2l5 8l2 23v78l-2 31c-1.33301 4 -3.16602 7 -5.49902 9s-6.16602 3 -11.499 3l-14 -3c-8 -6.66699 -14.333 -13.667 -19 -21v-97c0 -13.333 1.16699 -22 3.5 -26s7.5 -6.33301 15.5 -7v-8h-94v8
c8.66699 1.33301 14 3.66602 16 6.99902c2.66699 2 4 10.667 4 26v101c0 14 -1.16699 22.833 -3.5 26.5s-7.83301 6.16699 -16.5 7.5v6h75v-23c4 5.33301 8 9.66602 12 12.999s10.167 7 18.5 11s16.833 6 25.5 6c6 0 10.667 -0.5 14 -1.5s8.33301 -3.16699 15 -6.5
c8.66699 -6 14.667 -15 18 -27c11.333 13.333 21.333 22 30 26c12 6 22 9 30 9c10.667 0 20.334 -3 29.001 -9s14.334 -13.333 17.001 -22s4 -23.334 4 -44.001v-73c0 -14 1.33301 -23 4 -27c4 -4 9.33301 -6 16 -6v-8zM299.991 350.999l-129 0.000976562v7h6
c9.33301 0 16.666 1.66699 21.999 5c2.66699 4.66699 4 7.66699 4 9l-1 7l-7 14l-13 33h-94l-11 -26c-4 -9.33301 -6 -16 -6 -20c0 -6.66699 3 -12.334 9 -17.001l27 -5v-7h-88v7c8.66699 2 16.334 6.33301 23.001 13c2 2 5.5 7.66699 10.5 17s8.83301 17 11.5 23l95 210h4
l96 -216c8 -20 15.333 -33.333 22 -40c4.66699 -4 11 -6.33301 19 -7v-7zM453.991 150c0 -24.667 -6.33203 -45.998 -18.999 -63.998c-16.667 -22 -39 -33 -67 -33c-26.667 0 -47.5 9.66699 -62.5 29s-22.5 41.666 -22.5 66.999s7.66699 48.666 23 69.999
c15.333 18.667 36 28 62 28c16 0 30.667 -4 44 -12s23.666 -19.5 30.999 -34.5s11 -31.833 11 -50.5zM268.992 130.002c0 -18 -7.99902 -34.666 -23.999 -49.999c-20.667 -15.333 -49.334 -23 -86.001 -23h-135v8c14 0 22.333 1 25 3l10 8l2 28v172l-2 26
c-2.66699 5.33301 -7 8.83301 -13 10.5s-13.333 2.5 -22 2.5v8h127c16 0 28.5 -0.666992 37.5 -2s18.167 -3.33301 27.5 -6c13.333 -6 23.5 -14.5 30.5 -25.5s10.5 -22.167 10.5 -33.5c0 -12 -4.5 -23 -13.5 -33s-25.167 -18.667 -48.5 -26
c11.333 -2.66699 21.333 -5.66699 30 -9s16 -7 22 -11c14.667 -12.667 22 -28.334 22 -47.001zM1074.99 439.003c0 32.667 -4 54.001 -12 64.001c-3.33301 7.33301 -10 11.666 -20 12.999c-13.333 0 -24 -9.66699 -32 -29v-98c9.33301 -14 21.333 -22 36 -24
c5.33301 0 11 3.66699 17 11c7.33301 12.667 11 33.667 11 63zM886.993 463.004c0 21.333 -1.16602 35.667 -3.49902 43s-5.5 12.5 -9.5 15.5s-8 4.5 -12 4.5c-6.66699 0 -12.334 -3.33301 -17.001 -10c-7.33301 -10.667 -11 -26.667 -11 -48v-5h53zM1066.99 101.005
l-0.00195312 59.999c-7.33301 -4 -14.166 -8.66699 -20.499 -14s-11.666 -11.333 -15.999 -18s-6.5 -13 -6.5 -19c0 -5.33301 2 -10.166 6 -14.499s8.66699 -6.5 14 -6.5c7.33301 0 15 4 23 12zM698.992 482.004c0 31.333 -5.33301 58.3311 -16 80.998
c-10 16.667 -21 27.334 -33 32.001s-27.667 7 -47 7v-208c0 -12 0.5 -18.667 1.5 -20s3.5 -3.16602 7.5 -5.49902s8.33301 -3.5 13 -3.5c10.667 0 20 1.83301 28 5.5s15.333 9.16699 22 16.5c16 20 24 51.667 24 95zM901.992 155.002
c0 29.333 -3.66504 48.668 -10.998 58.001c-2.66699 6 -9.33398 10.333 -20.001 13c-10.667 0 -21.334 -6.33301 -32.001 -19v-83v-30c2 -8.66699 5.16699 -15.167 9.5 -19.5s10.833 -6.5 19.5 -6.5c6 0 11.667 2 17 6c4.66699 2 8.66699 9.16699 12 21.5s5 32.166 5 59.499
zM174.994 442.004l-40 91l-40 -91h80zM396.994 165.004c0 20 -1.16602 34.498 -3.49902 43.498s-6.16602 16.167 -11.499 21.5c-6 2 -10.333 3 -13 3c-6.66699 0 -12.667 -2 -18 -6c-2 -3.33301 -3.33301 -6 -4 -8c-2.66699 -6.66699 -4 -14.667 -4 -24
c-2 -14 -3 -34.333 -3 -61l3 -38c0.666992 -9.33301 3.66699 -16.666 9 -21.999c3.33301 -3.33301 8.66602 -5.66602 15.999 -6.99902c6.66699 0 11.667 1.33301 15 4c5.33301 8.66699 8.66602 16.167 9.99902 22.5s2.33301 14.5 3 24.5s1 25.667 1 47zM190.995 256.002
c0 10.667 -2.16797 19.833 -6.50098 27.5s-11 13.5 -20 17.5s-22.833 6 -41.5 6v-104c20 0 33.667 2.33301 41 7c8.66699 4 15.334 9.66699 20.001 17s7 17 7 29zM199.994 127.001c0 14 -2.99902 25.666 -8.99902 34.999c-2.66699 4.66699 -5.83398 8.83398 -9.50098 12.501
s-9 6.83398 -16 9.50098s-21.167 4 -42.5 4v-85v-11c0 -7.33301 1.5 -12.5 4.5 -15.5s8.5 -4.5 16.5 -4.5c7.33301 0 17 2 29 6c4 2.66699 7.16699 5 9.5 7s5.83301 6.66699 10.5 14s7 16.666 7 27.999z" />
    <glyph glyph-name="oslash" unicode="&#xf8;" horiz-adv-x="960" 
d="M452 245h-290v320h-55v-380h345v-270h-345v-55h410v325h290v-325h60v385h-350v265h350v55h-415v-320zM678 316c-15.333 0 -28.333 5.33301 -39 16s-16 23.667 -16 39s5.33301 28.333 16 39s23.667 16 39 16s28.333 -5.33301 39 -16s16 -23.667 16 -39
s-5.33301 -28.333 -16 -39s-23.667 -16 -39 -16zM678 -15c-15.333 0 -28.333 5.33301 -39 16s-16 23.667 -16 39s5.33301 28.333 16 39s23.667 16 39 16s28.333 -5.33301 39 -16s16 -23.667 16 -39s-5.33301 -28.333 -16 -39s-23.667 -16 -39 -16zM296 -15
c-15.333 0 -28.333 5.33301 -39 16s-16 23.667 -16 39s5.33301 28.333 16 39s23.667 16 39 16s28.333 -5.33301 39 -16s16 -23.667 16 -39s-5.33301 -28.333 -16 -39s-23.667 -16 -39 -16zM300 315c-15.333 0 -28.333 5.33301 -39 16s-16 23.667 -16 39
s5.33301 28.333 16 39s23.667 16 39 16s28.333 -5.33301 39 -16s16 -23.667 16 -39s-5.33301 -28.333 -16 -39s-23.667 -16 -39 -16z" />
    <glyph glyph-name="ugrave" unicode="&#xf9;" horiz-adv-x="873" 
d="M675 352c6.66699 1.33301 19.3379 -6.99512 38.0049 -24.9951c8.66699 -6.66699 18.667 -12.667 30 -18c1.33301 -0.666992 3 -1.66699 5 -3c4.66699 6 1 21.333 -11 46c-14 24.667 -25.667 37.667 -35 39l-13 7c-2.66699 3.33301 -7.66699 5 -15 5s-15 -2 -23 -6
c-4 -1.33301 -7.5 -2.83301 -10.5 -4.5s-10.167 -7.16699 -21.5 -16.5c-16.667 -12.667 -28.334 -19 -35.001 -19c-4 0 -6.33301 2 -7 6v16v13c0 28 -2 50.667 -6 68c-6.66699 33.333 -23 55.333 -49 66c-22 10.667 -36.333 26.667 -43 48
c-4.66699 21.333 -9.66699 33 -15 35c-10.667 2 -21.334 -9.66699 -32.001 -35c-7.33301 -24 -18.333 -39.333 -33 -46c-28.667 -12 -48.334 -44.333 -59.001 -97c-1.33301 -8 -2.83301 -19.667 -4.5 -35s-2.5 -26.333 -2.5 -33c-9.33301 0.666992 -18.333 1.66699 -27 3
c-13.333 3.33301 -23.333 5.66602 -30 6.99902c-22 6.66699 -38.5 11.334 -49.5 14.001s-18.5 4 -22.5 4c-10.667 -2 -22 -7 -34 -15c-12 -6.66699 -22 -14.334 -30 -23.001l-17 -21c-6.66699 -8.66699 -11.667 -19.334 -15 -32.001c0 -2 1 -4.16699 3 -6.5
s4.66699 -4.5 8 -6.5c6 0 22.333 9 49 27c26.667 21.333 45.334 32 56.001 32l16 -5c6.66699 -3.33301 12.5 -6 17.5 -8s12.167 -6.33301 21.5 -13l35 -24l24 -9h13h-81c-6.66699 0 -11 -5 -13 -15c-0.666992 -9.33301 3.66602 -15 12.999 -17l15 -21l15 -14
c-42.667 -16.667 -75 -37.334 -97 -62.001c-26 -28 -39 -63.333 -39 -106l2 -45c2 -10.667 5.5 -21.334 10.5 -32.001s12.167 -22.334 21.5 -35.001s20.166 -24.5 32.499 -35.5s26.166 -21.167 41.499 -30.5l-29 -17c-8.66699 -6 -14.167 -10 -16.5 -12l-10.5 -9v-35h485v38
l-25 18.5c-8 5.66699 -17.667 11.167 -29 16.5c29.333 16.667 54 40 74 70c18 27.333 27 59.333 27 96c0 44.667 -11.5 83.5 -34.5 116.5s-56.5 52.5 -100.5 58.5l16 15l18 24l10 16c5.33301 11.333 2 17 -10 17h-81l43 30c30 19.333 52 31 66 35z" />
    <glyph glyph-name="uacute" unicode="&#xfa;" horiz-adv-x="810" 
d="M273 -16c-40.667 0 -79.6689 19.667 -117.002 59c-28.667 30 -53.667 66.667 -75 110c-18 35.333 -26.333 56.333 -25 63l29 12c-4 -12 11 -44.333 45 -97c40 -61.333 82 -92 126 -92c32 0 56.167 9.16699 72.5 27.5s24.5 44.166 24.5 77.499
c0 27.333 -6 52.666 -18 75.999l-18 25l-22 -16l-18 -11l-47 -19l-29 55c9.33301 -2 31 6 65 24c42 24 63 55.333 63 94c0 19.333 -5.33301 34 -16 44c-10.667 8.66699 -25 13 -43 13c-22.667 0 -48.5 -5.66699 -77.5 -17s-43.833 -18.666 -44.5 -21.999l-35 53
c9.33301 7.33301 31.333 16.666 66 27.999c24 8 44.667 12 62 12c33.333 0 62.333 -13.833 87 -41.5s37 -59.5 37 -95.5c0 -13.333 -2.66699 -27.666 -8 -42.999s-11.666 -27.666 -18.999 -36.999l16 -2l24 -2c18 0 50.833 25.333 98.5 76s92.834 76 135.501 76
c44 0 79.333 -17.333 106 -52c23.333 -31.333 35 -69.666 35 -114.999c0 -49.333 -13.667 -89 -41 -119s-62.333 -45 -105 -45c-36 0 -69.333 13.333 -100 40c-41.333 36 -62 66.333 -62 91l26 12c6.66699 -12.667 11.667 -21.5 15 -26.5s8 -10.5 14 -16.5
c27.333 -28.667 61 -43 101 -43c36 0 64 12 84 36s30 54.667 30 92c0 68 -28 102 -84 102c-36 0 -74.167 -23.167 -114.5 -69.5s-72.5 -69.5 -96.5 -69.5c-6.66699 0 -14.5 0.333008 -23.5 1s-19.167 2 -30.5 4l-15 3c5.33301 -6 10 -11.833 14 -17.5s8 -11.834 12 -18.501
c17.333 -29.333 26 -56.666 26 -81.999c0 -48.667 -15.333 -85.334 -46 -110.001c-23.333 -18 -51.333 -27 -84 -27zM489.998 481c-50 0 -93.332 13.167 -129.999 39.5s-63 63.833 -79 112.5l25 12c40 -74 101.333 -111 184 -111c87.333 0 151.666 37 192.999 111l21 -12
c-16 -48 -42.833 -85.333 -80.5 -112s-82.167 -40 -133.5 -40zM489.999 694c12 0 22.333 -4.33301 31 -13s13 -19 13 -31c0 -10.667 -4.16699 -20.167 -12.5 -28.5s-18.833 -12.5 -31.5 -12.5c-10 0 -19.333 4 -28 12s-13 17.667 -13 29s4.16699 21.5 12.5 30.5
s17.833 13.5 28.5 13.5z" />
    <glyph glyph-name="ucircumflex" unicode="&#xfb;" horiz-adv-x="787" 
d="M613 484c1.33301 -2.66699 0.830078 -5.16699 -1.50293 -7.5s-5.66602 -4.16602 -9.99902 -5.49902s-7.66602 -2 -9.99902 -2h-4.5c-6.66699 0 -9.66699 4 -9 12c2.66699 15.333 5.33398 26.666 8.00098 33.999c0.666992 2 1.66699 3.66699 3 5l3 -3
c6.66699 -6.66699 13.667 -17.667 21 -33zM629.997 516c-5.33301 -0.666992 -8 -6.33203 -8 -16.999c0.666992 -7.33301 1 -12.333 1 -15c3.33301 -11.333 -2 -18 -16 -20c-4.66699 -2 -7 -5.33301 -7 -10c0 -2.66699 0.333008 -5.33398 1 -8.00098s1.66699 -5 3 -7l-10 -1
c-2 6.66699 -3 11.667 -3 15c0 8.66699 3.33301 13.334 10 14.001c12.667 4 18 9.66699 16 17c-1.33301 9.33301 -2 14.666 -2 15.999c0 8.66699 1.5 13.5 4.5 14.5s6.5 1.5 10.5 1.5zM557.997 466.002c0 -24.667 -2.99902 -49.668 -8.99902 -75.001
c-4 -5.33301 -7.66699 -10.666 -11 -15.999c-6 10 -13.333 17.833 -22 23.5l-25 16.5c-2 4 -3 8 -3 12c0 4.66699 1.66699 10.834 5 18.501s5.5 13.5 6.5 17.5s1.5 9 1.5 15c-0.666992 8 -1 13.667 -1 17c0 10.667 2.66699 17.5 8 20.5s9.66602 4.5 12.999 4.5
c9.33301 0 17.833 -5.83301 25.5 -17.5s11.5 -23.834 11.5 -36.501zM654.998 351.001c0 -40 -4.33301 -72.334 -13 -97.001c-2 -1.33301 -3.66699 -2.66602 -5 -3.99902c0 12 -7.83301 24.333 -23.5 37s-27.167 19 -34.5 19c-6 0 -14.833 -3.83301 -26.5 -11.5
s-20.167 -17.167 -25.5 -28.5c-2.66699 0.666992 -5 1.33398 -7 2.00098c-14.667 23.333 -34.667 41.333 -60 54c-13.333 6.66699 -25 10.5 -35 11.5s-15 2.5 -15 4.5c0 1.33301 1.83301 5.5 5.5 12.5l12.5 24c4.66699 9 10.334 15.333 17.001 19s17 6.5 31 8.5
c19.333 2.66699 41 -12.333 65 -45c20 -28 30 -42.667 30 -44c1.33301 11.333 5.33301 22 12 32c10 14.667 13 24 9 28c-13.333 13.333 -20 25.333 -20 36c0 7.33301 2.83301 13.166 8.5 17.499s12.5 6.5 20.5 6.5c17.333 2 30.666 -6 39.999 -24s14 -37.333 14 -58z
M627.998 233c-2.66699 -8.66699 -8.16797 -15.5 -16.501 -20.5s-17.833 -7.5 -28.5 -7.5c-27.333 0 -44.333 11 -51 33c-3.33301 12 1.83398 24.333 15.501 37s24.5 19 32.5 19c7.33301 0 17.333 -6.33301 30 -19c15.333 -15.333 21.333 -29.333 18 -42zM349.997 452
c-0.666992 -1.33301 -0.999023 -2.33398 -0.999023 -3.00098c-4.66699 -1.33301 -9 -0.666016 -13 2.00098c-2.66699 2.66699 -4.33398 5.16699 -5.00098 7.5s0 3.5 2 3.5c3.33301 0 6.33301 -1.33301 9 -4c2 0 4.66699 -2 8 -6zM631.998 206.999
c2.66699 -2.66699 3.99902 -5.33398 3.99902 -8.00098c0 -7.33301 -6 -14.166 -18 -20.499s-23.333 -9.5 -34 -9.5c-11.333 0 -23.666 3.16699 -36.999 9.5s-20 12.5 -20 18.5c0 2 1.5 4.5 4.5 7.5s6.5 4.5 10.5 4.5s10.667 -1.66699 20 -5s16.666 -5 21.999 -5
c4.66699 0 11.334 2 20.001 6s14.667 6 18 6c4 0 7.33301 -1.33301 10 -4zM493.997 477.999c-1.33301 -6.66699 -3.33398 -13.8359 -6.00098 -21.5029s-6 -14.167 -10 -19.5c-9.33301 -12.667 -20.833 -24 -34.5 -34s-21.834 -18 -24.501 -24c-8 -18 -19.667 -36 -35 -54
l-36 -38.5c-6.66699 -7 -10 -14.833 -10 -23.5c0 -8 3.33301 -15 10 -21s14 -9 22 -9c12.667 0 21.667 8.16699 27 24.5s10 24.5 14 24.5c2.66699 0 6 -1.16699 10 -3.5s6 -6.83301 6 -13.5c0 -13.333 -4.66699 -25.666 -14 -36.999c-11.333 -14 -26.333 -21 -45 -21
c-8.66699 0 -15 0.333008 -19 1s-10.333 3.33398 -19 8.00098c-18 8.66699 -27 24 -27 46c0 12 3.33301 22.667 10 32c22 31.333 33 52.333 33 63c0 2.66699 -0.666992 7.83398 -2 15.501s-11.666 18.834 -30.999 33.501c-11.333 8.66699 -19.833 19.5 -25.5 32.5
s-8.5 26.833 -8.5 41.5c2 -2.66699 5.5 -4.5 10.5 -5.5s10.5 -1.83301 16.5 -2.5c2.66699 -2 8 -7.66699 16 -17c4.66699 -5.33301 8.33398 -8.83301 11.001 -10.5s7.5 -3.16699 14.5 -4.5s11.5 -1.33301 13.5 0c2 2 1.33301 4.66699 -2 8c-6 6 -12.667 11 -20 15l-60 17
c0 17.333 9.66699 31 29 41c14 7.33301 32.667 12.666 56 15.999c1.33301 0 2 -3.33301 2 -10c-0.666992 -11.333 -1 -20.666 -1 -27.999c0 -14 1.33301 -24.833 4 -32.5s8.66699 -11.5 18 -11.5c10 0 16.667 5.16699 20 15.5s5 23.166 5 38.499c0 18 0.666992 27 2 27
c20 -3.33301 36.667 -8.66602 50 -15.999c20 -10.667 30 -24 30 -40c-7.33301 -2 -13 -3.33301 -17 -4l-37 -10c-7.33301 -1.33301 -14.166 -4.5 -20.499 -9.5s-8.83301 -9.16699 -7.5 -12.5c2.66699 -4 6.33398 -6 11.001 -6c5.33301 0 10.666 2.33301 15.999 7
c5.33301 3.33301 9.5 7.16602 12.5 11.499s5.33301 7.33301 7 9s7.16699 4.16699 16.5 7.5s15.666 5 18.999 5zM281.996 412.997c-0.666992 -1.33301 -6.99902 -4.99902 -18.999 -10.999s-21.667 -15.667 -29 -29l-14 31c-4.66699 25.333 -7 45.666 -7 60.999
c0 12 3.83301 23.833 11.5 35.5s16.5 17.5 26.5 17.5c3.33301 0 7.66602 -1.5 12.999 -4.5s8 -9.83301 8 -20.5c-0.666992 -10 -1 -19.667 -1 -29c1.33301 -4 3.33301 -9 6 -15c5.33301 -12 8 -20.333 8 -25c0 -3.33301 -1 -7 -3 -11zM193.997 527.998l-8 -95h-9l8 95h9z
M372.997 294.998l-15.001 -32.001c-0.666992 -4 -1.16699 -6.83301 -1.5 -8.5s-1.5 -2.5 -3.5 -2.5c-2 2 -3.16699 5.16699 -3.5 9.5s2.5 10.5 8.5 18.5c12.667 14.667 19 22.334 19 23.001c-1.33301 -3.33301 -2.66602 -6 -3.99902 -8zM518.996 226.997
c0 -32 -13.1699 -57.665 -39.5029 -76.998s-57.166 -29 -92.499 -29c-11.333 0 -25.5 2.33301 -42.5 7s-29.833 10 -38.5 16c16.667 0 31.334 8.33301 44.001 25c4 5.33301 8.66699 13.666 14 24.999c20.667 -3.33301 38.834 4.16699 54.501 22.5s23.5 36.166 23.5 53.499
c0 7.33301 -1.66699 12.333 -5 15c-11.333 8.66699 -20.333 13 -27 13s-11.667 -3.83301 -15 -11.5l-9 -21.5c-4 -6 -6.5 -9.16699 -7.5 -9.5s-1.83301 -0.5 -2.5 -0.5c0 4.66699 4.66699 18 14 40c2.66699 7.33301 7.66699 18.333 15 33c32.667 -8 59 -19.667 79 -35
c23.333 -18 35 -40 35 -66zM176.993 481.999c-1.33301 -8 -2.32812 -12.5 -2.99512 -13.5s-1.33398 -1.83301 -2.00098 -2.5c-0.666992 0 -2 1.83301 -4 5.5s-3.33301 5.5 -4 5.5c-2.66699 -3.33301 -4 -6.66602 -4 -9.99902c-4 -21.333 -9.66699 -32 -17 -32
c-4.66699 0 -8.83398 3.83301 -12.501 11.5s-5.5 17.167 -5.5 28.5c0 5.33301 0.666992 12.333 2 21s4.66602 17.167 9.99902 25.5s11 12.5 17 12.5c7.33301 0 11 -7.33301 11 -22c0 -4.66699 -0.333008 -8.33398 -1 -11.001c-0.666992 -8 0 -12 2 -12
c0.666992 0 2.16699 1.5 4.5 4.5s4.16602 4.5 5.49902 4.5s2.16602 -1.16699 2.49902 -3.5s-0.166992 -6.5 -1.5 -12.5zM627.998 37.999c-16 -12.667 -33.666 -23.999 -52.999 -33.999c-28 -14.667 -52 -22 -72 -22c-18 0 -33 5 -45 15
c-16.667 12.667 -27.167 26.5 -31.5 41.5s-6.5 37.5 -6.5 67.5c-0.666992 7.33301 15.666 18.666 48.999 33.999c39.333 18 77.666 27 114.999 27c28.667 0 50.334 -5.16699 65.001 -15.5s22 -23.5 22 -39.5c0 -26 -14.333 -50.667 -43 -74zM306.999 315
c-20 -14.667 -34 -27.6641 -42 -38.9971c-6.66699 -12.667 -11.334 -22 -14.001 -28c-4.66699 3.33301 -9 6.66602 -13 9.99902c-10.667 14.667 -22.667 22 -36 22c-6 0 -12.5 -1 -19.5 -3s-12.667 -7 -17 -15s-6.5 -18 -6.5 -30c0 -10.667 1.66699 -22 5 -34
c0.666992 -2 1.33398 -3.66699 2.00098 -5c-1.33301 -5.33301 -3 -8 -5 -8c-6 0 -13.167 18.5 -21.5 55.5s-12.5 70.833 -12.5 101.5c0 21.333 3.83301 40.666 11.5 57.999s19.834 26 36.501 26c8 0 16 -2.5 24 -7.5s12 -11.833 12 -20.5c0 -4.66699 -1.5 -9.5 -4.5 -14.5
s-8.16699 -10.5 -15.5 -16.5c-2.66699 -2 -4 -5 -4 -9c0 -3.33301 2.66699 -11.333 8 -24s8.66602 -24.334 9.99902 -35.001c7.33301 14.667 16.333 31 27 49c22 36.667 43 53.667 63 51c28.667 -4 43 -15.333 43 -34c0 -8 -2.66699 -16.167 -8 -24.5s-13 -16.833 -23 -25.5
zM341.999 198.003c3.33301 -2.66699 1 -9.66797 -7 -21.001c-10 -14 -24 -21 -42 -21c-12 5.33301 -21 14.333 -27 27s-9 24.667 -9 36c0 14.667 4 28 12 40c4 6 14.667 18.333 32 37c-2 -2 -4.33301 -7.16699 -7 -15.5s-4 -16.166 -4 -23.499
c0 -12 3.83301 -23.167 11.5 -33.5s21.167 -18.833 40.5 -25.5zM413.999 82.002c0 -6.66699 -1.66504 -12.334 -4.99805 -17.001s-9.33301 -9.5 -18 -14.5s-18 -7.5 -28 -7.5c-9.33301 0 -16.833 3.66699 -22.5 11s-10.167 20.333 -13.5 39
c-1.33301 10.667 1.66699 17.334 9 20.001s14.666 4 21.999 4c5.33301 0 12.166 -0.666992 20.499 -2l24 -4c7.66699 -1.33301 11.5 -7 11.5 -17v-12zM242.001 219.002c0.666992 -4 1.00098 -9.66797 1.00098 -17.001c0 -16 -5.66699 -27 -17 -33c-4 -2 -8 -3 -12 -3
c-9.33301 0 -18 4.33301 -26 13s-13.5 18.167 -16.5 28.5s-4.5 18.5 -4.5 24.5c0 8.66699 1.83301 16.334 5.5 23.001s8 11 13 13s9.83301 3 14.5 3c10 0 19.167 -5.33301 27.5 -16s13.166 -22.667 14.499 -36zM343.002 -46.999
c-6.66699 -22.667 -12.668 -38.832 -18.001 -48.499s-10.666 -14.5 -15.999 -14.5c-8 0 -18 11.333 -30 34c-30.667 56.667 -54.334 89.667 -71.001 99c-22.667 12 -39.334 24.667 -50.001 38s-16 26.666 -16 39.999c0 17.333 7.33301 31.833 22 43.5
s32.334 17.5 53.001 17.5c4 0 10 -0.666992 18 -2c22.667 -5.33301 37.334 -11 44.001 -17c10.667 -9.33301 23 -32.333 37 -69l21 -49c6 -16.667 9 -32.667 9 -48c0 -8 -1 -16 -3 -24zM413.001 -110.997c-14 -17.333 -21.832 -36.1689 -23.499 -56.502
s-9.83398 -29.5 -24.501 -27.5c-6 1.33301 -11.667 2.33301 -17 3c-3.33301 -1.33301 -9 -2.66602 -17 -3.99902c-9.33301 -0.666992 -14 2.66602 -14 9.99902c0 6.66699 3.5 10.834 10.5 12.501s12.167 4 15.5 7s5 6.5 5 10.5c0 12 0.666992 19.833 2 23.5
s2 6.83398 2 9.50098c0 3.33301 -2 7.66602 -6 12.999s-6 12 -6 20c0 5.33301 0.666992 12 2 20s4.33301 18 9 30c2 5.33301 4 8 6 8s6.83301 -5.5 14.5 -16.5s15.5 -15.833 23.5 -14.5s14.833 -0.166992 20.5 -4.5s8.5 -10.166 8.5 -17.499
c0 -9.33301 -3.66699 -18 -11 -26zM620.002 297l-9 96h-10l10 -96h9zM436.002 462l-9.00195 -4.00098c-1.33301 0 -3.66602 -2 -6.99902 -6c0 -1.33301 1.5 -2.66602 4.5 -3.99902s6.16699 -0.333008 9.5 3c2.66699 2.66699 4.33398 5.16699 5.00098 7.5
s-0.333008 3.5 -3 3.5zM454 369.999c-5.33301 5.33301 -9.5 9 -12.5 11s-5.16699 2.33301 -6.5 1c-5.33301 -5.33301 -8 -10 -8 -14c0 -2 1 -3.66699 3 -5s4.66699 -3 8 -5c4.66699 -3.33301 9.66699 -2.66602 15 2.00098c2.66699 3.33301 3 6.66602 1 9.99902zM328 384.999
c-2 2 -4.5 1.66797 -7.5 -0.999023s-7.5 -6.33398 -13.5 -11.001c-2 -2 -6.33301 -3.33301 -13 -4s-10 -1.66699 -10 -3c0 -4 2.16699 -6.5 6.5 -7.5s8.83301 -1.5 13.5 -1.5c8.66699 0 15 1 19 3c8 4 12 8.66699 12 14c0 3.33301 -2.33301 7 -7 11zM395 163
c0 2.66699 -1.16602 4.33203 -3.49902 4.99902s-3.83301 1.33398 -4.5 2.00098c-4.66699 0 -7 -2.33301 -7 -7c3.33301 -4.66699 5.66602 -7 6.99902 -7zM182.001 378.998h-11l-7 -93h9zM351.001 580.998c0 -12 6.00098 -21.334 18.001 -28.001c4 -2 10 -4.33301 18 -7
c-27.333 0 -52.333 -4 -75 -12l-35 -13c-4 0 -6.66699 3.33301 -8 10s-2 18.667 -2 36c0 28 20.667 56 62 84c13.333 9.33301 34 20.333 62 33c25.333 -14 44 -25.667 56 -35c37.333 -28.667 56 -55.667 56 -81c0 -22 -0.5 -36 -1.5 -42s-3.5 -9 -7.5 -9
c-14.667 7.33301 -31.167 14 -49.5 20s-37.5 9 -57.5 9c9.33301 0 18.333 3.5 27 10.5s13 15.167 13 24.5c0 8.66699 -3.33301 16.667 -10 24s-14.667 11 -24 11c3.33301 0.666992 5.33301 1.33398 6 2.00098c3.33301 2.66699 4 6 2 10l-14 30l-12 -30
c-2.66699 -5.33301 -0.333984 -9.33301 6.99902 -12c-8.66699 0 -16 -3.66699 -22 -11s-9 -15.333 -9 -24zM387.002 -221.003c31.333 0 81.332 35.001 149.999 105.001c32 32.667 65.333 49 100 49c32 0 55.333 -2.5 70 -7.5s22 -12.167 22 -21.5
c0 -26.667 -44.667 -60.834 -134 -102.501s-158.666 -62.5 -207.999 -62.5s-115.333 22.167 -198 66.5s-124 80.833 -124 109.5c0 8.66699 6 15.5 18 20.5s30.333 7.5 55 7.5c34 0 66.667 -17 98 -51c68.667 -75.333 119 -113 151 -113zM530.001 -32.002
c46.667 22.667 82.999 38.998 108.999 48.998s44.333 15 55 15c13.333 0 20 -5 20 -15c0 -2 -0.666992 -5.66699 -2 -11c-10.667 -33.333 -33.5 -52 -68.5 -56s-59.167 -10 -72.5 -18c-5.33301 -3.33301 -40.666 -35.666 -105.999 -96.999
c-10.667 -6 -21.334 -12.333 -32.001 -19c0 4.66699 2.33301 11.667 7 21c22.667 48 35 74 37 78c14.667 24.667 32.334 42.334 53.001 53.001zM62 18.9961c2.66699 9.33301 7.49902 15.999 14.499 19.999s15.833 6 26.5 6c20 0 42.333 -6.66699 67 -20s40 -26 46 -38
c12.667 -22 25.667 -43 39 -63c31.333 -47.333 47 -71.666 47 -72.999c-4 3.33301 -8 6.33301 -12 9c-41.333 42 -68 67.667 -80 77c-17.333 6 -38.666 14.667 -63.999 26c-6 2.66699 -18.667 5.66699 -38 9c-32.667 5.33301 -49 16 -49 32c0 4 1 9 3 15zM386.999 463.995
c6.66699 0 10.668 3.49902 12.001 10.499s2 16.833 2 29.5c-0.666992 -1.33301 -1 -2.66602 -1 -3.99902c-2 -6 -6.33301 -9 -13 -9c-8 0 -12 5 -12 15v-11c0 -11.333 0.666992 -19.333 2 -24s4.66602 -7 9.99902 -7zM374 504.994l1 32h26v-24.5v-7.5
c0 0.666992 -1.33301 2.66699 -4 6s-6 5 -10 5s-7.16699 -1.5 -9.5 -4.5s-3.5 -5.16699 -3.5 -6.5z" />
    <glyph glyph-name="udieresis" unicode="&#xfc;" horiz-adv-x="698" 
d="M402 3848c-1.33301 -0.666992 -2.5 28 -3.5 86s-1.5 88 -1.5 90c-0.666992 13.333 0.333008 21 3 23zM746 4046c-6.66699 -0.666992 -12.1689 -1.83398 -16.502 -3.5c-4.33301 -1.66699 -9.33301 -2.66699 -15 -3s-10.834 -1.16602 -15.501 -2.5
c-4.66699 -1.33301 -9 -2 -13 -2c-10 1.33301 -18 2 -24 2c-10 0 -21.667 -3.33301 -35 -10h-6l-17 -11c3.33301 3.33301 7.33301 5.66602 12 7c12 5.33301 21.667 8 29 8c9.33301 0 17.333 -1.5 24 -4.5s11.334 -8.5 14.001 -16.5
c5.33301 -9.33301 -5.16699 -15.666 -31.5 -19c-26.333 -3.33301 -51.833 -13 -76.5 -29c-0.666992 8.66699 -1.33398 16.667 -2.00098 24s-1 12 -1 14c0 1.33301 0.5 3.16602 1.5 5.5c1 2.33301 2.16699 7.16602 3.5 14.5
c-0.666992 -3.33301 -1.83398 -11.666 -3.50098 -25c-1.66699 -13.333 -3.16699 -21.333 -4.5 -24s-2 -5.66699 -2 -9v-13c0 -3.33301 0.333008 -5.83301 1 -7.5s1.33398 -5.16699 2.00098 -10.5c9.33301 11.333 19 101.666 29 271c19.333 93.334 35.666 141.667 48.999 145
c-0.666992 -7.33398 -1 -14 -1 -20c-7.33301 -6.66602 -11 -11 -11 -13c0 -4 3.33301 -6 10 -6s16.334 3.66602 29.001 11c-12 -1.33398 -23.667 -11.334 -35 -30c-31.333 -0.666016 -58.333 -1 -81 -1c-9.33301 0 -17.166 0.166016 -23.499 0.5s-12.333 1.83398 -18 4.5
s-13.167 4 -22.5 4c-6.66699 0 -11.667 -1 -15 -3s-6.33301 -9.33398 -9 -22c4.66699 -2.66602 13.334 -8 26.001 -16c4 -141.334 10.667 -250.667 20 -328c-4 -54.667 -8 -82 -12 -82c-3.33301 0 -7 13.5 -11 40.5s-7.33301 79.5 -10 157.5c-16 0 -26.333 6.66699 -31 20
s-11.667 20 -21 20c-13.333 0 -23.5 0.166992 -30.5 0.5s-14.167 0.833008 -21.5 1.5c-2.66699 0 -9.66699 -6.33301 -21 -19c-14.667 -14.667 -29.667 -27.667 -45 -39c-27.333 -68.667 -45 -103 -53 -103c-2 0 -5 12.167 -9 36.5s-8.5 48.833 -13.5 73.5
s-7.5 71.334 -7.5 140c0 25.334 3.33301 45.667 10 61c10.667 0 19.334 2.16602 26.001 6.5s10 15.5 10 33.5c0 28 -1.16699 53.166 -3.5 75.5s-15.5 34.167 -39.5 35.5c-8 7.33398 -20 12.667 -36 16l10 -5c16.667 -6 31.334 -12.5 44.001 -19.5s19 -13.834 19 -20.5
c0 -7.33398 -2 -95.667 -6 -265c-16 -140 -34 -210 -54 -210c-28 0 -52.833 0.333008 -74.5 1s-32.5 1.66699 -32.5 3c0 4.66699 8 11.334 24 20c7.33301 4 20.666 8.33301 39.999 13c2.66699 1.33301 7 4 13 8h30h18.5c2.33301 0 4.83301 3.66699 7.5 11
c-3.33301 9.33301 -6.33301 14 -9 14c-22 0.666992 -39.667 1 -53 1c-30.667 0 -53.667 -0.166992 -69 -0.5s-30.333 -8.5 -45 -24.5c-4 -66 -8 -99 -12 -99c-3.33301 0 -7.33301 3 -12 9c-14 2.66699 -22.333 11.667 -25 27c-6.66699 2.66699 -12.167 10 -16.5 22
s-6.5 20.667 -6.5 26c0 16.667 6.5 31.667 19.5 45s29.833 20.833 50.5 22.5s43 4.16699 67 7.5s44.667 5 62 5c19.333 0 35 -0.666992 47 -2c3.33301 -24 5.33301 -48 6 -72c-12 46.667 -24.667 85.334 -38 116c-13.333 30.667 -26.666 46 -39.999 46s-27 -1.33301 -41 -4
s-28.667 -13.334 -44 -32c-9.33301 0 -14 2 -14 6c0 6 1 9.33301 3 10s8.66699 1.66699 20 3c8.66699 1.33301 11 4.33301 7 9c-3.33301 6.66699 -5 11.667 -5 15c0 8 0.166992 13.666 0.5 17s1.16602 5.66699 2.49902 7c4 78.666 7.66699 119.333 11 122
c10.667 12 22.667 18 36 18c0.666992 1.33398 1.16699 2.5 1.5 3.5s-0.5 3.5 -2.5 7.5l20 6c3.33301 18 11 36.666 23 56l14 41c-4 2 -9.33301 3.5 -16 4.5s-10.667 1.5 -12 1.5c-4.66699 0 -8.5 -1 -11.5 -3s-5.83301 -6 -8.5 -12c6 8.66602 10 21.666 12 39
c7.33301 8 10 12.666 8 14c-2 4 -11 9 -27 15c-5.33301 4 -13.333 8.66602 -24 14c8 0.666016 14 2.33301 18 5c12.667 2 19.334 17.334 20.001 46c0 3.33398 -6.33301 6.66699 -19 10c-4 2 -10.333 10.334 -19 25c10 7.33398 17.667 15.334 23 24
c16.667 7.33398 26 12.334 28 15s-0.666992 7.33301 -8 14c-2 6 -6 11 -12 15c10.667 4.66602 21.834 8 33.501 10s19.5 5 23.5 9c2 2 3 5.33398 3 10c0 7.33398 -0.5 11.834 -1.5 13.5s-2.16699 5.16602 -3.5 10.5c10.667 -1.33398 18.667 -7.33398 24 -18
c17.333 -94.666 28.333 -135.333 33 -122c3.33301 9.33398 7.66602 14.667 12.999 16c1.33301 6.66602 3.66602 11 6.99902 13c8.66699 -4.66602 15 -7.33301 19 -8c14.667 -0.666016 24.334 2.33398 29.001 9c4.66699 7.33398 12 15.667 22 25
c3.33301 0.666016 8 23.666 14 69c5.33301 -11.334 9.66602 -21.334 12.999 -30c10 -4 18 -6.66602 24 -8c4.66699 -1.33398 14 0.666016 28 6c4.66699 10.666 11.667 20.333 21 29c2 -1.33398 3.66699 -5 5 -11c4.66699 -8.66602 8.66699 -19.666 12 -33
c4.66699 -2 15.667 -0.333984 33 5c5.33301 10 13.666 18.334 24.999 25c-1.33301 -14 -2.33301 -23.5 -3 -28.5s-1 -21.166 -1 -48.5c0 -4 0.666992 -8.66602 2 -14c2.66699 -2.66602 11.167 -4.66602 25.5 -6s25.166 -4 32.499 -8c-5.33301 -7.33398 -9 -15 -11 -23
c-7.33301 -1.33398 -10.333 -4.66699 -9 -10c2 -4.66602 13.667 -11.333 35 -20c3.33301 -1.33398 8.66602 -3.33398 15.999 -6c-8 -6.66602 -14 -12 -18 -16c-12.667 -12.666 -18.667 -22 -18 -28c-2 -6 3.66699 -14.666 17 -26c4 -3.33398 11 -8.66699 21 -16
c-11.333 -4.66602 -19.666 -8 -24.999 -10c-17.333 -7.33398 -26.666 -13.334 -27.999 -18c-4 -5.33398 -1.66699 -15.667 7 -31c2.66699 -4.66602 7.66699 -12 15 -22c-11.333 -0.666016 -20 -1 -26 -1c-18 -2 -28.833 -5.33398 -32.5 -10s-6 -11.333 -7 -20
c-1 -8.66602 -1.83301 -17.333 -2.5 -26c-0.666992 -2 -1 -5.83398 -1 -11.5s9 -11.833 27 -18.5c6 -2 9.33301 -7.66602 10 -17s2 -14.334 4 -15c2.66699 -0.666016 4.66699 -0.666016 6 0c6 2.66602 14.667 12.333 26 29c6.66699 10.666 12.667 16 18 16
c10.667 0 18.334 1 23.001 3c10 4.66602 20 8 30 10s18.667 3 26 3c16 0 29.667 -4.33398 41 -13l6 -6c5.33301 0.666016 9.33301 1 12 1c9.33301 0 14 -1.33398 14 -4s-3.33301 -55 -10 -157zM676.998 3948l-87 -165v62l87 137v-34zM536.998 3903
c-1.33301 -1.33301 -2.66992 -3 -4.00293 -5l-29 10c-12 -1.33301 -21.333 -2 -28 -2s-16.5 0.5 -29.5 1.5s-20.5 1.5 -22.5 1.5c-0.666992 0 -27.667 -9.33301 -81 -28c-23.333 -8 -39.333 -12 -48 -12c-6 0 -10 1.66699 -12 5c-5.33301 10 -25 31 -59 63
c-2 4 -3.66699 8 -5 12c22.667 -6 44.667 -10.167 66 -12.5s43.333 -3.5 66 -3.5h34c6 0 13.5 4.16699 22.5 12.5s16.833 12.5 23.5 12.5c2.66699 0 6.66699 -2 12 -6c16 -12 27.333 -19 34 -21c11.333 0.666992 19.333 1 24 1c6.66699 0 12.334 -3.33301 17.001 -10
s8.83398 -10.167 12.501 -10.5s5.83398 -3.16602 6.50098 -8.5zM550.994 3730h-47v43h47v-43zM392.994 3857c-4 -4.66699 -9 -7 -15 -7c-6.66699 0 -14.667 3.16699 -24 9.5l-17 11.5c-16.667 12 -25 25.667 -25 41c-0.666992 8 -1 14.333 -1 19c0 10 3 15.667 9 17
c2 0 2.66699 -3.33301 2 -10s-1 -13 -1 -19c0 -10 1.66699 -18 5 -24c6 -12 16.5 -21.667 31.5 -29s24.167 -8.66602 27.5 -4c4 5.33301 1 14.833 -9 28.5s-14.667 23.5 -14 29.5c0.666992 3.33301 2 10.5 4 21.5s6 20.167 12 27.5l3 -3
c-7.33301 -26.667 -11 -41.667 -11 -45c0 -4 2.66699 -10.333 8 -19c12 -19.333 18 -31.333 18 -36c0 -2.66699 -1 -5.66699 -3 -9zM587.994 3777h-510.002v64h130c4 0 10.333 -9.5 19 -28.5s19 -28.5 31 -28.5c18.667 0 36.334 13 53.001 39c8 12.667 16.667 19 26 19h112
c2.66699 0 7.66699 -1.33301 15 -4c16 -6 28.667 -9 38 -9c2.66699 0 7.33398 0.666992 14.001 2c4 3.33301 8.33301 6.66602 13 10h59v-64zM148.992 3730h-48v43h48v-43zM389.992 4400l-8 -7c-1.33301 -0.666016 -3.33301 0.333984 -6 3s-3.66699 4.66602 -3 6
c3.33301 -2 6.33301 -2.66602 9 -2h8zM392.992 4409c-0.666992 0.666016 -1.33203 1.66602 -1.99902 3c-5.33301 3.33398 -12.333 5 -21 5c-4.66699 0 -8.5 -0.666016 -11.5 -2s-5.83301 -3 -8.5 -5c6.66699 2 10.667 3.66602 12 5c4 0.666016 9.66699 -0.333984 17 -3
c0.666992 0 4 -1.33398 10 -4c1.33301 0 2.66602 0.333984 3.99902 1zM318.994 4380l-0.998047 9l-8 6c-2.66699 0.666016 -5.5 0.333008 -8.5 -1c-3 -1.33398 -4.5 -4.66699 -4.5 -10c0 -1.33398 0.666992 -3.66699 2 -7c1.33301 -3.33398 3.33301 -7.83398 6 -13.5
s5 -8.83301 7 -9.5c1.33301 1.33398 2.66602 3 3.99902 5c-0.666992 0 -1.33398 0.333984 -2.00098 1c0.666992 -1.33398 1.66699 -2.33398 3 -3c-2 -2 -3.66699 -4 -5 -6c-2.66699 1.33398 -4.66699 3.66699 -6 7c-3.33301 8 -6 14 -8 18s-3 7.66602 -3 11
c0 9.33398 5 12.667 15 10l8 -6zM747.996 4202c-2 0 -6.3291 -0.5 -12.9961 -1.5s-11 -1.5 -13 -1.5l-2 12c-3.33301 -2 -5.33301 -3.66602 -6 -5c-2.66699 -4 -4.66699 -6.33398 -6 -7c-6.66699 -0.666016 -11.334 -1 -14.001 -1c-4.66699 0 -8.66699 1.33398 -12 4
c-1.33301 1.33398 -0.666016 3.16699 2.00098 5.5c2.66699 2.33398 5.5 2.66699 8.5 1c3 -1.66602 6.5 -2.16602 10.5 -1.5s6 2 6 4s-2.33301 3.83398 -7 5.5s-10.334 2.5 -17.001 2.5l-24 -2c-8.66699 -2 -16.667 -4.16602 -24 -6.5s-12 -6.16699 -14 -11.5
c-1.33301 -5.33398 -0.833008 -9.5 1.5 -12.5s7.16602 -7.16602 14.499 -12.5c3.33301 -2 11.666 -3.66602 24.999 -5s22.666 -2 27.999 -2c6.66699 0 12.667 3.33398 18 10l10 12c5.33301 1.33398 10.833 3 16.5 5s9.5 4.66602 11.5 8zM373 4482
c3.33301 4 3.16504 7.66602 -0.501953 11s-8.5 5 -14.5 5c-6.66699 0 -11 -2.33398 -13 -7c-4 -8.66602 -7.83301 -15.666 -11.5 -21l-7.5 -11c-18.667 -18.666 -28 -29 -28 -31c0.666992 0.666016 1.33398 1 2.00098 1l14 9c12.667 8 20.334 13 23.001 15
c8 5.33398 20 15 36 29zM560.999 4404c0 54.666 -19.3301 101.333 -57.9971 140c-38.667 38.666 -85.334 58 -140.001 58c-54 0 -100.5 -19.166 -139.5 -57.5s-58.5 -85.167 -58.5 -140.5c0 -38.666 13.333 -77.333 40 -116c0 -0.666016 0.333008 -1 1 -1l1 3l19 3
c-14.667 22 -24.834 41.166 -30.501 57.5s-8.5 34.167 -8.5 53.5c0 49.334 17.167 91.167 51.5 125.5c34.333 34.334 75.833 51.5 124.5 51.5c49.333 0 91.166 -17.166 125.499 -51.5s51.5 -76.167 51.5 -125.5c0 -24.666 -6.33301 -50.333 -19 -77
c-12.667 -26.666 -26.667 -44.333 -42 -53l13 -15c18 9.33398 34 29 48 59s21 58.666 21 86zM628.002 4178c-1.33301 0.666016 -5.66699 6 -13 16c-3.33301 5.33398 -6 8 -8 8c-1.33301 0 -3.5 -1 -6.5 -3s-4.5 -5 -4.5 -9c0 -7.33398 3.5 -14.834 10.5 -22.5
s13.833 -11.5 20.5 -11.5c7.33301 0 11 2.66602 11 8c0 4.66602 -3.33301 9.33301 -10 14zM336.001 4481c1.33301 1.33398 2.33301 3.16699 3 5.5c0.666992 2.33398 1 3.83398 1 4.5c0 4 -2.33301 6 -7 6c-8.66699 0 -15 -3.66602 -19 -11
c-4.66699 -16.666 -7.66699 -26 -9 -28c-4 -5.33398 -7.83301 -11.167 -11.5 -17.5c-3.66699 -6.33398 -10.167 -13.5 -19.5 -21.5h2c16 6.66602 36 27.333 60 62zM399.001 4458c0 20.666 -2.99707 31 -8.99707 31c-2.66699 0 -7.83398 -3.5 -15.501 -10.5
s-12.834 -11.5 -15.501 -13.5c-24 -17.334 -38.667 -27.667 -44 -31l-65 -32c-3.33301 -1.33398 -3.33301 -4.66699 0 -10c3.33301 -5.33398 5.66602 -9.66699 6.99902 -13l72 30c46.667 26.666 70 43 70 49zM307.004 4483c-5.33301 0 -12.666 -3.5 -21.999 -10.5
s-16 -14.834 -20 -23.5c-6 -13.334 -9.66699 -23.667 -11 -31c1.33301 -2.66602 2.66602 -5 3.99902 -7c4.66699 2 8.66699 4.83398 12 8.5l10 11.5c8 8.66602 15.333 19.333 22 32c1.33301 6.66602 3 13.333 5 20zM422.004 4369
c-2.66699 8.66602 -6.99609 15.666 -12.9961 21s-8.33301 8.66699 -7 10c2 4.66602 3 8.66602 3 12c0 15.334 -1 25.834 -3 31.5s-5 7.16602 -9 4.5c-18 -16 -36.667 -29.334 -56 -40l-41 -22c-2 -2 -3 -8 -3 -18c0 -11.334 -1 -19 -3 -23c-4 -9.33398 -6 -16.334 -6 -21
s1.5 -9.16602 4.5 -13.5s6.66699 -9 11 -14s10.833 -10.334 19.5 -16s17 -8.5 25 -8.5c1.33301 0 4 0.666016 8 2c6 3.33398 9 7 9 11c0 7.33398 2 12.667 6 16c5.33301 4.66602 7.66602 7.66602 6.99902 9h-7c-28.667 4.66602 -43.834 10.166 -45.501 16.5
s-0.833984 10.167 2.49902 11.5c-2 -9.33398 4.33301 -16.667 19 -22c7.33301 -2.66602 15.333 -4 24 -4c7.33301 0 12.333 1.33398 15 4c2.66699 -0.666016 5.66699 -1 9 -1s6.5 1.66602 9.5 5s3.5 6.5 1.5 9.5s-0.666992 5.83398 4 8.5l-12 8
c-2 0 -5.33301 0.333984 -10 1c7.33301 -2 12.666 -3 15.999 -3c5.33301 0 8 3 8 9l-2 9c0 2 2.66699 3.33398 8 4s8 1.66602 8 3zM280.008 4471l-0.00195312 7c-13.333 2.66602 -20 -2 -20 -14c0 -6 -2.33301 -9.66602 -7 -11s-6.66699 -4.66699 -6 -10
c0.666992 -5.33398 -0.666016 -9.66699 -3.99902 -13c-3.33301 -3.33398 -4.5 -7.16699 -3.5 -11.5c1 -4.33398 0.333008 -8.83398 -2 -13.5s-3.83301 -8 -4.5 -10c0.666992 -0.666016 2.66699 -0.833008 6 -0.5c3.33301 0.333984 6.83301 7.16699 10.5 20.5
c3.66699 13.334 7.83398 24.334 12.501 33s10.667 16.333 18 23zM593.006 4129c11.333 9.33398 16.9971 17.667 16.9971 25c0 4.66602 -2.16699 9.16602 -6.5 13.5l-12.5 12.5l-4 2c-5.33301 -10 -10.666 -16.666 -15.999 -20s-10.166 -5.83398 -14.499 -7.5
s-7.16602 -2.5 -8.49902 -2.5c-6 0 -11.167 -2 -15.5 -6s-9.83301 -7 -16.5 -9s-9 -5.66602 -7 -11c5.33301 -25.333 13 -38 23 -38c6.66699 0 17 5.66699 31 17zM537.003 4156c4 4 6.00098 9 6.00098 15c0 4.66602 -1.33301 9.16602 -4 13.5s-5.33398 6.5 -8.00098 6.5
s-5 -3 -7 -9s-6.66699 -11 -14 -15c-8 1.33398 -12.667 2 -14 2c-12 0 -18 -4.33398 -18 -13c0 -10.666 1.66699 -16 5 -16c0.666992 0 18.667 5.33398 54 16zM466.004 4372c26.667 6 33.333 9 20 9c-13.333 -3.33398 -34 -6.33398 -62 -9
c15.333 -3.33398 23 -7.16699 23 -11.5c0 -4.33398 -4.66699 -8.5 -14 -12.5h23c8.66699 3.33398 15 7.66699 19 13c3.33301 1.33398 0.333008 5 -9 11zM481.003 4199c-1.33301 34.666 -3 59.333 -5 74c-2 14.666 -4.66699 19.666 -8 15c10.667 -14 19.334 -35 26.001 -63
s10.334 -55.666 11.001 -83c0.666992 -8 1.5 -16.166 2.5 -24.5s1.5 -17.167 1.5 -26.5c0 -16.667 -3.33301 -30.167 -10 -40.5s-11.667 -18.5 -15 -24.5c12 2.66699 20.333 5.33398 25 8c4.66699 6.66699 9 13.667 13 21c13.333 9.33301 20 22 20 38
c0 9.33398 -0.333008 18 -1 26s-3.33398 14.666 -8.00098 20c6 6.66602 10.333 11.333 13 14c6 10 8 16.334 6 19c-7.33301 4.66602 -11.5 11 -12.5 19s-1.5 17.666 -1.5 29v8.5c0 2.33398 1 3.83398 3 4.5c16 -10 26.667 -20 32 -30c10.667 -25.334 20 -35.334 28 -30
c4 2.66602 6 6 6 10c0 2.66602 -6.33301 4.66602 -19 6c-0.666992 5.33398 -36.334 8.66699 -107.001 10zM568.003 4178c-4 14.666 -10.333 36 -19 64c-10 12.666 -17.667 25.666 -23 39c-16.667 -11.334 -26 -17 -28 -17s-6.66699 5.33398 -14 16
c-2 3.33398 -6 8.66699 -12 16c0 -14 5.33301 -31.666 16 -53c23.333 -32.666 37 -65 41 -97c2 -5.33398 4 -14.667 6 -28c0 -2 0.333008 -4.16602 1 -6.5s3.66699 -6.83398 9 -13.5c5.33301 -6.66699 10.666 -12 15.999 -16l26 17c4.66699 16 7.83398 31.166 9.50098 45.5
s-7.83301 25.5 -28.5 33.5zM607.003 4138c0 31.334 -0.332031 67 -0.999023 107s-2.66699 58.334 -6 55c-8.66699 -2 -13 -4.66602 -13 -8c4 -20.666 9.66699 -45 17 -73s13.333 -58.666 18 -92c0 -6 1.16699 -12.166 3.5 -18.5s3.5 -11.167 3.5 -14.5
c0 -23.333 -2.5 -40.666 -7.5 -52c-5 -11.333 -9.16699 -17 -12.5 -17c-6 0 -10.333 5.33301 -13 16s-4 23.667 -4 39c0 20 -1.66699 43.334 -5 70c-10 33.334 -18 58.667 -24 76c-4.66699 18.666 -10.5 35.333 -17.5 50c-7 14.666 -10.5 29 -10.5 43v13
c0 5.33398 -2.33301 8 -7 8c-9.33301 0 -14.5 -2.66602 -15.5 -8s-1.5 -14 -1.5 -26c0 -24 0.666992 -58 2 -102c4.66699 -25.334 8.66699 -48.334 12 -69c4.66699 -11.333 15.667 -42 33 -92c5.33301 -11.333 10.833 -22 16.5 -32s9.16699 -15 10.5 -15
s2.66602 1 3.99902 3c2.66699 6.66699 11.167 18.334 25.5 35c14.333 16.667 21.5 37.334 21.5 62c0 6.66602 -1.83301 13.5 -5.5 20.5s-11.5 14.166 -23.5 21.5zM633.004 4048c-2 -1.33301 -6.66602 -2.66602 -13.999 -4c-1.33301 -8.66699 -3 -29 -5 -61l-32 -34
c3.33301 -8 8.66602 -12 15.999 -12c8 0 14 3.33301 18 10c12.667 8.66699 19.167 14.334 19.5 17c0.333008 2.66699 0.5 7.66699 0.5 15c0 2 -0.5 7 -1.5 15s-1.5 15 -1.5 21v33zM613.005 4119c0 24.666 -2.00098 37 -6.00098 37c-10 0 -20.667 -7 -32 -21
c-5.33301 -8 -16.666 -18.666 -33.999 -32c-1.33301 -6 -3 -12.667 -5 -20s-3 -13.333 -3 -18s2.16699 -11.5 6.5 -20.5s7.83301 -13.5 10.5 -13.5c7.33301 0 13.833 2.66699 19.5 8s10 13.5 13 24.5s4.5 18.833 4.5 23.5c0 2 -4.5 6.33301 -13.5 13
c-9 6.66602 4.16699 13 39.5 19zM549.004 4032c-2 68 -3.33203 106.334 -3.99902 115c-0.666992 12 -10 54 -28 126c-6 7.33398 -9.66699 11 -11 11c-2 0 -4.33301 -8.33398 -7 -25c-1.33301 -20.666 -5 -47.333 -11 -80c-11.333 -2.66602 -15.333 -6.83301 -12 -12.5
c3.33301 -5.66602 7.66602 -8.5 12.999 -8.5c10.667 0 17.167 4.16602 19.5 12.5s8.5 21.834 18.5 40.5c20 0 33.667 0.333984 41 1c16 -3.33398 24 -8.66699 24 -16c0 -12.666 -5.66699 -20.666 -17 -24c-1.33301 -2.66602 -2 -10.333 -2 -23
c0 -13.334 -0.666992 -23.834 -2 -31.5s-3.33301 -13.166 -6 -16.5c-2.66699 -3.33301 -4 -7 -4 -11c0 -17.333 1.33301 -35.333 4 -54c9.33301 -1.33301 4 -2.66602 -16 -4zM500.005 4151c-58 4 -116.001 6 -174.001 6c-93.333 -0.666016 -140.666 -1 -141.999 -1
s-4.5 0.833984 -9.5 2.5s-12.167 4.5 -21.5 8.5c-12 1.33398 -21.333 0.666992 -28 -2c-6.66699 -3.33398 -10 -7 -10 -11s6.5 -7.5 19.5 -10.5s20 -6 21 -9s1.83301 -4.5 2.5 -4.5c53.333 0 80 4 80 12c0 2.66602 87.333 5.66602 262 9zM273.004 3991h-21.999
c-2 -5.33301 -5.66699 -8 -11 -8c-34 0 -52 3.33301 -54 10c1.33301 0.666992 7.66602 1.33398 18.999 2c11.333 0.666992 38.333 0.666992 81 0c22.667 -2 39.667 -3.33301 51 -4s17 0 17 2s-3 4 -9 6c-18 4.66699 -28.667 7.66699 -32 9s-6.33301 2 -9 2
c-5.33301 0 -12 -0.666992 -20 -2s-13.667 -3.16602 -17 -5.5c-3.33301 -2.33301 -5 -6.16602 -5 -11.5c-11.333 -4 -19.333 -8 -24 -12c0 -3.33301 3.33301 -8.33301 10 -15c9.33301 -4 15.833 -7.66699 19.5 -11s10.5 -5 20.5 -5c31.333 0 54.833 3 70.5 9
s76.167 11.333 181.5 16c4 2 7.5 4.5 10.5 7.5s-89.5 6.5 -277.5 10.5zM565.005 3850c-18.667 4.66699 -29 8.66699 -31 12c-16.667 16.667 -25.167 28 -25.5 34s-3.5 9 -9.5 9h-5c-3.33301 -1.33301 -8 -2 -14 -2c-30 -3.33301 -45 -7 -45 -11s0.833008 -7.5 2.5 -10.5
s4.5 -6.5 8.5 -10.5c20 -2.66699 30.167 -7.33398 30.5 -14c0.333008 -6.66699 0.833008 -10.667 1.5 -12c4 -0.666992 9 -1.66699 15 -3c0.666992 -4.66699 1.66699 -7 3 -7c7.33301 0 11 1 11 3s19.333 6 58 12zM499.005 4015c-12 4.66699 -82 7 -210 7
c-169.333 0 -254.666 -4.66699 -255.999 -14c-86.667 -4.66699 -130 -11 -130 -19c0 -9.33301 2 -14 6 -14c17.333 0 29 3.33301 35 10s13.667 11 23 13s18.166 4.5 26.499 7.5s176.833 6.16699 505.5 9.5zM-5.99512 4008c9.33301 4 32.665 7.5 69.998 10.5
s56 5.16699 56 6.5c0 2.66699 -0.666992 6.5 -2 11.5s-5.66602 13.167 -12.999 24.5c-16 8.66699 -24 16.667 -24 24c0 3.33301 2.33301 7.66602 7 13s8.33398 11.334 11.001 18c6.66699 4.66602 8 7.33301 4 8c-4.66699 3.33398 -26.667 6 -66 8
c-169.333 5.33398 -278.333 8 -327 8c-32 0 -56 -3.66602 -72 -11s-104.333 -13.334 -265 -18c-5.33301 -8.66699 -8 -16 -8 -22c0 -8.66699 0.333008 -17 1 -25s3.66699 -17 9 -27c0.666992 -2 2.66699 -10 6 -24c2.66699 -9.33301 5 -14 7 -14c5.33301 0 207.333 3 606 9z
M-602.996 4397c-0.666992 -1.33398 -2.33301 -2.66699 -5 -4c-2.66699 -1.33398 -8.33398 -2 -17.001 -2c-4.66699 -1.33398 -10 -2 -16 -2c-2.66699 0 -5.66699 0.333984 -9 1s-5.66602 1.66602 -6.99902 3c4 2.66602 9.66699 4.33301 17 5c0.666992 3.33398 4 5 10 5
c1.33301 0.666016 10.333 -1.33398 27 -6zM-555.995 4399c-0.666992 -1.33398 -2.33203 -2.83398 -4.99902 -4.5s-5.33398 -2.5 -8.00098 -2.5c-6 -2.66602 -10.333 -2.33301 -13 1c-5.33301 0.666016 -9 2 -11 4c1.33301 1.33398 2.66602 2 3.99902 2
c0.666992 3.33398 1.33398 5 2.00098 5c0.666992 0.666016 11 -1 31 -5zM-583.993 4378c-2 -4 -2.33301 -8.33398 -1 -13l-4 -19c1.33301 6.66602 2.83301 12.333 4.5 17c1.66699 4.66602 0.5 9 -3.5 13z" />
    <glyph glyph-name="yacute" unicode="&#xfd;" horiz-adv-x="815" 
d="M713 6l-52 163c-21.333 67.333 -36.666 118.333 -45.999 153c-0.666992 2 -1 5.66699 -1 11c0 14.667 7 26.667 21 36c8.66699 5.33301 16.667 8 24 8c15.333 0 28.166 -8.83301 38.499 -26.5s15.5 -38.167 15.5 -61.5v-283zM818 -182l-87.999 -37.0049
c-54.667 -36.667 -79 -62.334 -73 -77.001l-38 225.5l-39 225.5c0 -10.667 0.166992 -21.334 0.5 -32.001s0.833008 -21 1.5 -31c0 -10 -1.16699 -23.667 -3.5 -41s-6.16602 -32.666 -11.499 -45.999c-0.666992 -2.66699 -6.33398 -14.667 -17.001 -36
c-6 -15.333 -14.667 -29.666 -26 -42.999c-14.667 -17.333 -32.334 -31.666 -53.001 -42.999c-9.33301 -5.33301 -23.333 -9.66602 -42 -12.999s-35 -5 -49 -5c-21.333 0 -33 2.66699 -35 8c-3.33301 6 -2.33301 12.333 3 19c8.66699 10.667 14 19 16 25s3 11.333 3 16
c0 6.66699 -2.33301 12.667 -7 18s-11.834 9 -21.501 11s-20.167 8 -31.5 18c-18.667 16 -32.334 30.333 -41.001 43l-55 91c-11.333 14 -23.666 22.833 -36.999 26.5s-24.333 5.5 -33 5.5c-20 0 -34.667 -8.33301 -44 -25
c-2.66699 -5.33301 -5.33398 -13.666 -8.00098 -24.999c-1.33301 1.33301 -2 7 -2 17c0 15.333 2.83301 29.833 8.5 43.5s14.167 22 25.5 25s21 4.5 29 4.5c21.333 0 43.333 -7 66 -21c7.33301 -4.66699 16.333 -11.667 27 -21c0 22 -3.33301 42.5 -10 61.5
s-9.33398 29.833 -8.00098 32.5c6.66699 7.33301 10.334 11.666 11.001 12.999c3.33301 5.33301 5 13 5 23l8 -6c1.33301 -2.66699 4 -7.66699 8 -15c3.33301 5.33301 5 11.333 5 18c0 6 -2.16699 12 -6.5 18s-12.166 12 -23.499 18c-5.33301 3.33301 -10 4.83301 -14 4.5
s-7.5 2 -10.5 7s-10.167 7.83301 -21.5 8.5l-34 2c6 9.33301 10 16.333 12 21c7.33301 15.333 10 26.333 8 33c-2 4.66699 -14 11.334 -36 20.001l-15 6l18 18c12.667 14 19.334 23 20.001 27c0 5.33301 -8.33301 15.666 -25 30.999c-2.66699 2.66699 -7 6.66699 -13 12
c10 4.66699 17.667 8 23 10c16.667 8 26 14 28 18c1.33301 6 -1.66699 17 -9 33c-2 4.66699 -5.66699 12 -11 22l33 2c11.333 0.666992 18.333 2.16699 21 4.5s4.33398 5.33301 5.00098 9s1 7.5 1 11.5c0 10 -0.5 18.333 -1.5 25s-2.16699 11.667 -3.5 15
c10 -3.33301 17.667 -5.66602 23 -6.99902c18 -4.66699 29.333 -6 34 -4c4.66699 3.33301 10 16.666 16 39.999c0.666992 4 1.66699 9.33301 3 16c8 -8.66699 14.333 -14.667 19 -18c14 -11.333 24 -16 30 -14c4 0.666992 11.333 8 22 22l15 21
c6 -8.66699 10.333 -15.334 13 -20.001c10 -14.667 17.667 -22.334 23 -23.001c4.66699 -2 14 2.33301 28 13c4.66699 3.33301 11.667 9 21 17c2 -11.333 3.66699 -19.666 5 -24.999c4 -18 8 -28 12 -30c4 -3.33301 14.667 -2.66602 32 2.00098
c5.33301 1.33301 13.666 4.33301 24.999 9c-1.33301 -6 -2.33301 -12.5 -3 -19.5s-1 -14.5 -1 -22.5s1 -13.5 3 -16.5s6.5 -5.16699 13.5 -6.5s14.833 -2 23.5 -2h10.5c3 0 5.83301 0.333008 8.5 1c-4.66699 -10.667 -8 -18.667 -10 -24
c-6.66699 -17.333 -9.66699 -27.666 -9 -30.999c2 -3.33301 13.667 -9.33301 35 -18c3.33301 -1.33301 8.66602 -3.66602 15.999 -6.99902c-8 -7.33301 -14 -13 -18 -17c-12 -12.667 -17.667 -22 -17 -28c-2 -6 3.33301 -14.667 16 -26c4 -4 11 -9.66699 21 -17l-25 -9
c-16.667 -7.33301 -25.667 -13.166 -27 -17.499s-2.33301 -7.83301 -3 -10.5c12.667 -6 24.334 -19.333 35.001 -40l6 -15l76 -252c16 -49.333 35.667 -95.333 59 -138c18 -32 36.333 -60 55 -84c14.667 -18.667 23 -28 25 -28zM238.001 286.995
c0 -16.667 -1.33301 -28.167 -4 -34.5s-10.667 -12.5 -24 -18.5c-2.66699 -1.33301 -5.5 -1.83301 -8.5 -1.5s-4.5 1.16602 -4.5 2.49902c0 2.66699 3.33301 5.83398 10 9.50098s11.5 8.16699 14.5 13.5s3.66699 13.5 2 24.5s0.5 16.5 6.5 16.5c5.33301 0 8 -4 8 -12z
M209.001 291.995c0.666992 -1.33301 1.83496 -3.83496 3.50195 -7.50195s2.5 -7.5 2.5 -11.5c0 -6.66699 -2.66699 -10 -8 -10c-8.66699 0 -16.334 3.33301 -23.001 10c-1.33301 0.666992 -2.33301 3.33398 -3 8.00098s-1.33398 7.33398 -2.00098 8.00098l-13 5
c-8.66699 -2.66699 -15.667 -3.66699 -21 -3c-2 2 -3.5 3.66699 -4.5 5s-1.5 2.33301 -1.5 3c4.66699 1.33301 8.33398 2.33301 11.001 3c10 2.66699 16.667 4 20 4c11.333 0 19.666 -1.33301 24.999 -4c6 -4.66699 10.667 -8 14 -10zM219.002 279.993
c0 -10.667 -1.5 -17.998 -4.5 -21.998s-7.33301 -7.33301 -13 -10s-18.834 -4 -39.501 -4c-20 0 -31 2.66699 -33 8c-1.33301 5.33301 -1.16602 11.166 0.500977 17.499l5.5 21.5c-10 0 -19.833 0.166992 -29.5 0.5s-14.5 2.16602 -14.5 5.49902c0 4 2.66699 6.66699 8 8
s12 2 20 2h16c6 0 12.667 0.333008 20 1s12.666 1 15.999 1c16 0 27.333 -2.16699 34 -6.5s11.334 -11.833 14.001 -22.5zM646.002 -257.005h-37v44h28zM164.002 198.995h-3c-2.66699 8 -4 18 -4 30c0 5.33301 0.333008 9 1 11h3c2.66699 -9.33301 4 -20 4 -32
c0 -4.66699 -0.333008 -7.66699 -1 -9zM122.002 278.995c0 -17.333 -0.832031 -42.5 -2.49902 -75.5s-3.16699 -49.5 -4.5 -49.5c-0.666992 5.33301 -1 10 -1 14v25c0 35.333 0.666992 60.333 2 75s2.66602 22 3.99902 22c1.33301 -5.33301 2 -9 2 -11zM637.003 -208.005
l-467.001 0.000976562v64l88 -1c-9.33301 -6.66699 -14 -13.334 -14 -20.001c0 -14 13.667 -21 41 -21c18.667 0 30.334 4.33301 35.001 13c2.66699 10 5.66699 19.667 9 29h294zM293.002 -27.0039c4.66699 -7.33301 0.99707 -20.667 -11.0029 -40
c-3.33301 -3.33301 -6.66602 -7 -9.99902 -11c-9.33301 10.667 -27.666 28.667 -54.999 54l-31 29c-28.667 20.667 -50.667 38.334 -66 53.001s-22.666 25.667 -21.999 33c1.33301 15.333 7.16602 26.333 17.499 33s21.5 10 33.5 10c2.66699 0 6 -0.666992 10 -2
c20.667 -8 36 -17.667 46 -29c6.66699 -8 16.667 -25.333 30 -52c8.66699 -16.667 17.834 -30.834 27.501 -42.501zM316.999 -44.0049c-3.33301 -13.333 -8 -24.501 -14 -33.501s-12.667 -15.833 -20 -20.5c-3.33301 -2 -6.5 -2.66699 -9.5 -2s-4.5 2.66699 -4.5 6
c0 2.66699 1.33301 5.33398 4 8.00098c7.33301 8 12.5 14.333 15.5 19s7.5 14 13.5 28c0.666992 4.66699 2.66699 7 6 7c6 0 9 -4 9 -12zM352.999 -74.0059c-1.33301 -10 -7.00098 -20.6699 -17.001 -32.0029c-6 -6.66699 -9.33301 -12 -10 -16l-7.5 -23.5
c-2.33301 -7.66699 -6.16602 -12.167 -11.499 -13.5s-11.166 -1.66602 -17.499 -0.999023s-10.5 0 -12.5 -2c-6.66699 -6.66699 -12.334 -10 -17.001 -10c-4 0 -6 2.66699 -6 8c2 2.66699 3.66699 4.33398 5 5.00098c6.66699 5.33301 10 8.33301 10 9
c6 6 10.333 15.5 13 28.5s6.66699 22.167 12 27.5c3.33301 2.66699 6.83301 6.83398 10.5 12.501s8.5 15.167 14.5 28.5c2 3.33301 7 5 15 5c6.66699 0 12 -2 16 -6s5 -10.667 3 -20zM265.998 -134.009c-5.33301 -7.33301 -28.6699 -4.33203 -70.0029 9.00098
s-68.666 35.333 -81.999 66c-3.33301 10 -5 18.667 -5 26c0 14 3.66699 26.333 11 37s15.333 16 24 16c5.33301 0 10.333 -2.33301 15 -7l45 -41c23.333 -21.333 41 -38.666 53 -51.999c2 -2 3 -5 3 -9c0 -2.66699 0.166992 -5.83398 0.5 -9.50098
s2.83301 -6.83398 7.5 -9.50098c2.66699 0 4.83398 -0.333008 6.50098 -1s-1.16602 -9 -8.49902 -25zM301.994 -164.008c0 -5.33301 -1.33301 -8.33301 -4 -9h-4l4 9h4zM293.994 -164.008c0 -2.66699 -0.666992 -5 -2 -7c-2 -1.33301 -3.66699 -3 -5 -5l-4 3l6 9h5z
M284.994 -163.008l-3 -6c-3.33301 -4.66699 -6 -7 -8 -7l-5 4l10 9h6zM144.994 23.9922c-20 0 -34.667 -12.3311 -44 -36.998c-5.33301 -14 -9.33301 -34.333 -12 -61l-40 17c4.66699 18.667 11.5 36.5 20.5 53.5s17.5 27.833 25.5 32.5c7.33301 6 14.333 9.33301 21 10
s11 0 13 -2l7 -5c-4.66699 1.33301 -8.33398 2 -11.001 2c-8 0 -16.167 -2.83301 -24.5 -8.5s-14.833 -15.834 -19.5 -30.501l9.5 -5.5c3 -1.66699 4.83301 -1.83398 5.5 -0.500977c3.33301 14 10.333 24.5 21 31.5s19.334 8.83301 26.001 5.5zM122.994 41.9941
c-22.667 0 -39.332 -8.16602 -49.999 -24.499s-23.334 -54.5 -38.001 -114.5l-32 34c5.33301 29.333 11.666 52.166 18.999 68.499s17.5 29.833 30.5 40.5s24.5 16 34.5 16c9.33301 -2.66699 14.666 -4 15.999 -4c0.666992 -1.33301 3.33398 -3.66602 8.00098 -6.99902
c-2 1.33301 -4.5 2.33301 -7.5 3s-7.16699 1 -12.5 1c-16 0 -29.833 -7 -41.5 -21s-21.167 -33 -28.5 -57c4.66699 -4.66699 8.33398 -8 11.001 -10s6 -4 10 -6c7.33301 34 19.333 58 36 72c13.333 11.333 26 15.666 38 12.999zM169.996 -209.005l-68 109v46l68 -90v-65z
M242.996 -257.005h-48v44h48v-44zM304.996 454.995l-3 5.99902c0 -1.33301 0.666992 -3 2 -5l-4 -6c0 1.33301 0.5 2.33301 1.5 3s2.16699 1.33398 3.5 2.00098zM312.996 515.994l-3 -5.00098l1 6l1 3c0 -1.33301 0.333008 -2.66602 1 -3.99902zM337.996 483.993
c1.33301 -2 0.666992 -3.5 -2 -4.5s-5 -0.5 -7 1.5c-1.33301 2 -2 3.33301 -2 4s-0.333008 1.66699 -1 3l6 -1c0.666992 -0.666992 1.66699 -1 3 -1s2.33301 -0.666992 3 -2zM304.997 -172.007c-0.666992 1.33301 -0.666992 3.66699 0 7l5 2
c0 -6.66699 -1.66699 -9.66699 -5 -9zM557.997 540.994c-8.66699 4 -16.833 6.66602 -24.5 7.99902s-16.5 2 -26.5 2c-5.33301 0.666992 -9.66602 1 -12.999 1c-14.667 0 -30 -2.33301 -46 -7s-24 -8.33398 -24 -11.001c2.66699 -4 4 -8.66699 4 -14
c4 2.66699 7.33301 4.33398 10 5.00098c10 4 20 6 30 6c5.33301 -0.666992 9.33301 -1 12 -1c-0.666992 -2.66699 -1 -5 -1 -7c19.333 0 31.166 -0.333008 35.499 -1s15.5 -5 33.5 -13l6 15c4 10.667 5.33301 16.334 4 17.001zM580.998 481.993
c-15.333 12 -26.9971 20.0029 -34.9971 24.0029c-12 6 -24.667 9.83301 -38 11.5s-23.333 2.5 -30 2.5c-13.333 0 -24.833 -1 -34.5 -3s-14.5 -4.33301 -14.5 -7v-11c5.33301 1.33301 11.166 2.66602 17.499 3.99902s14.166 2 23.499 2h11
c5.33301 -1.33301 9.33301 -2 12 -2c-0.666992 -2.66699 -1 -5.33398 -1 -8.00098c18 -4.66699 31.667 -10.667 41 -18c9.33301 -9.33301 17.333 -17 24 -23c1.33301 -0.666992 5.66602 3.66602 12.999 12.999zM581.001 417.996c-14 18 -25.332 31.333 -33.999 40
c-11.333 10.667 -24 19.667 -38 27c-6.66699 3.33301 -14.334 5.66602 -23.001 6.99902s-17 2 -25 2s-15.167 -0.666992 -21.5 -2s-9.5 -2.66602 -9.5 -3.99902v-8c7.33301 0.666992 13.333 1 18 1c12 0 23.333 -1.33301 34 -4s20.334 -8 29.001 -16l-4 -4
c-8 8 -20.833 13.5 -38.5 16.5s-29.834 3.83301 -36.501 2.5l6 -6c52 0 86 -26.667 102 -80l21 12zM451.002 466.996c2.66699 20 -2.16797 38.5 -14.501 55.5s-26 26.667 -41 29s-24.167 3.5 -27.5 3.5c-8.66699 0 -16.667 -2 -24 -6s-12.666 -7 -15.999 -9l22 -30
c20 -18 36.667 -30 50 -36c7.33301 -3.33301 17.5 -6 30.5 -8s19.833 -1.66699 20.5 1zM459 491.996c-1.33301 -2 -2.33301 -5.33203 -3 -9.99902c-2.66699 -10.667 -6.33398 -16 -11.001 -16c-2.66699 0 -5.5 1.33301 -8.5 4s-5 7.16699 -6 13.5s-1.5 14.5 -1.5 24.5
c0 18.667 -5.66699 31.334 -17 38.001c-6.66699 4 -12 6 -16 6c-0.666992 -1.33301 -0.666992 -2.33301 0 -3c8.66699 -8 14.334 -15.167 17.001 -21.5s4 -14.833 4 -25.5c0 -12.667 1 -22.334 3 -29.001s5.66699 -12.334 11 -17.001s11 -7 17 -7
c9.33301 0 14 7.33301 14 22c0 6 -1 13 -3 21zM361 557.997c0 5.33301 -3 8 -9 8c-5.33301 -3.33301 -8 -6 -8 -8s0.833008 -3.66699 2.5 -5s3.5 -2.33301 5.5 -3c6 0 9 2.66699 9 8zM459 456.997c0.666992 4 0.99707 9.66797 0.99707 17.001c0 22.667 -7.33301 42 -22 58
c-12 12.667 -24.5 21 -37.5 25s-24.833 6 -35.5 6c-9.33301 0 -17.666 -1.5 -24.999 -4.5s-13.666 -8.16699 -18.999 -15.5c-3.33301 -5.33301 4.5 -16.833 23.5 -34.5s36.167 -29.834 51.5 -36.501c8 -3.33301 20.333 -7 37 -11s25.334 -5.33301 26.001 -4z
M453.997 429.998c0 5.33301 -2.66699 8 -8 8s-8 -2.66699 -8 -8s2.66699 -8 8 -8s8 2.66699 8 8zM463.997 411.998c0 6 -2.33301 9 -7 9c-5.33301 0 -8 -3 -8 -9c0 -4.66699 2.66699 -7 8 -7c4.66699 0 7 2.33301 7 7zM476.997 394.998c0 4.66699 -2.33301 7 -7 7
c-5.33301 0 -8 -2.33301 -8 -7c0 -6 2.66699 -9 8 -9c4.66699 0 7 3 7 9zM443.997 411.998c0 6 -2.33301 9 -7 9c-5.33301 0 -8 -3 -8 -9c0 -4.66699 2.66699 -7 8 -7c4.66699 0 7 2.33301 7 7zM454.997 392.998c0 5.33301 -2.33301 8 -7 8c-6 0 -9 -2.66699 -9 -8
s3 -8 9 -8c4.66699 0 7 2.66699 7 8zM448.997 471.998c0 22 -7.00293 41.002 -21.0029 57.002s-31.667 24 -53 24c-17.333 0 -33.333 -5.5 -48 -16.5s-22 -26.833 -22 -47.5c0 -2 -5.66699 -9 -17 -21c-6 -6.66699 -9 -10.667 -9 -12s2.16699 -2.66602 6.5 -3.99902
s6.83301 -2.33301 7.5 -3c-0.666992 -0.666992 -1 -1.33398 -1 -2.00098c-2.66699 -4 -4 -7 -4 -9c0 -4.66699 4 -6.66699 12 -6h5c-10 -2 -15 -3.33301 -15 -4l6.5 -6.5c1.66699 -1.66699 3.83398 -6.33398 6.50098 -14.001s10.334 -12.5 23.001 -14.5
c6.66699 1.33301 10.667 0.666016 12 -2.00098c1.33301 0 3.16602 -4.5 5.49902 -13.5s4.5 -13.167 6.5 -12.5c12.667 1.33301 25.334 3 38.001 5c14.667 4 28.334 8.66699 41.001 14c2.66699 2 2 7.66699 -2 17s-4.66699 16 -2 20c5.33301 6.66699 11 13.334 17 20.001
c4.66699 7.33301 7 17.666 7 30.999zM539.994 553c-12.667 26.667 -35.667 49.833 -69 69.5s-67.333 29.5 -102 29.5c-54 0 -100.667 -19.333 -140 -58s-59 -85.334 -59 -140.001c0 -35.333 8.83301 -67.666 26.5 -96.999s41.5 -53 71.5 -71
c1.33301 4 2.83301 7.83301 4.5 11.5s2.16699 6.16699 1.5 7.5c-24.667 24 -43 45.333 -55 64c-18 28 -27 56.333 -27 85c0 48 17.5 89.167 52.5 123.5s76.5 51.5 124.5 51.5c27.333 0 56.333 -8.66699 87 -26c26.667 -15.333 44.667 -31 54 -47zM431.994 392.999
c0 5.33301 -2.33301 8 -7 8c-5.33301 0 -8 -2.66699 -8 -8s2.66699 -8 8 -8c4.66699 0 7 2.66699 7 8zM404.994 350.999c0 3.33301 1.66797 7.99902 5.00098 13.999l2 6c-1.33301 -0.666992 -6 -2 -14 -4l-25 -6c-8.66699 -2 -16.334 -3 -23.001 -3
c-2.66699 0 -4 -3.33301 -4 -10c0 -6 1.33301 -9 4 -9c20 2.66699 37.333 6.33398 52 11.001zM727.995 -84.002c-7.33301 11.333 -16.6709 31.3398 -28.0039 60.0068c-8.66699 22 -19 49.667 -31 83l-54 180.5c-15.333 49 -27.666 82 -36.999 99s-21.833 30.167 -37.5 39.5
s-31.167 14 -46.5 14c-12 0 -23.5 -3.33301 -34.5 -10s-19.167 -16.834 -24.5 -30.501s-8 -27.834 -8 -42.501c0 -8 0.333008 -14.5 1 -19.5l2 -15.5c4 -18 8.83301 -34.833 14.5 -50.5s12.5 -28.834 20.5 -39.501c3.33301 1.33301 5.66602 2.33301 6.99902 3
c5.33301 3.33301 7.66602 6 6.99902 8c-9.33301 20 -15.333 33.333 -18 40c-5.33301 14.667 -8.83301 26.5 -10.5 35.5s-3 17.167 -4 24.5s-1.5 12.666 -1.5 15.999c0 9.33301 1.5 18.166 4.5 26.499s9 15.666 18 21.999s18.5 9.5 28.5 9.5s20 -3.66699 30 -11
c4.66699 -3.33301 12 -10 22 -20c2.66699 -4 7.33398 -14.833 14.001 -32.5s10.334 -27.5 11.001 -29.5c4.66699 -15.333 10.334 -38.833 17.001 -70.5l19 -91.5c0.666992 -3.33301 3.33398 -20 8.00098 -50c1.33301 -10 3 -19.667 5 -29
c3.33301 -26.667 5.33301 -43.167 6 -49.5s3.33398 -18.5 8.00098 -36.5c4 -20.667 7.16699 -37.834 9.5 -51.501s4.5 -20.5 6.5 -20.5c10.667 -1.33301 26.667 3.66699 48 15zM582.99 178.005c0 17.333 -0.999023 30.001 -2.99902 38.001
c-4.66699 13.333 -8.66699 26.333 -12 39c-8.66699 30 -17 52.333 -25 67c-13.333 24 -28.333 36 -45 36c-4.66699 0 -10.5 -1.16699 -17.5 -3.5s-13 -8 -18 -17s-7.5 -21.167 -7.5 -36.5c0 -18.667 4.66699 -39.334 14 -62.001l13.5 -29.5
c4.33301 -9 6.5 -14.833 6.5 -17.5s-2 -5 -6 -7c-20.667 -13.333 -37 -23 -49 -29l-38.5 -15c-10.333 -4 -15.833 -6.33301 -16.5 -7l-2 -2c3.33301 -1.33301 6.33301 -3 9 -5c6 -4.66699 9.5 -10 10.5 -16s1.5 -10 1.5 -12v-5c0 -7.33301 -0.666992 -12.5 -2 -15.5
s-3 -5.83301 -5 -8.5c4.66699 2 9.33398 3.66699 14.001 5c15.333 4.66699 29.666 10 42.999 16c17.333 8 32.666 14.333 45.999 19c22 9.33301 42.333 21 61 35s28 25 28 33zM436.991 385.006c-12 3.33301 -23.668 -11.3311 -35.001 -43.998
c-8 -22.667 -13.667 -46.334 -17 -71.001v-19.5c0 -7 0.333008 -14.833 1 -23.5c0 -19.333 -2 -36 -6 -50s-11.333 -21.667 -22 -23c-14 -2 -24 3.33301 -30 16s-9 29.667 -9 51c0 14 0.666992 25.833 2 35.5s2.33301 17.5 3 23.5s3.66699 20.5 9 43.5s8 38.167 8 45.5
c0 8 -2 12.333 -6 13c-7.33301 0 -15.5 -17.5 -24.5 -52.5s-13.5 -69.167 -13.5 -102.5c0 -28.667 4 -51.834 12 -69.501s21 -26.5 39 -26.5c10 0 20.833 3 32.5 9s19.334 17.667 23.001 35s5.5 37 5.5 59c0 7.33301 -0.166992 14.333 -0.5 21s-0.5 13 -0.5 19
c2.66699 28.667 12 60.334 28 95.001c0 5.33301 0.333008 10.666 1 15.999zM320.99 373.009c-9.33301 -7.33301 -16.334 -15.333 -21.001 -24c-2 -3.33301 -6.33301 -13.333 -13 -30c-2.66699 -6.66699 -6.16699 -16.334 -10.5 -29.001s-8.83301 -27.334 -13.5 -44.001
s-8 -30.167 -10 -40.5s-3 -23.166 -3 -38.499l1 -31l12 14c4.66699 0 9.33398 0.166992 14.001 0.5s7 2.83301 7 7.5v38c0 14 0.333008 29 1 45c0 14.667 1.33301 27.334 4 38.001s12 38.667 28 84c2 8.66699 4.33301 13.667 7 15c-1.33301 -2 -2.33301 -3.66699 -3 -5z
M387.989 81.0088c2.66699 6 3.99902 12.001 3.99902 18.001c0 9.33301 -5.33301 18 -16 26c-4.66699 3.33301 -8.5 3.83301 -11.5 1.5s-3.16699 -4.5 -0.5 -6.5c8.66699 -6 13 -12.667 13 -20c0 -3.33301 -1 -7 -3 -11s-3.33301 -7 -4 -9
c-1.33301 -2.66699 -1.5 -4.83398 -0.5 -6.50098s2.5 -2.5 4.5 -2.5c6.66699 0 11.334 3.33301 14.001 10zM510.988 110.01l-23.0029 -9.99805c1.33301 -9.33301 -3 -20 -13 -32c-4 -5.33301 -8.83301 -9.5 -14.5 -12.5s-11.667 -5.83301 -18 -8.5
s-15.5 -5.33398 -27.5 -8.00098s-22.333 -4 -31 -4c-6.66699 0 -15.167 1.33301 -25.5 4s-19.166 5.66699 -26.499 9l-14 5c-5.33301 2.66699 -14.333 4 -27 4c-2.66699 0 -5.16699 -0.166992 -7.5 -0.5s-3.16602 -1.5 -2.49902 -3.5
c3.33301 -9.33301 8.33301 -17.333 15 -24c3.33301 -3.33301 8 -7 14 -11c9.33301 -7.33301 20.833 -14.333 34.5 -21s25.5 -11 35.5 -13s18 -3 24 -3c14 0 26.333 1.33301 37 4s19.667 6 27 10c12.667 8 21.667 14.667 27 20c8.66699 9.33301 15 21.333 19 36
c2 9.33301 3 17.666 3 24.999c0 5.33301 -0.666992 11.333 -2 18s-2.66602 12 -3.99902 16zM167.985 272.012c2 0 3 1.16699 3 3.5s-1 3.5 -3 3.5c-7.33301 0 -11.833 0.333008 -13.5 1s-6.5 4 -14.5 10c-0.666992 -4 -1 -7.66699 -1 -11c10 -4.66699 19.667 -7 29 -7z
M163.985 266.012c-10.667 2 -19.666 5.33203 -26.999 9.99902l-4 -4c-1.33301 -4 -0.666016 -6.33301 2.00098 -7c5.33301 -1.33301 9.66602 -2.16602 12.999 -2.49902s7.66602 -1.5 12.999 -3.5c2.66699 0 3.66699 2.33301 3 7zM154.986 257.011h-12
c-3.33301 0 -6.33301 0.666992 -9 2h-3c-0.666992 -2 0.333008 -3.66699 3 -5c2 -1.33301 8.66699 -2 20 -2c1.33301 0 2.33301 0.833008 3 2.5s0 2.5 -2 2.5zM282.986 124.011c0 8.66699 -4 13 -12 13c-9.33301 0 -14 -4.33301 -14 -13c0 -8 4.66699 -12 14 -12
c8 0 12 4 12 12zM372.986 101.011c0 5.33301 -5.33203 10.3311 -15.999 14.998c-13.333 4.66699 -21.333 7.33398 -24 8.00098c-10 0 -19.167 -1.33301 -27.5 -4s-15.166 -6.33398 -20.499 -11.001c5.33301 -0.666992 11.333 -1.16699 18 -1.5s13.667 -0.166016 21 0.500977
c-4 -4 -9.66699 -6.66699 -17 -8s-11.333 -2 -12 -2c-8 0 -19.333 2.66699 -34 8h-7c0 -6.66699 0.666992 -12 2 -16s4.66602 -8.66699 9.99902 -14c5.33301 -3.33301 12.666 -6.66602 21.999 -9.99902s17 -5 23 -5c5.33301 0 13.833 2 25.5 6s20.667 9 27 15
s9.5 12.333 9.5 19zM388.987 480.009c0 -6 -3 -9 -9 -9c-4.66699 0 -7 3 -7 9c0 5.33301 2.33301 8 7 8c6 0 9 -2.66699 9 -8zM361.987 482.009c-2 1.33301 -3.33496 2.33203 -4.00195 2.99902c-7.33301 6 -12.166 9.33301 -14.499 10s-8.16602 1 -17.499 1
c-2 0 -5.33301 -1.33301 -10 -4h-5c0 1.33301 0.333008 3 1 5c6.66699 4 13.667 6 21 6c8 0 16 -4.66699 24 -14c1.33301 -1.33301 3 -3.66602 5 -6.99902zM359.985 472.008c-5.33301 0 -10.667 0.166992 -16 0.5s-10.333 1.83301 -15 4.5l-16 8c11.333 4 18 5.33301 20 4
c6 -1.33301 13 -5 21 -11c1.33301 -0.666992 3.33301 -2.66699 6 -6zM401.984 449.008c-2.66699 -4 -4.83301 -8.66992 -6.5 -14.0029s-3.83398 -9 -6.50098 -11c-2 2.66699 -4 5.66699 -6 9c0.666992 0 1.33398 0.333008 2.00098 1c-0.666992 0 -0.666992 -0.5 0 -1.5
s2 -2.16699 4 -3.5c1.33301 0.666992 2.83301 3.33398 4.5 8.00098s3.5 8.83398 5.5 12.501s3 6.83398 3 9.50098c0 3.33301 -1.33301 6.33301 -4 9s-5.33398 3.66699 -8.00098 3c-3.33301 -2 -5.66602 -4.66699 -6.99902 -8l-1 -8l1 9c1.33301 3.33301 4 5.66602 8 6.99902
c2.66699 0.666992 5.66699 -0.166016 9 -2.49902s5 -5.5 5 -9.5c0 -2.66699 -1 -6 -3 -10zM308.985 431.005l-4 -1l-3 1l3 3zM566.985 185.005c0 -7.33301 -7.49707 -17.1641 -22.4971 -29.4971s-31.833 -22.5 -50.5 -30.5c-14.667 -6 -27.334 -11.667 -38.001 -17
s-21.334 -10 -32.001 -14c-7.33301 -2 -12.666 -4.66699 -15.999 -8c-0.666992 -0.666992 -1.33398 -1 -2.00098 -1v10c0 4 -0.5 9.16699 -1.5 15.5s-2.33301 10.5 -4 12.5s-3.5 4 -5.5 6c6 2 12.333 4.33301 19 7c14 6 27.5 12.167 40.5 18.5s29.5 16.5 49.5 30.5
c4 1.33301 4.33301 5.66602 1 12.999l-20 42c-10 25.333 -15 46.333 -15 63c0 16 5.66699 27 17 33c3.33301 1.33301 7.66602 2 12.999 2c10.667 0 19.667 -6 27 -18c1.33301 -2.66699 9.33301 -26.334 24 -71.001l9 -29c2.66699 -8.66699 5 -20.334 7 -35.001z
M451.988 450.007c0 4.66699 -2.66699 7 -8 7c-4.66699 0 -7 -2.33301 -7 -7c0 -5.33301 2.33301 -8 7 -8c5.33301 0 8 2.66699 8 8zM357.988 471.007c-3.33301 3.33301 -6 5.66895 -8 7.00195c-6.66699 5.33301 -12.334 8.66602 -17.001 9.99902
c-7.33301 2 -12.666 0.666992 -15.999 -4c1.33301 -1.33301 3 -2.83301 5 -4.5s4.33301 -2.83398 7 -3.50098c4.66699 -2.66699 9.66699 -4.16699 15 -4.5s10 -0.5 14 -0.5zM369.988 542.01c0 -5.33301 -2.66699 -8 -8 -8c-6 0 -9 2.66699 -9 8s3 8 9 8
c5.33301 0 8 -2.66699 8 -8zM381.988 527.01c0 -6 -3 -9 -9 -9c-5.33301 0 -8 3 -8 9c0 4.66699 2.66699 7 8 7c6 0 9 -2.33301 9 -7zM393.988 510.01c0 -4.66699 -3 -7.00293 -9 -7.00293c-2 0.666992 -3.83301 1.33398 -5.5 2.00098s-2.5 2.33398 -2.5 5.00098
s2.66699 5.33398 8 8.00098c6 0 9 -2.66699 9 -8zM420.988 477.007c0 -4.66699 -2.66699 -7 -8 -7s-8 2.33301 -8 7c0 5.33301 2.66699 8 8 8s8 -2.66699 8 -8zM435.988 464.007c-3.33301 -5.33301 -6 -7.99902 -8 -7.99902s-3.66699 0.833008 -5 2.5s-2.33301 3.5 -3 5.5
c0 5.33301 2.66699 8 8 8c5.33301 -2.66699 8 -5.33398 8 -8.00098zM407.988 495.008c0 5.33301 -3 8.00098 -9 8.00098c-4.66699 -3.33301 -7 -6 -7 -8c0 -2.66699 2.33301 -5.33398 7 -8.00098c6 0 9 2.66699 9 8zM359.988 558.009
c0 4.66699 -2.66797 6.99902 -8.00098 6.99902c-4.66699 -3.33301 -7 -5.66602 -7 -6.99902s1.66699 -3.33301 5 -6c0.666992 -0.666992 1.33398 -1 2.00098 -1c5.33301 0 8 2.33301 8 7zM368.987 542.008c0 -1.33301 -1.66602 -3.33105 -4.99902 -5.99805
c-0.666992 -0.666992 -1.33398 -1 -2.00098 -1c-5.33301 0 -8 2.33301 -8 7s2.66699 7 8 7c1.33301 -0.666992 2.83301 -1.33398 4.5 -2.00098s2.5 -2.33398 2.5 -5.00098zM380.988 527.01c0 -5.33301 -2.66699 -7.99902 -8 -7.99902c-4.66699 0 -7 2.66699 -7 8
c0 4 2.33301 6 7 6c2 0 3.66699 -0.833008 5 -2.5s2.33301 -2.83398 3 -3.50098zM392.988 510.011c0 -4 -2.66699 -6 -8 -6c-4.66699 2.66699 -7 4.66699 -7 6c0 2 1 3.5 3 4.5s3.33301 1.83301 4 2.5c5.33301 0 8 -2.33301 8 -7zM406.988 495.011
c0 4.66699 -2.66602 6.99902 -7.99902 6.99902c-4 -3.33301 -6 -5.66602 -6 -6.99902c0 -2.66699 0.666992 -4.5 2 -5.5s2.66602 -1.5 3.99902 -1.5c5.33301 0 8 2.33301 8 7zM419.989 477.01c0 -4 -2.33301 -6 -7 -6s-7 2 -7 6c0 4.66699 2.33301 7 7 7s7 -2.33301 7 -7z
M434.989 464.01c-3.33301 -4.66699 -5.66699 -6.99805 -7 -6.99805s-2.83301 1 -4.5 3s-2.5 3.33301 -2.5 4c0 4.66699 2.33301 7 7 7c1.33301 -0.666992 2.83301 -1.33398 4.5 -2.00098s2.5 -2.33398 2.5 -5.00098z" />
    <glyph glyph-name="thorn" unicode="&#xfe;" horiz-adv-x="745" 
d="M133 70v730h65v-729v-12c0 -26 5.66699 -51 17 -75c8.66699 -18 21.334 -36 38.001 -54c12.667 -13.333 30.834 -25 54.501 -35s45.167 -15 64.5 -15s40.666 5.16699 63.999 15.5s41 22.833 53 37.5c17.333 21.333 30.666 43.666 39.999 66.999s14 48.333 14 75v725h65
v-725c0 -70 -23 -130.833 -69 -182.5s-103 -77.5 -171 -77.5c-65.333 0 -120.833 25.333 -166.5 76s-68.5 110.334 -68.5 179.001zM368 225c-31.333 0 -58.333 11.333 -81 34s-34 49.667 -34 81s11.333 58.333 34 81s49.667 34 81 34s58.333 -11.333 81 -34
s34 -49.667 34 -81s-11.333 -58.333 -34 -81s-49.667 -34 -81 -34z" />
    <glyph glyph-name="ydieresis" unicode="&#xff;" horiz-adv-x="954" 
d="M547 738l-27.999 -3l-20 3l16 -18l22 -14l-37 -5l-2 16c-2 8 -6.66699 15 -14 21l-7 -6c-5.33301 -4.66699 -10 -15 -14 -31l-12 6c-9.33301 4 -17 6 -23 6c-4.66699 0 -8 -0.666992 -10 -2c5.33301 12.667 8.66602 23.667 9.99902 33c0 5.33301 -3 10.666 -9 15.999
l-12 11l49 -4l52 -19c15.333 -5.33301 28.333 -8.66602 39 -9.99902zM412.001 720l-7 50zM462.001 591c-11.333 2 -18.666 4.66699 -21.999 8c-8 5.33301 -12 13.333 -12 24c0 6 2.16699 11.167 6.5 15.5s13.166 8.83301 26.499 13.5c-8 9.33301 -11 16.333 -9 21
c4 2 8 8.66699 12 20l-19 9l-16 4l-13 -4l11 -64l9 -58l12 6zM570.001 94c8 0.666992 11 -3 9 -11c0 -3.33301 -2.33301 -6 -7 -8c-8 -0.666992 -11 3 -9 11c0 3.33301 2.33301 6 7 8zM592.001 106c4 1.33301 7 -0.666016 9 -5.99902
c0.666992 -6.66699 -1.33301 -10.334 -6 -11.001c-5.33301 0 -8 3 -8 9c0 3.33301 1.66699 6 5 8zM614.001 121.001c5.33301 0 7.66699 -2.66797 7 -8.00098l-3 -4l-3 -1l-7 5c-0.666992 4.66699 1.33301 7.33398 6 8.00098zM430.002 91c8 0 12 -4.66602 12 -13.999
c0 -8.66699 -3.33301 -13.334 -10 -14.001c-6 0 -10 4 -12 12l2 10c2 4 4.66699 6 8 6zM402.002 92.001c6 1.33301 9 -1.66699 9 -9c0 -3.33301 -2 -6 -6 -8c-4 -0.666992 -7 1.33301 -9 6c-0.666992 5.33301 1.33301 9 6 11zM382.002 102.001l3 -4l2 -5
c0 -4 -2 -6.66699 -6 -8c-4 2.66699 -6.33301 4.66699 -7 6c-2 7.33301 0.666992 11 8 11zM361.002 105.001c-2.66699 -0.666992 -5 0.999023 -7 4.99902c-0.666992 4.66699 1.33301 7.33398 6 8.00098l6 -6zM802.002 12c-5.33301 0 -9.5 1.66797 -12.5 5.00098
s-5.16699 8.66602 -6.5 15.999c0 4 2 8.33301 6 13s8.66699 7 14 7c13.333 0 20 -6.66699 20 -20c0 -14 -7 -21 -21 -21zM567.002 12.001c-10.667 0 -16 6.33301 -16 19c0 5.33301 1.83301 9.83301 5.5 13.5s8.16699 5.5 13.5 5.5c12 0 18 -7 18 -21
c0 -11.333 -7 -17 -21 -17zM160.002 12.001c-12 0 -18 6.66699 -18 20c0 12.667 6.66699 19 20 19c11.333 0 18 -6.33301 20 -19c0 -13.333 -7.33301 -20 -22 -20zM392.002 12.001c-11.333 0 -18 5.66504 -20 16.998c0 6.66699 1.83301 11.834 5.5 15.501
s8.16699 5.83398 13.5 6.50098c13.333 0 20 -6.66699 20 -20c0 -4 -1.5 -7.83301 -4.5 -11.5s-7.83301 -6.16699 -14.5 -7.5zM477.002 367.999c-36 0 -71.333 -22.332 -106 -66.999c-10 -12.667 -23.667 -35.334 -41 -68.001v-219l-3 -2h51h31v-118h144v118h83l-2 242
l-51 69c-28 30 -63.333 45 -106 45zM116.002 447c-6 0 -9 4.66602 -9 13.999c0 8.66699 3.33301 13.334 10 14.001c6 0 9 -4.33301 9 -13c0 -10 -3.33301 -15 -10 -15zM856.002 426.999l-12 -0.00195312l-6 -3c-6 -0.666992 -11.167 -11.167 -15.5 -31.5
s-9.83301 -33.833 -16.5 -40.5c-4.66699 -11.333 -16.667 -26.666 -36 -45.999c-8.66699 -8.66699 -17.834 -17.167 -27.501 -25.5s-20.5 -17.166 -32.5 -26.499v-242h113c6 0 9.33301 -3.33301 10 -10c0 -6 -3.33301 -10 -10 -12h-17v-67v-24v-14h5.5
c3 0 6.83301 -0.333008 11.5 -1l10 -10c0 -6 -1.66699 -12 -5 -18h-694l-6 7v10l23 16l5 1v99h-14l-7 10c2 4.66699 3.66699 8 5 10l2 2l22 1h32h38h12v231c0 8 -8 21 -24 39l-62 64c-15.333 22 -24.666 41 -27.999 57c-2 14.667 -11.667 22 -29 22v24l25 3
c16 4 28.333 10.333 37 19c19.333 18 35.666 29.667 48.999 35l-8 3c-4 2 -7 6 -9 12c3.33301 13.333 8 24 14 32s11.333 12 16 12l7 -4c12 -8.66699 20.333 -21 25 -37c-0.666992 -5.33301 -2.66699 -9.66602 -6 -12.999l-13 -4l17 -5c18.667 0 52.667 9.83301 102 29.5
s73 34.834 71 45.501l-34 204l79 -19l95 -20l-18 -10l-31 -10l14 -8c8 -4 14.667 -6 20 -6l-21 -11c-8 -2 -18.667 -3 -32 -3l7 -14l4 -7c2 -2.66699 2 -6 0 -10c-0.666992 -2 -4.66699 -5.66699 -12 -11c4 -1.33301 7.83301 -2.33301 11.5 -3
s8.16699 -2.33398 13.5 -5.00098s8.33301 -9 9 -19c0 -10 -4.33301 -18 -13 -24l-18 -10l147 -76l36 -13l40 4l-13 5c-2 1.33301 -4.66699 5.66602 -8 12.999l9 21c7.33301 13.333 15 20 23 20c6 0 12.333 -4.66699 19 -14l13 -25c0 -8 -0.666992 -12.667 -2 -14l-16 -6
l31 -19c8 -6 17.833 -13 29.5 -21s19.834 -13.333 24.501 -16l19 1v-24zM848.002 447.997c-4 0 -6.33301 1.83203 -7 5.49902s-1.33398 6.16699 -2.00098 7.5c0 6.66699 2.66699 10.334 8 11.001c4.66699 0 7.33398 -3.66699 8.00098 -11c0 -8 -2.33301 -12.333 -7 -13z
M545.002 93.9961c8 0 12.001 -4.66797 12.001 -14.001c0 -6.66699 -3 -11 -9 -13l-9 2c-2.66699 1.33301 -4.33398 5 -5.00098 11c0 8.66699 3.66699 13.334 11 14.001zM432.003 101.995l-22.001 3l-20 8l-20 18l-7 24l-1 18l-1 8c9.33301 20 18 50 26 90s21 60 39 60
c10 0 17 -3.33301 21 -10s6 -15.334 6 -26.001l-9 -42c-6 -22 -9 -35.667 -9 -41c0 -6 7.33301 -13.167 22 -21.5s22 -18.5 22 -30.5l2 -15l-2 -14l-11 -17c-3.33301 -3.33301 -8.66602 -6.66602 -15.999 -9.99902c-4 -1.33301 -10.667 -2 -20 -2zM604.002 128.995
l-14.999 -13.999l-4 -3c-11.333 -6 -25.333 -9 -42 -9l-13 2l-10 5c-5.33301 4.66699 -11 11.667 -17 21c-3.33301 8 -5 17.667 -5 29s6 21.666 18 30.999c12 8 18 14.667 18 20l-7 31l-13 54c0 8 3 16 9 24s12 12 18 12c18.667 0 32 -14.333 40 -43
c13.333 -54 24.666 -90.667 33.999 -110l1 -8v-6c0 -14 -4 -26 -12 -36zM516.003 99.9961l9 -9.00098l3 -9l-3 -10c-3.33301 -3.33301 -6.33301 -5.66602 -9 -6.99902l-11 1l-3 3c-4 5.33301 -6 12 -6 20l2 5l4 5zM455.003 93.9951l10 1c4 -2 6.66699 -3.66699 8 -5l4 -9
l1 -9l-4 -8l-9 -5c-9.33301 0 -15 6 -17 18l3 11z" />
    <glyph glyph-name="Scaron" unicode="&#x160;" 
d="M-310 -292c-37.333 0 -68.667 8.16797 -94 24.501s-38 39.166 -38 68.499c0 33.333 18.5 58.833 55.5 76.5s81.5 26.5 133.5 26.5c42.667 0 92 -12.667 148 -38c42 -19.333 83.333 -43.333 124 -72c33.333 -24 51.666 -39 54.999 -45l-42 -38c-2 6 -18 20.333 -48 43
c-36 28 -73 51.333 -111 70c-49.333 24.667 -93 37 -131 37s-68 -6 -90 -18s-33 -27.333 -33 -46c0 -13.333 7 -24 21 -32s31.667 -12 53 -12c19.333 0 43.666 6.33301 72.999 19c10 4 23.333 10.667 40 20l36 -44c-13.333 -9.33301 -35.666 -18.333 -66.999 -27
s-59.666 -13 -84.999 -13z" />
    <glyph glyph-name="scaron" unicode="&#x161;" horiz-adv-x="600" 
d="M79 243c8 -6 14.668 -12 20.001 -18s9.66602 -12 12.999 -18s6 -13.5 8 -22.5s3 -18.5 3 -28.5v-176c0 -18.667 5.33301 -33.667 16 -45s22.334 -17.666 35.001 -18.999s20.834 -3.66602 24.501 -6.99902s6.16699 -8.33301 7.5 -15c0 -6 -2 -10.833 -6 -14.5
s-10.333 -5.5 -19 -5.5c-26.667 0 -48.334 8 -65.001 24c-22.667 22 -34 49.333 -34 82v176c0 16.667 -5.66699 31.667 -17 45s-25 20 -41 20c-9.33301 1.33301 -15.666 3.66602 -18.999 6.99902s-5 8.33301 -5 15s1.66699 11.5 5 14.5s9.66602 5.5 18.999 7.5
c17.333 0 31 6.66699 41 20c11.333 12.667 17 27.667 17 45v176c0 31.333 9.66699 56.666 29 75.999c18.667 20.667 42 31 70 31c8 0 13.833 -1.83301 17.5 -5.5s6.16699 -8.83398 7.5 -15.501c0 -5.33301 -1.83301 -9.66602 -5.5 -12.999s-10.834 -6 -21.501 -8
c-14.667 0 -27.667 -6.16699 -39 -18.5s-17 -27.833 -17 -46.5v-176c0 -20.667 -3.16699 -37.167 -9.5 -49.5s-17.833 -24.833 -34.5 -37.5z" />
    <glyph glyph-name="Ydieresis" unicode="&#x178;" horiz-adv-x="332" 
d="M35 553c0 35.333 12.333 65.333 37 90s54.667 37 90 37s65.333 -12.333 90 -37s37 -54.667 37 -90s-12.333 -65.333 -37 -90s-54.667 -37 -90 -37s-65.333 12.333 -90 37s-37 54.667 -37 90zM253 553c0 25.333 -9.00195 46.665 -27.002 63.998s-40 26 -66 26
c-25.333 0 -46.666 -8.66699 -63.999 -26s-26 -38.666 -26 -63.999s8.83301 -47.166 26.5 -65.499s38.834 -27.5 63.501 -27.5c26 0 48 9 66 27s27 40 27 66z" />
    <glyph glyph-name="florin" unicode="&#x192;" 
d="M-305 781l234 -228h-90l-191 228h47z" />
    <glyph glyph-name="circumflex" unicode="&#x2c6;" 
d="M-226 524c-54.667 0 -99.335 13.167 -134.002 39.5s-56.667 57.833 -66 94.5h73c7.33301 -21.333 15 -37.333 23 -48c24.667 -32 60.334 -48 107.001 -48c40.667 0 74.334 16 101.001 48c8.66699 10.667 18 26.667 28 48h71c-16 -39.333 -38.667 -70 -68 -92
c-37.333 -28 -82.333 -42 -135 -42z" />
    <glyph glyph-name="tilde" unicode="&#x2dc;" horiz-adv-x="380" 
d="M130 596h225v-42h-167v-654h167v-42h-225v738z" />
    <glyph glyph-name="endash" unicode="&#x2013;" horiz-adv-x="457" 
d="M38 207v52h381v-52h-381z" />
    <glyph glyph-name="emdash" unicode="&#x2014;" horiz-adv-x="400" 
d="M400 -106h-400v39h400v-39z" />
    <glyph glyph-name="quoteleft" unicode="&#x2018;" horiz-adv-x="219" 
d="M81 0v682h49v-682h-49z" />
    <glyph glyph-name="quoteright" unicode="&#x2019;" horiz-adv-x="520" 
d="M236 265c0 20 -4.33301 42.335 -13 67.002c-11.333 32 -17 54 -17 66c0 16 3.66699 28.5 11 37.5s17.333 13.5 30 13.5c10 0 18.833 -4.5 26.5 -13.5s11.5 -21.167 11.5 -36.5c0 -16 -4 -36.333 -12 -61s-13.667 -49 -17 -73c16.667 10 33 23.667 49 41
c20.667 24 37 40 49 48c11.333 6 22.333 9 33 9s19.334 -3.66699 26.001 -11c6.66699 -6 10.667 -14.667 12 -26c0 -10.667 -5.33301 -21.334 -16 -32.001c-10.667 -8.66699 -37.667 -18 -81 -28c-25.333 -6 -46 -12.333 -62 -19c14 -8 37.333 -15 70 -21
s55.334 -14.667 68.001 -26s19 -23 19 -35c0 -10 -3.5 -18.5 -10.5 -25.5s-15.5 -10.5 -25.5 -10.5c-10.667 0 -21.5 3.16699 -32.5 9.5s-27.167 21.833 -48.5 46.5c-12.667 14 -29.334 29 -50.001 45c0 -17.333 3.66699 -37.666 11 -60.999c12 -38 18 -64.333 18 -79
c0 -12 -3.66699 -22.667 -11 -32s-16 -14 -26 -14c-12 0 -22.167 4.16699 -30.5 12.5s-12.5 19.833 -12.5 34.5c0 15.333 4 34 12 56l14 46l5 37c-18 -12 -34.667 -26.333 -50 -43c-12 -12.667 -22.5 -23.334 -31.5 -32.001s-16.833 -15.167 -23.5 -19.5s-15 -6.5 -25 -6.5
c-11.333 0 -20.833 3.66699 -28.5 11s-11.5 15.666 -11.5 24.999c0 8 3 16.167 9 24.5s16.333 16.166 31 23.499l60 15c20 4 39.667 10.333 59 19c-19.333 8.66699 -40.333 15.334 -63 20.001c-40.667 9.33301 -65.334 17 -74.001 23c-14.667 10.667 -22 23.667 -22 39
c0 9.33301 3.66699 17.5 11 24.5s15.666 10.5 24.999 10.5c10.667 0 22.334 -3.33301 35.001 -10c4.66699 -3.33301 11.167 -8.5 19.5 -15.5s16.833 -15.5 25.5 -25.5c17.333 -20.667 35.333 -36.667 54 -48z" />
    <glyph glyph-name="quotesinglbase" unicode="&#x201a;" 
d="M-48 725c14.667 0 27 -5.33301 37 -16s15 -23.334 15 -38.001c0 -14 -5.16699 -26.167 -15.5 -36.5s-22.5 -15.5 -36.5 -15.5s-26.167 5.16699 -36.5 15.5s-15.5 22.5 -15.5 36.5c0 14.667 5 27.334 15 38.001s22.333 16 37 16z" />
    <glyph glyph-name="quotedblbase" unicode="&#x201e;" horiz-adv-x="219" 
d="M206 697c15.333 0 32.832 -1.83203 52.499 -5.49902s32.167 -6.5 37.5 -8.5l-14 -52c-8.66699 5.33301 -18.667 9.33301 -30 12s-24.666 4 -39.999 4c-22 0 -39.5 -9.16699 -52.5 -27.5s-19.5 -40.5 -19.5 -66.5c0 -16.667 1 -30.667 3 -42
c4.66699 -27.333 7 -45.333 7 -54v-457h-57v457c0 39.333 -8.66699 76.666 -26 111.999c-22.667 46.667 -53.667 70 -93 70c-23.333 0 -39.5 -5.66699 -48.5 -17s-13.5 -27 -13.5 -47c0 -18 4.33301 -39.667 13 -65c1.33301 -4 3.33301 -9 6 -15h-51
c-6.66699 9.33301 -12.667 22.5 -18 39.5s-8 31.5 -8 43.5c0 30.667 7.66699 54.667 23 72c20 23.333 53.333 35 100 35c44 0 82.333 -20 115 -60c6.66699 17.333 17 32 31 44c22 18.667 49.667 28 83 28z" />
    <glyph glyph-name="dagger" unicode="&#x2020;" 
d="M12 584c12 0 21.833 -3.5 29.5 -10.5s11.5 -15.833 11.5 -26.5c0 -11.333 -3.5 -20.5 -10.5 -27.5s-17.167 -10.5 -30.5 -10.5c-12 0 -21.833 3.5 -29.5 10.5s-11.5 16.167 -11.5 27.5c0 10 4 18.667 12 26s17.667 11 29 11zM-71 457l-53.001 -0.00195312
c-10 14.667 -18.333 31.834 -25 51.501s-10 38.834 -10 57.501c0 39.333 11.333 71 34 95s53 36 91 36c15.333 0 32.833 -1.83301 52.5 -5.5s32.167 -6.5 37.5 -8.5l-14 -52c-8.66699 5.33301 -18.667 9.33301 -30 12s-24.666 4 -39.999 4c-22 0 -39.5 -9.16699 -52.5 -27.5
s-19.5 -40.5 -19.5 -66.5c0 -22.667 4.33301 -44.667 13 -66c4 -10 9.33301 -20 16 -30z" />
    <glyph glyph-name="daggerdbl" unicode="&#x2021;" 
d="M-225 696c12 0 22.333 -3.66699 31 -11s13 -17 13 -29c0 -11.333 -4.33301 -20.666 -13 -27.999s-19 -11 -31 -11s-22.333 3.66699 -31 11s-13 17 -13 29c0 11.333 4.33301 20.666 13 27.999s19 11 31 11zM-226 518c-54.667 0 -99.335 13.833 -134.002 41.5
s-56.667 60.5 -66 98.5h79c6 -21.333 12.667 -37.333 20 -48c22.667 -32 57.334 -48 104.001 -48c40.667 0 73.334 16 98.001 48c8 10.667 16.333 26.667 25 48h77c-6.66699 -34 -29 -65.833 -67 -95.5s-83.333 -44.5 -136 -44.5z" />
    <glyph glyph-name="bullet" unicode="&#x2022;" horiz-adv-x="640" 
d="M315 85c-52 0 -97.166 16.333 -135.499 49s-57.5 73.667 -57.5 123c0 50 18.5 92.167 55.5 126.5s81.167 51.5 132.5 51.5s96.166 -16.5 134.499 -49.5s57.5 -73.833 57.5 -122.5c0 -50 -18.167 -92.167 -54.5 -126.5s-80.5 -51.5 -132.5 -51.5z" />
    <glyph glyph-name="ellipsis" unicode="&#x2026;" horiz-adv-x="219" 
d="M252 584c12 0 21.833 -3.5 29.5 -10.5s11.5 -15.833 11.5 -26.5c0 -11.333 -3.5 -20.5 -10.5 -27.5s-17.167 -10.5 -30.5 -10.5c-12 0 -21.833 3.5 -29.5 10.5s-11.5 16.167 -11.5 27.5c0 10 4 18.667 12 26s17.667 11 29 11zM206 697
c15.333 0 32.832 -1.83203 52.499 -5.49902s32.167 -6.5 37.5 -8.5l-14 -52c-8.66699 5.33301 -18.667 9.33301 -30 12s-24.666 4 -39.999 4c-22 0 -39.5 -9.16699 -52.5 -27.5s-19.5 -40.5 -19.5 -66.5c0 -16.667 1 -30.667 3 -42c4.66699 -27.333 7 -45.333 7 -54v-457
h-57v457c0 39.333 -8.66699 76.666 -26 111.999c-22.667 46.667 -53.667 70 -93 70c-23.333 0 -39.5 -5.66699 -48.5 -17s-13.5 -27 -13.5 -47c0 -18 4.33301 -39.667 13 -65c1.33301 -4 3.33301 -9 6 -15h-51c-6.66699 9.33301 -12.667 22.5 -18 39.5s-8 31.5 -8 43.5
c0 30.667 7.66699 54.667 23 72c20 23.333 53.333 35 100 35c44 0 82.333 -20 115 -60c6.66699 17.333 17 32 31 44c22 18.667 49.667 28 83 28z" />
    <glyph glyph-name="perthousand" unicode="&#x2030;" 
d="M-201 -91c39.333 0 71.333 -7.50098 96 -22.501s37 -38.167 37 -69.5c0 -47.333 -22.333 -79 -67 -95c-29.333 -10.667 -75.666 -16 -138.999 -16c-70.667 0 -134.334 11 -191.001 33s-99 49 -127 81l47 35c16.667 -22 57.667 -46.333 123 -73
c50.667 -20.667 99.667 -31 147 -31c39.333 0 71 3.66699 95 11c34.667 10.667 52 27.334 52 50.001c0 20 -8.5 34.667 -25.5 44s-39.167 14 -66.5 14c-18 0 -39 -6.66699 -63 -20c-7.33301 -4 -17.333 -10.667 -30 -20l-40 38c14.667 9.33301 37 18.5 67 27.5
s58.333 13.5 85 13.5z" />
    <glyph glyph-name="guilsinglleft" unicode="&#x2039;" horiz-adv-x="400" 
d="M400 -106h-400v39h400v-39z" />
    <glyph glyph-name="guilsinglright" unicode="&#x203a;" horiz-adv-x="600" 
d="M127 243c-7.33301 5.33301 -14.168 11.499 -20.501 18.499s-10.5 12.5 -12.5 16.5c-7.33301 12.667 -11 30 -11 52v176c0 17.333 -5.16699 32 -15.5 44s-22.166 18.667 -35.499 20s-22 3.83301 -26 7.5s-6 8.5 -6 14.5s2 11 6 15s10 6 18 6c25.333 0 47 -8.33301 65 -25
c23.333 -22 35 -49.333 35 -82v-176c0 -18.667 5.33301 -33.667 16 -45c9.33301 -11.333 20.833 -17.666 34.5 -18.999s22.334 -4 26.001 -8s5.5 -9 5.5 -15s-1.83301 -10.667 -5.5 -14s-10.167 -6 -19.5 -8c-8 0 -15.333 -1.66699 -22 -5s-13 -8.33301 -19 -15
c-10.667 -11.333 -16 -26.333 -16 -45v-176c0 -30.667 -10 -56 -30 -76c-18.667 -20.667 -42 -31 -70 -31c-6.66699 0 -12.334 2 -17.001 6s-7 9 -7 15s1.66699 10.667 5 14s10.333 5.66602 21 6.99902c16 0 29.333 7 40 21c11.333 11.333 17 26 17 44v176
c0 22 3.33301 38.833 10 50.5s18 23.834 34 36.501z" />
    <glyph glyph-name="trademark" unicode="&#x2122;" horiz-adv-x="380" 
d="M255 596v-738h-225v42h167v654h-167v42h225z" />
    <glyph glyph-name=".null" horiz-adv-x="0" 
 />
    <glyph glyph-name="nonmarkingreturn" horiz-adv-x="280" 
 />
  </font>
</defs>
</svg>
