<?xml version="1.0" standalone="no"?>
<!DOCTYPE svg PUBLIC "-//W3C//DTD SVG 1.1//EN" "http://www.w3.org/Graphics/SVG/1.1/DTD/svg11.dtd" >
<svg>
<metadata>
Created by FontForge 20090914 at Sat May 23 15:20:00 2020
 By www-data
Generated by Fontographer 3.5
</metadata>
<defs>
<font id="TERAFONT-VARUN" horiz-adv-x="539" >
  <font-face 
    font-family="TERAFONT-VARUN"
    font-weight="400"
    font-stretch="normal"
    units-per-em="1000"
    panose-1="0 0 0 0 0 0 0 0 0 0"
    ascent="800"
    descent="-200"
    x-height="289"
    cap-height="532.002"
    bbox="-506 -271 942.999 828"
    underline-thickness="50"
    underline-position="-75"
    unicode-range="U+0020-U+2122"
  />
<missing-glyph horiz-adv-x="729" 
d="M45 0v729h639v-729h-639zM639 45v639h-549v-639h549z" />
    <glyph glyph-name=".notdef" horiz-adv-x="729" 
d="M45 0v729h639v-729h-639zM639 45v639h-549v-639h549z" />
    <glyph glyph-name="space" unicode=" " horiz-adv-x="225" 
 />
    <glyph glyph-name="exclam" unicode="!" 
d="M277 311c-4.66699 -4 -8.66699 -6.99805 -12 -8.99805c-12 -6 -27.333 -9 -46 -9c-37.333 0 -67 9.33301 -89 28c-25.333 21.333 -38 51.666 -38 90.999c0 34.667 12.5 65.5 37.5 92.5s53.5 40.5 85.5 40.5c32.667 0 62 -8.5 88 -25.5s39 -39.833 39 -68.5v-385
c0.666992 -3.33301 1.66699 -6.66602 3 -9.99902s5.33301 -5 12 -5c14.667 0 31.667 11.667 51 35c2.66699 3.33301 6.66699 8.66602 12 15.999l33 -39c-6 -12.667 -11.667 -22 -17 -28c-17.333 -19.333 -40.333 -29 -69 -29c-17.333 0 -36 10.333 -56 31
c-22.667 23.333 -34 46.666 -34 69.999v204zM279 371.002l0.000976562 111c0 5.33301 -1.66699 9.33301 -5 12s-11.333 4 -24 4c-20.667 0 -43.334 -12 -68.001 -36c-27.333 -26.667 -41 -55 -41 -85c0 -14 5 -25.333 15 -34s21.667 -13 35 -13c12.667 0 31 6.66699 55 20
c8 4 19 11 33 21z" />
    <glyph glyph-name="quotedbl" unicode="&#x22;" horiz-adv-x="6" 
d="M-121 502l-39 16.001c-4.66699 2.66699 -13.667 14 -27 34c-31.333 48 -47 90 -47 126c0 29.333 10.5 54.166 31.5 74.499s50.833 30.5 89.5 30.5c12 0 32.667 -6.33301 62 -19c24.667 -10.667 39 -18 43 -22l-2 -29c-8.66699 6.66699 -19.5 12 -32.5 16
s-25.167 6 -36.5 6c-28 0 -51.833 -8 -71.5 -24s-29.5 -39.333 -29.5 -70c0 -21.333 6.5 -46.5 19.5 -75.5s26.167 -50.167 39.5 -63.5z" />
    <glyph glyph-name="numbersign" unicode="#" 
d="M150 449l-27.002 55.001c24.667 8 44.334 14 59.001 18c46 12.667 81.667 19 107 19c44.667 0 85 -12.667 121 -38c39.333 -28 59 -63 59 -105c0 -32.667 -10.667 -61.334 -32 -86.001c-6.66699 -8 -17.667 -17 -33 -27c20 -20 37.167 -43.167 51.5 -69.5
s21.5 -51.833 21.5 -76.5c0 -30.667 -14.833 -60.167 -44.5 -88.5s-64.5 -42.5 -104.5 -42.5c-45.333 0 -93 20.333 -143 61c-35.333 29.333 -70.333 67.666 -105 114.999c-27.333 38 -41 60 -41 66l20 20c0 -36 32 -83 96 -141c46.667 -42 97.334 -63 152.001 -63
c31.333 0 57.666 10.333 78.999 31s32 47 32 79c0 25.333 -7 48.666 -21 69.999c-4.66699 6.66699 -12 15 -22 25c-8.66699 -3.33301 -15.667 -5.66602 -21 -6.99902c-16.667 -5.33301 -30 -9.33301 -40 -12l-64 -8l-31 63c18 0.666992 32.333 1 43 1
c31.333 2 56.833 5.33301 76.5 10s38.834 15.667 57.501 33c22.667 20.667 34 41.667 34 63c0 22.667 -11.333 40.334 -34 53.001s-46.667 19 -72 19c-28 0 -65 -6 -111 -18c-15.333 -4 -36.333 -10.333 -63 -19z" />
    <glyph glyph-name="dollar" unicode="$" 
d="M12 506l25.0049 29l117 -94c15.333 -12.667 38.666 -34 69.999 -64c26 -24.667 40 -38.334 42 -41.001l30 31c22.667 22.667 41.667 40.5 57 53.5l81 65.5l48 37l32 -58l-43 -33c-34 -26 -59.333 -46.333 -76 -61l-86 -82c19.333 -24.667 33.666 -44.667 42.999 -60
c29.333 -47.333 44 -86.666 44 -117.999c0 -29.333 -10.667 -55.333 -32 -78c-24.667 -26 -57.334 -39 -98.001 -39c-34.667 0 -64.167 13.167 -88.5 39.5s-36.5 56.166 -36.5 89.499c0 37.333 17 80.333 51 129c11.333 16 28.666 36.667 51.999 62l-58 56
c-22.667 21.333 -41 37.333 -55 48c-22.667 18.667 -52.667 41.334 -90 68.001c-16.667 12 -26.334 18.667 -29.001 20zM287.005 262c-20.667 -23.333 -36.001 -41.999 -46.001 -55.999c-30.667 -42.667 -46 -77.334 -46 -104.001c0 -27.333 6 -46 18 -56
c8.66699 -7.33301 22.334 -11 41.001 -11c26.667 0 48 10.5 64 31.5s24 45.167 24 72.5c0 21.333 -5.33301 43.333 -16 66c-15.333 32.667 -28.333 51.667 -39 57z" />
    <glyph glyph-name="percent" unicode="%" horiz-adv-x="320" 
d="M320 201c-8 -8 -22.333 -16.3311 -43 -24.998c-16 -6.66699 -30.333 -10 -43 -10c-32 0 -60.667 12 -86 36c-37.333 35.333 -56 68.333 -56 99v191c-0.666992 3.33301 -1 6.66602 -1 9.99902c-1.33301 4 -6.33301 6 -15 6c-7.33301 0 -19.5 -11.833 -36.5 -35.5
s-25.5 -37.167 -25.5 -40.5v99c8.66699 3.33301 15.667 5.66602 21 6.99902c16 4.66699 29 7 39 7c18 0 36.333 -8.66699 55 -26c16.667 -15.333 25 -28.333 25 -39v-220c0 -7.33301 4.33301 -16 13 -26c6 -7.33301 12.333 -11 19 -11c28 0 58.667 9 92 27
c10.667 6 24.667 15 42 27v-76z" />
    <glyph glyph-name="ampersand" unicode="&#x26;" 
d="M88 25l21 66.999c6 -6 16.667 -12.167 32 -18.5s28.333 -9.5 39 -9.5c24.667 0 48 12.667 70 38c32.667 38 49 67.667 49 89c-14.667 3.33301 -26.334 7.33301 -35.001 12c-52 28.667 -78 85.334 -78 170.001c0 48 15.667 89 47 123s69.666 51 114.999 51
c16 0 37.333 -3 64 -9c8.66699 -2 20.334 -5 35.001 -9l-21 -62c-24 14.667 -54 22 -90 22c-34.667 0 -62.667 -7 -84 -21c-26 -16.667 -39 -40.667 -39 -72c0 -47.333 16.667 -84.333 50 -111c10.667 -8.66699 27.667 -17.667 51 -27c6.66699 23.333 24 35 52 35
c16 0 30 -4.5 42 -13.5s18 -21.5 18 -37.5c0 -20 -7.16699 -35.333 -21.5 -46s-31.166 -16 -50.499 -16c-10.667 0 -20 1.33301 -28 4c0 -18.667 -12.333 -50 -37 -94c-32.667 -58.667 -69.667 -88 -111 -88c-16 0 -35.667 3.66699 -59 11c-8 2 -18.333 6 -31 12z" />
    <glyph glyph-name="quotesingle" unicode="'" horiz-adv-x="6" 
d="M-43 -68c-14 1.33301 -24.9951 1.99902 -32.9951 1.99902c-32 2 -52.333 3 -61 3c-22 0 -42.167 -5.66699 -60.5 -17s-27.5 -26.333 -27.5 -45c0 -20 13.667 -36 41 -48s58.666 -18 93.999 -18c23.333 0 45.166 3.16699 65.499 9.5s32.5 11.5 36.5 15.5l29 -59
c-14.667 -4.66699 -26.334 -8 -35.001 -10c-29.333 -7.33301 -53.333 -11 -72 -11c-50.667 0 -95.334 11.667 -134.001 35c-42.667 26 -64 59.333 -64 100c0 34.667 14.5 60.834 43.5 78.501s62.833 26.5 101.5 26.5c17.333 0 33.666 -2 48.999 -6z" />
    <glyph glyph-name="parenleft" unicode="(" 
d="M398 533l50.998 -43.002l-295 -295c-3.33301 -3.33301 -7.33301 -12.166 -12 -26.499s-7 -31.5 -7 -51.5c4.66699 -27.333 15.334 -46.666 32.001 -57.999c14 -9.33301 33.333 -14 58 -14c32.667 0 70.667 10.667 114 32c36 18 55.667 30 59 36l36 -54
c-10.667 -10.667 -39.334 -24 -86.001 -40c-33.333 -11.333 -62.666 -17 -87.999 -17c-49.333 0 -89.666 12.667 -120.999 38c-34 27.333 -51 64 -51 110c0 23.333 3.33301 44.333 10 63c4.66699 14 11 25.667 19 35z" />
    <glyph glyph-name="parenright" unicode=")" 
d="M207 531l37.001 -57.999c-33.333 -11.333 -72.333 -45 -117 -101c-35.333 -44 -53 -87.333 -53 -130c0 -56.667 18.5 -101 55.5 -133s84.167 -48 141.5 -48c29.333 0 62 5.66699 98 17c20 6 37 12.667 51 20l62 -49c-24 -10 -43 -17.333 -57 -22
c-45.333 -15.333 -81 -23 -107 -23c-78.667 0 -145.167 23.833 -199.5 71.5s-81.5 107.834 -81.5 180.501c0 53.333 17.333 105.666 52 156.999c45.333 67.333 84.666 106.666 117.999 117.999zM455.001 418.001l49 -47l-240 -158l-49 27z" />
    <glyph glyph-name="asterisk" unicode="*" 
d="M27 357l25.999 15.999c0 -69.333 25 -137.666 75 -204.999c41.333 -56 92.333 -84 153 -84c54.667 0 97 21.833 127 65.5s45 100.5 45 170.5c0 12.667 -4.33301 31.667 -13 57c-1.33301 4 -3.33301 9.33301 -6 16c0 -10 -14.333 -31.667 -43 -65
c-35.333 -41.333 -68.666 -62 -99.999 -62c-37.333 0 -68.5 16.333 -93.5 49s-37.5 68.334 -37.5 107.001c0 30.667 12.833 57.167 38.5 79.5s57.167 33.5 94.5 33.5c60 0 110.667 -30 152 -90c36.667 -53.333 55 -110 55 -170c0 -66 -21.833 -125.667 -65.5 -179
s-93.5 -80 -149.5 -80c-64.667 0 -120.667 35.333 -168 106c-60 89.333 -90 167.666 -90 234.999zM417.999 421.999c-4 8 -12.333 16.668 -25 26.001c-20.667 15.333 -44.334 23 -71.001 23c-30 0 -57 -7.83301 -81 -23.5s-36 -37.167 -36 -64.5
c0 -20.667 6.33301 -37.334 19 -50.001s31.667 -19 57 -19c30.667 0 62.667 18 96 54c10.667 12 24.334 30 41.001 54z" />
    <glyph glyph-name="plus" unicode="+" horiz-adv-x="605" 
d="M0 381l47.998 23.999c36.667 15.333 70.667 23 102 23c38.667 0 89.334 -23 152.001 -69c20.667 -15.333 48.334 -38.666 83.001 -69.999l-256 -211l-47 51l234 174c-6.66699 12.667 -29.667 29 -69 49c-30.667 15.333 -61 24.333 -91 27c-18 0 -44 -9.33301 -78 -28
c-30 -16.667 -47 -27.667 -51 -33zM384.998 528.999l61.999 -54v-418c0 -14.667 5.33301 -22 16 -22c14 0 28 8.66699 42 26c4.66699 5.33301 10.334 14.333 17.001 27l35 -37c-8.66699 -12.667 -15.667 -22 -21 -28c-18 -19.333 -36.667 -29 -56 -29
c-24 0 -45.833 10.167 -65.5 30.5s-29.5 43.5 -29.5 69.5v435z" />
    <glyph glyph-name="comma" unicode="," horiz-adv-x="551" 
d="M371 355l0.000976562 174l63 -54v-418c0 -14.667 5 -22 15 -22c14 0 27.667 9.33301 41 28c4 6 9.33301 15.667 16 29l37 -41c-8 -12.667 -14.667 -22 -20 -28c-18 -19.333 -36.667 -29 -56 -29c-24.667 0 -46.834 10.167 -66.501 30.5s-29.5 43.5 -29.5 69.5v209
l-86 -33c-12 -4 -33 -9.66699 -63 -17c-8.66699 -2 -20.667 -5 -36 -9l-28 67c32 0 66.667 4.83301 104 14.5zM203.001 508l-14.001 21l30 12l51 -88c-14.667 -3.33301 -26 -6.33301 -34 -9c-22.667 -7.33301 -42.667 -15.333 -60 -24c-30 -16.667 -54.333 -34.667 -73 -54
c-28 -28.667 -42 -59 -42 -91c0 -38.667 15 -73.667 45 -105s66.333 -47 109 -47c11.333 0 23.333 0.333008 36 1s24.667 1.66699 36 3l41 -64c-13.333 -2.66699 -29.166 -5 -47.499 -7s-33.166 -3 -44.499 -3c-50.667 0 -98.334 21.667 -143.001 65
c-48 46.667 -72 101 -72 163c0 42.667 10.333 80.667 31 114s54 62.333 100 87z" />
    <glyph glyph-name="hyphen" unicode="-" horiz-adv-x="416" 
d="M143 451l-29.999 59c19.333 13.333 43.333 20 72 20c30.667 0 57.334 -8.16699 80.001 -24.5s34 -39.5 34 -69.5c0 -40.667 -21 -73.667 -63 -99l-117 -59c-42.667 -26 -64 -59.333 -64 -100c0 -30 11.5 -55.833 34.5 -77.5s49.833 -32.5 80.5 -32.5
c7.33301 0 15.166 0.833008 23.499 2.5s16.166 3.5 23.499 5.5c-10 5.33301 -21 18 -33 38c-9.33301 16 -14 31.333 -14 46c0 27.333 9.66699 49.166 29 65.499s43.333 24.5 72 24.5c26 0 48.167 -10.167 66.5 -30.5s27.5 -44.166 27.5 -71.499
c0 -39.333 -16.333 -72.333 -49 -99c-30 -24.667 -64.333 -37 -103 -37c-53.333 0 -98.666 18.667 -135.999 56s-56 81.666 -56 132.999c0 36.667 13.667 69.667 41 99c21.333 22.667 52.666 44.334 93.999 65.001l71 28c24.667 12 37 27 37 45c0 23.333 -15 35 -45 35
c-11.333 0 -27.333 -3.66699 -48 -11c-6.66699 -2 -16 -5.66699 -28 -11zM246.001 82c10.667 4 18.999 7.66602 24.999 10.999c38 20.667 57 46.334 57 77.001c0 10 -4 18.667 -12 26s-17 11 -27 11c-19.333 0 -35.833 -7.5 -49.5 -22.5s-20.5 -31.5 -20.5 -49.5
c0 -10 4.33301 -21.667 13 -35c2.66699 -4 7.33398 -10 14.001 -18z" />
    <glyph glyph-name="period" unicode="." 
d="M309 590c0 -36 14.668 -76.667 44.001 -122l82 -121c29.333 -51.333 44 -102.666 44 -153.999c0 -67.333 -16.5 -118.333 -49.5 -153s-78.5 -52 -136.5 -52c-50.667 0 -95.834 16.833 -135.501 50.5s-59.5 72.167 -59.5 115.5c0 23.333 4.83301 45 14.5 65
s20.834 34.333 33.501 43c-22 14.667 -38.333 27.334 -49 38.001c-33.333 33.333 -50 67.333 -50 102c0 24 14.333 47 43 69c23.333 18 39 27 47 27l-14 27l25 12l45 -86c-18.667 0 -39.667 -9.33301 -63 -28c-18.667 -14.667 -28 -32 -28 -52c0 -18.667 6 -35.667 18 -51
c17.333 -22 33.333 -33 48 -33c9.33301 8 19.166 14.5 29.499 19.5s20.833 7.5 31.5 7.5l31 -56c-22 0 -48 -14.667 -78 -44c-24 -23.333 -36 -50.333 -36 -81c0 -32.667 11.667 -58.167 35 -76.5s52.333 -27.5 87 -27.5c44.667 0 81.5 16 110.5 48s43.5 71.333 43.5 118
c0 64.667 -14.667 123.667 -44 177l-82 121c-29.333 45.333 -44 90.666 -44 135.999c0 40 12.833 73.167 38.5 99.5s60.5 39.5 104.5 39.5c50.667 0 91 -25.333 121 -76c10 -16.667 20.333 -42.334 31 -77.001l-24 -13c-8 24.667 -16 43 -24 55c-24 37.333 -55 56 -93 56
c-27.333 0 -50.333 -12 -69 -36s-28 -53 -28 -87z" />
    <glyph glyph-name="slash" unicode="/" horiz-adv-x="574" 
d="M309 336c0 -50.667 -5.99902 -89.334 -17.999 -116.001c-19.333 -44 -54.333 -66 -105 -66c-45.333 0 -83.166 19.833 -113.499 59.5s-45.5 84.5 -45.5 134.5c0 55.333 12.667 100.333 38 135l42 40l-11 26l29 10l41 -84
c-10.667 -2.66699 -28.334 -19.334 -53.001 -50.001c-31.333 -38.667 -47 -75 -47 -109c3.33301 -34.667 14.166 -64.5 32.499 -89.5s42.166 -37.5 71.499 -37.5c27.333 0 47 12 59 36c10 20 15 45.667 15 77c0 16 -1.16699 32.5 -3.5 49.5s-4.5 28.167 -6.5 33.5
c0 38.667 7.66699 71.334 23 98.001c21.333 37.333 56 56 104 56c29.333 0 54.333 -11 75 -33c15.333 -16.667 23 -29.667 23 -39v-410c0 -14.667 4.66699 -22 14 -22c13.333 0 27 8.66699 41 26c4.66699 5.33301 10.334 14.333 17.001 27l37 -37
c-8 -12.667 -14.667 -22 -20 -28c-18 -19.333 -36.667 -29 -56 -29c-24.667 0 -47 10 -67 30s-30 43.333 -30 70v381c0 5.33301 -2.66699 11 -8 17c-8 9.33301 -19 14 -33 14c-20 0 -34 -7.66699 -42 -23s-12 -35 -12 -59c0 -16.667 1 -32.667 3 -48s4 -28.666 6 -39.999z
" />
    <glyph glyph-name="zero" unicode="0" horiz-adv-x="424" 
d="M18 174l29.001 17c0 -24 20.667 -53.333 62 -88c32 -26.667 67.333 -40 106 -40c20.667 0 37.5 6.16699 50.5 18.5s19.5 29.5 19.5 51.5c0 28.667 -17 60 -51 94l-111 103c0 11.333 14.5 37.166 43.5 77.499s45.833 61.5 50.5 63.5l-53 43l18 21l93 -82l-95 -140
c34.667 -29.333 60.667 -53 78 -71c52 -55.333 78 -102.666 78 -141.999c0 -30.667 -9.33301 -54.667 -28 -72s-41.334 -26 -68.001 -26c-44 0 -94 28 -150 84c-48 48 -72 77.333 -72 88z" />
    <glyph glyph-name="one" unicode="1" horiz-adv-x="305" 
d="M252 -4c-5.33301 9.33301 -9.33008 16.999 -11.9971 22.999c-10.667 20 -17.667 34.667 -21 44l-22 54c-2 -0.666992 -4 -1 -6 -1c-16 -3.33301 -33.333 -5 -52 -5c-23.333 2 -47.5 17.833 -72.5 47.5s-37.5 59.5 -37.5 89.5c0 24.667 9.33301 49 28 73
c25.333 32.667 48 51.334 68 56.001c-12.667 10 -22 18.333 -28 25c-19.333 22 -29 43.667 -29 65c0 22.667 9.66699 41.334 29 56.001s41.666 22 66.999 22c28 0 52.333 -9.66699 73 -29s31 -43 31 -71c0 -26 -9 -48 -27 -66c-19.333 -14 -29.333 -21.333 -30 -22
c8 -2.66699 14.333 -4.33398 19 -5.00098c16 -4 27.333 -6 34 -6c19.333 0 43.333 9.33301 72 28c4.66699 2.66699 10.667 7 18 13v-71c-10 -2.66699 -17.667 -4.33398 -23 -5.00098c-20 -4 -34 -6 -42 -6c-21.333 0 -48.666 7.33301 -81.999 22
c-16 8.66699 -24.333 13 -25 13c-24 -13.333 -41.667 -24.666 -53 -33.999c-35.333 -28 -53 -55.667 -53 -83c0 -22.667 7 -39.5 21 -50.5s32.333 -16.5 55 -16.5c3.33301 0 7.16602 0.666992 11.499 2l12.5 4c0 22 6.16699 40.833 18.5 56.5s28.166 23.5 47.499 23.5
c11.333 0 20.666 -5 27.999 -15s11 -22 11 -36c0 -15.333 -8.66699 -30.333 -26 -45c-5.33301 -4.66699 -14 -10.334 -26 -17.001l25 -57c5.33301 -9.33301 13 -20.666 23 -33.999c8 -10.667 14 -18 18 -22zM158.003 392.999c16.667 0 30.834 7.50098 42.501 22.501
s17.5 30.833 17.5 47.5c0 14 -3.83301 25.333 -11.5 34s-19.834 13 -36.501 13c-15.333 0 -27.5 -5.5 -36.5 -16.5s-13.5 -24.5 -13.5 -40.5c0 -14.667 3.16699 -27.334 9.5 -38.001s15.833 -18 28.5 -22z" />
    <glyph glyph-name="two" unicode="2" horiz-adv-x="564" 
d="M112 134l-31 31l165 165l-162 162l30 30l162 -162l163 163l30 -31l-162 -162l164 -164l-31 -31l-164 164z" />
    <glyph glyph-name="three" unicode="3" horiz-adv-x="475" 
d="M295 534l63.998 -54.001v-423c0 -14.667 4.66699 -22 14 -22c14 0 27.667 9.33301 41 28c4 6 9.33301 15.667 16 29l37 -41c-8 -12.667 -14.667 -22 -20 -28c-18 -19.333 -36.667 -29 -56 -29c-24.667 0 -46.834 10.167 -66.501 30.5s-29.5 43.5 -29.5 69.5v97
c-9.33301 -9.33301 -28.666 -20.333 -57.999 -33c-23.333 -10 -43.666 -15 -60.999 -15c-38 0 -69.667 14.333 -95 43s-38 61.334 -38 98.001c0 16 1.83301 30 5.5 42s10.167 24.333 19.5 37c-2.66699 0 -8.33398 6.66699 -17.001 20c-22 32.667 -33 64.667 -33 96
c0 14 5.83301 27.5 17.5 40.5s23.167 19.5 34.5 19.5h98l25 -59h-111c-7.33301 0 -13 -3.83301 -17 -11.5s-6 -16.834 -6 -27.501c0 -10 2.66699 -21 8 -33c8.66699 -18.667 16.334 -29 23.001 -31c22 7.33301 46.333 11 73 11l32 -1l30 -57l-35 3
c-29.333 0 -53.666 -4.66699 -72.999 -14c-24.667 -12 -37 -29.667 -37 -53c0 -25.333 9 -43 27 -53c14 -8 35 -12 63 -12c27.333 0 56.333 13.667 87 41c10 8.66699 22.667 22.334 38 41.001v251z" />
    <glyph glyph-name="four" unicode="4" horiz-adv-x="332" 
d="M176 -8c-12.667 0 -23.333 2.66797 -32 8.00098c-15.333 9.33301 -23 24.333 -23 45c0 16 5.5 28.5 16.5 37.5s23.833 13.5 38.5 13.5c15.333 0 28 -4.33301 38 -13s15 -21.334 15 -38.001c0 -49.333 -9.66699 -93 -29 -131c-26.667 -53.333 -51 -80 -73 -80l-22 25
c23.333 10 41 28 53 54s18 52.333 18 79z" />
    <glyph glyph-name="five" unicode="5" horiz-adv-x="525" 
d="M47 424l-40.999 58.001c10.667 12.667 19.334 22 26.001 28c21.333 19.333 40.666 29 57.999 29c25.333 0 48.666 -15.667 69.999 -47c17.333 -26 26 -46.667 26 -62v-180c6 -6 13.667 -11.333 23 -16s17.333 -7 24 -7c30.667 0 59.334 5.33301 86.001 16
c4.66699 1.33301 10.334 4.33301 17.001 9v283l67 -45v-422c0 -13.333 4.66699 -21 14 -23c11.333 0 22.666 8.66699 33.999 26c3.33301 5.33301 8 14.333 14 27l41 -39c-4 -8 -7.33301 -14 -10 -18c-19.333 -27.333 -42 -41 -68 -41c-19.333 2 -38.333 11 -57 27
c-22 18 -33 37.667 -33 59v100c-2 -1.33301 -7.33301 -3.33301 -16 -6c-22.667 -6.66699 -45.334 -10 -68.001 -10c-12.667 0 -37 13 -73 39c-40.667 29.333 -61 55.333 -61 78v190c-0.666992 3.33301 -1.66699 5.66602 -3 6.99902c-4.66699 5.33301 -11.667 8 -21 8
c-4 0 -13.333 -11.333 -28 -34z" />
    <glyph glyph-name="six" unicode="6" horiz-adv-x="610" 
d="M410 529l65 -53.999v-418c0 -14.667 4.33301 -22 13 -22c16 0 32.667 11 50 33c2.66699 3.33301 6.33398 8.66602 11.001 15.999l33 -33c-8 -12.667 -14.667 -22 -20 -28c-18 -19.333 -36.667 -29 -56 -29c-24.667 0 -46.834 10.167 -66.501 30.5s-29.5 43.5 -29.5 69.5
v435zM27 531.001l64.999 -47.001v-271c14.667 0 57 -19.333 127 -58c78 -43.333 117 -78 117 -104c0 -20 -4.66699 -34.667 -14 -44c-13.333 -14 -38 -21 -74 -21c-21.333 0 -46.333 5.83301 -75 17.5s-44 19.5 -46 23.5l12 32c11.333 -7.33301 20.333 -12.666 27 -15.999
c22.667 -12 43 -18.667 61 -20c14.667 0 25.334 1.83301 32.001 5.5s12.667 12.5 18 26.5l2 8c0 23.333 -39.667 54 -119 92c-72 34.667 -116.333 52 -133 52v324zM173.999 447l-30.998 59.0029c9.33301 7.33301 21 13.666 35 18.999s27 8 39 8c42 0 76.333 -21.333 103 -64
c23.333 -38 35 -81.667 35 -131c0 -28.667 -7.66699 -54.334 -23 -77.001c-20.667 -30.667 -49.334 -46 -86.001 -46c-26 0 -48.333 9.33301 -67 28c-24 24 -36 45.333 -36 64l23 17c6.66699 -18 14.334 -30.667 23.001 -38c11.333 -10 27.666 -15 48.999 -15
c24 0 42.667 10.167 56 30.5s20 44.833 20 73.5s-4.66699 52 -14 70c-11.333 22.667 -29.333 34 -54 34c-10 0 -21.333 -3 -34 -9c-18.667 -8.66699 -31.334 -16.334 -38.001 -23.001z" />
    <glyph glyph-name="seven" unicode="7" horiz-adv-x="595" 
d="M342 18c-10 -6.66699 -18.332 -11.334 -24.999 -14.001c-20.667 -9.33301 -41.667 -14 -63 -14c-31.333 0 -58.666 16.333 -81.999 49c-7.33301 10.667 -16 27 -26 49l-39 -2c-16 0 -29.167 6.5 -39.5 19.5s-15.5 27.167 -15.5 42.5c0 14 3.83301 25.333 11.5 34
s19.834 13 36.501 13c11.333 0 23.333 -7 36 -21c4 -4.66699 9.33301 -12 16 -22c22 0 43 6 63 18c23.333 14 35 31 35 51c0 16 -3.33301 27 -10 33s-16.667 9 -30 9c-6.66699 0 -17 -1.16699 -31 -3.5s-23 -3.5 -27 -3.5c-32 0 -59.833 12.5 -83.5 37.5
s-35.5 53.5 -35.5 85.5s11.5 58.5 34.5 79.5s50.5 31.5 82.5 31.5c39.333 0 75.5 -16.167 108.5 -48.5s56.167 -48.5 69.5 -48.5c10.667 0 26 4.33301 46 13c3.33301 1.33301 7.66602 3.33301 12.999 6v-70c-8 -3.33301 -14.333 -5.66602 -19 -6.99902
c-14.667 -4.66699 -26.667 -7 -36 -7c-24.667 0 -58 18.333 -100 55s-77 55 -105 55c-19.333 0 -34.333 -6 -45 -18s-16 -26.333 -16 -43c0 -17.333 5.66699 -32.333 17 -45s26.666 -19 45.999 -19c18.667 0 35 0.666992 49 2l31 3c14 0 30.667 -9.33301 50 -28
c22.667 -22 34 -46.333 34 -73c0 -28 -18 -58 -54 -90c-29.333 -26 -48.333 -39 -57 -39c2.66699 -5.33301 8 -12 16 -20c11.333 -11.333 21.666 -17 30.999 -17c14.667 0 30 2.5 46 7.5s25.333 8.83301 28 11.5zM387.001 509l61.999 -54v-418c0 -14.667 5.33301 -22 16 -22
c14 0 28 8.66699 42 26c4.66699 5.33301 10.334 14.333 17.001 27l35 -37c-8.66699 -12.667 -15.667 -22 -21 -28c-18 -19.333 -36.667 -29 -56 -29c-23.333 0 -45 12 -65 36s-30 49.333 -30 76v423z" />
    <glyph glyph-name="eight" unicode="8" horiz-adv-x="402" 
d="M121 457l-42.999 52.998c12.667 6 23.334 10.333 32.001 13c27.333 9.33301 52 14 74 14c39.333 0 74.166 -11.667 104.499 -35s45.5 -53.333 45.5 -90c0 -31.333 -7.66699 -57 -23 -77c-12.667 -16 -48.667 -39.667 -108 -71l-85 -44c-26.667 -18 -40 -41.333 -40 -70
c0 -23.333 10.5 -43.666 31.5 -60.999s44.5 -26 70.5 -26c35.333 0 74.333 12.667 117 38c36.667 22 55 36 55 42l39 -59c-16.667 -16.667 -42.334 -32.5 -77.001 -47.5s-67 -22.5 -97 -22.5c-50 0 -94.167 15.333 -132.5 46s-57.5 69.334 -57.5 116.001
c0 40 21.667 74.333 65 103c14 9.33301 38.667 23 74 41l88 40c30 16.667 45 38 45 64c0 18 -8.83301 31.833 -26.5 41.5s-37.5 14.5 -59.5 14.5c-15.333 0 -35 -3.66699 -59 -11c-8 -2 -19 -6 -33 -12z" />
    <glyph glyph-name="nine" unicode="9" horiz-adv-x="398" 
d="M225 529l-10.001 18l25 10l45 -82c-26.667 -6 -46.667 -11.333 -60 -16c-40.667 -15.333 -61 -34.333 -61 -57c0 -25.333 13.333 -47 40 -65l81 -48c24 -18 42 -35.667 54 -53c16 -22.667 24 -47.334 24 -74.001c0 -44 -18.167 -81.667 -54.5 -113
s-77.166 -47 -122.499 -47s-83.833 15.833 -115.5 47.5s-47.5 69.834 -47.5 114.501c0 40 18 73.333 54 100c42 31.333 82 47 120 47c-20 15.333 -34.667 27.666 -44 36.999c-29.333 29.333 -44 56 -44 80c0 20.667 11.333 40.334 34 59.001c34.667 28 62 42 82 42z
M140.999 57c43.333 0 83.332 11.667 119.999 35c40.667 26 61 57.333 61 94c0 21.333 -7.66699 38 -23 50s-36.333 18 -63 18c-40.667 0 -79.167 -12 -115.5 -36s-54.5 -53 -54.5 -87c0 -20 7.33301 -37.333 22 -52s32.334 -22 53.001 -22z" />
    <glyph glyph-name="colon" unicode=":" horiz-adv-x="324" 
d="M375 232c-1.33301 -0.666992 -10.168 -1.66699 -26.501 -3s-29.5 -2 -39.5 -2c-5.33301 0 -19 7.66699 -41 23c-7.33301 4.66699 -18 12.334 -32 23.001c-8 -10.667 -16.833 -21.5 -26.5 -32.5s-18.167 -18.833 -25.5 -23.5c-4 -4 -11 -9 -21 -15l-30 -18
c9.33301 -25.333 17.333 -44.333 24 -57c21.333 -38.667 44 -59.667 68 -63c13.333 0 29 2.33301 47 7c6 1.33301 13.667 3.66602 23 6.99902l14 -72c-8.66699 -2 -19 -3.83301 -31 -5.5s-26 -2.5 -42 -2.5c-36 4 -69 35 -99 93c-10 19.333 -21.667 48.333 -35 87
c-26.667 0 -46.667 3 -60 9c-21.333 9.33301 -32 26.333 -32 51c0 14 5.66699 25.333 17 34s24 13 38 13c10.667 0 20 -2.5 28 -7.5s13.333 -12.833 16 -23.5c21.333 0 44 14.333 68 43c20 24 30 52.667 30 86c0 29.333 -8 51.333 -24 66s-36.667 22 -62 22
c-13.333 0 -30.666 -4.66699 -51.999 -14c-6.66699 -2.66699 -16 -7.33398 -28 -14.001l-29 67c21.333 10.667 44.333 16 69 16c45.333 0 85.5 -16.833 120.5 -50.5s52.5 -75.5 52.5 -125.5c0 -6.66699 -1.66699 -15.667 -5 -27
c-0.666992 -3.33301 -2.33398 -8.66602 -5.00098 -15.999c6.66699 -3.33301 13.334 -6.33301 20.001 -9c15.333 -6 27 -9 35 -9c12 0 24.333 2.33301 37 7c23.333 8.66699 36.333 16 39 22v-86z" />
    <glyph glyph-name="semicolon" unicode=";" horiz-adv-x="555" 
d="M375 318v211l64 -54v-418c0 -14.667 4.66699 -22 14 -22c14.667 0 28.667 9.33301 42 28c4 6 9 15.667 15 29l37 -41c-8 -12.667 -14.667 -22 -20 -28c-18 -19.333 -36.667 -29 -56 -29c-24.667 0 -46.834 10.167 -66.501 30.5s-29.5 43.5 -29.5 69.5v138
c-1.33301 -0.666992 -10.166 -1.66699 -26.499 -3s-29.5 -2 -39.5 -2c-5.33301 0 -19 7.66699 -41 23c-7.33301 4.66699 -18 12.334 -32 23.001c-8 -10.667 -16.833 -21.5 -26.5 -32.5s-18.167 -18.833 -25.5 -23.5c-4 -4 -11 -9 -21 -15l-30 -18
c9.33301 -25.333 17.333 -44.333 24 -57c21.333 -38.667 44 -59.667 68 -63c13.333 0 29 2.33301 47 7c6 1.33301 13.667 3.66602 23 6.99902l14 -72c-8.66699 -2 -19 -3.83301 -31 -5.5s-26 -2.5 -42 -2.5c-36 4 -69 35 -99 93c-10 19.333 -21.667 48.333 -35 87
c-26.667 0 -46.667 3 -60 9c-21.333 9.33301 -32 26.333 -32 51c0 14 5.66699 25.333 17 34s24 13 38 13c10.667 0 20 -2.5 28 -7.5s13.333 -12.833 16 -23.5c21.333 0 44 14.333 68 43c20 24 30 52.667 30 86c0 29.333 -8 51.333 -24 66s-36.667 22 -62 22
c-13.333 0 -30.666 -4.66699 -51.999 -14c-6.66699 -2.66699 -16 -7.33398 -28 -14.001l-29 67c21.333 10.667 44.333 16 69 16c45.333 0 85.5 -16.833 120.5 -50.5s52.5 -75.5 52.5 -125.5c0 -6.66699 -1.66699 -15.667 -5 -27
c-0.666992 -3.33301 -2.33398 -8.66602 -5.00098 -15.999c10 -4.66699 20.667 -8.66699 32 -12s22 -5 32 -5c26 0 48.333 9.33301 67 28z" />
    <glyph glyph-name="less" unicode="&#x3c;" horiz-adv-x="371" 
d="M203 508l-14.001 21l30 12l51 -88c-14.667 -3.33301 -26 -6.33301 -34 -9c-22.667 -7.33301 -42.667 -15.333 -60 -24c-30 -16.667 -54.333 -34.667 -73 -54c-28 -28.667 -42 -59 -42 -91c0 -38.667 15 -73.667 45 -105s66.333 -47 109 -47
c11.333 0 23.333 0.333008 36 1s24.667 1.66699 36 3l41 -64c-13.333 -2.66699 -29.166 -5 -47.499 -7s-33.166 -3 -44.499 -3c-50.667 0 -98.334 21.667 -143.001 65c-48 46.667 -72 101 -72 163c0 42.667 10.333 80.667 31 114s54 62.333 100 87zM370.999 244
c-6 1.33301 -10.999 2 -14.999 2c-15.333 2 -26.333 3 -33 3c-15.333 0 -27.333 -1.66699 -36 -5c-3.33301 -1.33301 -9 -2.5 -17 -3.5s-16.667 -1.5 -26 -1.5c-16.667 0 -29.5 0.5 -38.5 1.5s-15.5 2.16699 -19.5 3.5l-28 67c16.667 0 40.667 -1.33301 72 -4
s54.666 -4 69.999 -4c8.66699 0 18.167 0.166992 28.5 0.5s24.5 2.83301 42.5 7.5v-67z" />
    <glyph glyph-name="equal" unicode="=" horiz-adv-x="6" 
d="M-365 -156l-45 39l193 152l197 -176l-23 -23l-160 150z" />
    <glyph glyph-name="greater" unicode="&#x3e;" 
d="M137 498l-14 27l25 12l45 -86c-18.667 0 -39.667 -9.33301 -63 -28c-18.667 -14.667 -28 -32 -28 -52c0 -18.667 6 -35.667 18 -51c17.333 -22 33.333 -33 48 -33c9.33301 8 19.166 14.5 29.499 19.5s20.833 7.5 31.5 7.5l31 -56c-22 0 -48 -14.667 -78 -44
c-24 -23.333 -36 -50.333 -36 -81c0 -32.667 11.667 -58.167 35 -76.5s52.333 -27.5 87 -27.5c44.667 0 81.5 16 110.5 48s43.5 71.333 43.5 118c0 64.667 -14.667 123.667 -44 177l-82 121c-29.333 45.333 -44 90.666 -44 135.999c0 37.333 11.333 62 34 74
c25.333 5.33301 39.333 8.66602 42 9.99902l41 -51l-42 -14c-12 -12 -18 -31.333 -18 -58c0 -43.333 14.667 -87.666 44 -132.999l82 -116c29.333 -48 44 -97.333 44 -148c0 -56 -17.167 -104.167 -51.5 -144.5s-79.166 -60.5 -134.499 -60.5
c-50.667 0 -95.834 16.833 -135.501 50.5s-59.5 72.167 -59.5 115.5c0 23.333 4.83301 45 14.5 65s20.834 34.333 33.501 43c-22 14.667 -38.333 27.334 -49 38.001c-33.333 33.333 -50 67.333 -50 102c0 24 14.333 47 43 69c23.333 18 39 27 47 27z" />
    <glyph glyph-name="question" unicode="?" horiz-adv-x="340" 
d="M393 484c-4 5.33301 -7.66895 11.0029 -11.002 17.0029c-5.33301 6 -14.666 9 -27.999 9c-20 0 -34 -8.66699 -42 -26s-12 -39 -12 -65c0 -18 1 -35.333 3 -52s4 -31 6 -43c0 -50.667 -6 -89.667 -18 -117c-19.333 -44 -54.333 -66 -105 -66c-46 0 -84 19.667 -114 59
s-45 84.666 -45 135.999c0 54.667 12.667 99.334 38 134.001c26.667 24.667 40.667 38 42 40l-11 25l29 10l41 -84c-26 -6.66699 -49.167 -24.834 -69.5 -54.501s-30.5 -64.167 -30.5 -103.5c0 -32.667 9.83301 -61.667 29.5 -87s44.5 -38 74.5 -38
c27.333 0 47 11.667 59 35c10 19.333 15 44.666 15 75.999c0 16.667 -1.16699 33.167 -3.5 49.5s-4.5 27.166 -6.5 32.499c0 42.667 7.66699 78.667 23 108c21.333 41.333 56 62 104 62c6.66699 0 12.834 -2.33301 18.501 -7l13.5 -11v-39z" />
    <glyph glyph-name="at" unicode="@" horiz-adv-x="439" 
d="M4 -49l385 629h41l-381 -629h-45zM113 539c24.667 0 45.832 -8.5 63.499 -25.5s26.5 -37.833 26.5 -62.5c0 -24 -8.66699 -44.667 -26 -62s-38.666 -26 -63.999 -26c-24 0 -44.667 8.66699 -62 26s-26 38 -26 62s8.66699 44.667 26 62s38 26 62 26zM112.998 512
c-18 0 -32.167 -5.83203 -42.5 -17.499s-15.5 -25.834 -15.5 -42.501s5 -31 15 -43s24.333 -18 43 -18c18 0 32.333 6 43 18s16 26.333 16 43c0 16 -5.16699 30 -15.5 42s-24.833 18 -43.5 18zM331.998 156.001c24.667 0 45.5 -8.5 62.5 -25.5s25.5 -37.833 25.5 -62.5
c0 -24 -8.33301 -44.667 -25 -62s-37.667 -26 -63 -26c-24 0 -44.667 8.66699 -62 26s-26 38 -26 62s8.66699 44.667 26 62s38 26 62 26zM331.998 131.001c-18 0 -32.167 -6.16699 -42.5 -18.5s-15.5 -26.5 -15.5 -42.5c0 -17.333 4.83301 -32 14.5 -44s24.167 -18 43.5 -18
c18.667 0 33.167 6.16699 43.5 18.5s15.5 26.833 15.5 43.5c0 16 -5.16699 30.167 -15.5 42.5s-24.833 18.5 -43.5 18.5z" />
    <glyph glyph-name="A" unicode="A" horiz-adv-x="568" 
d="M391 342l-0.00195312 187l64 -54v-418c0 -17.333 4.66699 -26 14 -26c16.667 0 33.334 12.667 50.001 38c2.66699 4 6 10.333 10 19l34 -37c-8.66699 -12.667 -15.667 -22 -21 -28c-18 -19.333 -36.667 -29 -56 -29c-24 0 -45.833 10.167 -65.5 30.5
s-29.5 43.5 -29.5 69.5v183c-7.33301 -5.33301 -13 -9 -17 -11c-14.667 -8 -26 -12 -34 -12c-5.33301 0 -13.333 1.66699 -24 5c-3.33301 0.666992 -8.33301 2.33398 -15 5.00098c-10 -24 -19.333 -42 -28 -54c-28 -36 -63.667 -54 -107 -54c-47.333 0 -85 19.333 -113 58
c-25.333 35.333 -38 78 -38 128c0 40 8.33301 76.833 25 110.5s41 58.5 73 74.5l-11 24l29 12l51 -88c-23.333 0 -51.666 -21 -84.999 -63c-25.333 -32 -38 -68.333 -38 -109c0 -29.333 7.83301 -54.666 23.5 -75.999s36.5 -32 62.5 -32c28 0 49.5 8.5 64.5 25.5
s22.5 37.167 22.5 60.5c-12 7.33301 -21 13.666 -27 18.999c-18 16.667 -27 34 -27 52c0 16 6 29.667 18 41s26 17 42 17c26.667 0 45.667 -12 57 -36c8 -16.667 12 -36.334 12 -59.001v-16c16.667 0 33.667 3.66699 51 11s28.333 18 33 32z" />
    <glyph glyph-name="B" unicode="B" horiz-adv-x="641" 
d="M461 529l64 -54.001v-418c0 -14.667 4.66699 -22 14 -22c14 0 27.333 9 40 27c4 6 9 15.333 15 28l39 -39c-8 -12.667 -14.667 -22 -20 -28c-18 -19.333 -36.667 -29 -56 -29c-24.667 0 -46.834 10.167 -66.501 30.5s-29.5 43.5 -29.5 69.5v162
c-3.33301 -1.33301 -11.5 -3.83301 -24.5 -7.5s-24.5 -5.5 -34.5 -5.5c-15.333 0 -32 4.33301 -50 13c-12 -18 -22.667 -31.333 -32 -40c-29.333 -26.667 -63 -40 -101 -40c-30 0 -58.667 9.83301 -86 29.5s-41 38.5 -41 56.5v203c-3.33301 12.667 -8 19 -14 19
c-10.667 0 -24 -10.833 -40 -32.5s-24 -36.167 -24 -43.5v104c5.33301 2.66699 11.833 4.66699 19.5 6s15.167 2 22.5 2c25.333 0 47.666 -7 66.999 -21s29 -33.333 29 -58v-177c0 -14.667 4.83301 -27.167 14.5 -37.5s24.5 -16.833 44.5 -19.5c26.667 0 47.667 8 63 24
c18 18.667 27 38 27 58c-6 0 -15 9.66699 -27 29c-8 13.333 -12 25.333 -12 36s3.66699 20.334 11 29.001c10 11.333 23.667 17 41 17c18.667 0 33.334 -7.33301 44.001 -22s16 -31.667 16 -51c0 -14.667 -2.33301 -26.667 -7 -36c6.66699 -6.66699 15.334 -10 26.001 -10
c8 0.666992 21 7.66699 39 21s27.667 22 29 26v201z" />
    <glyph glyph-name="C" unicode="C" horiz-adv-x="508" 
d="M299 209c22.667 0 38.668 5.33496 48.001 16.002s14 26.667 14 48c0 16.667 -20 37 -60 61c-34.667 20.667 -55.667 31 -63 31l82 102l-43 29l20 20l94 -65l-88 -99c18 0 42.333 -14.667 73 -44c22.667 -22 34 -45.333 34 -70c0 -28.667 -9.66699 -50.334 -29 -65.001
c-16.667 -12.667 -39 -19 -67 -19c-33.333 0 -77.666 15.333 -132.999 46c-47.333 26 -72.666 42.667 -75.999 50v-31c0 -65.333 19 -115.333 57 -150c35.333 -32 82.333 -48 141 -48c28 0 52.667 5 74 15c16.667 10.667 25.667 16.334 27 17.001
c-2.66699 3.33301 -4.33398 5.66602 -5.00098 6.99902c-4 6.66699 -6 12.667 -6 18c0 14 5.66699 25.167 17 33.5s24.333 12.5 39 12.5c12.667 0 23 -3.33301 31 -10s12 -16.667 12 -30c0 -24.667 -20.833 -46.5 -62.5 -65.5s-84.5 -28.5 -128.5 -28.5
c-80.667 0 -143.834 23.5 -189.501 70.5s-68.5 108.167 -68.5 183.5c0 16.667 3.66699 38.667 11 66c10 36 18.667 61.667 26 77l53 -55c-1.33301 -8.66699 -3.5 -16.834 -6.5 -24.501s-7.5 -14.5 -13.5 -20.5c27.333 -17.333 49 -30.333 65 -39
c49.333 -26 89.666 -39 120.999 -39z" />
    <glyph glyph-name="D" unicode="D" horiz-adv-x="535" 
d="M20 500c8 8.66699 21.1689 16 39.502 22s36.166 9 53.499 9c12 -2 29.333 -14.833 52 -38.5s34 -39.5 34 -47.5v-129h158v213l65 -54v-418c0 -14.667 4.66699 -22 14 -22c16.667 0 32 13.333 46 40c2 4 4.66699 10.333 8 19l39 -43c-8 -12.667 -14.667 -22 -20 -28
c-18 -19.333 -36.667 -29 -56 -29c-24.667 0 -46.834 10.167 -66.501 30.5s-29.5 43.5 -29.5 69.5v158h-160c0 -24 -1.33301 -41 -4 -51c-4.66699 -16.667 -13 -25 -25 -25c-17.333 0 -41.166 18.167 -71.499 54.5s-45.5 60.5 -45.5 72.5c0 6 5.33301 10.167 16 12.5
s23.667 3.5 39 3.5l27 -1v153c0 8 -1.66699 14.167 -5 18.5s-11 6.5 -23 6.5c-4.66699 0 -13.334 -5 -26.001 -15c-24 -19.333 -36 -31.333 -36 -36z" />
    <glyph glyph-name="E" unicode="E" horiz-adv-x="689" 
d="M510 316v213.002l64 -54v-418c0 -14.667 4.66699 -22 14 -22c14 0 27.667 8.33301 41 25c4 5.33301 9.33301 14 16 26l39 -35c-8.66699 -12.667 -15.667 -22 -21 -28c-18 -19.333 -36.667 -29 -56 -29c-25.333 0 -47.833 10.167 -67.5 30.5s-29.5 43.5 -29.5 69.5v158
h-160c0 -22.667 -1.33301 -39 -4 -49c-4.66699 -18 -13.334 -27 -26.001 -27c-16.667 0 -40 18.167 -70 54.5s-45 60.5 -45 72.5c0 6 5.33301 10.167 16 12.5s23.334 3.5 38.001 3.5l28 -1v104c0 14.667 -6.5 26.5 -19.5 35.5s-28.5 13.5 -46.5 13.5
c-34.667 0 -68.5 -16.5 -101.5 -49.5s-49.5 -67.5 -49.5 -103.5c0 -53.333 20 -105 60 -155c13.333 -16.667 33.666 -36.334 60.999 -59.001l-27 -18c-24 8 -57 47.333 -99 118c-29.333 49.333 -44 95.333 -44 138c0 48.667 16.833 89.167 50.5 121.5
s76.834 48.5 129.501 48.5c39.333 0 74.333 -12.333 105 -37s46 -55.334 46 -92.001v-67h158z" />
    <glyph glyph-name="F" unicode="F" horiz-adv-x="230" 
d="M51 529l61.999 -54v-418c0 -14.667 5.33301 -22 16 -22c14 0 28 8.66699 42 26c4.66699 5.33301 10.334 14.333 17.001 27l35 -37c-8.66699 -12.667 -15.667 -22 -21 -28c-18 -19.333 -36.667 -29 -56 -29c-24 0 -45.833 10.167 -65.5 30.5s-29.5 43.5 -29.5 69.5v435z
" />
    <glyph glyph-name="G" unicode="G" 
d="M361 367v161.999l63 -54v-418c0 -17.333 4.66699 -26 14 -26c13.333 0 27 9.66699 41 29c4.66699 6 10.334 16 17.001 30l37 -39c-8 -12.667 -14.667 -22 -20 -28c-18 -19.333 -36.667 -29 -56 -29c-24.667 0 -46.834 10.167 -66.501 30.5s-29.5 43.5 -29.5 69.5v217
h-189l6 -102c0 -7.33301 -3 -13.666 -9 -18.999s-13 -8 -21 -8c-12 0 -36.667 22 -74 66s-56 74 -56 90c0 8 3.16699 14.833 9.5 20.5s13.5 8.5 21.5 8.5h312z" />
    <glyph glyph-name="H" unicode="H" horiz-adv-x="564" 
d="M189 459c-13.333 10.667 -29.333 16 -48 16c-22.667 0 -43 -8.66699 -61 -26s-27 -38 -27 -62c0 -17.333 5.66699 -32.333 17 -45s26.333 -20 45 -22c26.667 0 46.667 12 60 36c10.667 19.333 16 44 16 74zM354 285c-24.667 -30 -43.001 -53.667 -55.001 -71
c-36.667 -52.667 -55 -93.334 -55 -122.001c0 -19.333 7 -35.666 21 -48.999s31.667 -20 53 -20c24.667 0 45.834 13.167 63.501 39.5s26.5 55.5 26.5 87.5c0 22.667 -9 52 -27 88c-6 12 -15 27.667 -27 47zM321.999 336c-2 5.33301 -10.3311 17.332 -24.998 35.999
c-8.66699 10.667 -17.334 20.667 -26.001 30c-4.66699 6.66699 -12 13.5 -22 20.5l-30 20.5l2 -34c0 -48.667 -9.33301 -84.667 -28 -108c-16 -20 -39.333 -30 -70 -30c-33.333 0 -59.5 13.333 -78.5 40s-28.5 57.667 -28.5 93c0 36 9 66 27 90
c20.667 27.333 48.667 41 84 41c40 0 87.333 -27.667 142 -83c47.333 -48 71 -77 71 -87l80 80l101 94l47 -47c-35.333 -28.667 -69.666 -60 -102.999 -94l-37.5 -39l-44.5 -48c11.333 -11.333 27.666 -44.666 48.999 -99.999c15.333 -40 23 -72.667 23 -98
c0 -37.333 -13.667 -67 -41 -89c-24.667 -20 -54.667 -30 -90 -30c-32.667 0 -60.334 9 -83.001 27c-25.333 20 -38 47.667 -38 83c0 34 19.333 82.667 58 146c34.667 57.333 55 86 61 86z" />
    <glyph glyph-name="I" unicode="I" horiz-adv-x="494" 
d="M43 490l2 35.002c10 4.66699 21.333 7 34 7c26.667 0 50.5 -9.83301 71.5 -29.5s31.5 -43.834 31.5 -72.501c0 -32 -10.333 -61 -31 -87c-28.667 -36 -52.334 -54 -71.001 -54c5.33301 -12 11 -21 17 -27c18.667 -18.667 44.334 -28 77.001 -28c26.667 0 57.667 10 93 30
c30 16.667 45.667 27.667 47 33v232l65 -54v-418c0 -14.667 4.66699 -22 14 -22c16 0 33 12.667 51 38c2.66699 4 6.33398 10.333 11.001 19l33 -41c-8 -12.667 -14.667 -22 -20 -28c-18 -19.333 -36.667 -29 -56 -29c-24.667 0 -47.167 10.167 -67.5 30.5
s-30.5 43.5 -30.5 69.5v117c-19.333 -12.667 -37.833 -21.334 -55.5 -26.001s-38.834 -7 -63.501 -7c-57.333 0 -104 27 -140 81c-12 18 -24.333 45 -37 81c21.333 6 37.333 12 48 18c32.667 18.667 49 44.667 49 78c0 17.333 -5.33301 31 -16 41s-24 15 -40 15z" />
    <glyph glyph-name="J" unicode="J" horiz-adv-x="500" 
d="M193 156c-42 0 -79.4971 18.499 -112.497 55.499s-49.5 75.167 -49.5 114.5c0 44 15.833 80.167 47.5 108.5s69.167 42.5 112.5 42.5c25.333 0 49 -5.33301 71 -16l9 -61c-2 1.33301 -8.33301 3.33301 -19 6c-26.667 6.66699 -50 10 -70 10
c-24.667 0 -49.334 -9.33301 -74.001 -28c-28 -21.333 -42 -46 -42 -74s11 -51.333 33 -70s48.333 -29.667 79 -33c22.667 0 47 5.33301 73 16c40.667 16.667 63.667 30.334 69 41.001v261l65 -54v-418c0 -14.667 4.33301 -22 13 -22c14 0 28.667 8.33301 44 25
c4.66699 5.33301 11 14 19 26l31 -35c-8 -12.667 -14.667 -22 -20 -28c-18 -19.333 -36.667 -29 -56 -29c-24.667 0 -46.834 10.167 -66.501 30.5s-29.5 43.5 -29.5 69.5v97c-18.667 -8 -33.334 -13.667 -44.001 -17c-35.333 -12 -63 -18 -83 -18z" />
    <glyph glyph-name="K" unicode="K" horiz-adv-x="580" 
d="M98 490l-10 18.002l31 12l45 -79c-23.333 -7.33301 -40.666 -14 -51.999 -20c-35.333 -19.333 -53 -43 -53 -71c0 -16 6 -37 18 -63c4 -8.66699 10.333 -20.334 19 -35.001c5.33301 3.33301 9.66602 5.66602 12.999 6.99902c11.333 6 19.333 9.66699 24 11l33 13l57 -56
c-32.667 -8.66699 -57 -17 -73 -25c-49.333 -24.667 -74 -56.334 -74 -95.001c0 -31.333 14 -54 42 -68c24 -12 61 -18 111 -18c44 0 85 14.333 123 43c26 20 50.333 47 73 81l24 43c-41.333 0 -83 20 -125 60c-36 34.667 -54 78.334 -54 131.001c0 30.667 9.66699 58 29 82
c24 30 56.333 45 97 45c32 0 62.5 -21.333 91.5 -64s43.5 -91 43.5 -145c0 -88.667 -28.167 -164.167 -84.5 -226.5s-126.5 -93.5 -210.5 -93.5c-59.333 0 -108 15.333 -146 46s-57 71.334 -57 122.001c0 28.667 6.66699 52 20 70c4 6 11 12.333 21 19
c-14.667 22 -25.667 39.333 -33 52c-22 40 -33 73 -33 99c0 29.333 15 55.666 45 78.999c10 7.33301 25 16 45 26zM459 219.002c3.33301 15.333 5.66699 28.001 7 38.001c4.66699 30 7 57 7 81c0 34 -3.33301 61.333 -10 82c-10 30 -26.333 45 -49 45
c-19.333 0 -34.833 -9.5 -46.5 -28.5s-17.5 -41.5 -17.5 -67.5c0 -48.667 10.167 -85.834 30.5 -111.501s46.5 -38.5 78.5 -38.5z" />
    <glyph glyph-name="L" unicode="L" horiz-adv-x="230" 
d="M113 588l-0.000976562 -531.001c0 -14.667 5.33301 -22 16 -22c14 0 27 10 39 30c4 6.66699 8.66699 17 14 31l41 -45c-8.66699 -12.667 -15.667 -22 -21 -28c-18 -19.333 -36.667 -29 -56 -29c-24 0 -45.833 10.167 -65.5 30.5s-29.5 43.5 -29.5 69.5v533
c0 10.667 -6 25.334 -18 44.001c-17.333 26.667 -40 40 -68 40c-28.667 0 -50.167 -11 -64.5 -33s-21.5 -48.667 -21.5 -80c0 -20 2 -42 6 -66c1.33301 -8 3.33301 -18 6 -30l-63 33c-5.33301 18 -8 35.333 -8 52c0 40.667 13.333 75.667 40 105s62.334 44 107.001 44
s80.167 -15.5 106.5 -46.5s39.5 -64.833 39.5 -101.5z" />
    <glyph glyph-name="M" unicode="M" horiz-adv-x="230" 
d="M51 529l61.999 -54v-418c0 -14.667 5.33301 -22 16 -22c14 0 28 8.66699 42 26c4.66699 5.33301 10.334 14.333 17.001 27l35 -37c-8.66699 -12.667 -15.667 -22 -21 -28c-18 -19.333 -36.667 -29 -56 -29c-24 0 -45.833 10.167 -65.5 30.5s-29.5 43.5 -29.5 69.5v435z
M-134.001 716l-22.999 68.002c4.66699 1.33301 15.667 4 33 8s31 6 41 6c27.333 -2.66699 58 -23.334 92 -62.001c24 -27.333 48.667 -62.333 74 -105l30 -56h-32c0 11.333 -15 37 -45 77c-36.667 49.333 -72.334 75.666 -107.001 78.999c-10 0 -23.333 -2.33301 -40 -7
c-5.33301 -1.33301 -13 -4 -23 -8z" />
    <glyph glyph-name="N" unicode="N" horiz-adv-x="426" 
d="M215 531l-11.9971 20.0029l26 10l33 -75c-22.667 -15.333 -47.334 -27.333 -74.001 -36c-21.333 -6.66699 -49 -12.667 -83 -18c-6.66699 0 -13.167 -3.83301 -19.5 -11.5s-9.5 -18.167 -9.5 -31.5c0 -26 10.333 -51.333 31 -76c16.667 -20 28.667 -30 36 -30
c8.66699 4.66699 15.667 8 21 10c15.333 6.66699 29 12 41 16c14 3.33301 31 6.66602 51 9.99902c3.33301 0 8 0.333008 14 1l35 -58c-42.667 -6.66699 -74.334 -13.667 -95.001 -21c-63.333 -23.333 -95 -58 -95 -104c0 -20.667 9.16699 -39.834 27.5 -57.501
s40.5 -26.5 66.5 -26.5c13.333 0 29 3 47 9c25.333 8.66699 41 16 47 22c-7.33301 9.33301 -11 20.333 -11 33c0 13.333 4.66699 24.5 14 33.5s22.666 13.5 39.999 13.5c13.333 0 24.833 -5.16699 34.5 -15.5s14.5 -22.833 14.5 -37.5c0 -24 -17.5 -47.833 -52.5 -71.5
s-68.5 -35.5 -100.5 -35.5c-45.333 0 -85.333 16.667 -120 50s-52 70.666 -52 111.999c0 18 5 36 15 54c14 24.667 26.667 40 38 46c-11.333 2.66699 -28 17 -50 43c-29.333 34.667 -44 71.667 -44 111c0 33.333 16.333 56.666 49 69.999
c1.33301 0.666992 31.333 7.33398 90 20.001c10.667 3.33301 21 7.33301 31 12c4 2 9.33301 5 16 9z" />
    <glyph glyph-name="O" unicode="O" horiz-adv-x="463" 
d="M209 549l31 16.998l45 -80c-28.667 0 -56.667 -3.66699 -84 -11c-40 -10.667 -60 -25.667 -60 -45c0 -15.333 12.333 -31.333 37 -48c8 -5.33301 20.333 -12.333 37 -21l162 32l23 -57l-123 -22c6 0 21 -14 45 -42c28.667 -33.333 43 -62.666 43 -87.999
c0 -44 -26.667 -75.667 -80 -95c-17.333 -6 -44 -11 -80 -15l82 -99l-51 -30l-66 129c-33.333 6.66699 -58.333 13 -75 19c-50 18 -75 41 -75 69c0 13.333 5.5 23.833 16.5 31.5s23.5 11.5 37.5 11.5c18.667 0 40 -11.333 64 -34c8 -7.33301 18 -18.666 30 -33.999
c39.333 0 69.333 3.66699 90 11c31.333 11.333 47 31 47 59c0 18.667 -6.66699 37.667 -20 57c-16 24 -31.667 39.667 -47 47l-191 -45l-31 52l158 32c-21.333 13.333 -37.333 24.333 -48 33c-32 26.667 -48 51.334 -48 74.001c0 19.333 14.333 35.666 43 48.999
c36 16.667 69.333 25 100 25z" />
    <glyph glyph-name="P" unicode="P" horiz-adv-x="332" 
d="M121 45c0 16.667 5.00195 29.167 15.002 37.5s22.667 12.5 38 12.5s28.333 -4.33301 39 -13s16 -21 16 -37c0 -16.667 -5.33301 -29.667 -16 -39s-23.334 -14 -38.001 -14s-27.334 4.66699 -38.001 14s-16 22.333 -16 39z" />
    <glyph glyph-name="Q" unicode="Q" horiz-adv-x="311" 
d="M207 221c19.333 0 42 11.001 68 33.001c4 3.33301 9.33301 8.66602 16 15.999l-145 162v-164c0 -31.333 20.333 -47 61 -47zM82 475.001c0 12.667 -2.00391 19 -6.00391 19c-9.33301 0 -22.666 -11.667 -39.999 -35c-5.33301 -7.33301 -13.333 -19 -24 -35v92
c16.667 8.66699 33.667 13 51 13c12.667 0 24.334 -2.33301 35.001 -7s20.334 -12.667 29.001 -24l184 -211l21 16l37 -65c-3.33301 -6 -19 -17.667 -47 -35c-36 -22 -67.667 -33 -95 -33c-39.333 3.33301 -74.666 24.333 -105.999 63c-26 32 -39 58 -39 78v164z" />
    <glyph glyph-name="R" unicode="R" horiz-adv-x="533" 
d="M355 264l0.000976562 265.001l65 -54v-418c0 -14.667 4.66699 -22 14 -22c16.667 0 33.334 12.333 50.001 37c2.66699 4 6 10 10 18l33 -39c-8 -12.667 -14.667 -22 -20 -28c-18 -19.333 -36.667 -29 -56 -29c-24.667 0 -46.834 10.167 -66.501 30.5
s-29.5 43.5 -29.5 69.5v78c-10.667 -6.66699 -19.334 -11.667 -26.001 -15c-22.667 -10.667 -43.667 -16 -63 -16c-26 0 -57 14 -93 42c-12 9.33301 -27.333 23.333 -46 42c-14.667 -7.33301 -30.334 -11 -47.001 -11c-19.333 0 -35.166 4.66699 -47.499 14
s-18.5 24.333 -18.5 45c0 13.333 5.16699 24.5 15.5 33.5s23.833 13.5 40.5 13.5c11.333 -2 22.5 -6.66699 33.5 -14s17.5 -13 19.5 -17c7.33301 0 24.333 12 51 36c32.667 29.333 49 57.666 49 84.999c0 20 -6.83301 36.167 -20.5 48.5s-31.834 18.5 -54.501 18.5
c-14 0 -32.667 -5.33301 -56 -16c-7.33301 -3.33301 -17.666 -8.66602 -30.999 -15.999l-49 51c16 8 29 14 39 18c28 11.333 51.333 17 70 17c38 0 70.667 -14.667 98 -44s41 -64 41 -104c0 -38.667 -17.333 -75.334 -52 -110.001c-27.333 -27.333 -46 -41 -56 -41
c2 -3.33301 12.333 -10.333 31 -21c23.333 -13.333 42.333 -20 57 -20c26.667 0 57.667 16.667 93 50c6 5.33301 13.333 13 22 23z" />
    <glyph glyph-name="S" unicode="S" horiz-adv-x="420" 
d="M195 535l21.998 13.999l53 -72c-20 -13.333 -34.667 -24 -44 -32c-29.333 -25.333 -44 -48.666 -44 -69.999c0 -20 7 -40.333 21 -61c4.66699 -6.66699 12 -15 22 -25l119 61l51 -41l-124 -59c18.667 -17.333 32.334 -31.333 41.001 -42
c28 -33.333 42 -61.666 42 -84.999c0 -37.333 -15.333 -67.333 -46 -90c-28 -20.667 -61.667 -31 -101 -31c-32 0 -73.333 11 -124 33c-16.667 7.33301 -39 18.333 -67 33l13 22c22.667 -10 41 -17.333 55 -22c44 -15.333 79.667 -23 107 -23c28.667 0 53.5 9.5 74.5 28.5
s31.5 42.833 31.5 71.5c0 20 -8 41.333 -24 64c-13.333 18.667 -23 29 -29 31l-123 -62l-45 47l125 56c-6 0 -20.667 12.333 -44 37c-28 29.333 -42 56.666 -42 81.999c0 27.333 15.333 54 46 80c24.667 21.333 41.334 32 50.001 32z" />
    <glyph glyph-name="T" unicode="T" horiz-adv-x="496" 
d="M170 -12c-2 0 -14.333 13 -37 39c-28.667 33.333 -52 66 -70 98c-25.333 46 -38 87.667 -38 125c0 30.667 9.16699 57.834 27.5 81.501s41.833 35.5 70.5 35.5h193v162l65 -54v-418c0 -14.667 4.66699 -22 14 -22c13.333 0 27 9 41 27c4.66699 6 10.334 15.333 17.001 28
l35 -39c-8 -12.667 -14.667 -22 -20 -28c-18 -19.333 -36.667 -29 -56 -29c-24.667 0 -46.834 10.167 -66.501 30.5s-29.5 43.5 -29.5 69.5v217h-160c-20.667 0 -37.5 -8.83301 -50.5 -26.5s-19.5 -37.5 -19.5 -59.5c0 -40.667 11.333 -81.334 34 -122.001
c32.667 -58.667 59.667 -91.667 81 -99z" />
    <glyph glyph-name="U" unicode="U" horiz-adv-x="584" 
d="M406 529l63.001 -54v-418c0 -14.667 5 -22 15 -22c13.333 0 27 9 41 27c4.66699 6 10.667 15.333 18 28l35 -39c-8 -12.667 -14.667 -22 -20 -28c-18 -19.333 -36.667 -29 -56 -29c-24.667 0 -46.834 10.167 -66.501 30.5s-29.5 43.5 -29.5 69.5v435zM55.001 510
c12.667 6.66699 22.666 11.333 29.999 14c24.667 10 44 15 58 15c51.333 0 93.333 -23.667 126 -71c29.333 -42.667 44 -92.667 44 -150c0 -37.333 -10.667 -72.333 -32 -105c-24 -36.667 -53.333 -55 -88 -55c-49.333 0 -90.666 26.667 -123.999 80
c-10.667 17.333 -22.667 44 -36 80l26 14c0 -4.66699 6.33301 -17 19 -37c30.667 -48 62.667 -72 96 -72c29.333 0 52.333 15.333 69 46c14 26 21 57.333 21 94c0 34 -7.66699 62.333 -23 85c-17.333 25.333 -41 38 -71 38c-11.333 0 -25 -3.66699 -41 -11
c-21.333 -10 -36.333 -19.333 -45 -28z" />
    <glyph glyph-name="V" unicode="V" horiz-adv-x="699" 
d="M521 328l-0.000976562 201.001l65 -54v-418c0 -14.667 4.66699 -22 14 -22c16.667 0 31.667 9 45 27c4 6 9 15.333 15 28l33 -39c-8 -12.667 -14.667 -22 -20 -28c-18 -19.333 -36.667 -29 -56 -29c-24.667 0 -46.834 10.167 -66.501 30.5s-29.5 43.5 -29.5 69.5v170
c-6 -3.33301 -11 -5.66602 -15 -6.99902c-12.667 -4.66699 -25 -7 -37 -7c-7.33301 0 -15.166 0.333008 -23.499 1s-16.166 1.66699 -23.499 3c0 -26.667 -18 -60.334 -54 -101.001c-27.333 -30.667 -58.333 -46 -93 -46c-28.667 0 -60.667 16 -96 48
c-11.333 10.667 -26 26.667 -44 48c-8 -2 -16.833 -3.83301 -26.5 -5.5s-19.167 -2.5 -28.5 -2.5c-16 0 -28.667 5.66699 -38 17s-14 24.333 -14 39s4.5 27 13.5 37s22.5 15 40.5 15c12 0 23.667 -4 35 -12c8 -6 13.333 -11.333 16 -16c17.333 0 36.666 12 57.999 36
c17.333 19.333 26 42 26 68c0 29.333 -9 50.833 -27 64.5s-41 20.5 -69 20.5s-52.667 -5.66699 -74 -17l-22 67c13.333 3.33301 27.833 6.33301 43.5 9s26.834 4 33.501 4c40.667 0 75.834 -17.5 105.501 -52.5s44.5 -74.167 44.5 -117.5c0 -34 -9 -64.667 -27 -92
c-40 -36.667 -60.333 -55.334 -61 -56.001c11.333 -13.333 20.666 -23.333 27.999 -30c23.333 -20.667 44.666 -31 63.999 -31c34 0 61 19.667 81 59c6.66699 12.667 13.334 32.334 20.001 59.001c-9.33301 6 -16 11.333 -20 16c-14 14.667 -21 30.667 -21 48
c0 32.667 17.667 49 53 49c18.667 0 33.667 -8.66699 45 -26c9.33301 -14.667 14 -32.334 14 -53.001l-2 -19c18 0 36.167 4.16699 54.5 12.5s31.833 19.833 40.5 34.5z" />
    <glyph glyph-name="W" unicode="W" horiz-adv-x="500" 
d="M322 511l65.0029 -54.002v-400c0 -14.667 5.66699 -22 17 -22c14 0 27.333 8.33301 40 25c4 5.33301 9 14 15 26l35 -35c-8 -12.667 -14.667 -22 -20 -28c-18 -19.333 -36.667 -29 -56 -29c-24.667 0 -46.834 10.167 -66.501 30.5s-29.5 43.5 -29.5 69.5v84
c-16.667 -7.33301 -30 -12.666 -40 -15.999c-32 -11.333 -57 -17 -75 -17c-32.667 0 -63.334 10.667 -92.001 32c-32.667 24 -49 53.667 -49 89c0 15.333 5.66699 32.333 17 51c3.33301 6 9 13.667 17 23c-16 17.333 -27.667 31 -35 41c-24 32 -36 57.333 -36 76
c0 33.333 24.667 64 74 92c38 22 63.667 33 77 33l41 -49c-29.333 -10 -51.333 -18.667 -66 -26c-44.667 -23.333 -67 -47.666 -67 -72.999c0 -24.667 6.66699 -45 20 -61c4 -5.33301 11 -11.333 21 -18c7.33301 2.66699 13 4.66699 17 6c20 7.33301 31.5 11.5 34.5 12.5
s8.66699 1.66699 17 2s16.166 0.833008 23.499 1.5l19 -57c-29.333 -3.33301 -51 -7.33301 -65 -12c-44 -14 -66 -35.333 -66 -64c0 -18.667 7.66699 -33 23 -43s35 -15 59 -15c36 0 68.667 14 98 42c9.33301 9.33301 20.333 23.333 33 42v241z" />
    <glyph glyph-name="X" unicode="X" horiz-adv-x="559" 
d="M381 529l64 -54v-418c0 -14.667 4.66699 -22 14 -22c14 0 28 8.33301 42 25c4.66699 5.33301 10.334 14 17.001 26l35 -35c-8 -12.667 -14.667 -22 -20 -28c-18 -19.333 -36.667 -29 -56 -29c-24.667 0 -46.834 10.167 -66.501 30.5s-29.5 43.5 -29.5 69.5v435zM322 -2
c-2.66699 -0.666992 -8.66309 -1.49902 -17.9961 -2.49902s-21.333 -1.5 -36 -1.5c-20 0 -46.667 23 -80 69c-30 41.333 -45 66.666 -45 75.999c-4 -0.666992 -7.33301 -1 -10 -1c-22 -3.33301 -35 -5 -39 -5c-16.667 0 -29.834 5.5 -39.501 16.5s-14.5 23.5 -14.5 37.5
s4.66699 26 14 36s22.666 15 39.999 15c7.33301 0 16.166 -2 26.499 -6s17.833 -8.33301 22.5 -13c12 4.66699 23.667 13 35 25s19 25 23 39c-12.667 0 -36.334 13 -71.001 39c-44 32.667 -66 66 -66 100c0 32 9.5 57.167 28.5 75.5s42.833 27.5 71.5 27.5
c34 0 62 -19 84 -57c19.333 -34 29 -71 29 -111c0 -66 -18.333 -121 -55 -165c-12 -14.667 -30.667 -30 -56 -46c12 -20 22 -35 30 -45c25.333 -30.667 49.333 -46 72 -46c8 0 16.167 0.333008 24.5 1s13.833 1.66699 16.5 3zM211.004 305.001
c4.66699 9.33301 8.00098 17.333 10.001 24c7.33301 22.667 11 47.667 11 75c0 25.333 -5.33301 44.166 -16 56.499s-23.334 18.5 -38.001 18.5c-16.667 0 -30 -7.16699 -40 -21.5s-15 -30.166 -15 -47.499c0 -25.333 14 -50.333 42 -75c22.667 -20 38 -30 46 -30z" />
    <glyph glyph-name="Y" unicode="Y" horiz-adv-x="500" 
d="M320 529l65.001 -54v-418c0 -14.667 4.33301 -22 13 -22c14 0 28 8 42 24c4.66699 5.33301 10.334 13.666 17.001 24.999l35 -33c-8 -12.667 -14.667 -22 -20 -28c-18 -19.333 -36.667 -29 -56 -29c-24.667 0 -46.834 10.167 -66.501 30.5s-29.5 43.5 -29.5 69.5v76
c-15.333 -10 -28 -17.333 -38 -22c-31.333 -15.333 -57.666 -23 -78.999 -23c-44.667 0 -82.334 15.667 -113.001 47c-38 38.667 -57 75 -57 109c7.33301 2.66699 13 4.66699 17 6c13.333 4.66699 23.833 9 31.5 13s19.5 12 35.5 24c2 1.33301 5.33301 4 10 8
c-20.667 12 -36 22.333 -46 31c-30.667 26.667 -46 54.667 -46 84c0 25.333 8.33301 46.333 25 63s37 25 61 25c29.333 0 55.833 -13.167 79.5 -39.5s35.5 -55.5 35.5 -87.5c0 -50.667 -25.667 -94.667 -77 -132c-16.667 -12 -42.334 -25.333 -77.001 -40
c8 -15.333 21.167 -30.166 39.5 -44.499s35.833 -21.5 52.5 -21.5c28 0 60.667 13.333 98 40c12 8.66699 28 22 48 40v279zM145.001 348c7.33301 2.66699 16 11 26 25c14.667 20 22 41 22 63c0 16.667 -5.16699 30.834 -15.5 42.501s-23.833 17.5 -40.5 17.5
s-29.167 -5.5 -37.5 -16.5s-12.5 -24.833 -12.5 -41.5c0 -20 5.5 -39.333 16.5 -58s24.833 -29.334 41.5 -32.001z" />
    <glyph glyph-name="Z" unicode="Z" horiz-adv-x="420" 
d="M37 461l-21 61.998c15.333 4.66699 27.666 8 36.999 10c28.667 6.66699 52 10 70 10c46 0 85.5 -18.167 118.5 -54.5s49.5 -78.833 49.5 -127.5c0 -60 -19.667 -107.333 -59 -142c-12.667 -11.333 -32.667 -23 -60 -35c9.33301 -26.667 18 -46.667 26 -60
c24.667 -40 55 -60 91 -60c17.333 0 35 4 53 12c6 2.66699 13.333 6.66699 22 12l21 -67c-13.333 -5.33301 -23.666 -9.33301 -30.999 -12c-24.667 -8.66699 -43.667 -13 -57 -13c-43.333 0 -82.333 30.667 -117 92c-11.333 20 -24.333 50.667 -39 92l-37 -2
c-16 2 -30.5 9.16699 -43.5 21.5s-19.5 25.833 -19.5 40.5s5.16699 27.5 15.5 38.5s22.833 16.5 37.5 16.5c11.333 0 24.666 -6.66699 39.999 -20c4.66699 -4 11 -11 19 -21c24 10.667 41.667 20.334 53 29.001c36 28 54 60.667 54 98c0 32.667 -10 58.334 -30 77.001
s-50.333 28 -91 28c-21.333 0 -48 -5.33301 -80 -16c-5.33301 -1.33301 -12.666 -4.33301 -21.999 -9z" />
    <glyph glyph-name="bracketleft" unicode="[" horiz-adv-x="6" 
d="M-395 686l-22.999 68.002c4.66699 1.33301 15.667 4 33 8s31 6 41 6c27.333 -2.66699 58 -23.334 92 -62.001c24 -27.333 48.667 -62.333 74 -105l30 -56h-32c0 11.333 -15 37 -45 77c-36.667 49.333 -72.334 75.666 -107.001 78.999c-10 0 -23.333 -2.33301 -40 -7
c-5.33301 -1.33301 -13 -4 -23 -8z" />
    <glyph glyph-name="backslash" unicode="\" horiz-adv-x="6" 
d="M-150 611c-15.333 0 -27.166 4.83203 -35.499 14.499s-12.5 20.834 -12.5 33.501c0 13.333 4.16699 25 12.5 35s20.166 15 35.499 15c14 0 25.167 -4.83301 33.5 -14.5s12.5 -21.167 12.5 -34.5c0 -12.667 -4 -24 -12 -34s-19.333 -15 -34 -15z" />
    <glyph glyph-name="bracketright" unicode="]" horiz-adv-x="6" 
d="M-451 -12l36.999 2c6.66699 -11.333 13 -23 19 -35c18.667 -26 43 -47.667 73 -65c42.667 -24 92 -36 148 -36c46.667 0 79.5 5.66699 98.5 17s28.5 27 28.5 47c0 15.333 -7.33301 26.666 -22 33.999s-33.334 11 -56.001 11c-14 0 -30.333 -3.33301 -49 -10
c-6.66699 -2.66699 -15.667 -6.66699 -27 -12l-33 65c12.667 2.66699 22.667 4.33398 30 5.00098c22.667 3.33301 41.334 5 56.001 5c34 0 63.333 -7.33301 88 -22c33.333 -20 50 -49.333 50 -88c0 -34 -15.167 -60.667 -45.5 -80s-65.833 -29 -106.5 -29
c-65.333 0 -124.666 19.667 -177.999 59c-74 54 -111 98 -111 132z" />
    <glyph glyph-name="asciicircum" unicode="^" horiz-adv-x="359" 
d="M27 514l59.001 -45.001v-274c17.333 0 61.333 -18.667 132 -56c80 -42.667 120 -78 120 -106c-2.66699 -18.667 -8.33398 -32.334 -17.001 -41.001c-14 -14 -38.333 -21 -73 -21c-21.333 0 -46.333 5.83301 -75 17.5s-44 19.5 -46 23.5l12 31
c11.333 -7.33301 20.333 -12.666 27 -15.999c22 -11.333 42.333 -17.666 61 -18.999c14 0 24.5 1.83301 31.5 5.5s13.167 11.5 18.5 23.5l2 8c0 24.667 -39 55.667 -117 93c-70.667 34 -115.667 51 -135 51v325zM164.001 435.999l-30.998 60.001c6.66699 4 12 7.33301 16 10
c20 11.333 39.333 17 58 17c42 0 76.333 -21.333 103 -64c24 -38.667 36 -82.334 36 -131.001c0 -28 -8 -53.667 -24 -77c-20.667 -30.667 -49.334 -46 -86.001 -46c-26 0 -48.333 9.33301 -67 28c-24 24 -36 45.333 -36 64l23 17c6.66699 -18 15.167 -31.167 25.5 -39.5
s26.166 -12.5 47.499 -12.5c24 0 42.667 9.83301 56 29.5s20 44.167 20 73.5c0 28.667 -4.66699 52 -14 70c-12 22.667 -30.333 34 -55 34c-10 0 -21.333 -3 -34 -9c-18 -8.66699 -30.667 -16.667 -38 -24z" />
    <glyph glyph-name="underscore" unicode="_" 
d="M145 482c17.333 10.667 36.667 18.6689 58 24.002s43 8 65 8c37.333 0 72 -7.16699 104 -21.5s59.667 -36.5 83 -66.5c18.667 -23.333 33 -49.333 43 -78s15 -56.667 15 -84c0 -37.333 -8.33301 -71.833 -25 -103.5s-41.334 -57.834 -74.001 -78.501
c-47.333 -30.667 -98.666 -46 -153.999 -46c-40 0 -77.333 8.5 -112 25.5s-63 42.167 -85 75.5c-28 42 -42 87.667 -42 137c0 42.667 10.333 82.167 31 118.5s51.667 66.166 93 89.499zM432.001 410.002c-17.333 18.667 -36.499 32.5 -57.499 41.5s-43.5 13.5 -67.5 13.5
c-58.667 0 -113.5 -22.5 -164.5 -67.5s-76.5 -95.833 -76.5 -152.5c0 -32.667 9.33301 -63 28 -91c15.333 -24 35.5 -41.833 60.5 -53.5s52.833 -17.5 83.5 -17.5c49.333 0 93.666 14 132.999 42c30 20.667 54 47.334 72 80.001s27 66.667 27 102
c0 39.333 -12.667 73.666 -38 102.999z" />
    <glyph glyph-name="grave" unicode="`" horiz-adv-x="377" 
d="M164 420c0 -17.333 5.66699 -35 17 -53c14.667 -23.333 28.667 -38.333 42 -45c10 0 26 16.667 48 50c14.667 22 22 42.667 22 62c0 18.667 -6.33301 32.667 -19 42s-27.667 14 -45 14c-19.333 0 -35 -6.33301 -47 -19s-18 -29.667 -18 -51zM424 174
c-9.33301 2 -22.6689 5.99512 -40.002 11.9951c-24.667 8.66699 -46 18.334 -64 29.001c-14 6.66699 -34.333 18.667 -61 36c-4.66699 2.66699 -11 7 -19 13l-31 -23c-23.333 -17.333 -42.166 -30.666 -56.499 -39.999s-34.5 -21.666 -60.5 -36.999
c-17.333 -10.667 -29.666 -17.667 -36.999 -21l-37 46l95 55c14 8.66699 30 19.5 48 32.5s28.667 21.167 32 24.5c-6.66699 0 -21 12.333 -43 37c-27.333 30.667 -41 60 -41 88c0 30.667 11.333 54.834 34 72.501s50.667 26.5 84 26.5c30.667 0 55.5 -11.5 74.5 -34.5
s28.5 -50.5 28.5 -82.5c0 -27.333 -10.333 -55.666 -31 -84.999c-18 -25.333 -29.667 -38 -35 -38c39.333 -27.333 64.666 -44.333 75.999 -51c28.667 -16.667 57.334 -27.667 86.001 -33z" />
    <glyph glyph-name="a" unicode="a" horiz-adv-x="340" 
d="M391 270c-7.33301 -4 -13.001 -6.66699 -17.001 -8c-13.333 -5.33301 -24.666 -8 -33.999 -8c-5.33301 0 -13.333 1.66699 -24 5c-3.33301 0.666992 -8.33301 2.33398 -15 5.00098c-10 -24 -19.333 -42 -28 -54c-28 -36 -63.667 -54 -107 -54
c-47.333 0 -85 19.333 -113 58c-25.333 35.333 -38 78 -38 128c0 40 8.33301 76.833 25 110.5s41 58.5 73 74.5l-11 24l29 12l45 -81c-21.333 0 -48.333 -22.667 -81 -68c-24 -33.333 -36 -70.333 -36 -111c0 -29.333 7.83301 -54.666 23.5 -75.999s36.5 -32 62.5 -32
c28 0 49.5 8.5 64.5 25.5s22.5 37.167 22.5 60.5c-12 7.33301 -21 13.666 -27 18.999c-18 16.667 -27 34 -27 52c0 16 6 29.667 18 41s26 17 42 17c26.667 0 45.667 -12 57 -36c8 -16.667 12 -36.334 12 -59.001v-16c16.667 0 33.667 3.66699 51 11s28.333 18 33 32v-72z
" />
    <glyph glyph-name="b" unicode="b" horiz-adv-x="410" 
d="M461 256c-13.333 -4.66699 -27.666 -6.99902 -42.999 -6.99902c-21.333 0 -43.333 5.66699 -66 17c-6 -12 -11.333 -21.333 -16 -28c-29.333 -41.333 -68.333 -62 -117 -62c-31.333 0 -60.333 13.333 -87 40s-40 55.667 -40 87v162c-3.33301 12.667 -8 19 -14 19
c-10.667 0 -24 -10.833 -40 -32.5s-24 -36.167 -24 -43.5v104c5.33301 2.66699 11.833 4.66699 19.5 6s15.167 2 22.5 2c25.333 0 47.666 -7 66.999 -21s29 -33.333 29 -58v-158c0 -20.667 4.66699 -37.834 14 -51.501s24.333 -21.834 45 -24.501c26.667 0 47.667 8 63 24
c18 18.667 27 38 27 58c-6 0 -15 9.66699 -27 29c-8 13.333 -12 25.333 -12 36s3.66699 20.334 11 29.001c10 11.333 23.667 17 41 17c18.667 0 33.334 -7.33301 44.001 -22s16 -31.667 16 -51c0 -14.667 -2.33301 -26.667 -7 -36l18 -2c14.667 0 29.167 3.5 43.5 10.5
s25.166 16.5 32.499 28.5v-72z" />
    <glyph glyph-name="c" unicode="c" horiz-adv-x="215" 
d="M130 409h-18.001l-40 179c6.66699 11.333 12.334 19.666 17.001 24.999c14 16.667 27.667 25 41 25c14 0 28.333 -11.333 43 -34c2 -3.33301 5 -8.66602 9 -15.999z" />
    <glyph glyph-name="d" unicode="d" horiz-adv-x="303" 
d="M357 252h-160c0 -24 -1.33301 -41 -4 -51c-4.66699 -16.667 -13 -25 -25 -25c-17.333 0 -41.166 18.167 -71.499 54.5s-45.5 60.5 -45.5 72.5c0 6 5.33301 10.167 16 12.5s23.667 3.5 39 3.5l27 -1v135c0 10 -1.33301 17.667 -4 23s-10 8 -22 8
c-6.66699 0 -18.667 -8.66699 -36 -26s-26 -27.333 -26 -30l-25 72c8 8.66699 21.167 16 39.5 22s36.166 9 53.499 9c12 -2 29.333 -14.833 52 -38.5s34 -39.5 34 -47.5v-129h158v-64z" />
    <glyph glyph-name="e" unicode="e" horiz-adv-x="461" 
d="M510 252l-160 0.00195312c0 -22.667 -1.33301 -39 -4 -49c-4.66699 -18 -13.334 -27 -26.001 -27c-16.667 0 -40 18.167 -70 54.5s-45 60.5 -45 72.5c0 6 5.33301 10.167 16 12.5s23.334 3.5 38.001 3.5l28 -1v104c0 14.667 -6.5 26.5 -19.5 35.5s-28.5 13.5 -46.5 13.5
c-34.667 0 -68.5 -16.5 -101.5 -49.5s-49.5 -67.5 -49.5 -103.5c0 -53.333 20 -105 60 -155c13.333 -16.667 33.666 -36.334 60.999 -59.001l-27 -18c-24 8 -57 47.333 -99 118c-29.333 49.333 -44 95.333 -44 138c0 48.667 16.833 89.167 50.5 121.5
s76.834 48.5 129.501 48.5c39.333 0 74.333 -12.333 105 -37s46 -55.334 46 -92.001v-67h158v-64z" />
    <glyph glyph-name="f" unicode="f" horiz-adv-x="350" 
d="M37 811l31.001 16.998c65.333 -69.333 112 -139.333 140 -210s42 -154.334 42 -251.001c0 -92.667 -13.833 -173.5 -41.5 -242.5s-73.834 -138.5 -138.501 -208.5l-27 21c52 70.667 89.167 138.334 111.5 203.001s33.5 140.334 33.5 227.001c0 92 -11 170.833 -33 236.5
s-61.333 134.834 -118 207.501z" />
    <glyph glyph-name="g" unicode="g" horiz-adv-x="309" 
d="M361 311l-189 -0.000976562l6 -102c0 -7.33301 -3 -13.666 -9 -18.999s-13 -8 -21 -8c-12 0 -36.667 22 -74 66s-56 74 -56 90c0 8 3.16699 14.833 9.5 20.5s13.5 8.5 21.5 8.5h312v-56z" />
    <glyph glyph-name="h" unicode="h" horiz-adv-x="533" 
d="M45 375l-26.998 62.999c4 2 18.167 6.33301 42.5 13s44.5 10 60.5 10c40.667 0 74 -13 100 -39c31.333 -31.333 47 -62 47 -92c12.667 6 26.667 10.5 42 13.5s31 4.5 47 4.5v173l61 -41v-144c18 -9.33301 31.333 -18.333 40 -27c26.667 -27.333 40 -64.666 40 -111.999
c0 -66 -15.667 -119.667 -47 -161c-10 -13.333 -25.667 -27.333 -47 -42l-50 41c25.333 22.667 44 41.334 56 56.001c38 44.667 57 84 57 118c0 29.333 -8.33301 52 -25 68s-38.334 24 -65.001 24c-14.667 0 -35 -3 -61 -9c-8.66699 -2 -20.334 -5 -35.001 -9
c2 -8 3.83301 -16.667 5.5 -26s2.5 -18.333 2.5 -27c0 -65.333 -11 -117.666 -33 -156.999c-26.667 -47.333 -65.667 -71 -117 -71c-30 0 -57 16.667 -81 50c-33.333 46 -50 84 -50 114l23 14c0 -22.667 13.333 -49.334 40 -80.001c19.333 -22.667 41.333 -34 66 -34
c36.667 0 66 21 88 63c19.333 36.667 29 79.667 29 129c0 41.333 -8.33301 74.666 -25 99.999c-20 30.667 -49.333 46 -88 46c-16.667 0 -36 -4 -58 -12s-34.667 -13.667 -38 -17z" />
    <glyph glyph-name="i" unicode="i" horiz-adv-x="262" 
d="M314 211c-18 -12 -36.333 -20.499 -55 -25.499s-40 -7.5 -64 -7.5c-57.333 0 -104 27 -140 81c-12 18 -24.333 45 -37 81c21.333 6 37.333 12 48 18c32.667 18.667 49 44.667 49 78c0 17.333 -5.33301 31 -16 41s-24 15 -40 15l-16 -2l2 35c10 4.66699 21.333 7 34 7
c26.667 0 50.5 -9.83301 71.5 -29.5s31.5 -43.834 31.5 -72.501c0 -32 -10.333 -61 -31 -87c-28.667 -36 -52.334 -54 -71.001 -54c5.33301 -12 11 -21 17 -27c18.667 -18.667 44.334 -28 77.001 -28c26.667 0 57.667 10 93 30c30 16.667 45.667 27.667 47 33v-86z" />
    <glyph glyph-name="j" unicode="j" horiz-adv-x="268" 
d="M320 191c-18.667 -8 -33.332 -13.668 -43.999 -17.001c-35.333 -12 -63 -18 -83 -18c-42 0 -79.5 18.5 -112.5 55.5s-49.5 75.167 -49.5 114.5c0 44 15.833 80.167 47.5 108.5s69.167 42.5 112.5 42.5c25.333 0 49 -5.33301 71 -16l9 -61
c-2 1.33301 -8.33301 3.33301 -19 6c-26.667 6.66699 -50 10 -70 10c-24.667 0 -49.334 -9.33301 -74.001 -28c-28 -21.333 -42 -46 -42 -74s11 -51.333 33 -70s48.333 -29.667 79 -33c22.667 0 47 5.33301 73 16c40.667 16.667 63.667 30.334 69 41.001v-77z" />
    <glyph glyph-name="k" unicode="k" horiz-adv-x="744" 
d="M348 209v-151.998c0 -14.667 5 -22 15 -22c14 0 27 9.66699 39 29c4 6 8.66699 16 14 30l41 -43c-8 -12.667 -14.667 -22 -20 -28c-18 -19.333 -36.667 -29 -56 -29c-24.667 0 -46.834 10.167 -66.501 30.5s-29.5 43.5 -29.5 69.5v99l-217 -138l-39 62l256 129
c0 14 -24.667 45.333 -74 94c-28 27.333 -50 41 -66 41c-21.333 0 -39.833 -2 -55.5 -6s-31.167 -11.667 -46.5 -23l-22 72c16.667 9.33301 32.834 15.166 48.501 17.499s36.834 3.5 63.501 3.5c33.333 0 68.666 -27 105.999 -81c12 -18 27.333 -45 46 -81v246l65 -54
l-2 -205c6.66699 0 16 0.833008 28 2.5s24 4.5 36 8.5l43 18l-32 30c-10 16 -15 34.667 -15 56c0 26.667 10.167 49.5 30.5 68.5s44.166 28.5 71.499 28.5c25.333 0 47.333 -9.33301 66 -28s28 -41 28 -67c0 -31.333 -11.667 -59 -35 -83c-7.33301 -8 -19.333 -17 -36 -27
c56 -26.667 88.333 -41.334 97 -44.001c22.667 -8 43.667 -12 63 -12l10 -26l-27 2c-35.333 0 -64.333 -7.66699 -87 -23c-26.667 -18 -40 -44 -40 -78c0 -20 6.5 -35.333 19.5 -46s29.5 -16 49.5 -16c19.333 0 37.333 5.16699 54 15.5s27 23.833 31 40.5l33 -72
c-12 -8 -21.667 -14 -29 -18c-22.667 -12 -41.667 -18 -57 -18c-41.333 0 -75 13 -101 39s-39 60 -39 102c0 28 8 51 24 69c18.667 20.667 37.334 31 56.001 31c-12 2 -24 5.16699 -36 9.5s-29.333 12.833 -52 25.5c-10.667 -6.66699 -19 -11.667 -25 -15
c-18.667 -10.667 -34.5 -17.5 -47.5 -20.5s-28.833 -6 -47.5 -9s-30 -4.5 -34 -4.5zM492 316.002c10 0 25.668 14.334 47.001 43.001c13.333 18 20 34.333 20 49c0 14 -3.66699 24.333 -11 31s-19.333 10 -36 10c-14.667 0 -25.834 -6 -33.501 -18s-11.5 -26.667 -11.5 -44
c0 -32.667 8.33301 -56.334 25 -71.001z" />
    <glyph glyph-name="l" unicode="l" horiz-adv-x="230" 
d="M113 633v-575.997c0 -14.667 5.33301 -22 16 -22c14 0 27.667 8.66699 41 26c4 5.33301 9.33301 14.333 16 27l37 -37c-8.66699 -12.667 -15.667 -22 -21 -28c-18 -19.333 -36.667 -29 -56 -29c-24 0 -45.833 10.167 -65.5 30.5s-29.5 43.5 -29.5 69.5v556
c0 25.333 11.167 46.666 33.5 63.999s53.5 26 93.5 26c62 0 126.333 -18.333 193 -55c48.667 -26.667 96.334 -61.667 143.001 -105c37.333 -34.667 56 -54.334 56 -59.001l-35 -5c-12.667 32 -61.334 70.667 -146.001 116c-64.667 34.667 -130 52 -196 52
c-26 0 -45.833 -4.83301 -59.5 -14.5s-20.5 -21.834 -20.5 -36.501z" />
    <glyph glyph-name="m" unicode="m" horiz-adv-x="400" 
d="M150 100c16.667 0 29.501 -5.33398 38.501 -16.001s13.5 -24 13.5 -40c0 -14 -4 -25.833 -12 -35.5s-20 -14.5 -36 -14.5s-28.667 5.33301 -38 16s-14 23.334 -14 38.001c0 14 4.16699 26.167 12.5 36.5s20.166 15.5 35.499 15.5zM129.001 204.999
c-6.66699 20 -11.6689 37.666 -15.002 52.999s-5 31 -5 47c0 58 22.5 114.5 67.5 169.5s67.5 101.167 67.5 138.5c0 27.333 -9.5 49.833 -28.5 67.5s-41.5 26.5 -67.5 26.5c-21.333 0 -40.666 -6.33301 -57.999 -19c10.667 -8.66699 18.334 -16 23.001 -22
c16 -18.667 24 -36.334 24 -53.001c0 -15.333 -5.16699 -28.5 -15.5 -39.5s-23.5 -16.5 -39.5 -16.5c-17.333 0 -31.166 6.83301 -41.499 20.5s-15.5 30.834 -15.5 51.501c0 26.667 13.5 51.5 40.5 74.5s57.167 34.5 90.5 34.5c39.333 0 73.666 -14.333 102.999 -43
s44 -63.667 44 -105c0 -39.333 -13.333 -78.666 -40 -117.999l-76 -97c-27.333 -38 -41 -72.667 -41 -104c0 -8.66699 0.5 -15.5 1.5 -20.5s4.5 -20.167 10.5 -45.5h-29z" />
    <glyph glyph-name="n" unicode="n" horiz-adv-x="564" 
d="M256 592c14 -4.66699 23.8311 -11.6689 29.498 -21.002s8.5 -20.666 8.5 -33.999c0 -15.333 -4.33301 -33.333 -13 -54c-1.33301 -3.33301 -3.33301 -7.33301 -6 -12s-6 -9 -10 -13c-16.667 -17.333 -38 -28.666 -64 -33.999c-26 -4 -52 -7.66699 -78 -11
c-28.667 -7.33301 -43 -22.666 -43 -45.999c0 -14.667 6.33301 -29.334 19 -44.001c10 -11.333 18 -18 24 -20c24 12 44.667 20.667 62 26c22.667 7.33301 45 11 67 11l39 -53c-26 0 -61.667 -9.33301 -107 -28c-57.333 -23.333 -86 -50.333 -86 -81
c0 -20 11.667 -36 35 -48c19.333 -10 40.666 -15 63.999 -15c30.667 0 70.667 18 120 54c40.667 30 63.334 49.333 68.001 58v206l64 -54v-322c0 -14.667 4.66699 -22 14 -22c13.333 0 28 9 44 27c5.33301 6 12 15.333 20 28l30 -39c-8 -12.667 -14.667 -22 -20 -28
c-17.333 -19.333 -35.666 -29 -54.999 -29c-25.333 0 -47.833 10.167 -67.5 30.5s-29.5 43.5 -29.5 69.5v45c-2.66699 -5.33301 -21.667 -16 -57 -32c-43.333 -19.333 -81 -29 -113 -29c-42 0 -79.833 12 -113.5 36s-50.5 54.333 -50.5 91c0 23.333 10 46.333 30 69l15 15
c-16 14.667 -27.667 26.334 -35 35.001c-24 28 -36 51.667 -36 71c0 28 14.667 49.667 44 65c22 11.333 45.333 17 70 17c21.333 0 39.333 3 54 9l36 22c4.66699 3.33301 8 6.33301 10 9c7.33301 8.66699 11 17 11 25c0 11.333 -6.66699 22 -20 32c4 4 7 6.66699 9 8
c6.66699 5.33301 12.334 8.66602 17.001 9.99902z" />
    <glyph glyph-name="o" unicode="o" horiz-adv-x="225" 
d="M109 178c16.667 0 29.667 -5.33301 39 -16s14 -24 14 -40c0 -13.333 -4 -25 -12 -35s-19.667 -15 -35 -15c-16.667 0 -29.667 5.33301 -39 16s-14 23.667 -14 39c0 14 4 26 12 36s19.667 15 35 15zM109 459c16.667 0 29.667 -5.33301 39 -16s14 -24 14 -40
c0 -14 -4 -25.667 -12 -35s-19.667 -14 -35 -14c-16.667 0 -29.667 5.33301 -39 16s-14 23.667 -14 39c0 13.333 4 25 12 35s19.667 15 35 15z" />
    <glyph glyph-name="p" unicode="p" horiz-adv-x="467" 
d="M191 480c10.667 7.33301 19.335 12.665 26.002 15.998c22 10.667 43.333 16 64 16c37.333 0 69.166 -14.5 95.499 -43.5s39.5 -64.167 39.5 -105.5c0 -37.333 -8.66699 -66.666 -26 -87.999c-18.667 -14.667 -28.334 -22.334 -29.001 -23.001
c13.333 -13.333 26.833 -34.333 40.5 -63s20.5 -54 20.5 -76c0 -37.333 -16.667 -67.666 -50 -90.999c-30.667 -21.333 -66.667 -32 -108 -32c-76.667 0 -135.334 40.333 -176.001 121c-34 67.333 -51 149.333 -51 246c0 100 17.333 181.667 52 245
c24.667 45.333 58 80.333 100 105c16.667 10 36.334 18.333 59.001 25v-64c-23.333 -11.333 -39.333 -20.333 -48 -27c-36 -26 -64.667 -59.667 -86 -101c-30.667 -58.667 -46 -130 -46 -214c0 -77.333 11.667 -139.666 35 -186.999c30 -61.333 78.333 -92 145 -92
c34.667 0 62.5 10 83.5 30s31.5 49 31.5 87c0 14 -2 27.333 -6 40c-6 18.667 -11.667 30.667 -17 36c-9.33301 -2 -18 -4.83301 -26 -8.5s-16.333 -7.16699 -25 -10.5l-41 50c28.667 7.33301 50 15 64 23c43.333 24 65 57 65 99c0 20 -7.83301 36 -23.5 48
s-34.167 18 -55.5 18c-28.667 0 -50 -10.333 -64 -31z" />
    <glyph glyph-name="q" unicode="q" horiz-adv-x="221" 
d="M12 -160l166 846h29l-166 -846h-29z" />
    <glyph glyph-name="r" unicode="r" horiz-adv-x="309" 
d="M359 172c-11.333 -6.66699 -20.667 -11.667 -28 -15c-24 -10.667 -45.667 -16 -65 -16c-26 0 -57 14 -93 42c-12 9.33301 -27.333 23.333 -46 42c-14.667 -7.33301 -30.334 -11 -47.001 -11c-19.333 0 -35.166 4.66699 -47.499 14s-18.5 24.333 -18.5 45
c0 13.333 5.16699 24.5 15.5 33.5s23.833 13.5 40.5 13.5c11.333 -2 22.5 -6.66699 33.5 -14s17.5 -13 19.5 -17c7.33301 0 24.333 12 51 36c32.667 29.333 49 57.666 49 84.999c0 20 -6.83301 36.167 -20.5 48.5s-31.834 18.5 -54.501 18.5c-14 0 -32.667 -5.33301 -56 -16
c-7.33301 -3.33301 -17.666 -8.66602 -30.999 -15.999l-49 51c16 8 29 14 39 18c28 11.333 51.333 17 70 17c38 0 70.667 -14.667 98 -44s41 -64 41 -104c0 -38.667 -17.333 -75.334 -52 -110.001c-27.333 -27.333 -46 -41 -56 -41c2 -3.33301 12.333 -10.333 31 -21
c23.333 -13.333 42.333 -20 57 -20c22.667 0 49 11.667 79 35c6 4.66699 19.333 17.334 40 38.001v-92z" />
    <glyph glyph-name="s" unicode="s" horiz-adv-x="350" 
d="M309 811c-54.667 -70 -93.501 -139.002 -116.501 -207.002s-34.5 -147 -34.5 -237c0 -88.667 10.833 -164.667 32.5 -228s59.834 -130.666 114.501 -201.999l-30 -21c-64 69.333 -109.833 138.5 -137.5 207.5s-41.5 150.167 -41.5 243.5
c0 96.667 13.833 180.334 41.5 251.001s74.167 140.667 139.5 210z" />
    <glyph glyph-name="t" unicode="t" horiz-adv-x="266" 
d="M316 311h-160c-20.667 0 -37.5 -8.83301 -50.5 -26.5s-19.5 -37.5 -19.5 -59.5c0 -40.667 11.333 -81.334 34 -122.001c32.667 -58.667 59.667 -91.667 81 -99l-31 -16c-2 0 -14.333 13 -37 39c-28.667 33.333 -52 66 -70 98c-25.333 46 -38 87.667 -38 125
c0 30.667 9.16699 57.834 27.5 81.501s41.833 35.5 70.5 35.5h193v-56z" />
    <glyph glyph-name="u" unicode="u" horiz-adv-x="355" 
d="M55 510c12.667 6.66699 22.666 11.333 29.999 14c24.667 10 44 15 58 15c51.333 0 93.333 -23.667 126 -71c29.333 -42.667 44 -92.667 44 -150c0 -37.333 -10.667 -72.333 -32 -105c-24 -36.667 -53.333 -55 -88 -55c-49.333 0 -90.666 26.667 -123.999 80
c-10.667 17.333 -22.667 44 -36 80l26 14c0 -4.66699 6.33301 -17 19 -37c30.667 -48 62.667 -72 96 -72c29.333 0 52.333 15.333 69 46c14 26 21 57.333 21 94c0 34 -7.66699 62.333 -23 85c-17.333 25.333 -41 38 -71 38c-11.333 0 -25 -3.66699 -41 -11
c-21.333 -10 -36.333 -19.333 -45 -28z" />
    <glyph glyph-name="v" unicode="v" horiz-adv-x="564" 
d="M29 246v43h506v-43h-506z" />
    <glyph glyph-name="w" unicode="w" horiz-adv-x="242" 
d="M295 191c-9.33301 -9.33301 -28.6689 -20.333 -58.002 -33c-23.333 -10 -43.666 -15 -60.999 -15c-38 0 -69.667 14.333 -95 43s-38 61.334 -38 98.001c0 16 1.83301 30 5.5 42s10.167 24.333 19.5 37c-2.66699 0 -8.33398 6.66699 -17.001 20
c-22 32.667 -33 64.667 -33 96c0 14 5.83301 27.5 17.5 40.5s23.167 19.5 34.5 19.5h98l25 -59h-111c-7.33301 0 -13 -3.83301 -17 -11.5s-6 -16.834 -6 -27.501c0 -10 2.66699 -21 8 -33c8.66699 -18.667 16.334 -29 23.001 -31c22 7.33301 46.333 11 73 11l32 -1l30 -57
l-35 3c-29.333 0 -53.666 -4.66699 -72.999 -14c-24.667 -12 -37 -29.667 -37 -53c0 -25.333 9 -43 27 -53c14 -8 35 -12 63 -12c27.333 0 56.333 12.667 87 38c10 8 22.667 20.667 38 38v-86z" />
    <glyph glyph-name="x" unicode="x" horiz-adv-x="330" 
d="M338 2c-9.33301 -2 -19.6641 -3.83301 -30.9971 -5.5s-24.333 -2.5 -39 -2.5c-20 0 -46.667 23 -80 69c-30 41.333 -45 66.666 -45 75.999c-4 -0.666992 -7.33301 -1 -10 -1c-22 -3.33301 -35 -5 -39 -5c-16.667 0 -29.834 5.5 -39.501 16.5s-14.5 23.5 -14.5 37.5
s4.66699 26 14 36s22.666 15 39.999 15c6.66699 0 16.334 -2.5 29.001 -7.5s21 -9.5 25 -13.5c10 4.66699 19.833 13.834 29.5 27.501s16.167 26.5 19.5 38.5c-11.333 0 -34 13 -68 39c-43.333 32.667 -65 66 -65 100c0 32 9.5 57.167 28.5 75.5s42.833 27.5 71.5 27.5
c34 0 62 -19 84 -57c19.333 -34 29 -71 29 -111c0 -66 -18.333 -121 -55 -165c-12 -14.667 -30.667 -30 -56 -46c12 -20 22 -35 30 -45c25.333 -30.667 49.333 -46 72 -46c11.333 0 22.166 0.666992 32.499 2s18.166 3.33301 23.499 6zM211.002 305
c4.66699 9.33301 8.00098 17.333 10.001 24c7.33301 22.667 11 47.667 11 75c0 25.333 -5.5 45 -16.5 59s-23.5 21 -37.5 21c-16.667 0 -31.334 -8 -44.001 -24s-19 -32.667 -19 -50c0 -30 15.333 -56.333 46 -79c23.333 -17.333 40 -26 50 -26z" />
    <glyph glyph-name="y" unicode="y" horiz-adv-x="270" 
d="M145 348c8 5.33301 17.334 18.666 28.001 39.999c8.66699 17.333 13 33.333 13 48c0 16.667 -4.83301 30.834 -14.5 42.501s-21.834 17.5 -36.501 17.5c-16 0 -28.167 -5.5 -36.5 -16.5s-12.5 -24.833 -12.5 -41.5c0 -21.333 5.5 -41 16.5 -59s25.167 -28.333 42.5 -31z
M318.001 170c-16 -10 -28.666 -17.335 -37.999 -22.002c-30.667 -15.333 -56.334 -23 -77.001 -23c-44.667 0 -82.667 15.667 -114 47c-38.667 38.667 -58 75 -58 109l18 6c12.667 4.66699 23 9.33398 31 14.001c8 3.33301 18 9.33301 30 18c4 2.66699 9.66699 7 17 13
c-21.333 12 -37 22.333 -47 31c-31.333 26.667 -47 54.667 -47 84c0 25.333 8.33301 46.333 25 63s37.667 25 63 25c29.333 0 55.833 -13.167 79.5 -39.5s35.5 -55.5 35.5 -87.5c0 -39.333 -16 -75 -48 -107c-43.333 -43.333 -79.333 -65 -108 -65
c8 -15.333 21.167 -30.166 39.5 -44.499s35.833 -21.5 52.5 -21.5c28.667 0 61.667 13.333 99 40c12 8.66699 27.667 22 47 40v-80z" />
    <glyph glyph-name="z" unicode="z" horiz-adv-x="605" 
d="M426 201l-0.00292969 327.997l64 -54v-418c0 -14.667 4.66699 -22 14 -22c14 0 28 8.33301 42 25c4.66699 5.33301 10.334 14 17.001 26l35 -35c-8.66699 -12.667 -15.667 -22 -21 -28c-18 -19.333 -36.667 -29 -56 -29c-24 0 -46.167 10.167 -66.5 30.5
s-30.5 43.5 -30.5 69.5v84c-36 -18 -77.667 -44.333 -125 -79c-68.667 -50.667 -109 -79.667 -121 -87l-39 51l35 26c28 20 53.333 36.167 76 48.5s42.667 23.833 60 34.5c25.333 15.333 40 25 44 29c-3.33301 0 -11.333 3 -24 9s-24.167 12.667 -34.5 20
s-25.5 16.666 -45.5 27.999c-2.66699 1.33301 -6 3.33301 -10 6l-31 -23c-23.333 -17.333 -42.166 -30.666 -56.499 -39.999s-34.5 -21.666 -60.5 -36.999c-17.333 -10.667 -29.666 -17.667 -36.999 -21l-37 46l95 55c14 8.66699 30 19.5 48 32.5s28.667 21.167 32 24.5
c-6.66699 0 -21 12.333 -43 37c-27.333 30.667 -41 60 -41 88c0 30.667 11.333 54.834 34 72.501s50.667 26.5 84 26.5c30.667 0 55.5 -11.5 74.5 -34.5s28.5 -50.5 28.5 -82.5c0 -27.333 -10.333 -55.666 -31 -84.999c-18 -25.333 -29.667 -38 -35 -38
c39.333 -27.333 64.666 -44.333 75.999 -51c28.667 -16.667 57.334 -27.667 86.001 -33zM222.997 321.997c10 0 26 16.667 48 50c14.667 22 22 42.667 22 62c0 18.667 -6.33301 32.667 -19 42s-27.667 14 -45 14c-19.333 0 -35 -6.33301 -47 -19s-18 -29.667 -18 -51
c0 -17.333 5.66699 -35 17 -53c14.667 -23.333 28.667 -38.333 42 -45z" />
    <glyph glyph-name="braceleft" unicode="{" horiz-adv-x="6" 
d="M-211 541h-24.999c-4 8 -20 25 -48 51c-35.333 32.667 -63 49 -83 49c-10.667 0 -22.334 0.166992 -35.001 0.5s-24.667 0.833008 -36 1.5l-17 68h53c28 -4 68 -32.667 120 -86c47.333 -48.667 71 -76.667 71 -84zM-161.999 543c-8 38.667 -15.667 68 -23 88
c-22.667 60 -51 92.667 -85 98h-41l-23 66h53c34 -3.33301 63.667 -30.666 89 -81.999c34 -68.667 51 -125.334 51 -170.001h-21z" />
    <glyph glyph-name="bar" unicode="|" horiz-adv-x="6" 
d="M-180 164l-283 -152l-43 52l326 163v-63z" />
    <glyph glyph-name="braceright" unicode="}" horiz-adv-x="6" 
d="M-80 -123l27.0029 -52.999c-2 -2 -13.333 -5.33301 -34 -10s-40.334 -7 -59.001 -7c-35.333 2.66699 -64 10.667 -86 24c-27.333 16 -41 38.333 -41 67c0 25.333 15.667 47.333 47 66s64.333 28 99 28c49.333 0 98.666 -15 147.999 -45c36.667 -22 70 -49.667 100 -83
l37 -46h-29l-50 56c-48.667 37.333 -110.667 56 -186 56c-34 0 -63.667 -4.83301 -89 -14.5s-38 -21.834 -38 -36.501c0 -7.33301 5.66699 -12.833 17 -16.5s31.666 -5.5 60.999 -5.5c12 0 27.167 3.16699 45.5 9.5z" />
    <glyph glyph-name="asciitilde" unicode="~" horiz-adv-x="430" 
d="M182 -14c11.333 -20 20.999 -35 28.999 -45c25.333 -30.667 50 -46 74 -46c19.333 0 36.333 2.66699 51 8c6.66699 2.66699 13.667 6.33398 21 11.001l28 -64c-8 -4.66699 -14.667 -8 -20 -10c-17.333 -6.66699 -36 -10 -56 -10c-43.333 0 -83.333 25 -120 75
c-28.667 39.333 -43 67 -43 83c-24.667 0 -46.667 5.66699 -66 17c-23.333 14 -35 32.667 -35 56c0 44 22.667 66 68 66c17.333 0 33 -12.333 47 -37c4.66699 -8 10 -20.333 16 -37c26.667 3.33301 46.667 8 60 14c40.667 18.667 61 51.667 61 99
c0 23.333 -6.33301 47 -19 71c-4 8 -10.667 17.667 -20 29c-32.667 -10 -52.667 -16 -60 -18c-25.333 -6.66699 -46.333 -10 -63 -10l-20 65c14.667 1.33301 26.334 2.33301 35.001 3c24.667 2.66699 45.667 6 63 10c30 8.66699 52.667 19 68 31c20 16 30 37 30 63
c0 22.667 -10.5 39.5 -31.5 50.5s-46.5 16.5 -76.5 16.5c-14.667 0 -33 -2.33301 -55 -7s-43.333 -10.334 -64 -17.001l-20 63c29.333 10 62 15 98 15c52 0 95 -10.333 129 -31c40.667 -24.667 61 -61 61 -109c0 -38 -11.333 -67.667 -34 -89
c-7.33301 -6.66699 -19 -13.667 -35 -21c20 -13.333 38 -34.5 54 -63.5s24 -58.5 24 -88.5c0 -44.667 -18.5 -79.667 -55.5 -105s-78.167 -38 -123.5 -38z" />
    <glyph glyph-name="c157" horiz-adv-x="650" 
d="M215 381c16 6.66699 27.6689 12.334 35.002 17.001c23.333 15.333 35 31.666 35 48.999c0 22 -4.66699 37 -14 45c-6.66699 5.33301 -18.334 8 -35.001 8c-18.667 0 -33.334 -4.33301 -44.001 -13s-16 -22 -16 -40c0 -19.333 6.33301 -36 19 -50
c4 -4.66699 10.667 -10 20 -16zM383.002 66c-22 0 -46.0029 12.001 -72.0029 36.001c-31.333 29.333 -47 63 -47 101c0 21.333 6.66699 41.666 20 60.999c3.33301 4.66699 11 13 23 25l-67 37l-176 -88l-31 55c21.333 6.66699 40.333 13.667 57 21
c7.33301 3.33301 37.333 19 90 47c-13.333 4.66699 -26.166 16.5 -38.499 35.5s-18.5 37.833 -18.5 56.5c0 24.667 9.83301 44.834 29.5 60.501s46.834 23.5 81.501 23.5c26.667 0 50.667 -10 72 -30s32 -42 32 -66c0 -22.667 -11.667 -46.334 -35 -71.001
c-7.33301 -8 -19 -18 -35 -30l60 -29c12 8 23.5 12.833 34.5 14.5s26.167 2.5 45.5 2.5l30 -43c-28 -6 -48.667 -12.667 -62 -20c-41.333 -22 -62 -55 -62 -99c0 -17.333 5.5 -31.166 16.5 -41.499s28.5 -15.5 52.5 -15.5c24.667 0 46.667 11.333 66 34
c14.667 16.667 22 29 22 37v349l64 -54v-418c0 -16 4.66699 -24 14 -24c16 0 33 12.333 51 37c2.66699 4 6.33398 10 11.001 18l32 -37c-8.66699 -12.667 -15.667 -22 -21 -28c-18 -19.333 -36.667 -29 -56 -29c-30 0 -53.333 8.83301 -70 26.5s-25 42.167 -25 73.5
c-6 -6.66699 -12 -11.334 -18 -14.001c-18 -9.33301 -41.333 -14 -70 -14z" />
    <glyph glyph-name="c158" horiz-adv-x="6" 
d="M-70 779c16 0 28.833 -5.5 38.5 -16.5s14.5 -24.167 14.5 -39.5c0 -13.333 -4 -24.833 -12 -34.5s-19.667 -14.5 -35 -14.5c-16 0 -28.833 5.83301 -38.5 17.5s-14.5 24.5 -14.5 38.5s4 25.667 12 35s19.667 14 35 14zM-211 541h-24.999c-4 8 -20 25 -48 51
c-35.333 32.667 -63 49 -83 49c-10.667 0 -22.334 0.166992 -35.001 0.5s-24.667 0.833008 -36 1.5l-17 68h53c28 -4 68 -32.667 120 -86c47.333 -48.667 71 -76.667 71 -84zM-161.999 543c-8 38.667 -15.667 68 -23 88c-22.667 60 -51 92.667 -85 98h-41l-23 66h53
c34 -3.33301 63.667 -30.666 89 -81.999c34 -68.667 51 -125.334 51 -170.001h-21z" />
    <glyph glyph-name="nonbreakingspace" unicode="&#xa0;" horiz-adv-x="381" 
d="M59 443l-34.001 62.999c5.33301 3.33301 22.666 8.66602 51.999 15.999s54.333 11 75 11c76.667 0 130.334 -32.667 161.001 -98c10 -21.333 17.667 -54.333 23 -99c14 -8 28 -12 42 -12c22.667 0 40.667 8.66699 54 26v-77c-12 -6 -26.333 -9 -43 -9
c-10 0 -21.333 6 -34 18c-4 4 -9.66699 10.333 -17 19c0 -41.333 -14.5 -80.666 -43.5 -117.999s-66.5 -56 -112.5 -56c-41.333 0 -76.666 17.667 -105.999 53c-37.333 44.667 -56 84.334 -56 119.001l29 12c0 -28 12.667 -56.333 38 -85c22.667 -25.333 51 -38 85 -38
c38 0 67.333 17 88 51s31 75.333 31 124c0 37.333 -10.5 65.333 -31.5 84s-48.833 28 -83.5 28c-20.667 0 -45.334 -4.66699 -74.001 -14c-23.333 -7.33301 -37.666 -13.333 -42.999 -18z" />
    <glyph glyph-name="exclamdown" unicode="&#xa1;" horiz-adv-x="371" 
d="M232 529l23.9951 10c6.66699 -6.66699 13.5 -16.5 20.5 -29.5s10.5 -23.167 10.5 -30.5c0 -14 -10.667 -26.667 -32 -38c-16.667 -8.66699 -36 -15 -58 -19c-29.333 -3.33301 -50.666 -7.33301 -63.999 -12c-25.333 -8.66699 -39 -23 -41 -43c0 -12 6 -27 18 -45
c4 -6 10.333 -13.667 19 -23c22.667 13.333 44.334 24 65.001 32c26 10 50 15 72 15l33 -55c-40 0 -82 -14.333 -126 -43c-38.667 -25.333 -58 -56.666 -58 -93.999c0 -22.667 9 -42 27 -58s39 -24 63 -24c14 0 28 4.33301 42 13c4.66699 2.66699 10.334 7 17.001 13
c-6.66699 9.33301 -10 20 -10 32c0 14 4.5 25.833 13.5 35.5s21.5 14.5 37.5 14.5c12.667 0 23.167 -5.33301 31.5 -16s13.5 -23 15.5 -37c0 -14.667 -6.33301 -31 -19 -49c-4 -6 -10.667 -13.667 -20 -23l56 -86l-31 -22l-45 98c-6 -6 -15.667 -11.167 -29 -15.5
s-29 -6.5 -47 -6.5c-30 0 -61.667 17 -95 51c-36 36.667 -54 73.334 -54 110.001c0 25.333 6 48.666 18 69.999l21 29c-8 3.33301 -20.333 15.666 -37 36.999c-22 28 -33 54.667 -33 80c4.66699 24 17.334 43 38.001 57c16.667 11.333 40.334 20.333 71.001 27
c22.667 1.33301 40.667 3 54 5c26 4 39 12 39 24c0 6 -2.33301 11.333 -7 16z" />
    <glyph glyph-name="cent" unicode="&#xa2;" horiz-adv-x="424" 
d="M18 174l29.001 17c0 -24 20.667 -53.333 62 -88c32 -26.667 67.333 -40 106 -40c20.667 0 37.5 6.16699 50.5 18.5s19.5 29.5 19.5 51.5c0 28.667 -17 60 -51 94l-111 103c0 11.333 14.5 37.166 43.5 77.499s45.833 61.5 50.5 63.5l-53 43l18 21l93 -82l-95 -140
c34.667 -29.333 60.667 -53 78 -71c52 -55.333 78 -102.666 78 -141.999c0 -30.667 -9.33301 -54.667 -28 -72s-41.334 -26 -68.001 -26c-44 0 -94 28 -150 84c-48 48 -72 77.333 -72 88zM277.001 326c0 16.667 5.33496 29.5 16.002 38.5s23.334 13.5 38.001 13.5
c15.333 0 28.166 -4.33301 38.499 -13s15.5 -21.667 15.5 -39c0 -15.333 -5.33301 -27.333 -16 -36s-23.334 -13 -38.001 -13s-27.334 4.16699 -38.001 12.5s-16 20.5 -16 36.5z" />
    <glyph glyph-name="sterling" unicode="&#xa3;" horiz-adv-x="400" 
d="M277 525l27.999 10.001c4 -12 7 -21.333 9 -28c6.66699 -23.333 10 -41.333 10 -54c0 -24.667 -11.667 -45.667 -35 -63c-20.667 -15.333 -47.334 -26.333 -80.001 -33c-31.333 -4.66699 -57.333 -12.334 -78 -23.001c-35.333 -18.667 -53 -44 -53 -76
c0 -28.667 10.5 -54.167 31.5 -76.5s45.833 -33.5 74.5 -33.5c10.667 0 23.667 2.66699 39 8c6.66699 2 14.334 5.33301 23.001 10c-6 11.333 -9 22.666 -9 33.999c0 16.667 5.5 31.167 16.5 43.5s24.833 18.5 41.5 18.5s29.167 -5.66699 37.5 -17
s12.5 -25.666 12.5 -42.999s-3.83301 -33.333 -11.5 -48s-18.5 -24.334 -32.5 -29.001l72 -154l-33 -14l-29 64c-19.333 -13.333 -35.333 -23 -48 -29c-38.667 -19.333 -73.667 -29 -105 -29c-36.667 0 -68.667 12.5 -96 37.5s-41 55.5 -41 91.5
c0 19.333 7.33301 39.333 22 60c11.333 16 21 26 29 30c-9.33301 14.667 -18.166 32.5 -26.499 53.5s-12.5 38.167 -12.5 51.5c0 38.667 18.667 71 56 97c28 19.333 55.667 30.666 83 33.999c26 4.66699 48.667 11.334 68 20.001c28.667 12.667 43 27.334 43 44.001
c0 6.66699 -0.666992 13.667 -2 21zM108.999 141.001c-8 -9.33301 -13.668 -16.667 -17.001 -22c-12 -18.667 -18 -35 -18 -49c0 -24 5.83301 -40.833 17.5 -50.5s33.167 -16.167 64.5 -19.5c19.333 0 47 13.667 83 41c11.333 8.66699 27.333 22.334 48 41.001l-14 35
c-2 -1.33301 -12.667 -3.83301 -32 -7.5s-36 -5.5 -50 -5.5c-13.333 1.33301 -29.666 7.16602 -48.999 17.499s-30.333 16.833 -33 19.5z" />
    <glyph glyph-name="currency" unicode="&#xa4;" horiz-adv-x="990" 
d="M195 535l21.998 13.999l53 -72c-20 -13.333 -34.667 -24 -44 -32c-29.333 -25.333 -44 -48.666 -44 -69.999c0 -20 7 -40.333 21 -61c4.66699 -6.66699 12 -15 22 -25l119 61l51 -41l-124 -59c18.667 -17.333 32.334 -31.333 41.001 -42
c28 -33.333 42 -61.666 42 -84.999c0 -37.333 -15.333 -67.333 -46 -90c-28 -20.667 -61.667 -31 -101 -31c-32 0 -73.333 11 -124 33c-16.667 7.33301 -39 18.333 -67 33l13 22c22.667 -10 41 -17.333 55 -22c44 -15.333 79.667 -23 107 -23c28.667 0 53.5 9.5 74.5 28.5
s31.5 42.833 31.5 71.5c0 20 -8 41.333 -24 64c-13.333 18.667 -23 29 -29 31l-123 -62l-45 47l125 56c-6 0 -20.667 12.333 -44 37c-28 29.333 -42 56.666 -42 81.999c0 27.333 15.333 54 46 80c24.667 21.333 41.334 32 50.001 32zM770.998 360.999l0.000976562 174
l63 -54v-418c0 -14.667 5 -22 15 -22c14 0 27.667 9.33301 41 28c4 6 9.33301 15.667 16 29l37 -41c-8 -12.667 -14.667 -22 -20 -28c-18 -19.333 -36.667 -29 -56 -29c-24.667 0 -46.834 10.167 -66.501 30.5s-29.5 43.5 -29.5 69.5v209l-86 -33
c-12 -4 -33 -9.66699 -63 -17c-8.66699 -2 -20.667 -5 -36 -9l-28 67c32 0 66.667 4.83301 104 14.5zM602.999 513.999l-14.001 21l30 12l51 -88c-14.667 -3.33301 -26 -6.33301 -34 -9c-22.667 -7.33301 -42.667 -15.333 -60 -24c-30 -16.667 -54.333 -34.667 -73 -54
c-28 -28.667 -42 -59 -42 -91c0 -38.667 15 -73.667 45 -105s66.333 -47 109 -47c11.333 0 23.333 0.333008 36 1s24.667 1.66699 36 3l41 -64c-13.333 -2.66699 -29.166 -5 -47.499 -7s-33.166 -3 -44.499 -3c-50.667 0 -98.334 21.667 -143.001 65
c-48 46.667 -72 101 -72 163c0 42.667 10.333 80.667 31 114s54 62.333 100 87z" />
    <glyph glyph-name="yen" unicode="&#xa5;" horiz-adv-x="6" 
d="M-174 799c12.667 0 22.667 -4.33301 30 -13s11 -19 11 -31c0 -10.667 -3.16699 -20 -9.5 -28s-15.5 -12 -27.5 -12c-13.333 0 -23.833 4.16699 -31.5 12.5s-11.5 18.833 -11.5 31.5c0 26.667 13 40 39 40zM-350 752l22.001 19.002
c15.333 -22.667 28.666 -39.667 39.999 -51c35.333 -34.667 73.333 -52 114 -52c43.333 0 81.666 17 114.999 51c10.667 11.333 23.334 28.666 38.001 51.999l23 -19c0 -26.667 -21.667 -60.334 -65 -101.001c-32.667 -30.667 -69.667 -46 -111 -46
c-40 0 -76.333 15 -109 45c-44.667 41.333 -67 75.333 -67 102z" />
    <glyph glyph-name="brokenbar" unicode="&#xa6;" horiz-adv-x="332" 
d="M121 45c0 16.667 5.00195 29.167 15.002 37.5s22.667 12.5 38 12.5s28.333 -4.33301 39 -13s16 -21 16 -37c0 -16.667 -5.33301 -29.667 -16 -39s-23.334 -14 -38.001 -14s-27.334 4.66699 -38.001 14s-16 22.333 -16 39zM154.002 166v117
c0 48.667 -10.333 127.334 -31 236.001c-10.667 56 -16 99.667 -16 131c0 27.333 2.33301 45.666 7 54.999c8 16.667 25.333 25 52 25c23.333 0 39.333 -8.33301 48 -25c6 -12 9 -30.333 9 -55l1 -24c0 -30 -8.33301 -98.333 -25 -205
c-8.66699 -55.333 -13 -101.333 -13 -138v-117h-32z" />
    <glyph glyph-name="section" unicode="&#xa7;" horiz-adv-x="400" 
d="M275 523l28.002 8.00098c5.33301 -10.667 9 -19 11 -25c8 -20 12 -35.667 12 -47c0 -29.333 -13.667 -52.333 -41 -69c-18.667 -11.333 -47.834 -20.666 -87.501 -27.999s-71.5 -21.666 -95.5 -42.999c-18.667 -16.667 -28 -36.334 -28 -59.001
c0 -32.667 11 -59.667 33 -81s47.667 -32 77 -32c22.667 0 42.667 6.33301 60 19c-7.33301 11.333 -11 23 -11 35c0 16 5.16699 29.5 15.5 40.5s24.5 16.5 42.5 16.5c16 0 29.167 -5.83301 39.5 -17.5s15.5 -26.834 15.5 -45.501c0 -20.667 -4.66699 -37 -14 -49
c-6 -8 -17 -15.667 -33 -23l68 -141l-33 -15l-63 142c-6.66699 -1.33301 -13.834 -2 -21.501 -2h-19.5l-128 -121l-55 35l119 88c-30.667 14.667 -53.334 28 -68.001 40c-46 37.333 -69 82 -69 134c0 42 17.333 75 52 99c19.333 13.333 46.333 24.666 81 33.999l77 19
c26.667 9.33301 41.334 25 44.001 47c0 6.66699 -0.833008 13.5 -2.5 20.5s-3.5 13.833 -5.5 20.5z" />
    <glyph glyph-name="dieresis" unicode="&#xa8;" horiz-adv-x="533" 
d="M45 375l-26.9961 62.998c4 2 18.167 6.33301 42.5 13s44.5 10 60.5 10c40.667 0 74 -13 100 -39c31.333 -31.333 47 -62 47 -92c12.667 6 26.667 10.5 42 13.5s31 4.5 47 4.5v173l61 -41v-144c18 -9.33301 31.333 -18.333 40 -27c26.667 -27.333 40 -64.666 40 -111.999
c0 -66 -15.667 -119.667 -47 -161c-10 -13.333 -25.667 -27.333 -47 -42l-50 41c25.333 22.667 44 41.334 56 56.001c38 44.667 57 84 57 118c0 29.333 -8.33301 52 -25 68s-38.334 24 -65.001 24c-14.667 0 -35 -3 -61 -9c-8.66699 -2 -20.334 -5 -35.001 -9
c2 -8 3.83301 -16.667 5.5 -26s2.5 -18.333 2.5 -27c0 -65.333 -11 -117.666 -33 -156.999c-26.667 -47.333 -65.667 -71 -117 -71c-30 0 -57 16.667 -81 50c-33.333 46 -50 84 -50 114l23 14c0 -22.667 13.333 -49.334 40 -80.001c19.333 -22.667 41.333 -34 66 -34
c36 0 64.667 20 86 60c18.667 34.667 28 73 28 115l-3 34l-150 -45l-14 57l156 33c-6.66699 28 -19.834 49.333 -39.501 64s-42.834 22 -69.501 22c-31.333 0 -60 -10.333 -86 -31z" />
    <glyph glyph-name="copyright" unicode="&#xa9;" horiz-adv-x="305" 
d="M252 -4c-5.33301 9.33301 -9.33008 16.999 -11.9971 22.999c-10.667 20 -17.667 34.667 -21 44l-22 54c-2 -0.666992 -4 -1 -6 -1c-16 -3.33301 -33.333 -5 -52 -5c-23.333 2 -47.5 17.833 -72.5 47.5s-37.5 59.5 -37.5 89.5c0 24.667 9.33301 49 28 73
c25.333 32.667 48 51.334 68 56.001c-12.667 10 -22 18.333 -28 25c-19.333 22 -29 43.667 -29 65c0 22.667 9.66699 41.334 29 56.001s41.666 22 66.999 22c28 0 52.333 -9.66699 73 -29s31 -43 31 -71c0 -26 -9 -48 -27 -66c-19.333 -14 -29.333 -21.333 -30 -22
c8 -2.66699 14.333 -4.33398 19 -5.00098c16 -4 27.333 -6 34 -6c19.333 0 43.333 9.33301 72 28c4.66699 2.66699 10.667 7 18 13v-71c-10 -2.66699 -17.667 -4.33398 -23 -5.00098c-20 -4 -34 -6 -42 -6c-21.333 0 -48.666 7.33301 -81.999 22
c-16 8.66699 -24.333 13 -25 13c-24 -13.333 -41.667 -24.666 -53 -33.999c-35.333 -28 -53 -55.667 -53 -83c0 -22.667 7 -39.5 21 -50.5s32.333 -16.5 55 -16.5c3.33301 0 7.16602 0.666992 11.499 2l12.5 4c0 22 6.16699 40.833 18.5 56.5s28.166 23.5 47.499 23.5
c11.333 0 20.666 -5 27.999 -15s11 -22 11 -36c0 -15.333 -8.66699 -30.333 -26 -45c-5.33301 -4.66699 -14 -10.334 -26 -17.001l25 -57c5.33301 -9.33301 13 -20.666 23 -33.999c8 -10.667 14 -18 18 -22zM158.003 392.999c16.667 0 30.834 7.50098 42.501 22.501
s17.5 30.833 17.5 47.5c0 14 -3.83301 25.333 -11.5 34s-19.834 13 -36.501 13c-15.333 0 -27.5 -5.5 -36.5 -16.5s-13.5 -24.5 -13.5 -40.5c0 -14.667 3.16699 -27.334 9.5 -38.001s15.833 -18 28.5 -22z" />
    <glyph glyph-name="ordfeminine" unicode="&#xaa;" horiz-adv-x="680" 
d="M410 529l65 -53.999v-418c0 -14.667 4.33301 -22 13 -22c16 0 32.667 11 50 33c2.66699 3.33301 6.33398 8.66602 11.001 15.999l33 -33c-8 -12.667 -14.667 -22 -20 -28c-18 -19.333 -36.667 -29 -56 -29c-24.667 0 -46.834 10.167 -66.501 30.5s-29.5 43.5 -29.5 69.5
v435zM27 531.001l64.999 -47.001v-271c14.667 0 57 -19.333 127 -58c78 -43.333 117 -78 117 -104c0 -20 -4.66699 -34.667 -14 -44c-13.333 -14 -38 -21 -74 -21c-21.333 0 -46.333 5.83301 -75 17.5s-44 19.5 -46 23.5l12 32c11.333 -7.33301 20.333 -12.666 27 -15.999
c22.667 -12 43 -18.667 61 -20c14.667 0 25.334 1.83301 32.001 5.5s12.667 12.5 18 26.5l2 8c0 23.333 -39.667 54 -119 92c-72 34.667 -116.333 52 -133 52v324zM173.999 447l-30.998 59.0029c9.33301 7.33301 21 13.666 35 18.999s27 8 39 8c42 0 76.333 -21.333 103 -64
c23.333 -38 35 -81.667 35 -131c0 -28.667 -7.66699 -54.334 -23 -77.001c-20.667 -30.667 -49.334 -46 -86.001 -46c-26 0 -48.333 9.33301 -67 28c-24 24 -36 45.333 -36 64l23 17c6.66699 -18 14.334 -30.667 23.001 -38c11.333 -10 27.666 -15 48.999 -15
c24 0 42.667 10.167 56 30.5s20 44.833 20 73.5s-4.66699 52 -14 70c-11.333 22.667 -29.333 34 -54 34c-10 0 -21.333 -3 -34 -9c-18.667 -8.66699 -31.334 -16.334 -38.001 -23.001zM203.001 -71.9971l36.999 2l19 -35c18.667 -26 43 -47.667 73 -65
c42.667 -24 92 -36 148 -36c46.667 0 79.5 5.66699 98.5 17s28.5 27 28.5 47c0 15.333 -7.33301 26.666 -22 33.999s-33.334 11 -56.001 11c-14 0 -30.333 -3.33301 -49 -10c-6.66699 -2.66699 -15.667 -6.66699 -27 -12l-33 65c12.667 2.66699 22.667 4.33398 30 5.00098
c22.667 3.33301 41.334 5 56.001 5c34 0 63.333 -7.33301 88 -22c33.333 -20 50 -49.333 50 -88c0 -34 -15.167 -60.667 -45.5 -80s-65.833 -29 -106.5 -29c-65.333 0 -124.666 19.667 -177.999 59c-74 54 -111 98 -111 132z" />
    <glyph glyph-name="guillemotleft" unicode="&#xab;" horiz-adv-x="717" 
d="M676 525l0.00292969 -89.002l-147 -165c10 -16.667 17.333 -30.667 22 -42c15.333 -36.667 23 -72.667 23 -108c0 -32.667 -9.66699 -61.334 -29 -86.001c-22.667 -28.667 -53.334 -43 -92.001 -43c-28.667 0 -51.834 10.667 -69.501 32s-26.5 48 -26.5 80
c0 34.667 18.667 78.334 56 131.001c30.667 43.333 50.667 67.333 60 72c-5.33301 8.66699 -12.333 17.334 -21 26.001s-17.334 15 -26.001 19l-149 -213l-70 41l176 213c-33.333 24.667 -60.666 41.5 -81.999 50.5s-41 13.5 -59 13.5c5.33301 -12 9 -21.333 11 -28
c7.33301 -21.333 11 -38.666 11 -51.999c0 -34 -12.667 -65 -38 -93s-55 -42 -89 -42c-35.333 0 -66 13 -92 39s-39 56.667 -39 92c0 43.333 19.667 79.833 59 109.5s82 44.5 128 44.5c48.667 0 98.667 -17 150 -51c35.333 -23.333 70.666 -55 105.999 -95l41 -51z
M496.003 241.998c-5.33301 0 -23 -20 -53 -60c-32 -42.667 -48 -70.667 -48 -84c0 -18 4.33301 -31.333 13 -40s23 -13 43 -13c21.333 0 38.333 10.5 51 31.5s19 43.167 19 66.5c0 27.333 -3.66699 51 -11 71zM211.003 458.998
c-7.33301 1.33301 -12.999 1.99707 -16.999 1.99707c-30.667 0 -60.334 -6.33301 -89.001 -19c-38.667 -17.333 -58 -41.666 -58 -72.999c0 -21.333 7.5 -37.666 22.5 -48.999s32.833 -17 53.5 -17c35.333 0 61 11 77 33c12 16.667 18 39 18 67
c0 13.333 -0.666992 24.333 -2 33s-3 16.334 -5 23.001z" />
    <glyph glyph-name="logicalnot" unicode="&#xac;" horiz-adv-x="373" 
d="M232 588h61l-31 -184h-71zM92 588h60l-38 -184h-63z" />
    <glyph glyph-name="minus" unicode="&#xad;" horiz-adv-x="514" 
d="M49 436l-35.002 64.001c14.667 7.33301 30.167 13.333 46.5 18s31.833 7 46.5 7c48.667 0 88.167 -16.5 118.5 -49.5s45.5 -73.5 45.5 -121.5c16 6 32.333 9 49 9c38.667 0 72.834 -14.5 102.501 -43.5s44.5 -63.833 44.5 -104.5c0 -38 -7.33301 -69.667 -22 -95
c-4.66699 -8 -13 -18 -25 -30l-51 53c10 0 21.667 11 35 33c10.667 18 16 38 16 60c0 26.667 -8.66699 47 -26 61s-38.666 21 -63.999 21c-27.333 0 -54.666 -16.667 -81.999 -50c-36 -44 -60 -69.667 -72 -77l-24 -11c0 -8.66699 10.333 -27.667 31 -57
c25.333 -36 51 -55.667 77 -59l28 -2c13.333 0 22.5 0.333008 27.5 1s9.16699 1.66699 12.5 3l27 -72l-66 -2c-31.333 0 -67.666 29.667 -108.999 89c-35.333 50.667 -53 81.667 -53 93l-26 -3c-22.667 0 -41.334 4.33301 -56.001 13c-18 10.667 -27 26 -27 46
c0 18.667 5.16699 33.167 15.5 43.5s23.833 15.5 40.5 15.5c12 0 24.667 -7.33301 38 -22c4 -4.66699 9.66699 -12.334 17 -23.001c21.333 0 44.333 14.333 69 43c20.667 24 32.667 54 36 90c0 28 -8.66699 51.333 -26 70s-39 28 -65 28
c-20.667 0 -42.334 -6.33301 -65.001 -19c-7.33301 -4 -17 -10.667 -29 -20z" />
    <glyph glyph-name="registered" unicode="&#xae;" 
d="M309 590c0 -36 14.668 -76.667 44.001 -122l82 -121c29.333 -51.333 44 -102.666 44 -153.999c0 -67.333 -16.5 -118.333 -49.5 -153s-78.5 -52 -136.5 -52c-50.667 0 -95.834 16.833 -135.501 50.5s-59.5 72.167 -59.5 115.5c0 23.333 4.83301 45 14.5 65
s20.834 34.333 33.501 43c-22 14.667 -38.333 27.334 -49 38.001c-33.333 33.333 -50 67.333 -50 102c0 24 14.333 47 43 69c23.333 18 39 27 47 27l-14 27l25 12l45 -86c-18.667 0 -39.667 -9.33301 -63 -28c-18.667 -14.667 -28 -32 -28 -52c0 -18.667 6 -35.667 18 -51
c17.333 -22 33.333 -33 48 -33c9.33301 8 19.166 14.5 29.499 19.5s20.833 7.5 31.5 7.5l31 -56c-22 0 -48 -14.667 -78 -44c-24 -23.333 -36 -50.333 -36 -81c0 -32.667 11.667 -58.167 35 -76.5s52.333 -27.5 87 -27.5c44.667 0 81.5 16 110.5 48s43.5 71.333 43.5 118
c0 64.667 -14.667 123.667 -44 177l-82 121c-29.333 45.333 -44 90.666 -44 135.999c0 40 12.833 73.167 38.5 99.5s60.5 39.5 104.5 39.5c50.667 0 91 -25.333 121 -76c10 -16.667 20.333 -42.334 31 -77.001l-24 -13c-8 24.667 -16 43 -24 55c-24 37.333 -55 56 -93 56
c-27.333 0 -50.333 -12 -69 -36s-28 -53 -28 -87z" />
    <glyph glyph-name="macron" unicode="&#xaf;" horiz-adv-x="230" 
d="M51 35l0.000976562 493.999l62 -54v-495h-30c-34.667 0 -60.334 -3 -77.001 -9c-27.333 -10 -41 -28.333 -41 -55c0 -20.667 13.5 -37.167 40.5 -49.5s57.833 -18.5 92.5 -18.5c23.333 0 46.333 3.66699 69 11c20.667 8.66699 32 13.334 34 14.001l28 -57
c-14 -5.33301 -25.333 -9 -34 -11c-28.667 -8 -52.667 -12 -72 -12c-51.333 0 -96.333 11.667 -135 35c-42.667 26 -64 59.333 -64 100c0 32.667 12.667 58.667 38 78s55 29 89 29z" />
    <glyph glyph-name="degree" unicode="&#xb0;" horiz-adv-x="6" 
d="M-43 -68c-14 1.33301 -24.9951 1.99902 -32.9951 1.99902c-32 2 -52.333 3 -61 3c-22 0 -42.167 -5.66699 -60.5 -17s-27.5 -26.333 -27.5 -45c0 -20 13.667 -36 41 -48s58.666 -18 93.999 -18c23.333 0 45.166 3.16699 65.499 9.5s32.5 11.5 36.5 15.5l29 -59
c-14.667 -4.66699 -26.334 -8 -35.001 -10c-29.333 -7.33301 -53.333 -11 -72 -11c-50.667 0 -95.334 11.667 -134.001 35c-42.667 26 -64 59.333 -64 100c0 34.667 14.5 60.834 43.5 78.501s62.833 26.5 101.5 26.5c17.333 0 33.666 -2 48.999 -6z" />
    <glyph glyph-name="plusminus" unicode="&#xb1;" horiz-adv-x="915" 
d="M342 18c-10 -6.66699 -18.332 -11.334 -24.999 -14.001c-20.667 -9.33301 -41.667 -14 -63 -14c-31.333 0 -58.666 16.333 -81.999 49c-7.33301 10.667 -16 27 -26 49l-39 -2c-16 0 -29.167 6.5 -39.5 19.5s-15.5 27.167 -15.5 42.5c0 14 3.83301 25.333 11.5 34
s19.834 13 36.501 13c11.333 0 23.333 -7 36 -21c4 -4.66699 9.33301 -12 16 -22c22 0 43 6 63 18c23.333 14 35 31 35 51c0 16 -3.33301 27 -10 33s-16.667 9 -30 9c-6.66699 0 -17 -1.16699 -31 -3.5s-23 -3.5 -27 -3.5c-32 0 -59.833 12.5 -83.5 37.5
s-35.5 53.5 -35.5 85.5s11.5 58.5 34.5 79.5s50.5 31.5 82.5 31.5c39.333 0 75.5 -16.167 108.5 -48.5s56.167 -48.5 69.5 -48.5c10.667 0 26 4.33301 46 13c3.33301 1.33301 7.66602 3.33301 12.999 6v-70c-8 -3.33301 -14.333 -5.66602 -19 -6.99902
c-14.667 -4.66699 -26.667 -7 -36 -7c-24.667 0 -58 18.333 -100 55s-77 55 -105 55c-19.333 0 -34.333 -6 -45 -18s-16 -26.333 -16 -43c0 -17.333 5.66699 -32.333 17 -45s26.666 -19 45.999 -19c18.667 0 35 0.666992 49 2l31 3c14 0 30.667 -9.33301 50 -28
c22.667 -22 34 -46.333 34 -73c0 -28 -18 -58 -54 -90c-29.333 -26 -48.333 -39 -57 -39c2.66699 -5.33301 8 -12 16 -20c11.333 -11.333 21.666 -17 30.999 -17c14.667 0 30 2.5 46 7.5s25.333 8.83301 28 11.5zM413.001 480l2 35.002c10 4.66699 21.333 7 34 7
c26.667 0 50.5 -9.83301 71.5 -29.5s31.5 -43.834 31.5 -72.501c0 -32 -10.333 -61 -31 -87c-28.667 -36 -52.334 -54 -71.001 -54c5.33301 -12 11 -21 17 -27c18.667 -18.667 44.334 -28 77.001 -28c26.667 0 57.667 10 93 30c30 16.667 45.667 27.667 47 33v232l65 -54
v-418c0 -14.667 4.66699 -22 14 -22c16 0 33 12.667 51 38c2.66699 4 6.33398 10.333 11.001 19l33 -41c-8 -12.667 -14.667 -22 -20 -28c-18 -19.333 -36.667 -29 -56 -29c-24.667 0 -47.167 10.167 -67.5 30.5s-30.5 43.5 -30.5 69.5v117
c-19.333 -12.667 -37.833 -21.334 -55.5 -26.001s-38.834 -7 -63.501 -7c-57.333 0 -104 27 -140 81c-12 18 -24.333 45 -37 81c21.333 6 37.333 12 48 18c32.667 18.667 49 44.667 49 78c0 17.333 -5.33301 31 -16 41s-24 15 -40 15z" />
    <glyph glyph-name="twosuperior" unicode="&#xb2;" horiz-adv-x="760" 
d="M105 380h570v-90h-570v90zM295 495c0 20 7 37 21 51s31 21 51 21c19.333 0 36.333 -7 51 -21s22 -31 22 -51s-7 -37 -21 -51s-31.333 -21 -52 -21c-20 0 -37 7 -51 21s-21 31 -21 51zM295 180c0 20 7 37 21 51s31 21 51 21c19.333 0 36.333 -7 51 -21s22 -31 22 -51
s-7 -37 -21 -51s-31.333 -21 -52 -21c-20 0 -37 7 -51 21s-21 31 -21 51z" />
    <glyph glyph-name="threesuperior" unicode="&#xb3;" horiz-adv-x="332" 
d="M-246 -105c0 16 5.33496 28.667 16.002 38s23.667 14 39 14s28.166 -4.33301 38.499 -13s15.5 -21.667 15.5 -39c0 -16.667 -5.33301 -29.667 -16 -39s-23.334 -14 -38.001 -14c-15.333 0 -28.333 4.5 -39 13.5s-16 22.167 -16 39.5z" />
    <glyph glyph-name="acute" unicode="&#xb4;" horiz-adv-x="564" 
d="M29 246v43h233v229h43v-229h230v-43h-230v-232h-43v232h-233z" />
    <glyph glyph-name="mu" unicode="&#xb5;" horiz-adv-x="664" 
d="M549 512v-455.003c0 -14.667 5 -22 15 -22c13.333 0 26.666 9 39.999 27c4 6 9.66699 15.333 17 28l37 -39c-8 -12.667 -14.667 -22 -20 -28c-18 -19.333 -36.667 -29 -56 -29c-24.667 0 -46.834 10.167 -66.501 30.5s-29.5 43.5 -29.5 69.5v461
c0 32.667 -16.167 62.334 -48.5 89.001s-71.5 40 -117.5 40c-92.667 0 -161.667 -39 -207 -117c-37.333 -64.667 -56 -147.667 -56 -249c0 -86 14 -151.667 42 -197c30.667 -49.333 77 -74 139 -74c31.333 0 57.833 10.5 79.5 31.5s32.5 49.5 32.5 85.5
c0 20 -4 39.667 -12 59c-2.66699 6 -6.66699 13.667 -12 23l-25.5 -15.5c-8.33301 -5 -17.5 -8.83301 -27.5 -11.5l-39 56c30 8 52.333 15.667 67 23c45.333 23.333 68 54.333 68 93c0 22.667 -6.16699 40.667 -18.5 54s-30.166 20 -53.499 20
c-16.667 0 -34 -5.33301 -52 -16c-13.333 -8 -21.333 -14.333 -24 -19l-43 58l46 23c18 6.66699 33.333 10 46 10c38 0 69.833 -15.167 95.5 -45.5s38.5 -65.166 38.5 -104.499c0 -16 -5 -34.333 -15 -55c-13.333 -27.333 -25.666 -46.666 -36.999 -57.999
c11.333 -18 19.666 -32.667 24.999 -44c16.667 -34.667 25 -65 25 -91c0 -46.667 -16.667 -81.667 -50 -105c-26.667 -18.667 -60.667 -28 -102 -28c-76 0 -134.667 38.333 -176 115c-35.333 65.333 -53 146.333 -53 243c0 102 19.333 188.333 58 259
c48.667 88.667 119.334 133 212.001 133c77.333 0 142.333 -31 195 -93c42 -49.333 63 -94.333 63 -135z" />
    <glyph glyph-name="paragraph" unicode="&#xb6;" horiz-adv-x="6" 
d="M-350 760l22.001 19.002c15.333 -22.667 28.666 -39.667 39.999 -51c35.333 -34.667 73.333 -52 114 -52c43.333 0 81.666 17 114.999 51c10.667 11.333 23.334 28.666 38.001 51.999l23 -19c0 -26.667 -21.667 -60.334 -65 -101.001
c-32.667 -30.667 -69.667 -46 -111 -46c-40 0 -76.333 15 -109 45c-44.667 41.333 -67 75.333 -67 102z" />
    <glyph glyph-name="periodcentered" unicode="&#xb7;" horiz-adv-x="396" 
d="M57 551l119 -16v-12l-119 -19v47zM223 535l117 16v-43l-117 15v12zM135 395l-37 29l84 90l9 -8zM215 547l-10 6l59 117l39 -33zM215 512l86 -90l-39 -31l-57 115zM191 553l-9 -6l-84 96l39 27z" />
    <glyph glyph-name="periodcentered" unicode="&#x2219;" horiz-adv-x="396" 
d="M57 551l119 -16v-12l-119 -19v47zM223 535l117 16v-43l-117 15v12zM135 395l-37 29l84 90l9 -8zM215 547l-10 6l59 117l39 -33zM215 512l86 -90l-39 -31l-57 115zM191 553l-9 -6l-84 96l39 27z" />
    <glyph glyph-name="cedilla" unicode="&#xb8;" horiz-adv-x="332" 
d="M121 318c0 17.333 4.99902 30.499 14.999 39.499s22.667 13.5 38 13.5s28.333 -4.66699 39 -14s16 -22.333 16 -39c0 -16 -5.5 -28.5 -16.5 -37.5s-23.5 -13.5 -37.5 -13.5c-15.333 0 -28.166 4.33301 -38.499 13s-15.5 21.334 -15.5 38.001zM175.999 -8.00098
c-12.667 0 -23.333 2.66797 -32 8.00098c-15.333 9.33301 -23 24.333 -23 45c0 16 5.5 28.5 16.5 37.5s23.833 13.5 38.5 13.5c15.333 0 28 -4.33301 38 -13s15 -21.334 15 -38.001c0 -49.333 -9.66699 -93 -29 -131c-26.667 -53.333 -51 -80 -73 -80l-22 25
c23.333 10 41 28 53 54s18 52.333 18 79z" />
    <glyph glyph-name="onesuperior" unicode="&#xb9;" horiz-adv-x="426" 
d="M215 531l-25.9971 54.0029l26 10l47 -109c-22.667 -15.333 -47.334 -27.333 -74.001 -36c-21.333 -6.66699 -49 -12.667 -83 -18c-6.66699 0 -13.167 -3.83301 -19.5 -11.5s-9.5 -18.167 -9.5 -31.5c0 -26 10.333 -51.333 31 -76c16.667 -20 28.667 -30 36 -30
c8.66699 4.66699 15.667 8 21 10c15.333 6.66699 29 12 41 16c14 3.33301 31 6.66602 51 9.99902c3.33301 0 8 0.333008 14 1l35 -58c-42.667 -6.66699 -74.334 -13.667 -95.001 -21c-63.333 -23.333 -95 -58 -95 -104c0 -20.667 9.16699 -39.834 27.5 -57.501
s40.5 -26.5 66.5 -26.5c13.333 0 29 3 47 9c25.333 8.66699 41 16 47 22c-7.33301 9.33301 -11 20.333 -11 33c0 13.333 4.66699 24.5 14 33.5s22.666 13.5 39.999 13.5c13.333 0 24.833 -5.16699 34.5 -15.5s14.5 -22.833 14.5 -37.5c0 -24 -17.5 -47.833 -52.5 -71.5
s-68.5 -35.5 -100.5 -35.5c-45.333 0 -85.333 16.667 -120 50s-52 70.666 -52 111.999c0 18 5 36 15 54c14 24.667 26.667 40 38 46c-11.333 2.66699 -28 17 -50 43c-29.333 34.667 -44 71.667 -44 111c0 33.333 16.333 56.666 49 69.999
c1.33301 0.666992 31.333 7.33398 90 20.001c10.667 3.33301 21 7.33301 31 12c4 2 9.33301 5 16 9z" />
    <glyph glyph-name="ordmasculine" unicode="&#xba;" horiz-adv-x="510" 
d="M23 436l0.000976562 93.002c4.66699 2 9 3.66699 13 5c17.333 6 32.666 9 45.999 9c21.333 0 41.333 -9.33301 60 -28c16 -16 24 -30 24 -42v-145c0 -22 7.66699 -39 23 -51c4 2 7 3.33301 9 4c16.667 8 30.667 12 42 12h90v236l65 -54v-418
c0 -14.667 4.33301 -22 13 -22c15.333 0 32 11.667 50 35c2.66699 3.33301 6.33398 8.66602 11.001 15.999l33 -35c-8 -12.667 -14.667 -22 -20 -28c-18 -19.333 -36.667 -29 -56 -29c-24.667 0 -46.834 10.167 -66.501 30.5s-29.5 43.5 -29.5 69.5v138
c-15.333 4 -31 6 -47 6c-37.333 0 -69 -9 -95 -27c-30 -20.667 -45 -48.667 -45 -84c0 -46 8.66699 -82.333 26 -109c3.33301 -5.33301 8.33301 -11.333 15 -18l-26 -16c-16.667 20 -29 36.667 -37 50c-24.667 40 -37 77.333 -37 112c0 32.667 7 57.667 21 75
c9.33301 11.333 28.333 25.666 57 42.999l-62 86v138c0 10.667 -3.33301 16 -10 16c-8 -0.666992 -21.167 -11 -39.5 -31s-27.5 -32.333 -27.5 -37z" />
    <glyph glyph-name="guillemotright" unicode="&#xbb;" horiz-adv-x="424" 
d="M252 563l22.999 13l43 -78c-2.66699 0 -11.667 -1.16699 -27 -3.5s-30.833 -5 -46.5 -8s-29.834 -6.83301 -42.501 -11.5s-19.334 -10 -20.001 -16c34 -15.333 68 -31.666 102 -48.999c68.667 -35.333 103 -75 103 -119c0 -26 -7 -46.333 -21 -61
c-9.33301 -9.33301 -26.666 -20.333 -51.999 -33l-53 -22c-20.667 -10 -31 -19 -31 -27c26 -5.33301 52 -11.666 78 -18.999c52.667 -15.333 79 -41.333 79 -78c0 -28 -12.5 -49.333 -37.5 -64s-55.5 -22 -91.5 -22c-52 0 -105 17.667 -159 53c-18 11.333 -40 29.333 -66 54
l16 20c8 -16.667 35.667 -36.334 83 -59.001c37.333 -18 73.333 -27 108 -27c24.667 0 44 3.33301 58 10c18.667 8.66699 28 22.334 28 41.001c0 28 -29.333 48 -88 60s-88 23 -88 33s12.333 22 37 36s39.667 21 45 21c-10.667 2.66699 -28 10.667 -52 24
c-15.333 8 -29.666 17 -42.999 27c-18 12 -40.333 31.333 -67 58l-37 38l22 23c0 -8 21.333 -30.333 64 -67c50 -42.667 93 -64 129 -64c24 0 43 4 57 12c18 10 27 26.333 27 49c0 23.333 -13.667 43.666 -41 60.999l-47 27c-2.66699 2 -30 13.333 -82 34
c-35.333 14 -53 27.333 -53 40c0 11.333 9 22.333 27 33c9.33301 5.33301 27 13.666 53 24.999c13.333 4.66699 27.833 8.5 43.5 11.5s26.834 4.5 33.501 4.5z" />
    <glyph glyph-name="onequarter" unicode="&#xbc;" 
d="M109 461l-21 61.998c15.333 4.66699 27.666 8 36.999 10c28.667 6.66699 52 10 70 10c46 0 85.5 -18.167 118.5 -54.5s49.5 -78.833 49.5 -127.5c0 -60 -19.667 -107.333 -59 -142c-12.667 -11.333 -32.667 -23 -60 -35c9.33301 -26.667 18 -46.667 26 -60
c24.667 -40 55 -60 91 -60c17.333 0 35 4 53 12c6 2.66699 13.333 6.66699 22 12l21 -67c-13.333 -5.33301 -23.666 -9.33301 -30.999 -12c-24.667 -8.66699 -43.667 -13 -57 -13c-43.333 0 -82.333 30.667 -117 92c-11.333 20 -24.333 50.667 -39 92l-37 -2
c-16 2 -30.5 9.16699 -43.5 21.5s-19.5 25.833 -19.5 40.5s5.16699 27.5 15.5 38.5s22.833 16.5 37.5 16.5c11.333 0 24.666 -6.66699 39.999 -20c4.66699 -4 11 -11 19 -21c24 10.667 41.667 20.334 53 29.001c36 28 54 60.667 54 98c0 32.667 -10 58.334 -30 77.001
s-50.333 28 -91 28c-21.333 0 -48 -5.33301 -80 -16c-5.33301 -1.33301 -12.666 -4.33301 -21.999 -9z" />
    <glyph glyph-name="onehalf" unicode="&#xbd;" horiz-adv-x="641" 
d="M410 326c-4.66699 0 -15.668 1.66504 -33.001 4.99805c-5.33301 0.666992 -13.666 2.33398 -24.999 5.00098c-12 -14.667 -22.667 -25.667 -32 -33c-29.333 -22 -63 -33 -101 -33c-30 0 -58.667 12 -86 36s-41 46.333 -41 67v102c-2 6.66699 -3.33301 10.667 -4 12
c-2.66699 4.66699 -6 7 -10 7c-10.667 0 -24 -10.833 -40 -32.5s-24 -36.167 -24 -43.5v105c12.667 5.33301 26.334 8 41.001 8c25.333 0 47.833 -7 67.5 -21s29.5 -33.667 29.5 -59v-76c0 -8 1 -16 3 -24c7.33301 -29.333 26 -46 56 -50c26 0 47.5 7.16699 64.5 21.5
s25.5 29.833 25.5 46.5c-6 0 -15 9.66699 -27 29c-8 13.333 -12 25.333 -12 36s3.66699 20.334 11 29.001c10 11.333 23.667 17 41 17c18.667 0 33.334 -7.33301 44.001 -22s16 -31.667 16 -51c0 -14.667 -2.33301 -26.667 -7 -36c4.66699 -1.33301 11.667 -2 21 -2
c32.667 0 57 13 73 39v121l64 -54v-418c0 -14.667 4.66699 -22 14 -22c14 0 27.667 9 41 27c4 6 9.33301 15.333 16 28l37 -39c-8 -12.667 -14.667 -22 -20 -28c-18 -19.333 -36.667 -29 -56 -29c-24.667 0 -46.834 10.167 -66.501 30.5s-29.5 43.5 -29.5 69.5v117l-166 -39
c-22 -4.66699 -38.833 -11.167 -50.5 -19.5s-17.5 -20.833 -17.5 -37.5c0 -14 16.333 -33.333 49 -58c30 -22.667 47.333 -34 52 -34l-29 -23c-29.333 18.667 -51 34 -65 46c-44 36.667 -66 69.667 -66 99c0 23.333 8.33301 41.666 25 54.999
c12.667 10.667 31.667 18.334 57 23.001l211 43v70c-8 -2.66699 -16.333 -5 -25 -7s-17.334 -3 -26.001 -3z" />
    <glyph glyph-name="threequarters" unicode="&#xbe;" horiz-adv-x="531" 
d="M156 324c-20.667 0 -37.5 -8.66699 -50.5 -26s-19.5 -37.333 -19.5 -60c0 -40.667 11.333 -82.667 34 -126c34 -65.333 61 -101.333 81 -108l-31 -16c-2 0 -14.333 14.333 -37 43c-28.667 36 -52 71 -70 105c-25.333 48 -38 90.667 -38 128c0 30 9.33301 57 28 81
s42 36 70 36h229v148l64 -54v-418c0 -14.667 4.66699 -22 14 -22c13.333 0 27.333 9.66699 42 29c4.66699 6 10.667 16 18 30l35 -43c-8 -12.667 -14.667 -22 -20 -28c-18 -19.333 -36.667 -29 -56 -29c-26 0 -48.667 10 -68 30s-29 43.333 -29 70v117l-108 -20l18 -54
c0 -10.667 -3.33301 -16 -10 -16c-11.333 0 -31.5 12.167 -60.5 36.5s-43.5 41.5 -43.5 51.5c0 13.333 3.33301 20.333 10 21l194 30v64h-196z" />
    <glyph glyph-name="questiondown" unicode="&#xbf;" horiz-adv-x="580" 
d="M0 393h375v-67h-137c-12.667 0 -24.667 -7.66699 -36 -23c-13.333 -18 -20 -40.333 -20 -67c0 -59.333 17 -115.333 51 -168c11.333 -17.333 28.666 -38 51.999 -62l-31 -10c-31.333 38 -54.666 68.667 -69.999 92c-47.333 70.667 -71 126.667 -71 168
c0 16 6.33301 33 19 51c4.66699 6.66699 12 15 22 25l-131 -4zM375 514l61.999 -54v-418c0 -14.667 5.33301 -22 16 -22c14 0 28 8.66699 42 26c4.66699 5.33301 10.334 14.333 17.001 27l35 -37c-8.66699 -12.667 -15.667 -22 -21 -28c-18 -19.333 -36.667 -29 -56 -29
c-24 0 -45.833 10.167 -65.5 30.5s-29.5 43.5 -29.5 69.5v435z" />
    <glyph glyph-name="Agrave" unicode="&#xc0;" horiz-adv-x="405" 
d="M0 393h445v-67h-207c-12.667 0 -24.667 -7.66699 -36 -23c-13.333 -18 -20 -40.333 -20 -67c0 -59.333 17 -115.333 51 -168c11.333 -17.333 28.666 -38 51.999 -62l-31 -10c-31.333 38 -54.666 68.667 -69.999 92c-47.333 70.667 -71 126.667 -71 168
c0 16 6.33301 33 19 51c4.66699 6.66699 12 15 22 25l-131 -4z" />
    <glyph glyph-name="Aacute" unicode="&#xc1;" horiz-adv-x="230" 
d="M51 529l61.999 -54v-418c0 -14.667 5.33301 -22 16 -22c14 0 28 8.66699 42 26c4.66699 5.33301 10.334 14.333 17.001 27l35 -37c-8.66699 -12.667 -15.667 -22 -21 -28c-18 -19.333 -36.667 -29 -56 -29c-24 0 -45.833 10.167 -65.5 30.5s-29.5 43.5 -29.5 69.5v435z
M79.999 571h-24.999c-4 8 -20 25 -48 51c-35.333 32.667 -63 49 -83 49c-10.667 0 -22.334 0.166992 -35.001 0.5s-24.667 0.833008 -36 1.5l-17 68h53c28 -4 68 -32.667 120 -86c47.333 -48.667 71 -76.667 71 -84zM129 573c-8 38.667 -15.667 68 -23 88
c-22.667 60 -51 92.667 -85 98h-41l-23 66h53c34 -3.33301 63.667 -30.666 89 -81.999c34 -68.667 51 -125.334 51 -170.001h-21z" />
    <glyph glyph-name="Acircumflex" unicode="&#xc2;" horiz-adv-x="230" 
d="M113 590v-533.001c0 -14.667 5.33301 -22 16 -22c14 0 28 9.33301 42 28c4.66699 6 10.334 15.667 17.001 29l35 -41c-8.66699 -12.667 -15.667 -22 -21 -28c-18 -19.333 -36.667 -29 -56 -29c-24 0 -45.833 10.167 -65.5 30.5s-29.5 43.5 -29.5 69.5v515
c0 44 11.667 78.333 35 103c37.333 39.333 103.666 59 198.999 59c75.333 0 160.333 -17.667 255 -53c68.667 -25.333 140 -59 214 -101c56 -32 86 -50.667 90 -56l-47 -14c-5.33301 5.33301 -31.666 20 -78.999 44c-67.333 34 -131 60.667 -191 80
c-87.333 28 -167.333 42 -240 42c-54.667 0 -97.334 -10.167 -128.001 -30.5s-46 -51.166 -46 -92.499z" />
    <glyph glyph-name="Atilde" unicode="&#xc3;" horiz-adv-x="230" 
d="M113 633l-0.000976562 -575.997c0 -14.667 5.33301 -22 16 -22c16.667 0 33.334 12.667 50.001 38c2.66699 4 6 10.333 10 19l34 -41c-8.66699 -12.667 -15.667 -22 -21 -28c-18 -19.333 -36.667 -29 -56 -29c-24 0 -45.833 10.167 -65.5 30.5s-29.5 43.5 -29.5 69.5v556
c0 25.333 11.167 46.666 33.5 63.999s53.5 26 93.5 26c62 0 126.333 -18.333 193 -55c48.667 -26.667 96.334 -61.667 143.001 -105c37.333 -34.667 56 -54.334 56 -59.001l-35 -5c-12.667 32 -61.334 70.667 -146.001 116c-64.667 34.667 -130 52 -196 52
c-26 0 -45.833 -4.83301 -59.5 -14.5s-20.5 -21.834 -20.5 -36.501zM489.999 701.003c0 12 4 21.333 12 28s17.667 10 29 10s21 -3.16699 29 -9.5s12 -15.833 12 -28.5c0 -12 -4 -21.333 -12 -28s-17.667 -10 -29 -10s-21 3.33301 -29 10s-12 16 -12 28z" />
    <glyph glyph-name="Adieresis" unicode="&#xc4;" horiz-adv-x="230" 
d="M113 588l-0.00195312 -531.001c0 -14.667 5.33301 -22 16 -22c14 0 28 8.33301 42 25c4.66699 5.33301 10.334 14 17.001 26l35 -35c-8.66699 -12.667 -15.667 -22 -21 -28c-18 -19.333 -36.667 -29 -56 -29c-24 0 -45.833 10.167 -65.5 30.5s-29.5 43.5 -29.5 69.5v533
c0 10.667 -6 25.334 -18 44.001c-17.333 26.667 -40 40 -68 40c-28.667 0 -50.167 -11 -64.5 -33s-21.5 -48.667 -21.5 -80c0 -20 2 -42 6 -66c1.33301 -8 3.33301 -18 6 -30l-63 33c-5.33301 18 -8 35.333 -8 52c0 40.667 13.333 75.667 40 105s62.334 44 107.001 44
s80.167 -15.5 106.5 -46.5s39.5 -64.833 39.5 -101.5zM132.998 700.999c0 13.333 4.16699 23.5 12.5 30.5s18.5 10.5 30.5 10.5s22.167 -3.5 30.5 -10.5s12.5 -17.167 12.5 -30.5s-4 -23.5 -12 -30.5s-18.333 -10.5 -31 -10.5c-11.333 0 -21.333 3.66699 -30 11
s-13 17.333 -13 30z" />
    <glyph glyph-name="Aring" unicode="&#xc5;" horiz-adv-x="6" 
d="M-121 502l-40.999 15.9971c-8 4 -21 22.667 -39 56c-22 40.667 -33 75.334 -33 104.001c0 30.667 10.5 55.834 31.5 75.501s50.167 29.5 87.5 29.5c12.667 0 33 -6 61 -18s42.667 -19.667 44 -23l-2 -29c-18.667 14.667 -41.334 22 -68.001 22
c-28 0 -52 -8.16699 -72 -24.5s-30 -39.5 -30 -69.5c0 -22 6 -46 18 -72c18 -39.333 32.333 -61.666 43 -66.999zM-114.999 628.997c0 14.667 4.66699 25.835 14 33.502s20.333 11.5 33 11.5c14.667 0 27 -4.33301 37 -13s15 -21.334 15 -38.001c0 -14 -4.66699 -25 -14 -33
s-20.333 -12 -33 -12c-13.333 0 -25.333 4.66699 -36 14s-16 21.666 -16 36.999z" />
    <glyph glyph-name="AE" unicode="&#xc6;" horiz-adv-x="605" 
d="M223 322c10 0 26 16.667 48 50c14.667 22 22 42.667 22 62c0 18.667 -6.33301 32.667 -19 42s-27.667 14 -45 14c-19.333 0 -35 -6.33301 -47 -19s-18 -29.667 -18 -51c0 -17.333 5.66699 -35 17 -53c14.667 -23.333 28.667 -38.333 42 -45zM252 139
c30 16 56.332 29.3281 78.999 39.9951c17.333 8 30 13.333 38 16c-14.667 5.33301 -28.334 10.833 -41.001 16.5s-23.834 12 -33.501 19s-24.5 16.167 -44.5 27.5c-2.66699 1.33301 -6 3.33301 -10 6l-31 -23c-23.333 -17.333 -42.166 -30.666 -56.499 -39.999
s-34.5 -21.666 -60.5 -36.999c-17.333 -10.667 -29.666 -17.667 -36.999 -21l-37 46l95 55c14 8.66699 30 19.5 48 32.5s28.667 21.167 32 24.5c-6.66699 0 -21 12.333 -43 37c-27.333 30.667 -41 60 -41 88c0 30.667 11.333 54.834 34 72.501s50.667 26.5 84 26.5
c30.667 0 55.5 -11.5 74.5 -34.5s28.5 -50.5 28.5 -82.5c0 -27.333 -10.333 -55.666 -31 -84.999c-18 -25.333 -29.667 -38 -35 -38c39.333 -27.333 64.666 -44.333 75.999 -51c28.667 -16.667 57.334 -27.667 86.001 -33v328l64 -54v-418c0 -14.667 4.66699 -22 14 -22
c14 0 28 9 42 27c4.66699 6 10.334 15.333 17.001 28l35 -39c-8.66699 -12.667 -15.667 -22 -21 -28c-18 -19.333 -36.667 -29 -56 -29c-24 0 -46.167 10.167 -66.5 30.5s-30.5 43.5 -30.5 69.5v84c-18 -9.33301 -55 -32.666 -111 -69.999
c-28.667 -19.333 -51.667 -33.333 -69 -42l33 -46c2 -2 3 -5.33301 3 -10c0 -8 -3 -12.667 -9 -14c-24 0 -53.667 4.5 -89 13.5s-53 17.5 -53 25.5l-2 20c0 3.33301 1.33301 6 4 8l39 26c30.667 20 58 36.667 82 50z" />
    <glyph glyph-name="Ccedilla" unicode="&#xc7;" horiz-adv-x="605" 
d="M426 201l-0.00292969 327.997l64 -54v-418c0 -14.667 4.66699 -22 14 -22c14 0 28 8.33301 42 25c4.66699 5.33301 10.334 14 17.001 26l35 -35c-8.66699 -12.667 -15.667 -22 -21 -28c-18 -19.333 -36.667 -29 -56 -29c-24 0 -46.167 10.167 -66.5 30.5
s-30.5 43.5 -30.5 69.5v84c-36 -18 -77.667 -44.333 -125 -79c-68.667 -50.667 -109 -79.667 -121 -87l-39 51l35 26c28 20 53.333 36.167 76 48.5s42.667 23.833 60 34.5c25.333 15.333 40 25 44 29c-3.33301 0 -11.333 3 -24 9s-24.167 12.667 -34.5 20
s-25.5 16.666 -45.5 27.999c-2.66699 1.33301 -6 3.33301 -10 6l-31 -23c-23.333 -17.333 -42.166 -30.666 -56.499 -39.999s-34.5 -21.666 -60.5 -36.999c-17.333 -10.667 -29.666 -17.667 -36.999 -21l-37 46l95 55c14 8.66699 30 19.5 48 32.5s28.667 21.167 32 24.5
c-6.66699 0 -21 12.333 -43 37c-27.333 30.667 -41 60 -41 88c0 30.667 11.333 54.834 34 72.501s50.667 26.5 84 26.5c30.667 0 55.5 -11.5 74.5 -34.5s28.5 -50.5 28.5 -82.5c0 -27.333 -10.333 -55.666 -31 -84.999c-18 -25.333 -29.667 -38 -35 -38
c39.333 -27.333 64.666 -44.333 75.999 -51c28.667 -16.667 57.334 -27.667 86.001 -33zM222.997 321.997c10 0 26 16.667 48 50c14.667 22 22 42.667 22 62c0 18.667 -6.33301 32.667 -19 42s-27.667 14 -45 14c-19.333 0 -35 -6.33301 -47 -19s-18 -29.667 -18 -51
c0 -17.333 5.66699 -35 17 -53c14.667 -23.333 28.667 -38.333 42 -45z" />
    <glyph glyph-name="Egrave" unicode="&#xc8;" horiz-adv-x="900" 
d="M0 381l47.998 23.999c36.667 15.333 70.667 23 102 23c38.667 0 89.334 -23 152.001 -69c20.667 -15.333 48.334 -38.666 83.001 -69.999l-256 -211l-47 51l234 174c-6.66699 12.667 -29.667 29 -69 49c-30.667 15.333 -61 24.333 -91 27c-18 0 -44 -9.33301 -78 -28
c-30 -16.667 -47 -27.667 -51 -33zM412.998 494.999l2 35.002c10 4.66699 21.333 7 34 7c26.667 0 50.5 -9.83301 71.5 -29.5s31.5 -43.834 31.5 -72.501c0 -32 -10.333 -61 -31 -87c-28.667 -36 -52.334 -54 -71.001 -54c5.33301 -12 11 -21 17 -27
c18.667 -18.667 44.334 -28 77.001 -28c26.667 0 57.667 10 93 30c30 16.667 45.667 27.667 47 33v232l65 -54v-418c0 -14.667 4.66699 -22 14 -22c16 0 33 12.667 51 38c2.66699 4 6.33398 10.333 11.001 19l33 -41c-8 -12.667 -14.667 -22 -20 -28
c-18 -19.333 -36.667 -29 -56 -29c-24.667 0 -47.167 10.167 -67.5 30.5s-30.5 43.5 -30.5 69.5v117c-19.333 -12.667 -37.833 -21.334 -55.5 -26.001s-38.834 -7 -63.501 -7c-57.333 0 -104 27 -140 81c-12 18 -24.333 45 -37 81c21.333 6 37.333 12 48 18
c32.667 18.667 49 44.667 49 78c0 17.333 -5.33301 31 -16 41s-24 15 -40 15z" />
    <glyph glyph-name="Eacute" unicode="&#xc9;" horiz-adv-x="395" 
d="M195 535l21.998 13.999l53 -72c-20 -13.333 -34.667 -24 -44 -32c-29.333 -25.333 -44 -48.666 -44 -69.999c0 -20 7 -40.333 21 -61c4.66699 -6.66699 12 -15 22 -25l219 -14l51 -41l-224 16c18.667 -17.333 32.334 -31.333 41.001 -42
c28 -33.333 42 -61.666 42 -84.999c0 -37.333 -15.333 -67.333 -46 -90c-28 -20.667 -61.667 -31 -101 -31c-32 0 -73.333 11 -124 33c-16.667 7.33301 -39 18.333 -67 33l13 22c22.667 -10 41 -17.333 55 -22c44 -15.333 79.667 -23 107 -23c28.667 0 53.5 9.5 74.5 28.5
s31.5 42.833 31.5 71.5c0 20 -8 41.333 -24 64c-13.333 18.667 -23 29 -29 31l-123 -62l-45 47l125 56c-6 0 -20.667 12.333 -44 37c-28 29.333 -42 56.666 -42 81.999c0 27.333 15.333 54 46 80c24.667 21.333 41.334 32 50.001 32z" />
    <glyph glyph-name="Ecircumflex" unicode="&#xca;" horiz-adv-x="443" 
d="M21 74l14 25.999c4.66699 -4.66699 21.667 -13 51 -25c39.333 -16 74.333 -24 105 -24c32 0 57.667 7 77 21c23.333 17.333 35 43.333 35 78c0 18 -9.33301 40 -28 66c-6 8.66699 -15.667 20 -29 34l-82 -139l-53 30l106 127l-164 -41l-26 58l153 28
c-12 14 -21 25 -27 33c-18.667 26.667 -28 48.667 -28 66c0 24 14.333 48.667 43 74c24 21.333 40.333 32 49 32l-22 27l20 16l58 -77c-6.66699 0 -21.667 -10 -45 -30c-28 -24 -42 -46.333 -42 -67c0 -8 2.33301 -19 7 -33s10 -25.333 16 -34l156 35l28 -52l-143 -28
c24.667 -16 43 -29.667 55 -41c37.333 -36 56 -73 56 -111c0 -39.333 -15 -69.666 -45 -90.999c-26 -18.667 -58.333 -28 -97 -28c-33.333 0 -76.333 11.667 -129 35c-17.333 7.33301 -40.333 19 -69 35z" />
    <glyph glyph-name="Edieresis" unicode="&#xcb;" horiz-adv-x="461" 
d="M29 340l151 33.0029c-6.66699 0 -23.667 11.333 -51 34c-31.333 26 -47 48 -47 66c0 26.667 25 48 75 64c16.667 5.33301 41.667 10.666 75 15.999l-15 23l27 14l45 -80c-31.333 -7.33301 -54.666 -13 -69.999 -17c-47.333 -14 -71 -27.333 -71 -40
c0 -11.333 11.333 -26.666 34 -45.999c20 -17.333 32.333 -26 37 -26l160 35l23 -53l-119 -29c20.667 -16.667 36 -30.334 46 -41.001c30.667 -33.333 46 -64 46 -92c0 -36.667 -18.333 -66.334 -55 -89.001c-32 -20 -67.667 -30 -107 -30l76 -100l-45 -25l-64 125
c-36 0 -68.333 7.66699 -97 23c-36 19.333 -54 45.666 -54 78.999c0 12.667 5.66699 22 17 28s24 9 38 9c16.667 0 37 -12.333 61 -37c8 -8 18.333 -20.667 31 -38l26 -1c28.667 0 52.667 4.66699 72 14c28 14 42 36.667 42 68c0 18 -8.83301 38.667 -26.5 62
s-28.834 35 -33.501 35l-24 -119l-62 24l45 95l-162 -37z" />
    <glyph glyph-name="Igrave" unicode="&#xcc;" horiz-adv-x="443" 
d="M217 268l-168.001 -32.0029l-26 61l157 16c-12 14 -21 25 -27 33c-18.667 26.667 -28 48.667 -28 66c0 24 14.333 48.667 43 74c24 21.333 40.333 32 49 32l-22 27l20 16l58 -77c-6.66699 0 -21.667 -10 -45 -30c-28 -24 -42 -46.333 -42 -67c0 -8 2.33301 -19 7 -33
s10 -25.333 16 -34l160 28l26 -57l-145 -16c24.667 -16 43 -29.667 55 -41c37.333 -36 56 -73 56 -111c0 -39.333 -15 -69.666 -45 -90.999c-26 -18.667 -58.333 -28 -97 -28c-33.333 0 -76.333 11.667 -129 35c-17.333 7.33301 -40.333 19 -69 35l14 26
c4.66699 -4.66699 21.667 -13 51 -25c39.333 -16 74.333 -24 105 -24c32 0 57.667 7 77 21c23.333 17.333 35 43.333 35 78c0 18 -9.33301 40 -28 66c-6 8.66699 -15.667 20 -29 34l-70 -90l31 -35c0 -3.33301 -0.166992 -7.16602 -0.5 -11.499s-2.16602 -6.5 -5.49902 -6.5
c-12 0 -34.5 4.5 -67.5 13.5s-49.5 16.5 -49.5 22.5c0 12.667 2 20.334 6 23.001z" />
    <glyph glyph-name="Iacute" unicode="&#xcd;" horiz-adv-x="613" 
d="M258 205l-0.000976562 78c-19.333 -6 -39.666 -9 -60.999 -9c-45.333 0 -84.333 11.333 -117 34c-36.667 25.333 -55 60 -55 104c0 30 15.667 53.667 47 71c25.333 14 56 21 92 21l29 -2l-7 27l31 2l27 -88c-3.33301 1.33301 -15.166 2.66602 -35.499 3.99902
s-31.833 2 -34.5 2c-26 0 -49.5 -5.5 -70.5 -16.5s-31.5 -27.5 -31.5 -49.5c0 -19.333 7.66699 -33.333 23 -42c12 -6.66699 29.667 -10 53 -10l30 1c28.667 4.66699 50 7 64 7c8.66699 0 14.5 -0.166992 17.5 -0.5s5.83301 -1.16602 8.5 -2.49902l54 -55v-76h112l2 324
l64 -54v-418c0 -14.667 4.66699 -22 14 -22c13.333 0 27.333 8.33301 42 25c4.66699 5.33301 10.667 14 18 26l33 -35c-8 -12.667 -14.667 -22 -20 -28c-18 -19.333 -36.667 -29 -56 -29c-24.667 0 -46.667 10 -66 30s-29 43.333 -29 70v51h-112v-75
c0 -4 -1.83301 -7.5 -5.5 -10.5s-7.5 -4.5 -11.5 -4.5c-12.667 0 -37.334 18.333 -74.001 55s-55 63 -55 79c0 4.66699 1.83301 8.5 5.5 11.5s8.16699 4.5 13.5 4.5h61z" />
    <glyph glyph-name="Icircumflex" unicode="&#xce;" horiz-adv-x="416" 
d="M109 484l-24.998 64.9971c4.66699 2.66699 16 6.33398 34 11.001c24 6.66699 43.333 10 58 10c41.333 0 73.833 -7.66699 97.5 -23s35.5 -38 35.5 -68c0 -29.333 -13.333 -53 -40 -71c-18 -12 -48.333 -24.333 -91 -37l-88 -22c-18 -6 -27 -19.333 -27 -40
c0 -9.33301 4.83301 -16.333 14.5 -21s28.167 -7 55.5 -7c38 0 75 6.66699 111 20c50.667 18.667 79.334 35 86.001 49l27 -86c-2.66699 -2 -4.66699 -3.33301 -6 -4c-11.333 -8 -20.333 -13.333 -27 -16l-39 -15l8 -24c2.66699 -8 4 -13.667 4 -17c0 -32 -9 -55 -27 -69
c-14.667 -11.333 -44.667 -21.666 -90 -30.999l-59 -14c-31.333 -8.66699 -47 -21.667 -47 -39c0 -11.333 5.5 -18.666 16.5 -21.999s30.167 -5 57.5 -5c45.333 0 91.666 11 138.999 33c15.333 7.33301 34.333 18.333 57 33l33 -78
c-14 -7.33301 -41.667 -15.666 -83 -24.999s-72.333 -14 -93 -14c-48.667 0 -88.667 8 -120 24c-38.667 20 -58 50.333 -58 91c0 24 12 43.333 36 58c18 11.333 41 19.5 69 24.5l78 13.5c30 8 45 22 45 42l-3 17c-10.667 -4 -19 -6.66699 -25 -8
c-18.667 -5.33301 -33.667 -8 -45 -8c-40.667 0 -76.334 11 -107.001 33c-34 24.667 -51 56.667 -51 96c3.33301 28 17 51 41 69c19.333 14 46.666 26 81.999 36l87 21c24 7.33301 36 16.666 36 27.999c0 8.66699 -4.66699 14.5 -14 17.5s-19.666 4.5 -30.999 4.5
c-28 0 -53.667 -4.33301 -77 -13c-16.667 -6 -28.334 -12.333 -35.001 -19z" />
    <glyph glyph-name="Idieresis" unicode="&#xcf;" horiz-adv-x="422" 
d="M270 525l25 10c6 -12.667 11.333 -26.167 16 -40.5s7 -26.166 7 -35.499c0 -30 -12.667 -53.833 -38 -71.5s-60 -28.5 -104 -32.5c-21.333 0 -43.333 -7 -66 -21c-30.667 -18.667 -46 -44 -46 -76s10.667 -58.667 32 -80s47.333 -32 78 -32c13.333 0 26 2.33301 38 7
c10 5.33301 15.667 8.33301 17 9c-8.66699 10.667 -13 22.334 -13 35.001c0 16 6.16699 30.167 18.5 42.5s27.833 18.5 46.5 18.5c15.333 0 28.333 -6.5 39 -19.5s16 -28.167 16 -45.5c-2.66699 -27.333 -12.334 -49 -29.001 -65c-5.33301 -5.33301 -14 -11 -26 -17l69 -136
c-20.667 -0.666992 -43 -1.83398 -67 -3.50098s-46.667 -6.5 -68 -14.5c-36.667 -12 -57.667 -19.333 -63 -22c-20.667 -10.667 -31 -26 -31 -46c0 -18.667 11.333 -33.334 34 -44.001c18.667 -8.66699 41.334 -13 68.001 -13c24 0 50.667 3.66699 80 11c10 2 23 6 39 12
l25 -60c-5.33301 -2 -13.666 -4 -24.999 -6c-34 -6.66699 -64 -10 -90 -10c-44.667 0 -83.334 11 -116.001 33c-36 24.667 -56 56.667 -60 96c0 24 12.833 46.667 38.5 68s54.5 36 86.5 44c10.667 2.66699 25.5 5.16699 44.5 7.5s32.167 3.5 39.5 3.5l-31 73
c-8 -1.33301 -17 -2.33301 -27 -3s-22.667 -1 -38 -1c-42.667 0 -81.5 17.833 -116.5 53.5s-52.5 76.834 -52.5 123.501c0 39.333 17 73.666 51 102.999c28 24 52.667 36 74 36c24.667 0 49.667 4 75 12c36.667 12 55 28.333 55 49c0 9.33301 -0.5 18.333 -1.5 27
s-2.16699 15.667 -3.5 21z" />
    <glyph glyph-name="Eth" unicode="&#xd0;" horiz-adv-x="613" 
d="M436 529l64 -54v-418c0 -14.667 4.66699 -22 14 -22c16 0 31.667 12 47 36c2 4 5 9.66699 9 17l37 -37c-8 -12.667 -14.667 -22 -20 -28c-18 -19.333 -36.667 -29 -56 -29c-24.667 0 -46.667 10 -66 30s-29 43.333 -29 70l-2 62l-184 -33l-39 65l221 29v138l-182 -31
l-45 65l229 25zM342 23c-18 -3.33301 -32.332 -5.66602 -42.999 -6.99902c-36 -5.33301 -63.333 -8 -82 -8c-39.333 0 -80.333 16.667 -123 50c-48.667 38 -73 80.667 -73 128c0 31.333 14 58 42 80c28.667 16 43.334 24.333 44.001 25c-16 6 -31 19 -45 39
s-21 40.333 -21 61c0 28 10 50.333 30 67c17.333 14 43 24.667 77 32c14 3.33301 37 10.333 69 21c6.66699 2 13.667 4.33301 21 7l-9 19l25 16l35 -76c-2.66699 -0.666992 -18.167 -7.66699 -46.5 -21s-49.666 -21.833 -63.999 -25.5s-30.833 -7.5 -49.5 -11.5
c-30 -8.66699 -45 -24.667 -45 -48c0 -16 7.66699 -31.667 23 -47s26.666 -23 33.999 -23c12 3.33301 22.667 5 32 5c12 0 22.667 -2.33301 32 -7l18 -59c-13.333 3.33301 -26 5 -38 5c-30.667 0 -57.834 -6.83301 -81.501 -20.5s-37.834 -33.834 -42.501 -60.501
c0 -30 16.333 -56.333 49 -79c27.333 -18.667 53.333 -28 78 -28c19.333 0 42.333 3.66699 69 11c8.66699 2 20.667 6 36 12z" />
    <glyph glyph-name="Ntilde" unicode="&#xd1;" horiz-adv-x="510" 
d="M205 0c-3.33301 0 -19.333 17.6641 -48 52.9971c-35.333 42.667 -64 85 -86 127c-30.667 57.333 -46 108 -46 152c0 37.333 10.667 69.5 32 96.5s50.666 40.5 87.999 40.5c26.667 0 53.667 -10.667 81 -32c21.333 -16.667 33.333 -29 36 -37
c12.667 12 25.667 20.667 39 26v105l64 -33v-49c30 0 54.667 -11.667 74 -35c17.333 -21.333 26 -45.333 26 -72c0 -45.333 -25.167 -93.5 -75.5 -144.5s-75.5 -82.167 -75.5 -93.5c0 -14.667 4.66699 -24.667 14 -30s21.666 -8 36.999 -8c19.333 0 43 10.667 71 32
c24.667 18.667 37 30.334 37 35.001l29 -63c-15.333 -12 -27.666 -20.667 -36.999 -26c-29.333 -17.333 -56.666 -26 -81.999 -26c-30.667 0 -58.167 10.833 -82.5 32.5s-36.5 47.834 -36.5 78.501c0 26 25.667 63 77 111s77 87 77 117c0 14 -1.66699 23.333 -5 28
c-5.33301 7.33301 -15.333 11 -30 11c-34 0 -68.667 -23.333 -104 -70c-30 -40 -45 -67.333 -45 -82l-46 47c0 15.333 8.66699 34.333 26 57l24 29c-8 8 -14 13.333 -18 16c-14.667 10 -30.667 15 -48 15c-24 0 -44 -11 -60 -33s-24 -46.667 -24 -74
c0 -37.333 12 -79.333 36 -126c16.667 -33.333 39.667 -68.666 69 -105.999c22.667 -29.333 35 -44 37 -44z" />
    <glyph glyph-name="Ograve" unicode="&#xd2;" horiz-adv-x="719" 
d="M205 457l-20 1.00195c-32.667 0 -59.667 -4.33301 -81 -13c-34 -14 -51 -37.333 -51 -70c0 -19.333 7.16699 -35.5 21.5 -48.5s31.833 -19.5 52.5 -19.5c26.667 0 48 10.167 64 30.5s24 44.5 24 72.5c0 9.33301 -0.5 16.666 -1.5 21.999s-3.83301 13.666 -8.5 24.999z
M234 455.002c4 -12.667 7.66895 -26.333 11.002 -41s5 -25.667 5 -33c0 -35.333 -11.667 -66 -35 -92s-52 -39 -86 -39c-32 0 -58.5 13.333 -79.5 40s-31.5 57.667 -31.5 93c0 38 14.5 71.5 43.5 100.5s61.833 43.5 98.5 43.5c58 0 116.333 -20.667 175 -62
c19.333 -13.333 43 -34.333 71 -63l160 112c21.333 -20.667 37.333 -38.667 48 -54c32.667 -48 49 -99.667 49 -155l-1 -20c0 -80.667 -30.333 -148.667 -91 -204s-133.667 -83 -219 -83c-64 0 -127 19 -189 57c-73.333 45.333 -120 87.666 -140 126.999l22 15
c10 -30 46.667 -61.667 110 -95c54 -28.667 113 -43 177 -43c77.333 0 142.666 22 195.999 66c60.667 50 91 118.333 91 205c0 33.333 -6.66699 64 -20 92c-7.33301 15.333 -15 27 -23 35c-4 -2 -16.333 -10.667 -37 -26c-15.333 -11.333 -26.333 -19.666 -33 -24.999
c-11.333 -8.66699 -24.166 -19.667 -38.499 -33s-21.833 -21 -22.5 -23c8.66699 -15.333 15 -27.666 19 -36.999c13.333 -30 20 -55.667 20 -77c0 -31.333 -10.333 -60 -31 -86s-46 -39 -76 -39c-26.667 0 -48.334 11 -65.001 33s-25 47.667 -25 77
c0 28.667 14.667 64 44 106c25.333 36 42 55.333 50 58c-0.666992 0.666992 -5.33398 4.33398 -14.001 11.001c-20 15.333 -36.333 26.666 -49 33.999c-14 9.33301 -35.667 16.666 -65 21.999c-4.66699 0.666992 -11 1.66699 -19 3zM420.002 330.003
c-4 0 -18.334 -16.333 -43.001 -49c-27.333 -36.667 -41 -64.667 -41 -84c1.33301 -12 5.83301 -23.167 13.5 -33.5s17.5 -15.5 29.5 -15.5c17.333 0 32 11.333 44 34s18 46 18 70c0 22.667 -4.66699 44.334 -14 65.001c-1.33301 3.33301 -3.66602 7.66602 -6.99902 12.999z
" />
    <glyph glyph-name="Oacute" unicode="&#xd3;" horiz-adv-x="880" 
d="M252 -4c-5.33301 9.33301 -9.33008 16.999 -11.9971 22.999c-10.667 20 -17.667 34.667 -21 44l-22 54c-2 -0.666992 -4 -1 -6 -1c-16 -3.33301 -33.333 -5 -52 -5c-23.333 2 -47.5 17.833 -72.5 47.5s-37.5 59.5 -37.5 89.5c0 24.667 9.33301 49 28 73
c25.333 32.667 48 51.334 68 56.001c-12.667 10 -22 18.333 -28 25c-19.333 22 -29 43.667 -29 65c0 22.667 9.66699 41.334 29 56.001s41.666 22 66.999 22c28 0 52.333 -9.66699 73 -29s31 -43 31 -71c0 -26 -9 -48 -27 -66c-19.333 -14 -29.333 -21.333 -30 -22
c8 -2.66699 14.333 -4.33398 19 -5.00098c16 -4 27.333 -6 34 -6c19.333 0 43.333 9.33301 72 28c4.66699 2.66699 10.667 7 18 13v-71c-10 -2.66699 -17.667 -4.33398 -23 -5.00098c-20 -4 -34 -6 -42 -6c-21.333 0 -48.666 7.33301 -81.999 22
c-16 8.66699 -24.333 13 -25 13c-24 -13.333 -41.667 -24.666 -53 -33.999c-35.333 -28 -53 -55.667 -53 -83c0 -22.667 7 -39.5 21 -50.5s32.333 -16.5 55 -16.5c3.33301 0 7.16602 0.666992 11.499 2l12.5 4c0 22 6.16699 40.833 18.5 56.5s28.166 23.5 47.499 23.5
c11.333 0 20.666 -5 27.999 -15s11 -22 11 -36c0 -15.333 -8.66699 -30.333 -26 -45c-5.33301 -4.66699 -14 -10.334 -26 -17.001l25 -57c5.33301 -9.33301 13 -20.666 23 -33.999c8 -10.667 14 -18 18 -22zM158.003 392.999c16.667 0 30.834 7.50098 42.501 22.501
s17.5 30.833 17.5 47.5c0 14 -3.83301 25.333 -11.5 34s-19.834 13 -36.501 13c-15.333 0 -27.5 -5.5 -36.5 -16.5s-13.5 -24.5 -13.5 -40.5c0 -14.667 3.16699 -27.334 9.5 -38.001s15.833 -18 28.5 -22zM403.003 509l2 35.002c10 4.66699 21.333 7 34 7
c26.667 0 50.5 -9.83301 71.5 -29.5s31.5 -43.834 31.5 -72.501c0 -32 -10.333 -61 -31 -87c-28.667 -36 -52.334 -54 -71.001 -54c5.33301 -12 11 -21 17 -27c18.667 -18.667 44.334 -28 77.001 -28c26.667 0 57.667 10 93 30c30 16.667 45.667 27.667 47 33v232l65 -54
v-418c0 -14.667 4.66699 -22 14 -22c16 0 33 12.667 51 38c2.66699 4 6.33398 10.333 11.001 19l33 -41c-8 -12.667 -14.667 -22 -20 -28c-18 -19.333 -36.667 -29 -56 -29c-24.667 0 -47.167 10.167 -67.5 30.5s-30.5 43.5 -30.5 69.5v117
c-19.333 -12.667 -37.833 -21.334 -55.5 -26.001s-38.834 -7 -63.501 -7c-57.333 0 -104 27 -140 81c-12 18 -24.333 45 -37 81c21.333 6 37.333 12 48 18c32.667 18.667 49 44.667 49 78c0 17.333 -5.33301 31 -16 41s-24 15 -40 15z" />
    <glyph glyph-name="Ocircumflex" unicode="&#xd4;" horiz-adv-x="703" 
d="M189 459c-13.333 10.667 -29.333 16 -48 16c-22.667 0 -43 -8.66699 -61 -26s-27 -38 -27 -62c0 -17.333 5.66699 -32.333 17 -45s26.333 -20 45 -22c26.667 0 46.667 12 60 36c10.667 19.333 16 44 16 74zM354 285c-24.667 -30 -43.001 -53.667 -55.001 -71
c-36.667 -52.667 -55 -93.334 -55 -122.001c0 -19.333 7 -35.666 21 -48.999s31.667 -20 53 -20c24.667 0 45.834 13.167 63.501 39.5s26.5 55.5 26.5 87.5c0 22.667 -9 52 -27 88c-6 12 -15 27.667 -27 47zM583.999 535l0.00195312 -474.001c0 -13.333 4.66699 -20 14 -20
c16.667 0 33.334 12 50.001 36c2.66699 4 6 9.66699 10 17l35 -39c-8 -12.667 -14.667 -22 -20 -28c-18 -19.333 -36.667 -29 -56 -29c-22 0 -44.333 10.333 -67 31s-34 41.667 -34 63c0 8 1.66699 15 5 21v362l-138 -164c11.333 -11.333 27.666 -44.666 48.999 -99.999
c15.333 -40 23 -72.667 23 -98c0 -37.333 -13.667 -67 -41 -89c-24.667 -20 -54.667 -30 -90 -30c-32.667 0 -60.334 9 -83.001 27c-25.333 20 -38 47.667 -38 83c0 34 19.333 82.667 58 146c34.667 57.333 55 86 61 86c-2 5.33301 -10.333 17.333 -25 36
c-8.66699 10.667 -17.334 20.667 -26.001 30c-4.66699 6.66699 -12 13.5 -22 20.5l-30 20.5l2 -34c0 -48.667 -9.33301 -84.667 -28 -108c-16 -20 -39.333 -30 -70 -30c-33.333 0 -59.5 13.333 -78.5 40s-28.5 57.667 -28.5 93c0 36 9 66 27 90
c20.667 27.333 48.667 41 84 41c40 0 87.333 -27.667 142 -83c47.333 -48 71 -77 71 -87l81 75c48.667 45.333 82 77 100 95h63z" />
    <glyph glyph-name="Otilde" unicode="&#xd5;" horiz-adv-x="230" 
d="M51 529l61.998 -53.999v-459c26.667 -4 46.334 -9 59.001 -15c40 -19.333 60 -51 60 -95c0 -34 -15.167 -60.667 -45.5 -80s-65.833 -29 -106.5 -29c-58 0 -112.333 13 -163 39c-35.333 18 -67.666 42.333 -96.999 73l-33 40l31 22c18 -26 35.333 -45.333 52 -58
c52 -39.333 118 -59 198 -59c37.333 0 65.333 3.33301 84 10c28.667 10 43 28 43 54c0 15.333 -7.33301 26.666 -22 33.999s-33.334 11 -56.001 11c-14.667 0 -32.167 -4 -52.5 -12s-32.166 -13.667 -35.499 -17l-35 66l57 12v517z" />
    <glyph glyph-name="Odieresis" unicode="&#xd6;" horiz-adv-x="230" 
d="M51 529l61.999 -54v-418c0 -14.667 5.33301 -22 16 -22c14 0 28 8.66699 42 26c4.66699 5.33301 10.334 14.333 17.001 27l35 -37c-8.66699 -12.667 -15.667 -22 -21 -28c-18 -19.333 -36.667 -29 -56 -29c-24 0 -45.833 10.167 -65.5 30.5s-29.5 43.5 -29.5 69.5v435z
M208.999 -119l29.002 -54.998c-12.667 -4 -22.667 -6.66699 -30 -8c-26 -6 -47 -9 -63 -9c-35.333 3.33301 -64.333 11.666 -87 24.999c-28 16.667 -42 39 -42 67c0 24.667 15.833 46.334 47.5 65.001s65.167 28 100.5 28c48.667 0 97.667 -14.667 147 -44
c34.667 -20.667 67.667 -48 99 -82c24.667 -26.667 37 -42.334 37 -47.001h-29l-80 81c-44 25.333 -96 38 -156 38c-28.667 0 -57 -5.83301 -85 -17.5s-42 -24.834 -42 -39.501c0 -12.667 10.167 -20 30.5 -22s36.166 -3 47.499 -3c10.667 0 23.667 2.33301 39 7
s27.666 10 36.999 16z" />
    <glyph glyph-name="multiply" unicode="&#xd7;" horiz-adv-x="230" 
d="M51 57v562l62 -53v-568z" />
    <glyph glyph-name="Oslash" unicode="&#xd8;" horiz-adv-x="540" 
d="M207 221c19.333 0 42 11.001 68 33.001c4 3.33301 9.33301 8.66602 16 15.999l-145 162v-164c0 -31.333 20.333 -47 61 -47zM82 475.001c0 12.667 -2.00391 19 -6.00391 19c-9.33301 0 -22.666 -11.667 -39.999 -35c-5.33301 -7.33301 -13.333 -19 -24 -35v92
c16.667 8.66699 33.667 13 51 13c12.667 0 24.334 -2.33301 35.001 -7s20.334 -12.667 29.001 -24l184 -211l21 16l37 -65c-3.33301 -6 -19 -17.667 -47 -35c-36 -22 -67.667 -33 -95 -33c-39.333 3.33301 -74.666 24.333 -105.999 63c-26 32 -39 58 -39 78v164z
M331.996 544.001l61.999 -54v-418c0 -14.667 5.33301 -22 16 -22c14 0 28 8.66699 42 26c4.66699 5.33301 10.334 14.333 17.001 27l35 -37c-8.66699 -12.667 -15.667 -22 -21 -28c-18 -19.333 -36.667 -29 -56 -29c-24 0 -45.833 10.167 -65.5 30.5s-29.5 43.5 -29.5 69.5
v435z" />
    <glyph glyph-name="Ugrave" unicode="&#xd9;" horiz-adv-x="560" 
d="M252 -4c-5.33301 9.33301 -9.33008 16.999 -11.9971 22.999c-10.667 20 -17.667 34.667 -21 44l-22 54c-2 -0.666992 -4 -1 -6 -1c-16 -3.33301 -33.333 -5 -52 -5c-23.333 2 -47.5 17.833 -72.5 47.5s-37.5 59.5 -37.5 89.5c0 24.667 9.33301 49 28 73
c25.333 32.667 48 51.334 68 56.001c-12.667 10 -22 18.333 -28 25c-19.333 22 -29 43.667 -29 65c0 22.667 9.66699 41.334 29 56.001s41.666 22 66.999 22c28 0 52.333 -9.66699 73 -29s31 -43 31 -71c0 -26 -9 -48 -27 -66c-19.333 -14 -29.333 -21.333 -30 -22
c8 -2.66699 14.333 -4.33398 19 -5.00098c16 -4 27.333 -6 34 -6c19.333 0 43.333 9.33301 72 28c4.66699 2.66699 10.667 7 18 13v-71c-10 -2.66699 -17.667 -4.33398 -23 -5.00098c-20 -4 -34 -6 -42 -6c-21.333 0 -48.666 7.33301 -81.999 22
c-16 8.66699 -24.333 13 -25 13c-24 -13.333 -41.667 -24.666 -53 -33.999c-35.333 -28 -53 -55.667 -53 -83c0 -22.667 7 -39.5 21 -50.5s32.333 -16.5 55 -16.5c3.33301 0 7.16602 0.666992 11.499 2l12.5 4c0 22 6.16699 40.833 18.5 56.5s28.166 23.5 47.499 23.5
c11.333 0 20.666 -5 27.999 -15s11 -22 11 -36c0 -15.333 -8.66699 -30.333 -26 -45c-5.33301 -4.66699 -14 -10.334 -26 -17.001l25 -57c5.33301 -9.33301 13 -20.666 23 -33.999c8 -10.667 14 -18 18 -22zM158.003 392.999c16.667 0 30.834 7.50098 42.501 22.501
s17.5 30.833 17.5 47.5c0 14 -3.83301 25.333 -11.5 34s-19.834 13 -36.501 13c-15.333 0 -27.5 -5.5 -36.5 -16.5s-13.5 -24.5 -13.5 -40.5c0 -14.667 3.16699 -27.334 9.5 -38.001s15.833 -18 28.5 -22zM354.003 529l61.999 -54v-418c0 -14.667 5.33301 -22 16 -22
c14 0 28 8.66699 42 26c4.66699 5.33301 10.334 14.333 17.001 27l35 -37c-8.66699 -12.667 -15.667 -22 -21 -28c-18 -19.333 -36.667 -29 -56 -29c-24 0 -45.833 10.167 -65.5 30.5s-29.5 43.5 -29.5 69.5v435z" />
    <glyph glyph-name="Uacute" unicode="&#xda;" horiz-adv-x="580" 
d="M10 424l-0.000976562 93.998c18.667 9.33301 35.334 14 50.001 14c27.333 0 53.666 -14.667 78.999 -44l164 -189c38.667 14.667 67.334 26.667 86.001 36c57.333 30 86 59 86 87c0 19.333 -7.83301 33.666 -23.5 42.999s-35.5 14 -59.5 14
c-33.333 0 -59.333 -6.66699 -78 -20l-41 51c11.333 6.66699 28 12.5 50 17.5s41.333 7.5 58 7.5c35.333 -4 66.333 -18 93 -42s40 -51.667 40 -83c0 -44 -22.333 -80.667 -67 -110l-125 -64c-45.333 -25.333 -68 -54.666 -68 -87.999c0 -26 10 -47 30 -63s47 -24 81 -24
c38 0 77.333 13.667 118 41c13.333 8.66699 30 22.334 50 41.001l31 -65c-23.333 -16 -42.333 -27.667 -57 -35c-44 -23.333 -81 -35 -111 -35c-45.333 0 -85.666 13.333 -120.999 40c-38 28.667 -57 64 -57 106l3 28c-0.666992 0 -4.66699 -1 -12 -3s-13.333 -3 -18 -3
c-12.667 6 -32.334 22 -59.001 48c-33.333 32.667 -50 60.334 -50 83.001v172c0 11.333 -5.33301 17 -16 17c-8.66699 0 -20.667 -12 -36 -36zM144.999 431.998l-0.000976562 -166.002c0 -9.33301 6.16699 -18.166 18.5 -26.499s24.833 -13.166 37.5 -14.499
c12.667 0 27.834 8 45.501 24s26.5 26.667 26.5 32z" />
    <glyph glyph-name="Ucircumflex" unicode="&#xdb;" horiz-adv-x="371" 
d="M232 529l23.9951 10c6.66699 -6.66699 13.5 -16.5 20.5 -29.5s10.5 -23.167 10.5 -30.5c0 -14 -10.667 -26.667 -32 -38c-16.667 -8.66699 -36 -15 -58 -19c-29.333 -3.33301 -50.666 -7.33301 -63.999 -12c-25.333 -8.66699 -39 -23 -41 -43c0 -12 6 -27 18 -45
c4 -6 10.333 -13.667 19 -23c22.667 13.333 44.334 24 65.001 32c26 10 50 15 72 15l33 -55c-40 0 -82 -14.333 -126 -43c-38.667 -25.333 -58 -56.666 -58 -93.999c0 -22.667 9 -42 27 -58s39 -24 63 -24c14 0 28 4.33301 42 13c4.66699 2.66699 10.334 7 17.001 13
c-6.66699 9.33301 -10 20 -10 32c0 14 4.5 25.833 13.5 35.5s21.5 14.5 37.5 14.5c12.667 0 23.167 -5.33301 31.5 -16s13.5 -23 15.5 -37c0 -14.667 -6.33301 -31 -19 -49c-4 -6 -10.667 -13.667 -20 -23l56 -86l-31 -22l-45 98c-6 -6 -15.667 -11.167 -29 -15.5
s-29 -6.5 -47 -6.5c-30 0 -61.667 17 -95 51c-36 36.667 -54 73.334 -54 110.001c0 25.333 6 48.666 18 69.999l21 29c-8 3.33301 -20.333 15.666 -37 36.999c-22 28 -33 54.667 -33 80c4.66699 24 17.334 43 38.001 57c16.667 11.333 40.334 20.333 71.001 27
c22.667 1.33301 40.667 3 54 5c26 4 39 12 39 24c0 6 -2.33301 11.333 -7 16z" />
    <glyph glyph-name="Udieresis" unicode="&#xdc;" horiz-adv-x="533" 
d="M45 375l-26.9961 62.998c4 2 18.167 6.33301 42.5 13s44.5 10 60.5 10c40.667 0 74 -13 100 -39c31.333 -31.333 47 -62 47 -92c12.667 6 26.667 10.5 42 13.5s31 4.5 47 4.5v173l61 -41v-144c18 -9.33301 31.333 -18.333 40 -27c26.667 -27.333 40 -64.666 40 -111.999
c0 -66 -15.667 -119.667 -47 -161c-10 -13.333 -25.667 -27.333 -47 -42l-50 41c25.333 22.667 44 41.334 56 56.001c38 44.667 57 84 57 118c0 29.333 -8.33301 52 -25 68s-38.334 24 -65.001 24c-14.667 0 -35 -3 -61 -9c-8.66699 -2 -20.334 -5 -35.001 -9
c2 -8 3.83301 -16.667 5.5 -26s2.5 -18.333 2.5 -27c0 -65.333 -11 -117.666 -33 -156.999c-26.667 -47.333 -65.667 -71 -117 -71c-30 0 -57 16.667 -81 50c-33.333 46 -50 84 -50 114l23 14c0 -22.667 13.333 -49.334 40 -80.001c19.333 -22.667 41.333 -34 66 -34
c36 0 64.667 20 86 60c18.667 34.667 28 73 28 115l-3 34l-150 -45l-14 57l156 33c-6.66699 28 -19.834 49.333 -39.501 64s-42.834 22 -69.501 22c-31.333 0 -60 -10.333 -86 -31z" />
    <glyph glyph-name="Yacute" unicode="&#xdd;" horiz-adv-x="529" 
d="M121 289l4.00098 182.001c0 7.33301 -1 15.333 -3 24s-6.33301 13 -13 13c-14 0 -26.833 -9.83301 -38.5 -29.5s-17.5 -33.834 -17.5 -42.501l-39 60c10 10.667 18.333 18.667 25 24c21.333 16.667 42.333 25 63 25c23.333 0 43.5 -7.33301 60.5 -22
s25.5 -32.667 25.5 -54l-6 -209c4.66699 -10 13.667 -21 27 -33c10.667 -10 19.667 -15.333 27 -16c7.33301 0 28.333 8.66699 63 26c11.333 5.33301 28.333 14.333 51 27v265l64 -54v-418c0 -14.667 4.66699 -22 14 -22c16 0 33 11 51 33
c2.66699 3.33301 6.33398 8.66602 11.001 15.999l33 -33c-8 -12.667 -14.667 -22 -20 -28c-18 -19.333 -36.667 -29 -56 -29c-26 0 -48.667 10 -68 30s-29 43.333 -29 70v109l-284 -160l-43 51l186 94c-2 0.666992 -8.83301 5.5 -20.5 14.5s-21.834 17.833 -30.501 26.5
c-12.667 12.667 -21.334 22.334 -26.001 29.001c-7.33301 10.667 -11 21 -11 31z" />
    <glyph glyph-name="Thorn" unicode="&#xde;" horiz-adv-x="750" 
d="M57 219l-26.0039 62.0029l135 20c-12 6 -27 22.667 -45 50c-12.667 19.333 -19 37 -19 53c0 24 13.667 49.667 41 77c23.333 23.333 38.333 35 45 35l-22 25l29 12l65 -73c-6.66699 0 -22 -10.667 -46 -32c-29.333 -26 -44 -50.333 -44 -73
c0 -12.667 6.33301 -28.334 19 -47.001c4 -6 10.667 -14.333 20 -25l250 35c-10.667 10.667 -19.167 22 -25.5 34s-9.5 22.667 -9.5 32c0 29.333 15 57 45 83c24 20.667 40.333 31 49 31l-20 21l25 18l63 -77c-22 -13.333 -38.333 -24 -49 -32
c-32.667 -25.333 -49 -47 -49 -65c0 -11.333 2 -21.333 6 -30c1.33301 -2.66699 3.33301 -5.66699 6 -9l150 31l36 -66l-145 -14c8.66699 0 31.334 -18.667 68.001 -56c43.333 -44 65 -82.667 65 -116c0 -36.667 -16 -66.667 -48 -90c-28.667 -20.667 -61.667 -31 -99 -31
c-28.667 0 -64 9 -106 27c-14 6 -32.667 15.333 -56 28l10 25c8.66699 -8.66699 25.834 -16.334 51.501 -23.001s52.167 -10 79.5 -10c34.667 0 61.5 8.83301 80.5 26.5s28.5 40.167 28.5 67.5c0 29.333 -18 62.333 -54 99c-12 12 -30.333 27.667 -55 47l-246 -35
c20.667 -16.667 36 -30.334 46 -41.001c30.667 -32.667 46 -63.334 46 -92.001c0 -40 -16.333 -70.667 -49 -92c-27.333 -18 -60.666 -27 -99.999 -27c-30.667 0 -67.667 8.66699 -111 26c-14 5.33301 -33 14.333 -57 27l14 23c1.33301 -1.33301 9.33301 -5 24 -11
c36.667 -14.667 72.334 -22 107.001 -22c34 0 60.667 9.5 80 28.5s29 43.833 29 74.5c0 24.667 -9.66699 48.334 -29 71.001c-6 7.33301 -16 16.333 -30 27z" />
    <glyph glyph-name="germandbls" unicode="&#xdf;" horiz-adv-x="500" 
d="M164 486c14.667 -16.667 25.666 -30.332 32.999 -40.999c22 -32.667 33 -62 33 -88c0 -32 -10.167 -59.167 -30.5 -81.5s-45.833 -33.5 -76.5 -33.5c-34.667 0 -62.834 14.667 -84.501 44s-32.5 64.333 -32.5 105c0 38 12.833 70.5 38.5 97.5s57.834 40.5 96.501 40.5
c56 0 105.667 -22 149 -66c58 -59.333 87 -109 87 -149c16 13.333 29 23.666 39 30.999c30.667 22 56.667 36 78 42l29.5 5.5c9 1.66699 16.833 2.5 23.5 2.5v-73c-10 0 -19.167 -0.166992 -27.5 -0.5s-19.833 -1.83301 -34.5 -4.5s-34 -11.667 -58 -27
c-8 -5.33301 -18.667 -13.333 -32 -24c2.66699 -15.333 4.33398 -27.666 5.00098 -36.999c4 -32 6 -55 6 -69c0 -36.667 -6.66699 -71 -20 -103c-18 -42 -43 -63 -75 -63c-20 0 -35.833 8.66699 -47.5 26s-17.5 37.333 -17.5 60c0 28 16.333 71.333 49 130
c29.333 52 47 79.667 53 83c0 5.33301 -6 21.666 -18 48.999c-14.667 33.333 -29.667 58 -45 74c-20 21.333 -41 38.333 -63 51s-41.333 19 -58 19zM134.999 475.002c-18 0 -36.165 -11.167 -54.498 -33.5s-27.5 -48.5 -27.5 -78.5c0 -19.333 5.5 -36.5 16.5 -51.5
s24.833 -22.5 41.5 -22.5c21.333 0 38.166 9.66699 50.499 29s18.5 42.333 18.5 69c0 14 -4.33301 29.333 -13 46c-12.667 23.333 -23.334 37.333 -32.001 42z" />
    <glyph glyph-name="agrave" unicode="&#xe0;" horiz-adv-x="900" 
d="M375 232c-1.33301 -0.666992 -10.168 -1.66699 -26.501 -3s-29.5 -2 -39.5 -2c-5.33301 0 -19 7.66699 -41 23c-7.33301 4.66699 -18 12.334 -32 23.001c-8 -10.667 -16.833 -21.5 -26.5 -32.5s-18.167 -18.833 -25.5 -23.5c-4 -4 -11 -9 -21 -15l-30 -18
c9.33301 -25.333 17.333 -44.333 24 -57c21.333 -38.667 44 -59.667 68 -63c13.333 0 29 2.33301 47 7c6 1.33301 13.667 3.66602 23 6.99902l14 -72c-8.66699 -2 -19 -3.83301 -31 -5.5s-26 -2.5 -42 -2.5c-36 4 -69 35 -99 93c-10 19.333 -21.667 48.333 -35 87
c-26.667 0 -46.667 3 -60 9c-21.333 9.33301 -32 26.333 -32 51c0 14 5.66699 25.333 17 34s24 13 38 13c10.667 0 20 -2.5 28 -7.5s13.333 -12.833 16 -23.5c21.333 0 44 14.333 68 43c20 24 30 52.667 30 86c0 29.333 -8 51.333 -24 66s-36.667 22 -62 22
c-13.333 0 -30.666 -4.66699 -51.999 -14c-6.66699 -2.66699 -16 -7.33398 -28 -14.001l-29 67c21.333 10.667 44.333 16 69 16c45.333 0 85.5 -16.833 120.5 -50.5s52.5 -75.5 52.5 -125.5c0 -6.66699 -1.66699 -15.667 -5 -27
c-0.666992 -3.33301 -2.33398 -8.66602 -5.00098 -15.999c6.66699 -3.33301 13.334 -6.33301 20.001 -9c15.333 -6 27 -9 35 -9c12 0 24.333 2.33301 37 7c23.333 8.66699 36.333 16 39 22v-86zM309.998 378l47.998 23.999c36.667 15.333 70.667 23 102 23
c38.667 0 89.334 -23 152.001 -69c20.667 -15.333 48.334 -38.666 83.001 -69.999l-256 -211l-47 51l234 174c-6.66699 12.667 -29.667 29 -69 49c-30.667 15.333 -61 24.333 -91 27c-18 0 -44 -9.33301 -78 -28c-30 -16.667 -47 -27.667 -51 -33zM694.996 525.999
l61.999 -54v-418c0 -14.667 5.33301 -22 16 -22c14 0 28 8.66699 42 26c4.66699 5.33301 10.334 14.333 17.001 27l35 -37c-8.66699 -12.667 -15.667 -22 -21 -28c-18 -19.333 -36.667 -29 -56 -29c-24 0 -45.833 10.167 -65.5 30.5s-29.5 43.5 -29.5 69.5v435z" />
    <glyph glyph-name="aacute" unicode="&#xe1;" horiz-adv-x="695" 
d="M350 300v-180h-225v-45h275v225h175v-225h45v275h-220v170h220v50h-270v-220h-175v220h-50v-270h225z" />
    <glyph glyph-name="acircumflex" unicode="&#xe2;" horiz-adv-x="523" 
d="M240 123c-11.333 0 -26.333 -8.66797 -45 -26.001c-22 -20.667 -33 -42 -33 -64c0 -12 6.66699 -20.833 20 -26.5s28.333 -8.5 45 -8.5c26 0 57 17.667 93 53c12 11.333 27.667 29.333 47 54c-10 -1.33301 -22 -2.5 -36 -3.5s-23.333 -1.5 -28 -1.5
c-16.667 2 -31.334 6 -44.001 12c-11.333 6.66699 -17.666 10.334 -18.999 11.001zM293 413.999c27.333 3.33301 50.668 10.333 70.001 21c24 14 36 31.667 36 53c0 7.33301 -2 16 -6 26l25 11c6 -6 12 -17.333 18 -34s9 -30.667 9 -42c0 -25.333 -14 -47.333 -42 -66
c-18.667 -12.667 -41 -22 -67 -28c-33.333 -6 -61 -14 -83 -24c-41.333 -19.333 -62 -45 -62 -77c0 -32.667 10.5 -59.5 31.5 -80.5s46.167 -31.5 75.5 -31.5c22.667 0 44.334 7.33301 65.001 22c-7.33301 11.333 -11 22.666 -11 33.999c0 15.333 5.5 28.166 16.5 38.499
s24.833 15.5 41.5 15.5s29.5 -6.16699 38.5 -18.5s13.5 -27.5 13.5 -45.5c0 -17.333 -4.33301 -32.833 -13 -46.5s-20.334 -21.834 -35.001 -24.501l72 -148l-33 -16l-47 113c-2 -5.33301 -13.333 -16.666 -34 -33.999c-52.667 -44.667 -101 -67 -145 -67
c-30 0 -57.5 7.33301 -82.5 22s-37.5 33.334 -37.5 56.001c0 6.66699 1.33301 15.334 4 26.001c0.666992 3.33301 2 8.33301 4 15c-14 6.66699 -28.333 16.667 -43 30c-27.333 24 -41 49 -41 75c0 30.667 12.333 55.667 37 75c28 22 56 33 84 33
c11.333 24 21.666 42 30.999 54c29.333 36.667 66 57.667 110 63zM164.002 208.999c-2 4 -4.66797 10.001 -8.00098 18.001s-5.33301 14.333 -6 19c-7.33301 0 -18.666 -5.66699 -33.999 -17c-20.667 -15.333 -32 -33 -34 -53c0 -16 4.5 -29.667 13.5 -41
s20.833 -19.333 35.5 -24l21 19c13.333 11.333 27 20.666 41 27.999l-15.5 25c-4.33301 7.33301 -8.83301 16 -13.5 26z" />
    <glyph glyph-name="atilde" unicode="&#xe3;" horiz-adv-x="400" 
d="M275 523l28.002 8.00098c5.33301 -10.667 9 -19 11 -25c8 -20 12 -35.667 12 -47c0 -29.333 -13.667 -52.333 -41 -69c-18.667 -11.333 -47.834 -20.666 -87.501 -27.999s-71.5 -21.666 -95.5 -42.999c-18.667 -16.667 -28 -36.334 -28 -59.001
c0 -32.667 11 -59.667 33 -81s47.667 -32 77 -32c22.667 0 42.667 6.33301 60 19c-7.33301 11.333 -11 23 -11 35c0 16 5.16699 29.5 15.5 40.5s24.5 16.5 42.5 16.5c16 0 29.167 -5.83301 39.5 -17.5s15.5 -26.834 15.5 -45.501c0 -20.667 -4.66699 -37 -14 -49
c-6 -8 -17 -15.667 -33 -23l68 -141l-33 -15l-63 142c-6.66699 -1.33301 -13.834 -2 -21.501 -2h-19.5l-128 -121l-55 35l119 88c-30.667 14.667 -53.334 28 -68.001 40c-46 37.333 -69 82 -69 134c0 42 17.333 75 52 99c19.333 13.333 46.333 24.666 81 33.999l77 19
c26.667 9.33301 41.334 25 44.001 47c0 6.66699 -0.833008 13.5 -2.5 20.5s-3.5 13.833 -5.5 20.5z" />
    <glyph glyph-name="adieresis" unicode="&#xe4;" horiz-adv-x="400" 
d="M277 525l27.999 10.001c4 -12 7 -21.333 9 -28c6.66699 -23.333 10 -41.333 10 -54c0 -24.667 -11.667 -45.667 -35 -63c-20.667 -15.333 -47.334 -26.333 -80.001 -33c-31.333 -4.66699 -57.333 -12.334 -78 -23.001c-35.333 -18.667 -53 -44 -53 -76
c0 -28.667 10.5 -54.167 31.5 -76.5s45.833 -33.5 74.5 -33.5c10.667 0 23.667 2.66699 39 8c6.66699 2 14.334 5.33301 23.001 10c-6 11.333 -9 22.666 -9 33.999c0 16.667 5.5 31.167 16.5 43.5s24.833 18.5 41.5 18.5s29.167 -5.66699 37.5 -17
s12.5 -25.666 12.5 -42.999s-3.83301 -33.333 -11.5 -48s-18.5 -24.334 -32.5 -29.001l72 -154l-33 -14l-29 64c-19.333 -13.333 -35.333 -23 -48 -29c-38.667 -19.333 -73.667 -29 -105 -29c-36.667 0 -68.667 12.5 -96 37.5s-41 55.5 -41 91.5
c0 19.333 7.33301 39.333 22 60c11.333 16 21 26 29 30c-9.33301 14.667 -18.166 32.5 -26.499 53.5s-12.5 38.167 -12.5 51.5c0 38.667 18.667 71 56 97c28 19.333 55.667 30.666 83 33.999c26 4.66699 48.667 11.334 68 20.001c28.667 12.667 43 27.334 43 44.001
c0 6.66699 -0.666992 13.667 -2 21zM108.999 141.001c-8 -9.33301 -13.668 -16.667 -17.001 -22c-12 -18.667 -18 -35 -18 -49c0 -24 5.83301 -40.833 17.5 -50.5s33.167 -16.167 64.5 -19.5c19.333 0 47 13.667 83 41c11.333 8.66699 27.333 22.334 48 41.001l-14 35
c-2 -1.33301 -12.667 -3.83301 -32 -7.5s-36 -5.5 -50 -5.5c-13.333 1.33301 -29.666 7.16602 -48.999 17.499s-30.333 16.833 -33 19.5z" />
    <glyph glyph-name="aring" unicode="&#xe5;" horiz-adv-x="400" 
d="M277 525l27.999 10.001c4 -12 7 -21.333 9 -28c6.66699 -23.333 10 -41.333 10 -54c0 -24.667 -11.667 -45.667 -35 -63c-20.667 -15.333 -47.334 -26.333 -80.001 -33c-31.333 -4.66699 -57.333 -12.334 -78 -23.001c-35.333 -18.667 -53 -44 -53 -76
c0 -28.667 10.5 -54.167 31.5 -76.5s45.833 -33.5 74.5 -33.5c10.667 0 23.667 2.66699 39 8c6.66699 2 14.334 5.33301 23.001 10c-6 11.333 -9 22.666 -9 33.999c0 16.667 5.5 31.167 16.5 43.5s24.833 18.5 41.5 18.5s29.167 -5.66699 37.5 -17
s12.5 -25.666 12.5 -42.999s-3.83301 -33.333 -11.5 -48s-18.5 -24.334 -32.5 -29.001l72 -154l-33 -14l-29 64c-19.333 -13.333 -35.333 -23 -48 -29c-38.667 -19.333 -73.667 -29 -105 -29c-36.667 0 -68.667 12.5 -96 37.5s-41 55.5 -41 91.5
c0 19.333 7.33301 39.333 22 60c11.333 16 21 26 29 30c-9.33301 14.667 -18.166 32.5 -26.499 53.5s-12.5 38.167 -12.5 51.5c0 38.667 18.667 71 56 97c28 19.333 55.667 30.666 83 33.999c26 4.66699 48.667 11.334 68 20.001c28.667 12.667 43 27.334 43 44.001
c0 6.66699 -0.666992 13.667 -2 21zM179.999 6.00098l-49 122.999l-22 12c-8 -9.33301 -13.667 -16.666 -17 -21.999c-12 -18.667 -18 -35 -18 -49c0 -46.667 27.333 -70 82 -70c8.66699 0 14.5 0.166992 17.5 0.5s5.5 0.833008 7.5 1.5zM286.999 82l-14.001 35
c-23.333 -8 -45.666 -12 -66.999 -12c-14 0 -27.333 1.33301 -40 4l41 -97c16 7.33301 31.333 17 46 29s26 25.667 34 41z" />
    <glyph glyph-name="ae" unicode="&#xe6;" horiz-adv-x="540" 
d="M445 98c-8.66699 -4.66699 -15.998 -7.99707 -21.998 -9.99707c-18 -6.66699 -35.333 -10 -52 -10c-44 5.33301 -87 26.666 -129 63.999c-32.667 29.333 -50.334 50.333 -53.001 63l6 -2c18 0 41.667 8 71 24c35.333 19.333 54 39.333 56 60c0 12.667 -6.5 21 -19.5 25
s-32.5 6 -58.5 6h-35c-32.667 0 -63 -11 -91 -33s-42 -46 -42 -72c0 -33.333 25 -74.666 75 -123.999c43.333 -42.667 69.333 -64 78 -64l-24 -21c-41.333 29.333 -72 53.666 -92 72.999c-61.333 58 -92 110.333 -92 157c0 30 10 57.667 30 83c6.66699 8 17 17.667 31 29
c-5.33301 2.66699 -13.333 12.667 -24 30c-14 22.667 -21 43.334 -21 62.001c0 29.333 14 52.166 42 68.499s57.667 24.5 89 24.5l78 2l-8 28l28 3l37 -91l-68 2l-46 -2c-38.667 -3.33301 -65.167 -9.83301 -79.5 -19.5s-22.166 -22.834 -23.499 -39.501
c0 -12 3.33301 -24 10 -36c4 -6.66699 9 -13.667 15 -21c6 4 20 8 42 12s38.667 6 50 6c42 0 79 -8.66699 111 -26c36.667 -20 55 -47.667 55 -83c0 -32.667 -16.667 -60 -50 -82c-10.667 -7.33301 -27.667 -15.333 -51 -24c4 -4 17.667 -10 41 -18c17.333 -6 31 -9 41 -9
c23.333 0 40.666 1.66699 51.999 5s25.666 10.666 42.999 21.999v278h50v-413h-50v73z" />
    <glyph glyph-name="ccedilla" unicode="&#xe7;" 
d="M369 574c0 15.333 4.83301 27.168 14.5 35.501s21.167 12.5 34.5 12.5c14 0 26 -4.16699 36 -12.5s15 -20.166 15 -35.499c0 -18.667 -7.66699 -32.334 -23 -41.001c-8 -4.66699 -17.333 -7 -28 -7c-13.333 0 -24.833 4.16699 -34.5 12.5s-14.5 20.166 -14.5 35.499z
M309 590.002c0 -36 14.667 -76.667 44 -122l82 -121c29.333 -51.333 44 -102.666 44 -153.999c0 -56 -17.167 -104.167 -51.5 -144.5s-79.166 -60.5 -134.499 -60.5c-50.667 0 -95.834 16.833 -135.501 50.5s-59.5 72.167 -59.5 115.5c0 23.333 4.83301 45 14.5 65
s20.834 34.333 33.501 43c-22 14.667 -38.333 27.334 -49 38.001c-33.333 33.333 -50 67.333 -50 102c0 24 14.333 47 43 69c23.333 18 39 27 47 27l-14 27l25 12l45 -86c-18.667 0 -39.667 -9.33301 -63 -28c-18.667 -14.667 -28 -32 -28 -52c0 -18.667 6 -35.667 18 -51
c17.333 -22 33.333 -33 48 -33c9.33301 8 19.166 14.5 29.499 19.5s20.833 7.5 31.5 7.5l31 -56c-22 0 -48 -14.667 -78 -44c-24 -23.333 -36 -50.333 -36 -81c0 -32.667 11.667 -58.167 35 -76.5s52.333 -27.5 87 -27.5c44.667 0 81.5 16 110.5 48s43.5 71.333 43.5 118
c0 64.667 -14.667 123.667 -44 177l-82 121c-29.333 45.333 -44 90.666 -44 135.999c0 40 12.833 73.167 38.5 99.5s60.5 39.5 104.5 39.5c50.667 0 91 -25.333 121 -76c10 -16.667 20.333 -42.334 31 -77.001l-24 -13c-8 24.667 -16 43 -24 55c-24 37.333 -55 56 -93 56
c-27.333 0 -50.333 -12 -69 -36s-28 -53 -28 -87z" />
    <glyph glyph-name="egrave" unicode="&#xe8;" 
d="M137 498l-13.999 27.001l25 12l45 -86c-18.667 0 -39.667 -9.33301 -63 -28c-18.667 -14.667 -28 -32 -28 -52c0 -18.667 6 -35.667 18 -51c17.333 -22 33.333 -33 48 -33c9.33301 8 19.166 14.5 29.499 19.5s20.833 7.5 31.5 7.5l31 -56c-22 0 -48 -14.667 -78 -44
c-24 -23.333 -36 -50.333 -36 -81c0 -32.667 11.667 -58.167 35 -76.5s52.333 -27.5 87 -27.5c44.667 0 81.5 16 110.5 48s43.5 71.333 43.5 118c0 64.667 -14.667 123.667 -44 177l-82 121c-29.333 45.333 -44 90.666 -44 135.999c0 44.667 23.667 79 71 103
c24.667 10 38 15.333 40 16l41 -51l-49 -24c-30.667 -21.333 -46 -49 -46 -83c0 -42.667 14.667 -86.667 44 -132l82 -116c29.333 -48.667 44 -98.334 44 -149.001c0 -67.333 -16.5 -118.333 -49.5 -153s-78.5 -52 -136.5 -52c-50.667 0 -95.834 16.833 -135.501 50.5
s-59.5 72.167 -59.5 115.5c0 23.333 4.83301 45 14.5 65s20.834 34.333 33.501 43c-22 14.667 -38.333 27.334 -49 38.001c-33.333 33.333 -50 67.333 -50 102c0 24 14.333 47 43 69c23.333 18 39 27 47 27zM409.001 625.001c9.33301 10 20.667 15 34 15
c12.667 0 24 -4.16699 34 -12.5s15 -20.5 15 -36.5c0 -13.333 -4.5 -24.5 -13.5 -33.5s-19.833 -13.5 -32.5 -13.5c-12 0 -23.167 4.83301 -33.5 14.5s-15.5 21.167 -15.5 34.5c0 12 4 22.667 12 32z" />
    <glyph glyph-name="eacute" unicode="&#xe9;" horiz-adv-x="664" 
d="M549 512v-455.003c0 -14.667 5 -22 15 -22c13.333 0 26.666 9 39.999 27c4 6 9.66699 15.333 17 28l37 -39c-8 -12.667 -14.667 -22 -20 -28c-18 -19.333 -36.667 -29 -56 -29c-24.667 0 -46.834 10.167 -66.501 30.5s-29.5 43.5 -29.5 69.5v461
c0 32.667 -16.167 62.334 -48.5 89.001s-71.5 40 -117.5 40c-92.667 0 -161.667 -39 -207 -117c-37.333 -64.667 -56 -147.667 -56 -249c0 -86 14 -151.667 42 -197c30.667 -49.333 77 -74 139 -74c31.333 0 57.833 10.5 79.5 31.5s32.5 49.5 32.5 85.5
c0 20 -4 39.667 -12 59c-2.66699 6 -6.66699 13.667 -12 23l-25.5 -15.5c-8.33301 -5 -17.5 -8.83301 -27.5 -11.5l-39 56c30 8 52.333 15.667 67 23c45.333 23.333 68 54.333 68 93c0 22.667 -6.16699 40.667 -18.5 54s-30.166 20 -53.499 20
c-16.667 0 -34 -5.33301 -52 -16c-13.333 -8 -21.333 -14.333 -24 -19l-43 58l46 23c18 6.66699 33.333 10 46 10c38 0 69.833 -15.167 95.5 -45.5s38.5 -65.166 38.5 -104.499c0 -16 -5 -34.333 -15 -55c-13.333 -27.333 -25.666 -46.666 -36.999 -57.999
c11.333 -18 19.666 -32.667 24.999 -44c16.667 -34.667 25 -65 25 -91c0 -46.667 -16.667 -81.667 -50 -105c-26.667 -18.667 -60.667 -28 -102 -28c-76 0 -134.667 38.333 -176 115c-35.333 65.333 -53 146.333 -53 243c0 102 19.333 188.333 58 259
c48.667 88.667 119.334 133 212.001 133c77.333 0 142.333 -31 195 -93c42 -49.333 63 -94.333 63 -135z" />
    <glyph glyph-name="ecircumflex" unicode="&#xea;" horiz-adv-x="664" 
d="M549 512l-0.000976562 -455.003c0 -14.667 5 -22 15 -22c13.333 0 27 9 41 27c4.66699 6 10.667 15.333 18 28l35 -39c-8 -12.667 -14.667 -22 -20 -28c-18 -19.333 -36.667 -29 -56 -29c-24.667 0 -46.834 10.167 -66.501 30.5s-29.5 43.5 -29.5 69.5v461
c0 32.667 -16.167 62.334 -48.5 89.001s-71.5 40 -117.5 40c-92.667 0 -161.667 -39 -207 -117c-37.333 -64.667 -56 -147.667 -56 -249c0 -86 14 -151.667 42 -197c30.667 -49.333 77 -74 139 -74c31.333 0 57.833 10.5 79.5 31.5s32.5 49.5 32.5 85.5
c0 20 -4 39.667 -12 59c-2.66699 6 -6.66699 13.667 -12 23l-25.5 -15.5c-8.33301 -5 -17.5 -8.83301 -27.5 -11.5l-39 56c30 8 52.333 15.667 67 23c45.333 23.333 68 54.333 68 93c0 22.667 -6.16699 40.667 -18.5 54s-30.166 20 -53.499 20
c-16.667 0 -34 -5.33301 -52 -16c-13.333 -8 -21.333 -14.333 -24 -19l-43 58l46 23c18 6.66699 33.333 10 46 10c38 0 69.833 -15.167 95.5 -45.5s38.5 -65.166 38.5 -104.499c0 -16 -5 -34.333 -15 -55c-13.333 -27.333 -25.666 -46.666 -36.999 -57.999
c11.333 -18 19.666 -32.667 24.999 -44c16.667 -34.667 25 -65 25 -91c0 -46.667 -16.667 -81.667 -50 -105c-26.667 -18.667 -60.667 -28 -102 -28c-76 0 -134.667 38.333 -176 115c-35.333 65.333 -53 146.333 -53 243c0 102 19.333 188.333 58 259
c48.667 88.667 119.334 133 212.001 133c77.333 0 142.333 -31 195 -93c42 -49.333 63 -94.333 63 -135zM606.999 724.997c14 0 24.833 -4.83301 32.5 -14.5s11.5 -21.167 11.5 -34.5s-3.66699 -24.833 -11 -34.5s-18.333 -14.5 -33 -14.5c-16 0 -28.167 4.66699 -36.5 14
s-12.5 21 -12.5 35s4.16699 25.667 12.5 35s20.5 14 36.5 14z" />
    <glyph glyph-name="edieresis" unicode="&#xeb;" horiz-adv-x="467" 
d="M191 480c10.667 7.33301 19.334 12.667 26.001 16c22 10.667 43.333 16 64 16c37.333 0 69.166 -14.5 95.499 -43.5s39.5 -64.167 39.5 -105.5c0 -37.333 -8.66699 -66.666 -26 -87.999c-18.667 -14.667 -28.334 -22.334 -29.001 -23.001
c13.333 -13.333 26.833 -34.333 40.5 -63s20.5 -54 20.5 -76c0 -40.667 -16.667 -72 -50 -94c-29.333 -19.333 -65.333 -29 -108 -29c-76.667 0 -135.334 40.333 -176.001 121c-34 67.333 -51 149.333 -51 246c0 100 17.333 181.667 52 245c24.667 45.333 58 80.333 100 105
c16.667 10 36.334 18.333 59.001 25v-64c-23.333 -11.333 -39.333 -20.333 -48 -27c-36 -26 -64.667 -59.667 -86 -101c-30.667 -58.667 -46 -130 -46 -214c0 -77.333 11.667 -139.666 35 -186.999c30 -61.333 78.333 -92 145 -92c36.667 0 64.334 8.66699 83.001 26
c21.333 19.333 32 49.666 32 90.999c0 14 -2 27.333 -6 40c-6 18.667 -11.667 30.667 -17 36c-9.33301 -2 -18 -4.83301 -26 -8.5s-16.333 -7.16699 -25 -10.5l-41 50c28.667 7.33301 50 15 64 23c43.333 24 65 57 65 99c0 20 -7.83301 36 -23.5 48s-34.167 18 -55.5 18
c-28.667 0 -50 -10.333 -64 -31zM322 689.001c0 15.333 5 27.332 15 35.999s22.333 13 37 13c14 0 26.167 -4.16699 36.5 -12.5s15.5 -20.5 15.5 -36.5s-5.16699 -28.5 -15.5 -37.5s-22.5 -13.5 -36.5 -13.5c-14.667 0 -27 4.33301 -37 13s-15 21.334 -15 38.001z" />
    <glyph glyph-name="igrave" unicode="&#xec;" horiz-adv-x="500" 
d="M223 557l29.0029 5.99805l31 -84l-94 1c-26.667 0 -49.834 -4.16699 -69.501 -12.5s-30.834 -22.833 -33.501 -43.5c0 -11.333 4 -25.666 12 -42.999c6 -13.333 11 -22 15 -26c17.333 6 31.333 10.333 42 13c32 8.66699 57.667 13 77 13
c41.333 0 78.333 -8.66699 111 -26c39.333 -20.667 59 -49 59 -85c0 -30 -23 -55.333 -69 -76s-69 -41 -69 -61c0 -10.667 6.66699 -19.167 20 -25.5s27.333 -9.5 42 -9.5c15.333 0 32.666 3 51.999 9c30.667 9.33301 49.334 17.333 56.001 24l15 -61c-2 -2 -14 -6 -36 -12
s-40.667 -9 -56 -9c-30 0 -60.333 9.66699 -91 29c-36.667 23.333 -55 51.333 -55 84c0 31.333 25 58 75 80s75 36.333 75 43c0 12.667 -12.833 21.667 -38.5 27s-55.167 8 -88.5 8c-40 0 -73 -6.66699 -99 -20c-34 -17.333 -51 -43 -51 -77c0 -36.667 20.667 -75 62 -115
c31.333 -30 69.666 -58 114.999 -84c37.333 -21.333 58.333 -32 63 -32l-27 -23c-6 0 -29.667 13 -71 39c-50 31.333 -91.667 64.333 -125 99c-45.333 46.667 -68 90.334 -68 131.001c0 28 9.33301 54 28 78l31 30c-5.33301 2.66699 -14 14 -26 34
c-15.333 26 -23 49.667 -23 71c4 29.333 20.333 51.333 49 66c24 12 53.333 18 88 18c20 0 36.667 -1.33301 50 -4z" />
    <glyph glyph-name="iacute" unicode="&#xed;" horiz-adv-x="561" 
d="M152 182c0 27.333 12.167 48.167 36.5 62.5s53.833 21.5 88.5 21.5l22 -45l-21 1c-20 0 -36.333 -4.66699 -49 -14c-18.667 -14 -28 -37 -28 -69c0 -20 10.667 -34.667 32 -44c16 -6.66699 35.333 -10 58 -10l27 1l16 -59c-43.333 0 -84.5 14.333 -123.5 43
s-58.5 66 -58.5 112zM383 195.001v110h-233c-20 0 -37.333 -9 -52 -27s-22 -37 -22 -57c0 -44 22.333 -92.333 67 -145c38.667 -45.333 63.334 -68 74.001 -68l-33 -22c-35.333 36 -61.666 65 -78.999 87c-53.333 66.667 -80 120.334 -80 161.001
c0 39.333 11.667 69.666 35 90.999s50.333 32 81 32c-6 6 -12.667 17.333 -20 34c-9.33301 20.667 -14 38.667 -14 54c3.33301 30.667 18.333 53.167 45 67.5s58 21.5 94 21.5c9.33301 0 19.166 -0.5 29.499 -1.5s20.833 -2.83301 31.5 -5.5l-8 32l27 5l26 -93l-81 6
c-34 0 -60 -3 -78 -9c-27.333 -9.33301 -41 -25.333 -41 -48c0 -10 3 -21.667 9 -35s10.333 -21.333 13 -24h211l60 -56v-244c0 -12 5.33301 -18 16 -18c12 0 24.5 7.16699 37.5 21.5s19.5 23.5 19.5 27.5l37 -37c-10.667 -13.333 -19.334 -23.333 -26.001 -30
c-20.667 -20.667 -38.667 -31 -54 -31c-24 0 -45.333 9.66699 -64 29s-28 44.333 -28 75v56l-100 -27l-21 47z" />
    <glyph glyph-name="icircumflex" unicode="&#xee;" horiz-adv-x="561" 
d="M383 234l0.00292969 71h-233c-20 0 -37.333 -9 -52 -27s-22 -37 -22 -57c0 -37.333 28 -80.666 84 -129.999c48.667 -42.667 78.667 -64 90 -64l-33 -23c-10 0 -42.333 26 -97 78c-63.333 60 -95 110.667 -95 152c0 39.333 11.667 69.666 35 90.999s50.333 32 81 32
c-6 6 -12.667 17.333 -20 34c-9.33301 20.667 -14 38.667 -14 54c3.33301 30.667 18.333 53.167 45 67.5s58 21.5 94 21.5c9.33301 0 19.166 -0.5 29.499 -1.5s20.833 -2.83301 31.5 -5.5l-8 32l27 5l26 -93l-81 6c-34 0 -60 -3 -78 -9
c-27.333 -9.33301 -41 -25.333 -41 -48c0 -10 3 -21.667 9 -35s10.333 -21.333 13 -24h211l60 -56v-244c0 -14 5.33301 -22 16 -24c11.333 0 23.666 8.16699 36.999 24.5s20 27.166 20 32.499l37 -39c-10.667 -13.333 -19.334 -23.333 -26.001 -30
c-20.667 -20.667 -38.667 -31 -54 -31c-26.667 0 -49.667 11.333 -69 34c-15.333 18 -23 32 -23 42v108h-125v-61c0 -11.333 -2.66699 -17.666 -8 -18.999c-10.667 0 -28.667 16.5 -54 49.5s-38 56.167 -38 69.5c0 4 1.5 7.83301 4.5 11.5s6.16699 5.5 9.5 5.5h211z" />
    <glyph glyph-name="idieresis" unicode="&#xef;" horiz-adv-x="639" 
d="M461 229l-0.000976562 299.995l64 -54v-418c0 -14.667 4.66699 -22 14 -22c14 0 28 9 42 27c4.66699 6 10.334 15.333 17.001 28l35 -39c-8 -12.667 -14.667 -22 -20 -28c-18 -19.333 -36.667 -29 -56 -29c-24.667 0 -46.834 10.167 -66.501 30.5s-29.5 43.5 -29.5 69.5
v74h-113v-64c0 -3.33301 -1.83301 -6.16602 -5.5 -8.49902s-7.83398 -4.16602 -12.501 -5.49902c-7.33301 0 -30 18 -68 54s-57 60.333 -57 73c0 4.66699 2.5 7.83398 7.5 9.50098s11.5 2.5 19.5 2.5h53v72h-123c-20 0 -36.667 -8.33301 -50 -25s-20 -36.334 -20 -59.001
c0 -42 27.333 -86.667 82 -134c18 -15.333 45.333 -34.666 82 -57.999l-26 -23c-44 26 -76.667 48 -98 66c-66 55.333 -99 109.333 -99 162c0 30 10.333 57.667 31 83c6.66699 8 17.334 17.667 32.001 29c-7.33301 7.33301 -12.666 13 -15.999 17
c-23.333 27.333 -35 55.333 -35 84c0 24.667 13.333 46.334 40 65.001c22.667 15.333 45.667 24.333 69 27c16 0 32.333 -0.666992 49 -2s29 -2.66602 37 -3.99902l-11 34l31 3l29 -95c-12 1.33301 -22 2 -30 2c-30.667 2 -52 3 -64 3l-31 -1c-18.667 -2 -35.667 -8 -51 -18
s-23 -23.667 -23 -41c0 -12 3 -23.833 9 -35.5s13.333 -19.5 22 -23.5h172l55 -60v-68h113z" />
    <glyph glyph-name="eth" unicode="&#xf0;" horiz-adv-x="561" 
d="M299 559l27.0029 4.99902l26 -93l-81 6c-34 0 -60 -3 -78 -9c-27.333 -9.33301 -41 -25.333 -41 -48c0 -10 3 -21.667 9 -35s10.333 -21.333 13 -24h211l60 -56v-244c0 -12 5.33301 -18 16 -18c11.333 0 22 4.66699 32 14c15.333 14 23 25.667 23 35l39 -37
c-10.667 -13.333 -19.334 -23.333 -26.001 -30c-20.667 -20.667 -38.667 -31 -54 -31c-17.333 0 -37 11 -59 33c-19.333 19.333 -29 33 -29 41v32c-26 -16.667 -56.667 -25 -92 -25c-36 0 -66.333 8.66699 -91 26c-28 19.333 -42 46.333 -42 81c0 24 10.667 44.667 32 62
s43.333 26 66 26c22 0 46.667 -4.66699 74 -14s43.666 -16.666 48.999 -21.999v71h-233c-20 0 -37.333 -8.66699 -52 -26s-22 -36.666 -22 -57.999c3.33301 -40 30.666 -85.667 81.999 -137c44 -44 71.333 -66 82 -66l-35 -22c-9.33301 0 -39.666 27.333 -90.999 82
c-59.333 62.667 -89 114.667 -89 156c0 39.333 11.667 69.666 35 90.999s50.333 32 81 32c-6 6 -12.667 17.333 -20 34c-9.33301 20.667 -14 38.667 -14 54c3.33301 30.667 18.333 53.167 45 67.5s58 21.5 94 21.5c9.33301 0 19.166 -0.5 29.499 -1.5
s20.833 -2.83301 31.5 -5.5zM383.003 169.999l-0.00195312 27c-3.33301 4 -16.666 9.66699 -39.999 17s-46.666 11 -69.999 11c-17.333 -3.33301 -32 -11 -44 -23s-18 -26.667 -18 -44c0 -13.333 5.5 -22.5 16.5 -27.5s24.5 -7.5 40.5 -7.5c20 0 43.667 6.83301 71 20.5
s42 22.5 44 26.5z" />
    <glyph glyph-name="ntilde" unicode="&#xf1;" horiz-adv-x="393" 
d="M246 533l-8 28.002l28 3l37 -91l-68 2l-46 -2c-38.667 -3.33301 -65.167 -9.83301 -79.5 -19.5s-22.166 -22.834 -23.499 -39.501c0 -12 3.33301 -24 10 -36c4 -6.66699 9 -13.667 15 -21c6 4 20 8 42 12s38.667 6 50 6c42 0 79 -8.66699 111 -26
c36.667 -20 55 -47.667 55 -83c0 -32.667 -16.667 -60 -50 -82c-10.667 -7.33301 -27.667 -15.333 -51 -24c4 -4 17.667 -10 41 -18c17.333 -6 31 -9 41 -9c18.667 0 39.667 8.66699 63 26c8 6 18.667 15.667 32 29v-90c-8.66699 -4.66699 -16 -8 -22 -10
c-18 -6.66699 -35.333 -10 -52 -10c-44 5.33301 -87 26.666 -129 63.999c-32.667 29.333 -50.334 50.333 -53.001 63l6 -2c18 0 41.667 8 71 24c35.333 19.333 54 39.333 56 60c0 12.667 -6.5 21 -19.5 25s-32.5 6 -58.5 6h-35c-32.667 0 -63 -11 -91 -33s-42 -46 -42 -72
c0 -33.333 25 -74.666 75 -123.999c43.333 -42.667 69.333 -64 78 -64l-24 -21c-41.333 29.333 -72 53.666 -92 72.999c-61.333 58 -92 110.333 -92 157c0 30 10 57.667 30 83c6.66699 8 17 17.667 31 29c-5.33301 2.66699 -13.333 12.667 -24 30
c-14 22.667 -21 43.334 -21 62.001c0 29.333 14 52.166 42 68.499s57.667 24.5 89 24.5z" />
    <glyph glyph-name="ograve" unicode="&#xf2;" horiz-adv-x="355" 
d="M135 752h220v-27h-171v-850h171v-29h-220v906z" />
    <glyph glyph-name="oacute" unicode="&#xf3;" horiz-adv-x="355" 
d="M227 752v-906h-223v29h172v850h-172v27h223z" />
    <glyph glyph-name="ocircumflex" unicode="&#xf4;" horiz-adv-x="426" 
d="M164 504l-13.9971 59c6.66699 2 16.5 4 29.5 6s26.167 3 39.5 3c23.333 0 45 -6 65 -18c25.333 -15.333 38 -36 38 -62c0 -25.333 -15.333 -46 -46 -62c-22.667 -12 -43 -18 -61 -18c-28 0 -56 -6 -84 -18c-42 -18 -63 -45 -63 -81
c0 -27.333 8.83301 -47.666 26.5 -60.999s39.5 -20 65.5 -20c12 0 23 1.33301 33 4c-3.33301 8.66699 -5.66602 15.334 -6.99902 20.001c-5.33301 16.667 -8 29.667 -8 39c0 23.333 9.16699 41.666 27.5 54.999s39.166 20 62.499 20c22.667 0 42 -6.5 58 -19.5
s24 -31.5 24 -55.5c0 -24.667 -10.333 -46 -31 -64c-26 -22 -55 -34.667 -87 -38c-28.667 0 -59.334 -7 -92.001 -21c-49.333 -21.333 -74 -52 -74 -92c0 -28 11.667 -50 35 -66c20 -14 44.333 -21 73 -21l29 3c-6.66699 6.66699 -12.5 15.5 -17.5 26.5s-7.5 20.5 -7.5 28.5
c0 24 8.66699 44.667 26 62s38 26 62 26c26 0 48.333 -8 67 -24s28 -35.333 28 -58c0 -32.667 -15.667 -58.667 -47 -78c-28.667 -17.333 -62.334 -26 -101.001 -26c-49.333 0 -92 12 -128 36c-40 26.667 -60 61.667 -60 105c0 32.667 12.667 61 38 85
c8.66699 8 23.334 18 44.001 30c-18.667 8.66699 -32.667 17 -42 25c-28 25.333 -42 58.666 -42 99.999c0 37.333 17.667 69.333 53 96c31.333 23.333 62.666 35 93.999 35c36 0 60.667 1 74 3c28.667 4 43 12.667 43 26c0 12.667 -8.16699 19.667 -24.5 21
s-29.5 2.33301 -39.5 3c-9.33301 0 -20.333 -1.66699 -33 -5s-21.334 -6.33301 -26.001 -9zM223.003 238c18.667 5.33301 32.666 10.3311 41.999 14.998c28 14.667 42 33.334 42 56.001c0 10 -2.5 17 -7.5 21s-15.5 6 -31.5 6c-11.333 0 -22.666 -7 -33.999 -21
s-17 -28.667 -17 -44c0 -7.33301 1 -15.666 3 -24.999c0 -2 1 -4.66699 3 -8zM229.002 1.99805c10.667 3.33301 18.999 6.33301 24.999 9c37.333 17.333 57.333 40.333 60 69c0 8.66699 -3.5 14.167 -10.5 16.5s-16.5 3.5 -28.5 3.5s-24.333 -7.5 -37 -22.5
s-19 -32.5 -19 -52.5c0 -4 1.66699 -9 5 -15c0.666992 -2 2.33398 -4.66699 5.00098 -8z" />
    <glyph glyph-name="otilde" unicode="&#xf5;" horiz-adv-x="447" 
d="M229 537l60.002 -35v-47c21.333 -6.66699 37.333 -13 48 -19c32 -19.333 48 -45.666 48 -78.999c0 -34 -10 -62.333 -30 -85c-24.667 -28.667 -48 -43 -70 -43v-41c14 0 32 -6.33301 54 -19c34.667 -20 52 -49 52 -87c0 -38.667 -21 -69.667 -63 -93
c-38.667 -21.333 -85.334 -32 -140.001 -32c-40.667 0 -75.334 8 -104.001 24c-34 19.333 -51 46 -51 80c0 52 38.667 89.667 116 113c30.667 9.33301 56.667 14 78 14v35c-4 -0.666992 -9.83301 -1.33398 -17.5 -2.00098s-13.167 -1 -16.5 -1c-42 0 -76.667 6 -104 18
c-41.333 18 -62 47.333 -62 88c0 39.333 21.333 71 64 95s88.667 36 138 36v80zM264.002 402c-36.667 0 -76 -7 -118 -21c-52 -17.333 -78 -39 -78 -65c0 -18 8.66699 -31.333 26 -40c14 -6.66699 31.333 -10 52 -10c54 0 100.833 8.5 140.5 25.5s59.5 37.833 59.5 62.5
c0 18 -5.33301 30.5 -16 37.5s-32.667 10.5 -66 10.5zM270.002 139c-60.667 0 -108.167 -7.66699 -142.5 -23s-51.5 -37 -51.5 -65c0 -12.667 9.16699 -23.334 27.5 -32.001s37.833 -13 58.5 -13c43.333 0 85.833 8.66699 127.5 26s62.5 38 62.5 62
c0 16.667 -8 28.334 -24 35.001s-35.333 10 -58 10z" />
    <glyph glyph-name="odieresis" unicode="&#xf6;" horiz-adv-x="492" 
d="M348 465c0 15.333 5.16699 27.166 15.5 35.499s22.833 12.5 37.5 12.5c14 0 26.167 -4.16699 36.5 -12.5s15.5 -20.166 15.5 -35.499s-5.16699 -27.5 -15.5 -36.5s-22.833 -13.5 -37.5 -13.5s-27 4.33301 -37 13s-15 21 -15 37zM320 248
c-6.66699 -1.33301 -14.334 -2.33496 -23.001 -3.00195s-19.667 -1 -33 -1h-25c-13.333 2 -23.333 3.33301 -30 4c-18.667 2.66699 -43 11.334 -73 26.001c-26.667 14.667 -40.667 22.334 -42 23.001c6.66699 -5.33301 11.334 -9.66602 14.001 -12.999
c10 -10.667 15.667 -19.334 17 -26.001v-31v-120c0 -17.333 1 -28.5 3 -33.5s8.66699 -7.5 20 -7.5c12.667 0 26 7.33301 40 22c4.66699 4.66699 10.334 12.334 17.001 23.001c-6 5.33301 -10.333 9.66602 -13 12.999c-9.33301 10.667 -14 20.667 -14 30
c0 12 3.83301 22.167 11.5 30.5s17.5 12.5 29.5 12.5c15.333 0 26.666 -7.33301 33.999 -22c4.66699 -10 7 -21.667 7 -35v-9c11.333 0 22.5 2.83301 33.5 8.5s19.833 13.167 26.5 22.5v86zM289 97.998c-5.33301 0 -11.999 0.667969 -19.999 2.00098s-12.333 2 -13 2
c0 -13.333 -12 -30.333 -36 -51c-17.333 -14.667 -36 -22 -56 -22c-25.333 0 -48.333 11 -69 33c-18 19.333 -27 37.666 -27 54.999v156c-10.667 -4.66699 -21.834 -12.334 -33.501 -23.001s-20.5 -21.667 -26.5 -33v64c8.66699 6.66699 18.667 13 30 19s21.333 9 30 9
c-3.33301 1.33301 -5.66602 2.33301 -6.99902 3c-7.33301 3.33301 -12 5.33301 -14 6l-31 18l13 27c3.33301 -4.66699 19 -13.667 47 -27c66 -31.333 121.333 -47 166 -47c23.333 0 42 2.33301 56 7c20 6.66699 30 18 30 34c0 18 -10.167 31.5 -30.5 40.5
s-52.833 16.167 -97.5 21.5s-69.334 8.66602 -74.001 9.99902c-29.333 6.66699 -44 18 -44 34c0 26 27.667 52 83 78c18 8 45.667 18.333 83 31l-23 23l27 14l53 -74c-5.33301 0 -21.333 -5 -48 -15c-14 -5.33301 -27.5 -11.166 -40.5 -17.499s-27.667 -15.166 -44 -26.499
s-25.5 -18.333 -27.5 -21c55.333 -6 96.666 -12.333 123.999 -19c82.667 -20.667 124 -50.334 124 -89.001c0 -20 -2.66699 -35 -8 -45c-0.666992 -1.33301 -2 -3 -4 -5v-227c0 -8.66699 1.16699 -15.667 3.5 -21s6.83301 -8 13.5 -8c12.667 0 25.334 9 38.001 27
c4 6 9 15 15 27l35 -41c-11.333 -11.333 -20.333 -19.666 -27 -24.999c-21.333 -16.667 -39.666 -25 -54.999 -25c-22.667 0 -42.334 10.833 -59.001 32.5s-25 42.5 -25 62.5v37c-10 -5.33301 -20.333 -9 -31 -11z" />
    <glyph glyph-name="divide" unicode="&#xf7;" horiz-adv-x="492" 
d="M225 568l27.001 13.998l53 -74c-5.33301 0 -21.333 -5 -48 -15c-14 -5.33301 -27.5 -11.166 -40.5 -17.499s-27.667 -15.166 -44 -26.499s-25.5 -18.333 -27.5 -21c55.333 -6 96.666 -12.333 123.999 -19c82.667 -20.667 124 -50.334 124 -89.001c0 -20 -13 -36 -39 -48
c-18.667 -8 -32.334 -14 -41.001 -18l-65 -24c-22 -10 -33.667 -24 -35 -42c0 -8.66699 1.33301 -14.167 4 -16.5s5.33398 -4.16602 8.00098 -5.49902l193 47l23 -53l-136 -29c3.33301 0 13 -4.33301 29 -13c39.333 -22 59 -44.333 59 -67
c0 -26.667 -13.667 -46.667 -41 -60s-59.333 -20 -96 -20c-40.667 0 -91.667 12 -153 36c-20 8 -46.667 20 -80 36l12 27c2.66699 -6 23 -17.667 61 -35c47.333 -22 89.666 -33 126.999 -33c27.333 0 49.666 4 66.999 12c22.667 10.667 34 26.334 34 47.001
c0 13.333 -9 27.333 -27 42c-15.333 12 -25.666 18 -30.999 18l-155 -39l-27 51l119 23c-15.333 0 -27.666 3.83301 -36.999 11.5s-14 20.167 -14 37.5c0 12 8.5 23.833 25.5 35.5s28.167 17.5 33.5 17.5c-24.667 0 -48.667 3.33301 -72 10c-7.33301 2 -45.333 17 -114 45
l12 25c9.33301 -6 34 -14.667 74 -26c52.667 -15.333 96.334 -23 131.001 -23c23.333 0 42 2.33301 56 7c20 6.66699 30 18 30 34c0 18 -10.167 31.5 -30.5 40.5s-52.833 16.167 -97.5 21.5s-69.334 8.66602 -74.001 9.99902c-29.333 6.66699 -44 18 -44 34
c0 26 27.667 52 83 78c18 8 45.667 18.333 83 31zM348.001 464.998c0 15.333 5.16699 27.166 15.5 35.499s22.833 12.5 37.5 12.5c14 0 26.167 -4.16699 36.5 -12.5s15.5 -20.166 15.5 -35.499s-5.16699 -27.5 -15.5 -36.5s-22.833 -13.5 -37.5 -13.5s-27 4.33301 -37 13
s-15 21 -15 37z" />
    <glyph glyph-name="oslash" unicode="&#xf8;" horiz-adv-x="432" 
d="M240 563l30.9961 6.99902l28 -78c-26.667 -5.33301 -46.667 -9.66602 -60 -12.999c-41.333 -10.667 -62.333 -20 -63 -28c52 -19.333 98.167 -42.5 138.5 -69.5s60.5 -57.833 60.5 -92.5s-16.667 -61 -50 -79c-26 -14 -56.333 -21 -91 -21c-30 0 -60.667 -9 -92 -27
c-38.667 -22 -58 -49.333 -58 -82c0 -30.667 14.333 -53 43 -67c22.667 -11.333 50.667 -17 84 -17c-12.667 16.667 -19 34.667 -19 54c0 22.667 7.83301 42.5 23.5 59.5s36.167 25.5 61.5 25.5c24 0 45.333 -7.66699 64 -23s28 -34.333 28 -57
c0 -32.667 -15.667 -58.334 -47 -77.001c-28 -16.667 -60.333 -25 -97 -25c-48 0 -90.667 11.667 -128 35c-42.667 26.667 -64 61.334 -64 104.001c0 38 21 72 63 102c32.667 23.333 55.334 35 68.001 35c-27.333 8.66699 -54.666 26.667 -81.999 54
c-23.333 23.333 -44 50 -62 80l21 20c0 -10 20.667 -34 62 -72c50 -46 96.333 -69 139 -69c18.667 0 34.834 5.5 48.501 16.5s20.5 25.833 20.5 44.5c0 34.667 -35.167 68.5 -105.5 101.5s-105.5 54.5 -105.5 64.5c0 14.667 23.667 31 71 49
c40.667 15.333 66.334 23 77.001 23zM237.996 -0.000976562c19.333 7.33301 33.667 13.333 43 18c28.667 15.333 43 32 43 50c0 12 -4.83301 19.333 -14.5 22s-19.167 4 -28.5 4c-16 0 -28.333 -6 -37 -18s-13 -26.333 -13 -43c0 -12.667 2.33301 -23.667 7 -33z" />
    <glyph glyph-name="ugrave" unicode="&#xf9;" horiz-adv-x="492" 
d="M348 465c0 15.333 5.16699 27.166 15.5 35.499s22.833 12.5 37.5 12.5c14 0 26.167 -4.16699 36.5 -12.5s15.5 -20.166 15.5 -35.499s-5.16699 -27.5 -15.5 -36.5s-22.833 -13.5 -37.5 -13.5s-27 4.33301 -37 13s-15 21 -15 37zM221 135
c0 -28 -8.33301 -50.002 -25 -66.002s-36.334 -24 -59.001 -24c-25.333 0 -52.666 14.333 -81.999 43c-24.667 24 -37 41 -37 51l27 21c0 -5.33301 6.33301 -17 19 -35c16 -22 31.667 -33 47 -33c18.667 0 32.334 7.33301 41.001 22c6.66699 11.333 10 25.333 10 42
c0 40.667 -15 77.667 -45 111c-26 28.667 -59.667 51.667 -101 69l13 27c3.33301 -4.66699 19 -13.667 47 -27c66 -31.333 121.333 -47 166 -47c23.333 0 42 2.33301 56 7c20 6.66699 30 18 30 34c0 18 -10.167 31.5 -30.5 40.5s-52.833 16.167 -97.5 21.5
s-69.334 8.66602 -74.001 9.99902c-29.333 6.66699 -44 18 -44 34c0 26 27.667 52 83 78c18 8 45.667 18.333 83 31l-23 23l27 14l53 -74c-5.33301 0 -21.333 -5 -48 -15c-14 -5.33301 -27.5 -11.166 -40.5 -17.499s-27.667 -15.166 -44 -26.499s-25.5 -18.333 -27.5 -21
c55.333 -6 96.666 -12.333 123.999 -19c82.667 -20.667 124 -50.334 124 -89.001c0 -16.667 -5.66699 -32 -17 -46c-12 -11.333 -18.333 -17.333 -19 -18v-213c0 -8 1.16699 -14.5 3.5 -19.5s6.5 -7.5 12.5 -7.5c12 0 24.333 7.66699 37 23c10.667 12.667 16 23 16 31
l39 -43c-10 -11.333 -18 -19.666 -24 -24.999c-19.333 -16.667 -36 -25 -50 -25c-29.333 0 -53.666 16.333 -72.999 49c-6 10.667 -13 27.334 -21 50.001v166c-10 0 -21.5 0.166992 -34.5 0.5s-30.833 2.16602 -53.5 5.49902c-20.667 4.66699 -39.667 11.334 -57 20.001
c-6 2.66699 -13 7 -21 13c10 -4 26 -20.333 48 -49c28 -36.667 42 -69 42 -97z" />
    <glyph glyph-name="uacute" unicode="&#xfa;" horiz-adv-x="492" 
d="M348 465c0 15.333 5.16699 27.166 15.5 35.499s22.833 12.5 37.5 12.5c14 0 26.167 -4.16699 36.5 -12.5s15.5 -20.166 15.5 -35.499s-5.16699 -27.5 -15.5 -36.5s-22.833 -13.5 -37.5 -13.5s-27 4.33301 -37 13s-15 21 -15 37zM297 154v90l-61 -2
c-20 0 -39.333 2.66699 -58 8c-6 1.33301 -13.333 4 -22 8v-104h141zM102 279c-8.66699 3.33301 -14.9971 5.66797 -18.9971 7.00098c-14 5.33301 -24 9.66602 -30 12.999c-18.667 9.33301 -31.667 17.666 -39 24.999l15 39c3.33301 -4.66699 19 -13.667 47 -27
c66 -31.333 121.333 -47 166 -47c23.333 0 42 2.33301 56 7c20 6.66699 30 18 30 34c0 18 -10.167 31.5 -30.5 40.5s-52.833 16.167 -97.5 21.5s-69.334 8.66602 -74.001 9.99902c-29.333 6.66699 -44 18 -44 34c0 26 27.667 52 83 78c18 8 45.667 18.333 83 31l-23 23
l27 14l53 -74c-5.33301 0 -21.333 -5 -48 -15c-14 -5.33301 -27.5 -11.166 -40.5 -17.499s-27.667 -15.166 -44 -26.499s-25.5 -18.333 -27.5 -21c55.333 -6 96.666 -12.333 123.999 -19c82.667 -20.667 124 -50.334 124 -89.001c0 -16.667 -5.66699 -32 -17 -46
c-12 -11.333 -18.333 -17.333 -19 -18v-213c0 -11.333 5.33301 -20.333 16 -27c1.33301 -1.33301 4.33301 -2.66602 9 -3.99902c9.33301 0 19.666 7.83301 30.999 23.5s17 27.167 17 34.5l35 -43c-10 -11.333 -18 -19.666 -24 -24.999c-19.333 -16.667 -36 -25 -50 -25
c-38.667 0 -66 20 -82 60c-4.66699 13.333 -8.66699 33.666 -12 60.999h-139v-55c0 -9.33301 -4.33301 -15.333 -13 -18c-12 0 -33.667 14.333 -65 43s-47 51 -47 67c0 12.667 5.33301 19 16 19h51z" />
    <glyph glyph-name="ucircumflex" unicode="&#xfb;" horiz-adv-x="492" 
d="M348 465c0 15.333 5.16699 27.166 15.5 35.499s22.833 12.5 37.5 12.5c14 0 26.167 -4.16699 36.5 -12.5s15.5 -20.166 15.5 -35.499s-5.16699 -27.5 -15.5 -36.5s-22.833 -13.5 -37.5 -13.5s-27 4.33301 -37 13s-15 21 -15 37zM16 336l13.001 27
c3.33301 -4.66699 19 -13.667 47 -27c66 -31.333 121.333 -47 166 -47c23.333 0 42 2.33301 56 7c20 6.66699 30 18 30 34c0 18 -10.167 31.5 -30.5 40.5s-52.833 16.167 -97.5 21.5s-69.334 8.66602 -74.001 9.99902c-29.333 6.66699 -44 18 -44 34c0 26 27.667 52 83 78
c18 8 45.667 18.333 83 31l-23 23l27 14l53 -74c-5.33301 0 -21.333 -5 -48 -15c-14 -5.33301 -27.5 -11.166 -40.5 -17.499s-27.667 -15.166 -44 -26.499s-25.5 -18.333 -27.5 -21c55.333 -6 96.666 -12.333 123.999 -19c82.667 -20.667 124 -50.334 124 -89.001
c0 -16.667 -5.66699 -32 -17 -46c-12 -11.333 -18.333 -17.333 -19 -18v-213c0 -8.66699 1.5 -15.667 4.5 -21s8.16699 -8 15.5 -8c12 0 24.333 9.33301 37 28c4 6 9.33301 15.333 16 28l35 -43c-10 -11.333 -18 -19.666 -24 -24.999c-19.333 -16.667 -36 -25 -50 -25
c-29.333 0 -53.333 16.333 -72 49c-6 10.667 -12.667 27.334 -20 50.001l-24 -24c-37.333 -33.333 -73.666 -50 -108.999 -50c-38 0 -72.833 11.833 -104.5 35.5s-47.5 50.167 -47.5 79.5c0 12.667 9 26.667 27 42c6 4.66699 15 11 27 19
c-9.33301 5.33301 -16.333 10 -21 14c-14.667 13.333 -22 28.666 -22 45.999c0 13.333 5.66699 25.666 17 36.999c17.333 17.333 31.333 26 42 26l-37 17zM135.001 273c-11.333 0 -24.667 -5.16406 -40 -15.4971s-23 -22.5 -23 -36.5c2 -15.333 10 -27 24 -35
c8 2 20.833 5.66699 38.5 11s30.834 8.66602 39.501 9.99902l35 -47c-18.667 0 -47.167 -7.16699 -85.5 -21.5s-57.5 -28.5 -57.5 -42.5c0 -18 7 -30 21 -36s32 -9 54 -9c31.333 0 67 15.667 107 47c13.333 10 30.333 26 51 48v96c-10.667 0 -22.5 0.166992 -35.5 0.5
s-31.167 2.16602 -54.5 5.49902c-26 5.33301 -47 11.666 -63 18.999c-2.66699 1.33301 -6.33398 3.33301 -11.001 6z" />
    <glyph glyph-name="udieresis" unicode="&#xfc;" horiz-adv-x="650" 
d="M217 379c16 8.66699 28 15.667 36 21c24 16.667 36 31.667 36 45c0 19.333 -2.66699 33 -8 41c-7.33301 10.667 -22.333 16 -45 16c-18.667 0 -33.667 -6.33301 -45 -19c-8.66699 -10 -13 -22 -13 -36c0 -21.333 6.33301 -39 19 -53c4 -4.66699 10.667 -9.66699 20 -15z
M404 334l34.001 -48.998c-28 -9.33301 -48.667 -18 -62 -26c-41.333 -24.667 -62 -55.667 -62 -93c0 -17.333 5.5 -31.166 16.5 -41.499s28.5 -15.5 52.5 -15.5c24.667 0 46.667 11.333 66 34c14.667 16.667 22 29 22 37v349l64 -54v-418c0 -14.667 4.66699 -22 14 -22
c13.333 0 27.666 8.66699 42.999 26c4.66699 5.33301 11 14.333 19 27l32 -37c-8.66699 -12.667 -15.667 -22 -21 -28c-18 -19.333 -36.667 -29 -56 -29c-30 0 -53.333 8.83301 -70 26.5s-25 42.167 -25 73.5c-6.66699 -6.66699 -13 -11.334 -19 -14.001
c-18.667 -9.33301 -42.334 -14 -71.001 -14c-20 0 -43 13.333 -69 40c-29.333 30 -44 59.667 -44 89l-123 -93l-36 52l204 127l-73 45l-176 -88l-31 55c24.667 7.33301 55.667 20 93 38l54 26c-16 10.667 -29.5 24.667 -40.5 42s-16.5 35.333 -16.5 54
c0 23.333 11.333 43.166 34 59.499s48.334 24.5 77.001 24.5c26.667 0 50.667 -10 72 -30s32 -42 32 -66c0 -22.667 -11.667 -46.334 -35 -71.001c-7.33301 -8 -19 -18 -35 -30l70 -41z" />
    <glyph glyph-name="yacute" unicode="&#xfd;" horiz-adv-x="713" 
d="M184 240c-26.667 0 -53 -9.33301 -79 -28c-23.333 -16.667 -35 -38 -35 -64c0 -24.667 5.16699 -42.167 15.5 -52.5s25.5 -15.5 45.5 -15.5c22.667 0 42.667 8 60 24s26 35.333 26 58c0 24 -5.33301 44 -16 60c-3.33301 5.33301 -9 11.333 -17 18zM664 227
c-10.667 -3.33301 -19.001 -6.33789 -25.001 -9.00488c-37.333 -15.333 -67.333 -30.666 -90 -45.999c-14.667 -9.33301 -28.667 -19 -42 -29c-22 -16.667 -36.667 -28.667 -44 -36c8.66699 -6.66699 15 -15.167 19 -25.5s6 -21.833 6 -34.5c0 -18.667 -5.33301 -35 -16 -49
s-25.334 -21 -44.001 -21c-21.333 0 -38 5.66699 -50 17c-14 13.333 -21 34.333 -21 63c0 12 6.66699 27.333 20 46c10.667 15.333 18.334 24 23.001 26l-36 38c-16 15.333 -30.667 27.333 -44 36c-22.667 15.333 -46.667 27 -72 35c-8 2.66699 -18.333 5.33398 -31 8.00098
c10 -6.66699 19.667 -20.667 29 -42s14 -40.666 14 -57.999c0 -39.333 -10.833 -68 -32.5 -86s-51.167 -27 -88.5 -27c-22.667 0 -45 11.333 -67 34c-24.667 25.333 -37 54.333 -37 87c0 40 12.5 72.833 37.5 98.5s60.833 38.5 107.5 38.5s101.334 -23 164.001 -69
c53.333 -39.333 80 -63.333 80 -72c36 30.667 68.667 55.334 98 74.001c38.667 24.667 75.667 42.334 111 53.001zM183.999 515.995c-26.667 0 -53 -9.33203 -79 -27.999c-23.333 -16.667 -35 -38 -35 -64c0 -24.667 5.33301 -42.334 16 -53.001s25.667 -16 45 -16
c23.333 0 43.5 8.16699 60.5 24.5s25.5 35.833 25.5 58.5c0 23.333 -5.33301 43.333 -16 60c-3.33301 5.33301 -9 11.333 -17 18zM663.999 501.996l-41.001 -16.001c-31.333 -13.333 -56 -25.666 -74 -36.999c-13.333 -8 -32 -21.333 -56 -40
c-7.33301 -5.33301 -17.333 -13.333 -30 -24c16.667 -14.667 25 -35 25 -61c0 -20 -5.16699 -37 -15.5 -51s-25.166 -21 -44.499 -21c-21.333 0 -38 5.66699 -50 17c-14 13.333 -21 34.333 -21 63c0 12.667 6.33301 27.834 19 45.501s20.667 26.5 24 26.5
c-4 8 -16 21.333 -36 40c-12.667 12 -27.334 23.667 -44.001 35c-24 16 -48 27.667 -72 35c-8 2 -18.333 4.33301 -31 7c6 -2.66699 13.667 -12.334 23 -29.001c13.333 -22.667 20 -46 20 -70c0 -40 -11.333 -69 -34 -87c-20 -16 -49 -24 -87 -24
c-23.333 0 -45.666 11 -66.999 33c-24.667 25.333 -37 54 -37 86c0 40 12.5 72.667 37.5 98s60.833 38 107.5 38c47.333 0 102 -22.667 164 -68c53.333 -39.333 80 -63.333 80 -72c35.333 30 68 54.667 98 74c37.333 24 74.333 42.333 111 55z" />
    <glyph glyph-name="thorn" unicode="&#xfe;" horiz-adv-x="316" 
d="M367 346l0.00292969 -56.999c-28.667 -7.33301 -61.334 -22 -98.001 -44l-93 -56l31 -74l2 -9c0 -12.667 -9.66699 -24 -29 -34c-16.667 0 -44 12.667 -82 38c-40.667 27.333 -61 48.666 -61 63.999s26 35.666 78 60.999c26 12.667 52 24.334 78 35.001
c9.33301 4 43 17 101 39l60 23c0 13.333 -23 37.666 -69 72.999c-26.667 20.667 -48.667 31 -66 31c-12.667 0 -26 -2 -40 -6c-4.66699 -1.33301 -10.334 -3.33301 -17.001 -6c5.33301 -5.33301 10.166 -13.833 14.499 -25.5s6.5 -21.834 6.5 -30.501
c0 -10 -2.16699 -18.5 -6.5 -25.5s-12.5 -13.167 -24.5 -18.5c-12 0 -35.5 13.333 -70.5 40s-52.5 47.334 -52.5 62.001c0 22.667 14.667 40.334 44 53.001s60.333 19 93 19c58 0 108.667 -24.333 152 -73c32.667 -36.667 49 -63 49 -79z" />
    <glyph glyph-name="oe" unicode="&#x153;" horiz-adv-x="334" 
d="M0 381l47.998 23.999c36.667 15.333 70.667 23 102 23c38.667 0 89.334 -23 152.001 -69c20.667 -15.333 48.334 -38.666 83.001 -69.999l-256 -211l-47 51l234 174c-6.66699 12.667 -29.667 29 -69 49c-30.667 15.333 -61 24.333 -91 27c-18 0 -44 -9.33301 -78 -28
c-30 -16.667 -47 -27.667 -51 -33z" />
    <glyph glyph-name="scaron" unicode="&#x161;" horiz-adv-x="336" 
d="M342 18c-10 -6.66699 -18.332 -11.334 -24.999 -14.001c-20.667 -9.33301 -41.667 -14 -63 -14c-31.333 0 -58.666 16.333 -81.999 49c-7.33301 10.667 -16 27 -26 49l-39 -2c-16 0 -29.167 6.5 -39.5 19.5s-15.5 27.167 -15.5 42.5c0 14 3.83301 25.333 11.5 34
s19.834 13 36.501 13c11.333 0 23.333 -7 36 -21c4 -4.66699 9.33301 -12 16 -22c22 0 43 6 63 18c23.333 14 35 31 35 51c0 16 -3.33301 27 -10 33s-16.667 9 -30 9c-6.66699 0 -17 -1.16699 -31 -3.5s-23 -3.5 -27 -3.5c-32 0 -59.833 12.5 -83.5 37.5
s-35.5 53.5 -35.5 85.5s11.5 58.5 34.5 79.5s50.5 31.5 82.5 31.5c39.333 0 75.5 -16.167 108.5 -48.5s56.167 -48.5 69.5 -48.5c10.667 0 26 4.33301 46 13c3.33301 1.33301 7.66602 3.33301 12.999 6v-70c-8 -3.33301 -14.333 -5.66602 -19 -6.99902
c-14.667 -4.66699 -26.667 -7 -36 -7c-24.667 0 -58 18.333 -100 55s-77 55 -105 55c-19.333 0 -34.333 -6 -45 -18s-16 -26.333 -16 -43c0 -17.333 5.66699 -32.333 17 -45s26.666 -19 45.999 -19c18.667 0 35 0.666992 49 2l31 3c14 0 30.667 -9.33301 50 -28
c22.667 -22 34 -46.333 34 -73c0 -28 -18 -58 -54 -90c-29.333 -26 -48.333 -39 -57 -39c2.66699 -5.33301 8 -12 16 -20c11.333 -11.333 21.666 -17 30.999 -17c14.667 0 30 2.5 46 7.5s25.333 8.83301 28 11.5z" />
    <glyph glyph-name="Ydieresis" unicode="&#x178;" horiz-adv-x="6" 
d="M-303 -100l-19 71c20.667 4 42.5 7.5 65.5 10.5s41.5 4.5 55.5 4.5c20.667 0 50.667 -19.667 90 -59c30 -30.667 62 -68.334 96 -113.001c29.333 -39.333 44 -60.666 44 -63.999l-33 -21c-28 45.333 -50.333 79.333 -67 102c-52 68.667 -93.333 103 -124 103
c-18 0 -40.667 -5.33301 -68 -16c-12 -4.66699 -25.333 -10.667 -40 -18z" />
    <glyph glyph-name="tilde" unicode="&#x2dc;" horiz-adv-x="332" 
d="M164 545c-16 0 -29.499 5.16699 -40.499 15.5s-16.5 22.833 -16.5 37.5c0 16 5.66699 28.5 17 37.5s24.333 13.5 39 13.5c15.333 0 28.166 -4.33301 38.499 -13s15.5 -21.334 15.5 -38.001c0 -49.333 -9.66699 -92.666 -29 -129.999c-25.333 -50 -50.333 -77 -75 -81
l-19 27c23.333 10 41.333 28.333 54 55c10.667 22.667 16 48 16 76z" />
    <glyph glyph-name="endash" unicode="&#x2013;" horiz-adv-x="494" 
d="M-83 494l2 35.002c2 1.33301 14.333 2 37 2s41.667 0.333008 57 1h66c26.667 0 50.5 -9.83301 71.5 -29.5s31.5 -43.834 31.5 -72.501c0 -32 -10.333 -61 -31 -87c-28.667 -36 -52.334 -54 -71.001 -54c5.33301 -12 11 -21 17 -27c18.667 -18.667 44.334 -28 77.001 -28
c26.667 0 57.667 10 93 30c30 16.667 45.667 27.667 47 33v232l65 -54v-418c0 -14.667 4.66699 -22 14 -22c16 0 33 12.667 51 38c2.66699 4 6.33398 10.333 11.001 19l33 -41c-8 -12.667 -14.667 -22 -20 -28c-18 -19.333 -36.667 -29 -56 -29
c-24.667 0 -47.167 10.167 -67.5 30.5s-30.5 43.5 -30.5 69.5v117c-19.333 -12.667 -37.833 -21.334 -55.5 -26.001s-38.834 -7 -63.501 -7c-57.333 0 -104 27 -140 81c-12 18 -24.333 45 -37 81c21.333 6 37.333 12 48 18c32.667 18.667 49 44.667 49 78
c0 17.333 -5.33301 31 -16 41s-24 15 -40 15z" />
    <glyph glyph-name="emdash" unicode="&#x2014;" horiz-adv-x="332" 
d="M172 510c12 0 22.667 -2.66699 32 -8c15.333 -8.66699 23 -23 23 -43c0 -16.667 -5.5 -29.5 -16.5 -38.5s-23.833 -13.5 -38.5 -13.5s-27.167 4.33301 -37.5 13s-15.5 21.667 -15.5 39c0 48.667 9.66699 92 29 130c26.667 52.667 51 79 73 79l21 -25
c-24.667 -10 -42.5 -27.167 -53.5 -51.5s-16.5 -51.5 -16.5 -81.5z" />
    <glyph glyph-name="guilsinglright" unicode="&#x203a;" horiz-adv-x="850" 
d="M59 227l30.998 10.999c0 -20.667 16.667 -55.667 50 -105c41.333 -61.333 84.666 -92 129.999 -92c34 0 59.333 9.66699 76 29s25 46 25 80c0 32.667 -6 60.334 -18 83.001c-4 7.33301 -10.333 15.666 -19 24.999c-15.333 -11.333 -30.166 -21 -44.499 -29
s-30.166 -14.667 -47.499 -20l-31 59c28 0 59 13.667 93 41c28 22.667 42 50 42 82c0 21.333 -5.66699 36.666 -17 45.999s-26.333 14 -45 14c-28.667 0 -63 -8.66699 -103 -26c-16.667 -7.33301 -25.667 -12.333 -27 -15l-35 55c4.66699 4.66699 21 12.334 49 23.001
c34.667 13.333 63.334 20 86.001 20c34.667 0 64.834 -14.5 90.501 -43.5s38.5 -62.833 38.5 -101.5c0 -11.333 -2.66699 -24.666 -8 -39.999l-20 -44l20 -2.5c8 -1 15 -1.5 21 -1.5c20.667 0 56.167 26.833 106.5 80.5s97.833 80.5 142.5 80.5c46 0 82.333 -18.333 109 -55
c24 -32.667 36 -72.334 36 -119.001c0 -47.333 -12.667 -87.333 -38 -120c-28 -36 -66.333 -54 -115 -54s-91.334 22 -128.001 66c-28 33.333 -42 57 -42 71l29 11c10.667 -20 20.667 -35 30 -45c28 -30 63 -45 105 -45c39.333 0 69.333 12.833 90 38.5s31 57.834 31 96.501
c0 72 -29.333 108 -88 108c-34 0 -66 -15 -96 -45c-67.333 -66.667 -109.666 -100 -126.999 -100c-10.667 0 -23 1 -37 3l-35 5c14 -14 26.667 -33 38 -57s17 -46.667 17 -68c0 -52 -16.333 -90.667 -49 -116c-24.667 -19.333 -54 -29 -88 -29
c-46.667 0 -91.334 25.333 -134.001 76c-62.667 74 -94 130.333 -94 169zM294.998 665.999l27.001 12c41.333 -76.667 106 -115 194 -115c45.333 0 84.833 9.5 118.5 28.5s61.167 47.833 82.5 86.5l23 -12c-16 -49.333 -44.167 -88.333 -84.5 -117s-86.833 -43 -139.5 -43
c-53.333 0 -99.333 14 -138 42s-66.334 67.333 -83.001 118zM470.999 683.999c0 14 4.5 24.833 13.5 32.5s19.833 11.5 32.5 11.5s23.5 -3.83301 32.5 -11.5s13.5 -18.5 13.5 -32.5c0 -13.333 -4.5 -23.833 -13.5 -31.5s-19.833 -11.5 -32.5 -11.5s-23.5 3.83301 -32.5 11.5
s-13.5 18.167 -13.5 31.5z" />
    <glyph glyph-name="trademark" unicode="&#x2122;" horiz-adv-x="314" 
d="M367 334l0.00195312 -45c-28.667 -7.33301 -61.334 -22 -98.001 -44l-93 -56l31 -74c1.33301 -2.66699 2 -5.16699 2 -7.5v-6.5c0 -9.33301 -2.5 -16.5 -7.5 -21.5s-12.167 -7.5 -21.5 -7.5c-12 0 -38 12.667 -78 38c-43.333 27.333 -65 48.666 -65 63.999
s26 35.666 78 60.999c26 12.667 50.667 23.834 74 33.501s69.666 26.834 138.999 51.501c10 3.33301 23 8 39 14z" />
    <glyph glyph-name=".null" horiz-adv-x="0" 
 />
    <glyph glyph-name="nonmarkingreturn" horiz-adv-x="225" 
 />
  </font>
</defs>
</svg>
